<svg width="36" height="47" viewBox="0 0 36 47" fill="none" xmlns="http://www.w3.org/2000/svg">
<path d="M18.0685 12.8889L18.0685 12.8889L18.0697 12.8865C18.0702 12.8854 18.0711 12.8845 18.0721 12.8838C18.0732 12.8832 18.0744 12.8828 18.0756 12.8828C18.0768 12.8828 18.078 12.8832 18.0791 12.8838C18.0801 12.8845 18.081 12.8854 18.0815 12.8865L18.0815 12.8865L18.0826 12.8886L19.886 16.5438C19.8862 16.5442 19.8863 16.5446 19.8865 16.545C19.9583 16.6915 20.0646 16.8183 20.1963 16.9146C20.3283 17.0112 20.4819 17.0741 20.6437 17.098L20.6448 17.0981L24.686 17.6844L24.6862 17.6844C24.687 17.6845 24.6877 17.6847 24.6883 17.6848C24.6887 17.6855 24.6893 17.6866 24.6897 17.6881C24.6901 17.6893 24.6903 17.6903 24.6904 17.691C24.6899 17.6916 24.6892 17.6924 24.6883 17.6933L24.6876 17.694L21.7676 20.5428L21.7675 20.5429C21.6505 20.6572 21.563 20.7983 21.5128 20.9539C21.4626 21.1093 21.451 21.2746 21.479 21.4354C21.479 21.4357 21.4791 21.436 21.4791 21.4364L22.1672 25.4565C22.1672 25.4566 22.1672 25.4567 22.1672 25.4568C22.1673 25.4571 22.1673 25.4575 22.1673 25.4578C22.1672 25.4586 22.1671 25.4594 22.1668 25.4601C22.1663 25.4613 22.1655 25.4622 22.1645 25.463C22.1636 25.4637 22.1624 25.4641 22.1612 25.4642C22.16 25.4643 22.1588 25.464 22.1578 25.4635C22.1577 25.4635 22.1577 25.4635 22.1576 25.4635L18.5446 23.563L18.5436 23.5625C18.3996 23.4872 18.2395 23.4479 18.077 23.4479C17.9145 23.4479 17.7545 23.4872 17.6105 23.5625L17.6095 23.563L13.999 25.4621C13.9986 25.4622 13.9982 25.4624 13.9977 25.4625C13.9972 25.4626 13.9966 25.4626 13.996 25.4626C13.9948 25.4625 13.9936 25.462 13.9926 25.4613C13.9916 25.4606 13.9909 25.4596 13.9904 25.4585C13.99 25.4575 13.9898 25.4564 13.9899 25.4554L14.6778 21.4363C14.7061 21.2764 14.6953 21.112 14.6463 20.9571C14.597 20.8014 14.5107 20.6601 14.3946 20.5452L14.3914 20.5421L11.4619 17.6951C11.4619 17.695 11.4618 17.695 11.4617 17.6949C11.461 17.6941 11.4604 17.6931 11.4602 17.692C11.4599 17.6908 11.4599 17.6895 11.4603 17.6884C11.4607 17.6872 11.4613 17.6862 11.4623 17.6854C11.4631 17.6847 11.4641 17.6842 11.4652 17.684L15.5035 17.0981L15.5046 17.098C15.6665 17.0741 15.8201 17.0112 15.9521 16.9146C16.0838 16.8183 16.1901 16.6914 16.2618 16.5449C16.262 16.5446 16.2622 16.5442 16.2624 16.5438L18.0685 12.8889Z" fill="#1C2640" stroke="#1C2640"/>
<path d="M35.3011 45.1119V45.1118V6.69184C35.3011 5.14249 34.6856 3.65659 33.59 2.56104C32.4945 1.46548 31.0086 0.85 29.4592 0.85H6.69184C5.14249 0.85 3.65659 1.46548 2.56104 2.56104C1.46548 3.65659 0.85 5.14249 0.85 6.69184L0.85 45.1118L0.85 45.1119C0.850147 45.3964 0.927465 45.6755 1.07372 45.9196C1.21997 46.1637 1.42969 46.3635 1.68052 46.4978C1.93136 46.6321 2.21392 46.6958 2.49812 46.6822C2.77995 46.6687 3.05291 46.5797 3.28844 46.4245L18.0755 38.4548L32.8626 46.4245C33.0981 46.5797 33.3711 46.6687 33.6529 46.6822C33.9371 46.6958 34.2197 46.6321 34.4705 46.4978C34.7214 46.3635 34.9311 46.1637 35.0773 45.9196C35.2236 45.6755 35.3009 45.3964 35.3011 45.1119ZM4.78554 4.78554C5.29112 4.27996 5.97684 3.99592 6.69184 3.99592H29.4592C30.1742 3.99592 30.8599 4.27996 31.3655 4.78554C31.8711 5.29112 32.1551 5.97684 32.1551 6.69184V42.2054L18.9403 35.2608C18.6836 35.0919 18.383 35.0018 18.0755 35.0018C17.7681 35.0018 17.4674 35.0919 17.2107 35.2608L3.99592 42.2054V6.69184C3.99592 5.97684 4.27995 5.29112 4.78554 4.78554Z" fill="#1C2640" stroke="#1C2640" stroke-width="0.3"/>
</svg>
