<svg width="122" height="131" viewBox="0 0 122 131" fill="none" xmlns="http://www.w3.org/2000/svg">
<path d="M31.9269 73.8C33.0043 73.8 33.9109 74.1627 34.6469 74.888C35.3829 75.6133 35.7509 76.504 35.7509 77.56C35.7509 78.616 35.3829 79.5067 34.6469 80.232C33.9109 80.9573 33.0043 81.32 31.9269 81.32H29.9589V85H27.7509V73.8H31.9269ZM31.9269 79.256C32.3963 79.256 32.7856 79.096 33.0949 78.776C33.4043 78.4453 33.5589 78.04 33.5589 77.56C33.5589 77.0693 33.4043 76.664 33.0949 76.344C32.7856 76.024 32.3963 75.864 31.9269 75.864H29.9589V79.256H31.9269ZM43.3324 85L41.0764 81.112H39.3964V85H37.1884V73.8H41.6684C42.7031 73.8 43.5831 74.1627 44.3084 74.888C45.0338 75.6133 45.3964 76.488 45.3964 77.512C45.3964 78.2053 45.1991 78.8507 44.8044 79.448C44.4098 80.0347 43.8871 80.4773 43.2364 80.776L45.7164 85H43.3324ZM39.3964 75.864V79.176H41.6684C42.0844 79.176 42.4418 79.016 42.7404 78.696C43.0391 78.3653 43.1884 77.9707 43.1884 77.512C43.1884 77.0533 43.0391 76.664 42.7404 76.344C42.4418 76.024 42.0844 75.864 41.6684 75.864H39.3964ZM49.2246 82.888H53.9446V85H47.0166V73.8H53.8646V75.912H49.2246V78.296H53.4646V80.376H49.2246V82.888ZM66.4609 73.8V85H64.2689V77.736L61.1169 82.936H60.8609L57.7089 77.752V85H55.5009V73.8H57.7729L60.9889 79.096L64.1889 73.8H66.4609ZM68.5478 73.8H70.7558V85H68.5478V73.8ZM77.0051 85.224C75.7571 85.224 74.7331 84.872 73.9331 84.168C73.1331 83.464 72.7331 82.52 72.7331 81.336V73.8H74.9251V81.16C74.9251 81.7467 75.0904 82.2107 75.4211 82.552C75.7624 82.8933 76.2904 83.064 77.0051 83.064C77.7197 83.064 78.2424 82.8933 78.5731 82.552C78.9144 82.2107 79.0851 81.7467 79.0851 81.16V73.8H81.2931V81.336C81.2931 82.52 80.8931 83.464 80.0931 84.168C79.2931 84.872 78.2637 85.224 77.0051 85.224ZM94.2422 73.8V85H92.0502V77.736L88.8982 82.936H88.6422L85.4902 77.752V85H83.2822V73.8H85.5542L88.7702 79.096L91.9702 73.8H94.2422ZM31.8389 104H29.2949L25.2949 98.752V104H23.0869V92.8H25.2949V97.744L29.1349 92.8H31.6789L27.5349 98.24L31.8389 104ZM35.6986 104L31.9386 92.8H34.3386L37.0746 101.408L39.7946 92.8H42.2106L38.4346 104H35.6986ZM49.8494 104L49.1774 101.984H44.7134L44.0414 104H41.6574L45.5774 92.8H48.3134L52.2494 104H49.8494ZM45.4174 99.92H48.4894L46.9534 95.344L45.4174 99.92ZM55.5449 101.888H59.8169V104H53.3369V92.8H55.5449V101.888ZM61.0713 92.8H63.2793V104H61.0713V92.8ZM72.7605 92.8V94.912H69.7365V104H67.5285V94.912H64.5205V92.8H72.7605ZM76.2011 101.888H80.9211V104H73.9931V92.8H80.8411V94.912H76.2011V97.296H80.4411V99.376H76.2011V101.888ZM89.8855 92.8V94.912H86.8615V104H84.6535V94.912H81.6455V92.8H89.8855ZM97.5056 104L96.8336 101.984H92.3696L91.6976 104H89.3136L93.2336 92.8H95.9696L99.9056 104H97.5056ZM93.0736 99.92H96.1456L94.6096 95.344L93.0736 99.92ZM21.7785 111.8C22.8558 111.8 23.7625 112.163 24.4985 112.888C25.2345 113.613 25.6025 114.504 25.6025 115.56C25.6025 116.616 25.2345 117.507 24.4985 118.232C23.7625 118.957 22.8558 119.32 21.7785 119.32H19.8105V123H17.6025V111.8H21.7785ZM21.7785 117.256C22.2478 117.256 22.6372 117.096 22.9465 116.776C23.2558 116.445 23.4105 116.04 23.4105 115.56C23.4105 115.069 23.2558 114.664 22.9465 114.344C22.6372 114.024 22.2478 113.864 21.7785 113.864H19.8105V117.256H21.7785ZM33.184 123L30.928 119.112H29.248V123H27.04V111.8H31.52C32.5547 111.8 33.4347 112.163 34.16 112.888C34.8853 113.613 35.248 114.488 35.248 115.512C35.248 116.205 35.0507 116.851 34.656 117.448C34.2613 118.035 33.7387 118.477 33.088 118.776L35.568 123H33.184ZM29.248 113.864V117.176H31.52C31.936 117.176 32.2933 117.016 32.592 116.696C32.8907 116.365 33.04 115.971 33.04 115.512C33.04 115.053 32.8907 114.664 32.592 114.344C32.2933 114.024 31.936 113.864 31.52 113.864H29.248ZM46.1671 121.544C45.0365 122.664 43.6605 123.224 42.0391 123.224C40.4178 123.224 39.0418 122.664 37.9111 121.544C36.7911 120.413 36.2311 119.032 36.2311 117.4C36.2311 115.768 36.7911 114.392 37.9111 113.272C39.0418 112.141 40.4178 111.576 42.0391 111.576C43.6605 111.576 45.0365 112.141 46.1671 113.272C47.2978 114.392 47.8631 115.768 47.8631 117.4C47.8631 119.032 47.2978 120.413 46.1671 121.544ZM39.4631 120.04C40.1565 120.723 41.0151 121.064 42.0391 121.064C43.0631 121.064 43.9218 120.723 44.6151 120.04C45.3085 119.347 45.6551 118.467 45.6551 117.4C45.6551 116.333 45.3085 115.453 44.6151 114.76C43.9218 114.067 43.0631 113.72 42.0391 113.72C41.0151 113.72 40.1565 114.067 39.4631 114.76C38.7698 115.453 38.4231 116.333 38.4231 117.4C38.4231 118.467 38.7698 119.347 39.4631 120.04ZM49.415 111.8H51.623V123H49.415V111.8ZM56.0483 120.888H60.8003V123H53.2323V121.24L57.8883 113.912H53.3443V111.8H60.7043V113.544L56.0483 120.888ZM65.0268 123L61.2668 111.8H63.6668L66.4028 120.408L69.1228 111.8H71.5388L67.7628 123H65.0268ZM81.5421 121.544C80.4115 122.664 79.0355 123.224 77.4141 123.224C75.7928 123.224 74.4168 122.664 73.2861 121.544C72.1661 120.413 71.6061 119.032 71.6061 117.4C71.6061 115.768 72.1661 114.392 73.2861 113.272C74.4168 112.141 75.7928 111.576 77.4141 111.576C79.0355 111.576 80.4115 112.141 81.5421 113.272C82.6728 114.392 83.2381 115.768 83.2381 117.4C83.2381 119.032 82.6728 120.413 81.5421 121.544ZM74.8381 120.04C75.5315 120.723 76.3901 121.064 77.4141 121.064C78.4381 121.064 79.2968 120.723 79.9901 120.04C80.6835 119.347 81.0301 118.467 81.0301 117.4C81.0301 116.333 80.6835 115.453 79.9901 114.76C79.2968 114.067 78.4381 113.72 77.4141 113.72C76.3901 113.72 75.5315 114.067 74.8381 114.76C74.1448 115.453 73.7981 116.333 73.7981 117.4C73.7981 118.467 74.1448 119.347 74.8381 120.04ZM89.238 111.8C90.774 111.8 92.054 112.339 93.078 113.416C94.1127 114.493 94.63 115.821 94.63 117.4C94.63 118.979 94.1127 120.307 93.078 121.384C92.054 122.461 90.774 123 89.238 123H84.79V111.8H89.238ZM89.238 120.888C90.2087 120.888 90.998 120.568 91.606 119.928C92.214 119.277 92.518 118.435 92.518 117.4C92.518 116.365 92.214 115.528 91.606 114.888C90.998 114.237 90.2087 113.912 89.238 113.912H86.998V120.888H89.238ZM102.99 123L102.318 120.984H97.854L97.182 123H94.798L98.718 111.8H101.454L105.39 123H102.99ZM98.558 118.92H101.63L100.094 114.344L98.558 118.92Z" fill="#1C2640"/>
<path d="M61.0695 12.8889L61.0695 12.8889L59.2634 16.5438C59.2632 16.5442 59.263 16.5446 59.2628 16.5449C59.191 16.6914 59.0848 16.8183 58.9531 16.9146L61.0695 12.8889ZM61.0695 12.8889L61.0707 12.8865M61.0695 12.8889L61.0707 12.8865M61.0707 12.8865C61.0712 12.8854 61.0721 12.8845 61.0731 12.8838C61.0741 12.8832 61.0753 12.8828 61.0766 12.8828C61.0778 12.8828 61.079 12.8832 61.0801 12.8838C61.0811 12.8845 61.082 12.8854 61.0825 12.8865L61.0825 12.8865M61.0707 12.8865L61.0825 12.8865M61.0825 12.8865L61.0835 12.8886M61.0825 12.8865L61.0835 12.8886M61.0835 12.8886L62.8869 16.5438C62.8871 16.5441 62.8873 16.5445 62.8875 16.5449C62.9592 16.6914 63.0655 16.8183 63.1973 16.9146C63.3293 17.0112 63.4829 17.0741 63.6447 17.098L63.6458 17.0981M61.0835 12.8886L63.6458 17.0981M63.6458 17.0981L67.687 17.6844L67.6871 17.6844M63.6458 17.0981L67.6871 17.6844M67.6871 17.6844C67.688 17.6845 67.6887 17.6847 67.6893 17.6848C67.6897 17.6855 67.6902 17.6866 67.6907 17.6881C67.6911 17.6893 67.6913 17.6903 67.6914 17.691C67.6909 17.6916 67.6902 17.6924 67.6893 17.6933L67.6885 17.694M67.6871 17.6844L67.6885 17.694M67.6885 17.694L64.7686 20.5428L64.7685 20.5429M67.6885 17.694L64.7685 20.5429M64.7685 20.5429C64.6515 20.6572 64.564 20.7982 64.5138 20.9539L64.9896 21.1075M64.7685 20.5429L64.9896 21.1075M64.9896 21.1075L64.5138 20.9539C64.4636 21.1094 64.452 21.2746 64.48 21.4355C64.48 21.4358 64.4801 21.4361 64.4801 21.4364L65.1681 25.4565C65.1682 25.4566 65.1682 25.4567 65.1682 25.4568C65.1683 25.4574 65.1683 25.458 65.1682 25.4586C65.1681 25.4591 65.168 25.4596 65.1677 25.4601C65.1673 25.4613 65.1665 25.4622 65.1655 25.463L65.459 25.8678L65.1655 25.463C65.1645 25.4637 65.1634 25.4641 65.1621 25.4642C65.161 25.4643 65.1598 25.464 65.1587 25.4635C65.1587 25.4635 65.1587 25.4635 65.1586 25.4635L61.5456 23.563L61.5445 23.5625M64.9896 21.1075L61.5445 23.5625M61.5445 23.5625C61.4006 23.4872 61.2405 23.4479 61.078 23.4479C60.9155 23.4479 60.7554 23.4872 60.6115 23.5625L60.6105 23.563M61.5445 23.5625L60.6105 23.563M60.6105 23.563L57 25.4621C56.999 25.4625 56.998 25.4627 56.9969 25.4626C56.9957 25.4625 56.9946 25.462 56.9936 25.4613L56.6994 25.8656L56.9936 25.4613C56.9926 25.4606 56.9918 25.4596 56.9914 25.4585C56.991 25.4575 56.9908 25.4564 56.9909 25.4554L57.6788 21.4363C57.7071 21.2764 57.6963 21.112 57.6473 20.9571C57.598 20.8014 57.5116 20.6601 57.3956 20.5452L57.3924 20.5421M60.6105 23.563L57.3924 20.5421M57.3924 20.5421L54.4629 17.6951C54.4628 17.695 54.4628 17.695 54.4627 17.6949C54.4619 17.6941 54.4614 17.6931 54.4611 17.692C54.4608 17.6908 54.4609 17.6895 54.4613 17.6884C54.4616 17.6872 54.4623 17.6862 54.4633 17.6854C54.4641 17.6847 54.4651 17.6842 54.4662 17.684L58.5045 17.0981L58.5056 17.098M57.3924 20.5421L58.5056 17.098M58.5056 17.098C58.6674 17.0741 58.821 17.0112 58.9531 16.9146L58.5056 17.098Z" fill="#1C2640" stroke="#1C2640"/>
<path d="M78.3011 45.1119V45.1118V6.69184C78.3011 5.14249 77.6856 3.65659 76.59 2.56104C75.4945 1.46548 74.0086 0.85 72.4592 0.85H49.6918C48.1425 0.85 46.6566 1.46548 45.561 2.56104C44.4655 3.65659 43.85 5.14249 43.85 6.69184L43.85 45.1118L43.85 45.1119C43.8501 45.3964 43.9275 45.6755 44.0737 45.9196L44.2022 45.8426L44.0737 45.9196C44.22 46.1637 44.4297 46.3635 44.6805 46.4978C44.9314 46.6321 45.2139 46.6958 45.4981 46.6822C45.7799 46.6687 46.0529 46.5797 46.2884 46.4245L61.0755 38.4548L75.8626 46.4245C76.0981 46.5797 76.3711 46.6687 76.6529 46.6822C76.9371 46.6958 77.2197 46.6321 77.4705 46.4978C77.7214 46.3635 77.9311 46.1637 78.0773 45.9196C78.2236 45.6755 78.3009 45.3964 78.3011 45.1119ZM47.7855 4.78554C48.2911 4.27996 48.9768 3.99592 49.6918 3.99592H72.4592C73.1742 3.99592 73.8599 4.27996 74.3655 4.78554C74.8711 5.29112 75.1551 5.97684 75.1551 6.69184V42.2054L61.9403 35.2608C61.6836 35.0919 61.383 35.0018 61.0755 35.0018C60.7681 35.0018 60.4675 35.0919 60.2107 35.2608L46.9959 42.2054V6.69184C46.9959 5.97684 47.28 5.29112 47.7855 4.78554Z" fill="#1C2640" stroke="#1C2640" stroke-width="0.3"/>
</svg>
