<svg width="46" height="46" viewBox="0 0 46 46" fill="none" xmlns="http://www.w3.org/2000/svg">
<path d="M21.3891 1.69009H21.3571C21.3511 1.69009 21.3454 1.69 21.3401 1.68985C14.9414 2.47617 9.80954 7.93803 8.91541 14.7127L21.3891 1.69009ZM21.3891 1.69009L21.4209 1.68601M21.3891 1.69009L21.4209 1.68601M21.4209 1.68601C21.9505 1.61796 22.4795 1.58609 23.0056 1.57935M21.4209 1.68601L23.0056 1.57935M23.0056 1.57935C30.8052 1.50321 37.2857 8.29995 37.2857 16.5955C37.2857 21.1216 35.3002 25.074 32.6552 27.8654C30.5516 29.924 29.2259 32.6 29.2259 35.2961V36.8511H29.0714V37.3511V43.7702H25.8257H25.531L25.3883 44.028C24.894 44.9208 24.008 45.5 23 45.5C21.992 45.5 21.106 44.9208 20.6117 44.028L20.469 43.7702H20.1743H16.9286V33.8916V33.8479L16.921 33.8049C16.5428 31.6557 15.474 29.7038 13.8878 28.2784L13.887 28.2777C10.3352 25.099 8.20207 20.1627 8.91535 14.7132L23.0056 1.57935ZM6.28381 2.43223L7.90599 0.726647L10.656 3.62216L9.03563 5.32826L6.28381 2.43223ZM35.3426 3.62212L38.0937 0.726827L39.7148 2.43372L36.9642 5.3284L35.3426 3.62212ZM22.9926 4.03899L22.873 4.04075L22.8657 4.04459C22.4589 4.05964 22.0532 4.09669 21.65 4.1556C16.2587 4.78821 11.9016 9.36578 11.1571 15.0166L11.157 15.017C10.5558 19.6067 12.357 23.6757 15.373 26.3721C17.5452 28.3318 18.7115 31.0793 19.0619 33.9538L19.1155 34.3933H19.5582H26.7441H27.1842L27.24 33.9567C27.6243 30.9536 28.9919 28.1905 31.1009 26.1428L31.4557 25.7983L31.3846 25.7235C33.4952 23.3593 35 20.188 35 16.5955C35 9.67145 29.6522 3.94103 22.9926 4.03899ZM19.7143 36.8528H19.2143V37.3528V40.8124V41.3124H19.7143H26.2857H26.7857V40.8124V37.3528V36.8528H26.2857H19.7143ZM4.42857 19.5551H0.5V17.0955H4.42857V19.5551ZM45.5 19.5551H41.5714V17.0955H45.5V19.5551ZM7.9069 35.9243L6.28522 34.2168L9.0355 31.3224L10.6546 33.0284L7.9069 35.9243ZM35.3439 33.0285L36.9644 31.3223L39.7148 34.2168L38.093 35.9244L35.3439 33.0285Z" fill="#1C2640" stroke="#1C2640"/>
</svg>
