<svg width="122" height="130" viewBox="0 0 122 130" fill="none" xmlns="http://www.w3.org/2000/svg">
<path d="M20.8681 72.8H23.0761V84H20.8681V72.8ZM31.6294 72.8H33.8374V84H32.1574L27.3574 77.152V84H25.1494V72.8H26.8294L31.6294 79.632V72.8ZM45.339 82.544C44.2083 83.664 42.8323 84.224 41.211 84.224C39.5897 84.224 38.2137 83.664 37.083 82.544C35.963 81.4133 35.403 80.032 35.403 78.4C35.403 76.768 35.963 75.392 37.083 74.272C38.2137 73.1413 39.5897 72.576 41.211 72.576C42.8323 72.576 44.2083 73.1413 45.339 74.272C46.4697 75.392 47.035 76.768 47.035 78.4C47.035 80.032 46.4697 81.4133 45.339 82.544ZM38.635 81.04C39.3283 81.7227 40.187 82.064 41.211 82.064C42.235 82.064 43.0937 81.7227 43.787 81.04C44.4803 80.3467 44.827 79.4667 44.827 78.4C44.827 77.3333 44.4803 76.4533 43.787 75.76C43.0937 75.0667 42.235 74.72 41.211 74.72C40.187 74.72 39.3283 75.0667 38.635 75.76C37.9417 76.4533 37.595 77.3333 37.595 78.4C37.595 79.4667 37.9417 80.3467 38.635 81.04ZM50.8549 84L47.0949 72.8H49.4949L52.2309 81.408L54.9509 72.8H57.3669L53.5909 84H50.8549ZM65.0056 84L64.3336 81.984H59.8696L59.1976 84H56.8136L60.7336 72.8H63.4696L67.4056 84H65.0056ZM60.5736 79.92H63.6456L62.1096 75.344L60.5736 79.92ZM73.3989 84.224C71.7135 84.224 70.3215 83.664 69.2229 82.544C68.1242 81.424 67.5749 80.0427 67.5749 78.4C67.5749 76.7467 68.1242 75.3653 69.2229 74.256C70.3215 73.136 71.7135 72.576 73.3989 72.576C74.4122 72.576 75.3455 72.816 76.1989 73.296C77.0629 73.7653 77.7349 74.4053 78.2149 75.216L76.3109 76.32C76.0335 75.8187 75.6389 75.4293 75.1269 75.152C74.6149 74.864 74.0389 74.72 73.3989 74.72C72.3109 74.72 71.4309 75.0613 70.7589 75.744C70.0975 76.4267 69.7669 77.312 69.7669 78.4C69.7669 79.4773 70.0975 80.3573 70.7589 81.04C71.4309 81.7227 72.3109 82.064 73.3989 82.064C74.0389 82.064 74.6149 81.9253 75.1269 81.648C75.6495 81.36 76.0442 80.9707 76.3109 80.48L78.2149 81.584C77.7349 82.3947 77.0682 83.04 76.2149 83.52C75.3615 83.9893 74.4229 84.224 73.3989 84.224ZM79.5713 72.8H81.7793V84H79.5713V72.8ZM86.9115 84.224C85.1515 84.224 83.9195 83.5147 83.2155 82.096L85.1195 81.008C85.4715 81.712 86.0688 82.064 86.9115 82.064C87.4982 82.064 87.9355 81.9253 88.2235 81.648C88.5115 81.3707 88.6555 80.992 88.6555 80.512V72.8H90.8475V80.512C90.8475 81.6853 90.4795 82.5973 89.7435 83.248C89.0075 83.8987 88.0635 84.224 86.9115 84.224ZM99.7244 84L99.0524 81.984H94.5884L93.9164 84H91.5324L95.4524 72.8H98.1884L102.124 84H99.7244ZM95.2924 79.92H98.3644L96.8284 75.344L95.2924 79.92ZM44.4106 91.8H46.6186V103H44.9386L40.1386 96.152V103H37.9306V91.8H39.6106L44.4106 98.632V91.8ZM58.1203 101.544C56.9896 102.664 55.6136 103.224 53.9923 103.224C52.3709 103.224 50.9949 102.664 49.8643 101.544C48.7443 100.413 48.1842 99.032 48.1842 97.4C48.1842 95.768 48.7443 94.392 49.8643 93.272C50.9949 92.1413 52.3709 91.576 53.9923 91.576C55.6136 91.576 56.9896 92.1413 58.1203 93.272C59.2509 94.392 59.8163 95.768 59.8163 97.4C59.8163 99.032 59.2509 100.413 58.1203 101.544ZM51.4163 100.04C52.1096 100.723 52.9683 101.064 53.9923 101.064C55.0163 101.064 55.8749 100.723 56.5683 100.04C57.2616 99.3467 57.6083 98.4667 57.6083 97.4C57.6083 96.3333 57.2616 95.4533 56.5683 94.76C55.8749 94.0667 55.0163 93.72 53.9923 93.72C52.9683 93.72 52.1096 94.0667 51.4163 94.76C50.7229 95.4533 50.3763 96.3333 50.3763 97.4C50.3763 98.4667 50.7229 99.3467 51.4163 100.04ZM63.6361 103L59.8761 91.8H62.2761L65.0121 100.408L67.7321 91.8H70.1481L66.3721 103H63.6361ZM71.2275 91.8H73.4355V103H71.2275V91.8ZM81.8768 91.8H84.0688V103H81.8768V98.36H77.7168V103H75.5088V91.8H77.7168V96.248H81.8768V91.8ZM21.7785 110.8C22.8558 110.8 23.7625 111.163 24.4985 111.888C25.2345 112.613 25.6025 113.504 25.6025 114.56C25.6025 115.616 25.2345 116.507 24.4985 117.232C23.7625 117.957 22.8558 118.32 21.7785 118.32H19.8105V122H17.6025V110.8H21.7785ZM21.7785 116.256C22.2478 116.256 22.6372 116.096 22.9465 115.776C23.2558 115.445 23.4105 115.04 23.4105 114.56C23.4105 114.069 23.2558 113.664 22.9465 113.344C22.6372 113.024 22.2478 112.864 21.7785 112.864H19.8105V116.256H21.7785ZM33.184 122L30.928 118.112H29.248V122H27.04V110.8H31.52C32.5547 110.8 33.4347 111.163 34.16 111.888C34.8853 112.613 35.248 113.488 35.248 114.512C35.248 115.205 35.0507 115.851 34.656 116.448C34.2613 117.035 33.7387 117.477 33.088 117.776L35.568 122H33.184ZM29.248 112.864V116.176H31.52C31.936 116.176 32.2933 116.016 32.592 115.696C32.8907 115.365 33.04 114.971 33.04 114.512C33.04 114.053 32.8907 113.664 32.592 113.344C32.2933 113.024 31.936 112.864 31.52 112.864H29.248ZM46.1671 120.544C45.0365 121.664 43.6605 122.224 42.0391 122.224C40.4178 122.224 39.0418 121.664 37.9111 120.544C36.7911 119.413 36.2311 118.032 36.2311 116.4C36.2311 114.768 36.7911 113.392 37.9111 112.272C39.0418 111.141 40.4178 110.576 42.0391 110.576C43.6605 110.576 45.0365 111.141 46.1671 112.272C47.2978 113.392 47.8631 114.768 47.8631 116.4C47.8631 118.032 47.2978 119.413 46.1671 120.544ZM39.4631 119.04C40.1565 119.723 41.0151 120.064 42.0391 120.064C43.0631 120.064 43.9218 119.723 44.6151 119.04C45.3085 118.347 45.6551 117.467 45.6551 116.4C45.6551 115.333 45.3085 114.453 44.6151 113.76C43.9218 113.067 43.0631 112.72 42.0391 112.72C41.0151 112.72 40.1565 113.067 39.4631 113.76C38.7698 114.453 38.4231 115.333 38.4231 116.4C38.4231 117.467 38.7698 118.347 39.4631 119.04ZM49.415 110.8H51.623V122H49.415V110.8ZM56.0483 119.888H60.8003V122H53.2323V120.24L57.8883 112.912H53.3443V110.8H60.7043V112.544L56.0483 119.888ZM65.0268 122L61.2668 110.8H63.6668L66.4028 119.408L69.1228 110.8H71.5388L67.7628 122H65.0268ZM81.5421 120.544C80.4115 121.664 79.0355 122.224 77.4141 122.224C75.7928 122.224 74.4168 121.664 73.2861 120.544C72.1661 119.413 71.6061 118.032 71.6061 116.4C71.6061 114.768 72.1661 113.392 73.2861 112.272C74.4168 111.141 75.7928 110.576 77.4141 110.576C79.0355 110.576 80.4115 111.141 81.5421 112.272C82.6728 113.392 83.2381 114.768 83.2381 116.4C83.2381 118.032 82.6728 119.413 81.5421 120.544ZM74.8381 119.04C75.5315 119.723 76.3901 120.064 77.4141 120.064C78.4381 120.064 79.2968 119.723 79.9901 119.04C80.6835 118.347 81.0301 117.467 81.0301 116.4C81.0301 115.333 80.6835 114.453 79.9901 113.76C79.2968 113.067 78.4381 112.72 77.4141 112.72C76.3901 112.72 75.5315 113.067 74.8381 113.76C74.1448 114.453 73.7981 115.333 73.7981 116.4C73.7981 117.467 74.1448 118.347 74.8381 119.04ZM89.238 110.8C90.774 110.8 92.054 111.339 93.078 112.416C94.1127 113.493 94.63 114.821 94.63 116.4C94.63 117.979 94.1127 119.307 93.078 120.384C92.054 121.461 90.774 122 89.238 122H84.79V110.8H89.238ZM89.238 119.888C90.2087 119.888 90.998 119.568 91.606 118.928C92.214 118.277 92.518 117.435 92.518 116.4C92.518 115.365 92.214 114.528 91.606 113.888C90.998 113.237 90.2087 112.912 89.238 112.912H86.998V119.888H89.238ZM102.99 122L102.318 119.984H97.854L97.182 122H94.798L98.718 110.8H101.454L105.39 122H102.99ZM98.558 117.92H101.63L100.094 113.344L98.558 117.92Z" fill="#1C2640"/>
<path d="M40.2838 2.43223L41.906 0.726647L44.656 3.62216L43.0356 5.32826L40.2838 2.43223ZM69.3425 3.62212L72.0937 0.726827L73.7148 2.43372L70.9642 5.3284L69.3425 3.62212ZM55.3571 1.69009H55.3891L55.4209 1.68601C55.9505 1.61796 56.4795 1.58609 57.0056 1.57935C64.8052 1.50321 71.2857 8.29995 71.2857 16.5955C71.2857 21.1216 69.3003 25.0739 66.6552 27.8653C64.5517 29.9239 63.2259 32.6 63.2259 35.2961V36.8511H63.0714V37.3511V43.7702H59.8257H59.531L59.3883 44.028C58.894 44.9208 58.0081 45.5 57 45.5C55.992 45.5 55.106 44.9208 54.6117 44.028L54.469 43.7702H54.1743H50.9286V33.8916V33.8479L50.921 33.8049C50.5428 31.6557 49.474 29.7038 47.8878 28.2784L47.887 28.2777C44.3351 25.099 42.202 20.1626 42.9154 14.713C43.8093 7.93823 48.9413 2.47618 55.3401 1.68985C55.3454 1.69 55.3511 1.69009 55.3571 1.69009ZM56.9926 4.03899L56.873 4.04075L56.8657 4.04459C56.4589 4.05964 56.0531 4.09669 55.65 4.1556C50.2587 4.78822 45.9016 9.36579 45.1571 15.0166L45.157 15.017C44.5558 19.6067 46.357 23.6757 49.373 26.3721C51.5452 28.3318 52.7115 31.0793 53.0619 33.9538L53.1155 34.3933H53.5582H60.7441H61.1842L61.24 33.9567C61.6243 30.9536 62.9919 28.1905 65.1009 26.1428L65.4557 25.7983L65.3847 25.7235C67.4952 23.3593 69 20.188 69 16.5955C69 9.67145 63.6522 3.94103 56.9926 4.03899ZM53.7143 36.8528H53.2143V37.3528V40.8124V41.3124H53.7143H60.2857H60.7857V40.8124V37.3528V36.8528H60.2857H53.7143ZM38.4286 19.5551H34.5V17.0955H38.4286V19.5551ZM79.5 19.5551H75.5714V17.0955H79.5V19.5551ZM41.9069 35.9243L40.2852 34.2168L43.0355 31.3224L44.6546 33.0284L41.9069 35.9243ZM72.093 35.9244L69.3439 33.0285L70.9644 31.3223L73.7148 34.2168L72.093 35.9244Z" fill="#1C2640" stroke="#1C2640"/>
</svg>
