<svg width="134" height="131" viewBox="0 0 134 131" fill="none" xmlns="http://www.w3.org/2000/svg">
<path d="M7.38325 85.224C5.69792 85.224 4.30592 84.664 3.20725 83.544C2.10858 82.424 1.55925 81.0427 1.55925 79.4C1.55925 77.7467 2.10858 76.3653 3.20725 75.256C4.30592 74.136 5.69792 73.576 7.38325 73.576C8.39658 73.576 9.32992 73.816 10.1833 74.296C11.0473 74.7653 11.7193 75.4053 12.1993 76.216L10.2953 77.32C10.0179 76.8187 9.62325 76.4293 9.11125 76.152C8.59925 75.864 8.02325 75.72 7.38325 75.72C6.29525 75.72 5.41525 76.0613 4.74325 76.744C4.08192 77.4267 3.75125 78.312 3.75125 79.4C3.75125 80.4773 4.08192 81.3573 4.74325 82.04C5.41525 82.7227 6.29525 83.064 7.38325 83.064C8.02325 83.064 8.59925 82.9253 9.11125 82.648C9.63392 82.36 10.0286 81.9707 10.2953 81.48L12.1993 82.584C11.7193 83.3947 11.0526 84.04 10.1993 84.52C9.34592 84.9893 8.40725 85.224 7.38325 85.224ZM15.7636 82.888H20.4836V85H13.5556V73.8H20.4036V75.912H15.7636V78.296H20.0036V80.376H15.7636V82.888ZM28.184 85L25.928 81.112H24.248V85H22.04V73.8H26.52C27.5547 73.8 28.4347 74.1627 29.16 74.888C29.8853 75.6133 30.248 76.488 30.248 77.512C30.248 78.2053 30.0507 78.8507 29.656 79.448C29.2613 80.0347 28.7387 80.4773 28.088 80.776L30.568 85H28.184ZM24.248 75.864V79.176H26.52C26.936 79.176 27.2933 79.016 27.592 78.696C27.8907 78.3653 28.04 77.9707 28.04 77.512C28.04 77.0533 27.8907 76.664 27.592 76.344C27.2933 76.024 26.936 75.864 26.52 75.864H24.248ZM39.0417 73.8V75.912H36.0178V85H33.8098V75.912H30.8018V73.8H39.0417ZM40.2744 73.8H42.4824V85H40.2744V73.8ZM51.2436 75.912H46.7636V78.568H51.1156V80.68H46.7636V85H44.5556V73.8H51.2436V75.912ZM52.8525 73.8H55.0605V85H52.8525V73.8ZM62.4458 85.224C60.7604 85.224 59.3684 84.664 58.2698 83.544C57.1711 82.424 56.6217 81.0427 56.6217 79.4C56.6217 77.7467 57.1711 76.3653 58.2698 75.256C59.3684 74.136 60.7604 73.576 62.4458 73.576C63.4591 73.576 64.3924 73.816 65.2458 74.296C66.1098 74.7653 66.7818 75.4053 67.2618 76.216L65.3578 77.32C65.0804 76.8187 64.6858 76.4293 64.1737 76.152C63.6618 75.864 63.0858 75.72 62.4458 75.72C61.3578 75.72 60.4778 76.0613 59.8058 76.744C59.1444 77.4267 58.8138 78.312 58.8138 79.4C58.8138 80.4773 59.1444 81.3573 59.8058 82.04C60.4778 82.7227 61.3578 83.064 62.4458 83.064C63.0858 83.064 63.6618 82.9253 64.1737 82.648C64.6964 82.36 65.0911 81.9707 65.3578 81.48L67.2618 82.584C66.7818 83.3947 66.1151 84.04 65.2618 84.52C64.4084 84.9893 63.4698 85.224 62.4458 85.224ZM68.6181 73.8H70.8261V85H68.6181V73.8ZM79.0434 85L76.7874 81.112H75.1074V85H72.8994V73.8H77.3794C78.414 73.8 79.294 74.1627 80.0194 74.888C80.7447 75.6133 81.1074 76.488 81.1074 77.512C81.1074 78.2053 80.91 78.8507 80.5154 79.448C80.1207 80.0347 79.598 80.4773 78.9474 80.776L81.4274 85H79.0434ZM75.1074 75.864V79.176H77.3794C77.7954 79.176 78.1527 79.016 78.4514 78.696C78.75 78.3653 78.8994 77.9707 78.8994 77.512C78.8994 77.0533 78.75 76.664 78.4514 76.344C78.1527 76.024 77.7954 75.864 77.3794 75.864H75.1074ZM89.9275 85L89.2555 82.984H84.7915L84.1195 85H81.7355L85.6555 73.8H88.3915L92.3275 85H89.9275ZM85.4955 80.92H88.5675L87.0315 76.344L85.4955 80.92ZM99.895 73.8H102.103V85H100.423L95.623 78.152V85H93.415V73.8H95.095L99.895 80.632V73.8ZM113.605 83.544C112.474 84.664 111.098 85.224 109.477 85.224C107.855 85.224 106.479 84.664 105.349 83.544C104.229 82.4133 103.669 81.032 103.669 79.4C103.669 77.768 104.229 76.392 105.349 75.272C106.479 74.1413 107.855 73.576 109.477 73.576C111.098 73.576 112.474 74.1413 113.605 75.272C114.735 76.392 115.301 77.768 115.301 79.4C115.301 81.032 114.735 82.4133 113.605 83.544ZM106.901 82.04C107.594 82.7227 108.453 83.064 109.477 83.064C110.501 83.064 111.359 82.7227 112.053 82.04C112.746 81.3467 113.093 80.4667 113.093 79.4C113.093 78.3333 112.746 77.4533 112.053 76.76C111.359 76.0667 110.501 75.72 109.477 75.72C108.453 75.72 107.594 76.0667 106.901 76.76C106.207 77.4533 105.861 78.3333 105.861 79.4C105.861 80.4667 106.207 81.3467 106.901 82.04ZM120.27 85.224C119.161 85.224 118.228 84.9787 117.47 84.488C116.713 83.9867 116.18 83.3093 115.87 82.456L117.758 81.352C118.196 82.4933 119.054 83.064 120.334 83.064C120.953 83.064 121.406 82.952 121.694 82.728C121.982 82.504 122.126 82.2213 122.126 81.88C122.126 81.4853 121.95 81.1813 121.598 80.968C121.246 80.744 120.617 80.504 119.71 80.248C119.209 80.0987 118.782 79.9493 118.43 79.8C118.089 79.6507 117.742 79.4533 117.39 79.208C117.049 78.952 116.788 78.632 116.606 78.248C116.425 77.864 116.334 77.416 116.334 76.904C116.334 75.8907 116.692 75.0853 117.406 74.488C118.132 73.88 119.001 73.576 120.014 73.576C120.921 73.576 121.716 73.8 122.398 74.248C123.092 74.6853 123.63 75.2987 124.014 76.088L122.158 77.16C121.71 76.2 120.996 75.72 120.014 75.72C119.556 75.72 119.193 75.8267 118.926 76.04C118.67 76.2427 118.542 76.5093 118.542 76.84C118.542 77.192 118.686 77.48 118.974 77.704C119.273 77.9173 119.838 78.152 120.67 78.408C121.012 78.5147 121.268 78.6 121.438 78.664C121.62 78.7173 121.86 78.808 122.158 78.936C122.468 79.0533 122.702 79.1653 122.862 79.272C123.033 79.3787 123.225 79.5227 123.438 79.704C123.652 79.8853 123.812 80.072 123.918 80.264C124.036 80.456 124.132 80.6907 124.206 80.968C124.292 81.2347 124.334 81.528 124.334 81.848C124.334 82.8827 123.956 83.704 123.198 84.312C122.452 84.92 121.476 85.224 120.27 85.224ZM132.776 73.8V75.912H129.752V85H127.544V75.912H124.536V73.8H132.776ZM36.4035 92.8C37.4808 92.8 38.3875 93.1627 39.1235 93.888C39.8595 94.6133 40.2275 95.504 40.2275 96.56C40.2275 97.616 39.8595 98.5067 39.1235 99.232C38.3875 99.9573 37.4808 100.32 36.4035 100.32H34.4355V104H32.2275V92.8H36.4035ZM36.4035 98.256C36.8728 98.256 37.2622 98.096 37.5715 97.776C37.8808 97.4453 38.0355 97.04 38.0355 96.56C38.0355 96.0693 37.8808 95.664 37.5715 95.344C37.2622 95.024 36.8728 94.864 36.4035 94.864H34.4355V98.256H36.4035ZM47.809 104L45.553 100.112H43.873V104H41.665V92.8H46.145C47.1797 92.8 48.0597 93.1627 48.785 93.888C49.5103 94.6133 49.873 95.488 49.873 96.512C49.873 97.2053 49.6757 97.8507 49.281 98.448C48.8863 99.0347 48.3637 99.4773 47.713 99.776L50.193 104H47.809ZM43.873 94.864V98.176H46.145C46.561 98.176 46.9183 98.016 47.217 97.696C47.5157 97.3653 47.665 96.9707 47.665 96.512C47.665 96.0533 47.5157 95.664 47.217 95.344C46.9183 95.024 46.561 94.864 46.145 94.864H43.873ZM60.7921 102.544C59.6615 103.664 58.2855 104.224 56.6641 104.224C55.0428 104.224 53.6668 103.664 52.5361 102.544C51.4161 101.413 50.8561 100.032 50.8561 98.4C50.8561 96.768 51.4161 95.392 52.5361 94.272C53.6668 93.1413 55.0428 92.576 56.6641 92.576C58.2855 92.576 59.6615 93.1413 60.7921 94.272C61.9228 95.392 62.4881 96.768 62.4881 98.4C62.4881 100.032 61.9228 101.413 60.7921 102.544ZM54.0881 101.04C54.7815 101.723 55.6401 102.064 56.6641 102.064C57.6881 102.064 58.5468 101.723 59.2401 101.04C59.9335 100.347 60.2801 99.4667 60.2801 98.4C60.2801 97.3333 59.9335 96.4533 59.2401 95.76C58.5468 95.0667 57.6881 94.72 56.6641 94.72C55.6401 94.72 54.7815 95.0667 54.0881 95.76C53.3948 96.4533 53.0481 97.3333 53.0481 98.4C53.0481 99.4667 53.3948 100.347 54.0881 101.04ZM69.352 104.224C67.6667 104.224 66.2747 103.664 65.176 102.544C64.0773 101.424 63.528 100.043 63.528 98.4C63.528 96.7467 64.0773 95.3653 65.176 94.256C66.2747 93.136 67.6667 92.576 69.352 92.576C70.3653 92.576 71.2987 92.816 72.152 93.296C73.016 93.7653 73.688 94.4053 74.168 95.216L72.264 96.32C71.9867 95.8187 71.592 95.4293 71.08 95.152C70.568 94.864 69.992 94.72 69.352 94.72C68.264 94.72 67.384 95.0613 66.712 95.744C66.0507 96.4267 65.72 97.312 65.72 98.4C65.72 99.4773 66.0507 100.357 66.712 101.04C67.384 101.723 68.264 102.064 69.352 102.064C69.992 102.064 70.568 101.925 71.08 101.648C71.6027 101.36 71.9973 100.971 72.264 100.48L74.168 101.584C73.688 102.395 73.0213 103.04 72.168 103.52C71.3147 103.989 70.376 104.224 69.352 104.224ZM77.7324 101.888H82.4524V104H75.5244V92.8H82.3724V94.912H77.7324V97.296H81.9724V99.376H77.7324V101.888ZM87.8328 104.224C86.7234 104.224 85.7901 103.979 85.0328 103.488C84.2754 102.987 83.7421 102.309 83.4328 101.456L85.3207 100.352C85.7581 101.493 86.6168 102.064 87.8968 102.064C88.5154 102.064 88.9688 101.952 89.2568 101.728C89.5448 101.504 89.6888 101.221 89.6888 100.88C89.6888 100.485 89.5128 100.181 89.1608 99.968C88.8088 99.744 88.1794 99.504 87.2728 99.248C86.7714 99.0987 86.3448 98.9493 85.9928 98.8C85.6514 98.6507 85.3048 98.4533 84.9528 98.208C84.6114 97.952 84.3501 97.632 84.1688 97.248C83.9874 96.864 83.8968 96.416 83.8968 95.904C83.8968 94.8907 84.2541 94.0853 84.9688 93.488C85.6941 92.88 86.5634 92.576 87.5768 92.576C88.4834 92.576 89.2781 92.8 89.9608 93.248C90.6541 93.6853 91.1928 94.2987 91.5768 95.088L89.7208 96.16C89.2728 95.2 88.5581 94.72 87.5768 94.72C87.1181 94.72 86.7554 94.8267 86.4888 95.04C86.2328 95.2427 86.1048 95.5093 86.1048 95.84C86.1048 96.192 86.2488 96.48 86.5368 96.704C86.8354 96.9173 87.4008 97.152 88.2328 97.408C88.5741 97.5147 88.8301 97.6 89.0008 97.664C89.1821 97.7173 89.4221 97.808 89.7208 97.936C90.0301 98.0533 90.2648 98.1653 90.4248 98.272C90.5954 98.3787 90.7874 98.5227 91.0008 98.704C91.2141 98.8853 91.3741 99.072 91.4808 99.264C91.5981 99.456 91.6941 99.6907 91.7688 99.968C91.8541 100.235 91.8968 100.528 91.8968 100.848C91.8968 101.883 91.5181 102.704 90.7608 103.312C90.0141 103.92 89.0381 104.224 87.8328 104.224ZM100.365 104L99.693 101.984H95.229L94.557 104H92.173L96.093 92.8H98.829L102.765 104H100.365ZM95.933 99.92H99.005L97.469 95.344L95.933 99.92Z" fill="#1C2640"/>
<path d="M79.75 28.1562L82.9168 34.2893L89.6875 35.2732L84.7188 39.75L85.9957 46.375L79.75 42.6484L73.5043 46.375L74.7812 39.75L69.8125 35.2732L76.7688 34.2893L79.75 28.1562ZM49.9375 26.5H59.875V29.8125H49.9375V26.5ZM49.9375 19.875H66.5V23.1875H49.9375V19.875ZM49.9375 13.25H66.5V16.5625H49.9375V13.25Z" fill="#1C2640"/>
<path d="M66.5 43.0625H46.625V9.9375H86.375V26.5H89.6875V9.9375C89.6875 9.05897 89.3385 8.21642 88.7173 7.59521C88.0961 6.97399 87.2535 6.625 86.375 6.625H46.625C45.7465 6.625 44.9039 6.97399 44.2827 7.59521C43.6615 8.21642 43.3125 9.05897 43.3125 9.9375V43.0625C43.3125 43.941 43.6615 44.7836 44.2827 45.4048C44.9039 46.026 45.7465 46.375 46.625 46.375H66.5V43.0625Z" fill="#1C2640"/>
</svg>
