<svg width="53" height="53" viewBox="0 0 53 53" fill="none" xmlns="http://www.w3.org/2000/svg">
<path d="M39.75 28.1562L42.9168 34.2893L49.6875 35.2732L44.7188 39.75L45.9957 46.375L39.75 42.6484L33.5043 46.375L34.7812 39.75L29.8125 35.2732L36.7688 34.2893L39.75 28.1562ZM9.9375 26.5H19.875V29.8125H9.9375V26.5ZM9.9375 19.875H26.5V23.1875H9.9375V19.875ZM9.9375 13.25H26.5V16.5625H9.9375V13.25Z" fill="#1C2640"/>
<path d="M26.5 43.0625H6.625V9.9375H46.375V26.5H49.6875V9.9375C49.6875 9.05897 49.3385 8.21642 48.7173 7.59521C48.0961 6.97399 47.2535 6.625 46.375 6.625H6.625C5.74647 6.625 4.90392 6.97399 4.28271 7.59521C3.66149 8.21642 3.3125 9.05897 3.3125 9.9375V43.0625C3.3125 43.941 3.66149 44.7836 4.28271 45.4048C4.90392 46.026 5.74647 46.375 6.625 46.375H26.5V43.0625Z" fill="#1C2640"/>
</svg>
