<svg width="122" height="139" viewBox="0 0 122 139" fill="none" xmlns="http://www.w3.org/2000/svg">
<path d="M41.9018 87.192C42.8831 87.7573 43.3738 88.6107 43.3738 89.752C43.3738 90.7013 43.0378 91.48 42.3658 92.088C41.6938 92.696 40.8671 93 39.8858 93H35.1338V81.8H39.5498C40.5098 81.8 41.3151 82.0987 41.9658 82.696C42.6271 83.2827 42.9578 84.0347 42.9578 84.952C42.9578 85.88 42.6058 86.6267 41.9018 87.192ZM39.5498 83.864H37.3418V86.328H39.5498C39.8911 86.328 40.1738 86.2107 40.3978 85.976C40.6324 85.7413 40.7498 85.448 40.7498 85.096C40.7498 84.744 40.6378 84.4507 40.4138 84.216C40.1898 83.9813 39.9018 83.864 39.5498 83.864ZM39.8858 90.936C40.2591 90.936 40.5684 90.8133 40.8138 90.568C41.0591 90.312 41.1818 89.992 41.1818 89.608C41.1818 89.2347 41.0591 88.9253 40.8138 88.68C40.5684 88.424 40.2591 88.296 39.8858 88.296H37.3418V90.936H39.8858ZM50.9653 93L48.7093 89.112H47.0293V93H44.8213V81.8H49.3013C50.3359 81.8 51.2159 82.1627 51.9413 82.888C52.6666 83.6133 53.0293 84.488 53.0293 85.512C53.0293 86.2053 52.8319 86.8507 52.4373 87.448C52.0426 88.0347 51.5199 88.4773 50.8693 88.776L53.3493 93H50.9653ZM47.0293 83.864V87.176H49.3013C49.7173 87.176 50.0746 87.016 50.3733 86.696C50.6719 86.3653 50.8213 85.9707 50.8213 85.512C50.8213 85.0533 50.6719 84.664 50.3733 84.344C50.0746 84.024 49.7173 83.864 49.3013 83.864H47.0293ZM57.0014 90.888H61.7534V93H54.1854V91.24L58.8414 83.912H54.2974V81.8H61.6574V83.544L57.0014 90.888ZM63.2119 81.8H65.4199V93H63.2119V81.8ZM73.9731 81.8H76.1811V93H74.5011L69.7011 86.152V93H67.4931V81.8H69.1731L73.9731 88.632V81.8ZM85.4588 93L84.7868 90.984H80.3228L79.6508 93H77.2668L81.1868 81.8H83.9228L87.8588 93H85.4588ZM81.0268 88.92H84.0988L82.5628 84.344L81.0268 88.92ZM31.8318 100.8C33.3678 100.8 34.6478 101.339 35.6718 102.416C36.7064 103.493 37.2238 104.821 37.2238 106.4C37.2238 107.979 36.7064 109.307 35.6718 110.384C34.6478 111.461 33.3678 112 31.8318 112H27.3838V100.8H31.8318ZM31.8318 109.888C32.8024 109.888 33.5918 109.568 34.1998 108.928C34.8078 108.277 35.1118 107.435 35.1118 106.4C35.1118 105.365 34.8078 104.528 34.1998 103.888C33.5918 103.237 32.8024 102.912 31.8318 102.912H29.5918V109.888H31.8318ZM48.214 110.544C47.0833 111.664 45.7073 112.224 44.086 112.224C42.4647 112.224 41.0887 111.664 39.958 110.544C38.838 109.413 38.278 108.032 38.278 106.4C38.278 104.768 38.838 103.392 39.958 102.272C41.0887 101.141 42.4647 100.576 44.086 100.576C45.7073 100.576 47.0833 101.141 48.214 102.272C49.3447 103.392 49.91 104.768 49.91 106.4C49.91 108.032 49.3447 109.413 48.214 110.544ZM41.51 109.04C42.2033 109.723 43.062 110.064 44.086 110.064C45.11 110.064 45.9687 109.723 46.662 109.04C47.3553 108.347 47.702 107.467 47.702 106.4C47.702 105.333 47.3553 104.453 46.662 103.76C45.9687 103.067 45.11 102.72 44.086 102.72C43.062 102.72 42.2033 103.067 41.51 103.76C40.8167 104.453 40.47 105.333 40.47 106.4C40.47 107.467 40.8167 108.347 41.51 109.04ZM54.8796 112.224C53.7703 112.224 52.837 111.979 52.0796 111.488C51.3223 110.987 50.789 110.309 50.4796 109.456L52.3676 108.352C52.805 109.493 53.6636 110.064 54.9436 110.064C55.5623 110.064 56.0156 109.952 56.3036 109.728C56.5916 109.504 56.7356 109.221 56.7356 108.88C56.7356 108.485 56.5596 108.181 56.2076 107.968C55.8556 107.744 55.2263 107.504 54.3196 107.248C53.8183 107.099 53.3916 106.949 53.0396 106.8C52.6983 106.651 52.3516 106.453 51.9996 106.208C51.6583 105.952 51.397 105.632 51.2156 105.248C51.0343 104.864 50.9436 104.416 50.9436 103.904C50.9436 102.891 51.301 102.085 52.0156 101.488C52.741 100.88 53.6103 100.576 54.6236 100.576C55.5303 100.576 56.325 100.8 57.0076 101.248C57.701 101.685 58.2396 102.299 58.6236 103.088L56.7676 104.16C56.3196 103.2 55.605 102.72 54.6236 102.72C54.165 102.72 53.8023 102.827 53.5356 103.04C53.2796 103.243 53.1516 103.509 53.1516 103.84C53.1516 104.192 53.2956 104.48 53.5836 104.704C53.8823 104.917 54.4476 105.152 55.2796 105.408C55.621 105.515 55.877 105.6 56.0476 105.664C56.229 105.717 56.469 105.808 56.7676 105.936C57.077 106.053 57.3116 106.165 57.4716 106.272C57.6423 106.379 57.8343 106.523 58.0476 106.704C58.261 106.885 58.421 107.072 58.5276 107.264C58.645 107.456 58.741 107.691 58.8156 107.968C58.901 108.235 58.9436 108.528 58.9436 108.848C58.9436 109.883 58.565 110.704 57.8076 111.312C57.061 111.92 56.085 112.224 54.8796 112.224ZM67.3855 100.8V102.912H64.3615V112H62.1535V102.912H59.1455V100.8H67.3855ZM75.0056 112L74.3336 109.984H69.8696L69.1976 112H66.8136L70.7336 100.8H73.4696L77.4056 112H75.0056ZM70.5736 107.92H73.6456L72.1096 103.344L70.5736 107.92ZM80.6205 112L76.8605 100.8H79.2605L81.9965 109.408L84.7165 100.8H87.1325L83.3565 112H80.6205ZM90.4199 109.888H95.1399V112H88.2119V100.8H95.0599V102.912H90.4199V105.296H94.6599V107.376H90.4199V109.888Z" fill="#1C2640"/>
<path d="M37.625 30.5H60.5V34.3125H37.625V30.5ZM33.8125 20.9688H52.875V24.7812H33.8125V20.9688Z" fill="#1C2640"/>
<path d="M87.0324 31.6552L81.3136 18.3114C81.1668 17.9685 80.9226 17.6761 80.6112 17.4708C80.2997 17.2654 79.9348 17.156 79.5618 17.1562H73.843V13.3438C73.843 12.8382 73.6422 12.3533 73.2847 11.9958C72.9272 11.6383 72.4423 11.4375 71.9368 11.4375H41.4368V15.25H70.0305V39.1849C69.1619 39.6893 68.4017 40.3606 67.7938 41.1602C67.1859 41.9598 66.7424 42.8719 66.4887 43.8438H54.5098C54.0459 42.0468 52.9425 40.4808 51.4064 39.4392C49.8704 38.3976 48.0073 37.9519 46.1662 38.1858C44.3251 38.4196 42.6325 39.3169 41.4057 40.7094C40.1788 42.102 39.502 43.8941 39.502 45.75C39.502 47.6059 40.1788 49.398 41.4057 50.7906C42.6325 52.1831 44.3251 53.0804 46.1662 53.3142C48.0073 53.5481 49.8704 53.1024 51.4064 52.0608C52.9425 51.0192 54.0459 49.4532 54.5098 47.6562H66.4887C66.9034 49.2923 67.8517 50.7433 69.1837 51.7798C70.5157 52.8163 72.1553 53.3791 73.843 53.3791C75.5308 53.3791 77.1703 52.8163 78.5023 51.7798C79.8343 50.7433 80.7826 49.2923 81.1973 47.6562H85.2805C85.7861 47.6562 86.2709 47.4554 86.6284 47.0979C86.9859 46.7404 87.1868 46.2556 87.1868 45.75V32.4062C87.1869 32.148 87.1343 31.8925 87.0324 31.6552ZM47.1555 49.5625C46.4015 49.5625 45.6644 49.3389 45.0374 48.92C44.4104 48.5011 43.9218 47.9056 43.6332 47.209C43.3447 46.5123 43.2692 45.7458 43.4163 45.0062C43.5634 44.2667 43.9265 43.5873 44.4597 43.0542C44.9929 42.521 45.6722 42.1579 46.4117 42.0108C47.1513 41.8636 47.9179 41.9391 48.6145 42.2277C49.3111 42.5163 49.9066 43.0049 50.3255 43.6319C50.7444 44.2589 50.968 44.996 50.968 45.75C50.967 46.7608 50.565 47.73 49.8502 48.4447C49.1355 49.1595 48.1663 49.5615 47.1555 49.5625ZM73.843 20.9688H78.3036L82.3906 30.5H73.843V20.9688ZM73.843 49.5625C73.089 49.5625 72.3519 49.3389 71.7249 48.92C71.0979 48.5011 70.6093 47.9056 70.3207 47.209C70.0322 46.5123 69.9567 45.7458 70.1038 45.0062C70.2509 44.2667 70.614 43.5873 71.1472 43.0542C71.6804 42.521 72.3597 42.1579 73.0992 42.0108C73.8388 41.8636 74.6054 41.9391 75.302 42.2277C75.9986 42.5163 76.5941 43.0049 77.013 43.6319C77.4319 44.2589 77.6555 44.996 77.6555 45.75C77.6545 46.7608 77.2525 47.73 76.5377 48.4447C75.823 49.1595 74.8538 49.5615 73.843 49.5625ZM83.3743 43.8438H81.1973C80.7774 42.2109 79.8276 40.7636 78.4966 39.7286C77.1657 38.6937 75.529 38.1297 73.843 38.125V34.3125H83.3743V43.8438Z" fill="#1C2640"/>
</svg>
