<svg width="56" height="42" viewBox="0 0 56 42" fill="none" xmlns="http://www.w3.org/2000/svg">
<mask id="path-1-inside-1_6097_28777" fill="white">
<path d="M34.626 0.000919394C33.516 0.00889267 32.414 0.0627128 31.25 0.373671C29.982 0.716731 28.7788 1.26414 27.688 1.99424C26.156 1.09724 24.672 0.359717 23.25 0.186298C21.484 -0.0309738 19.844 0.0866325 17.938 0.126499C15.678 0.172345 14.204 1.32249 11.812 2.2434C9.422 3.16033 6.344 4.04935 2 4.04935H0V23.235L1.126 23.7952L4.812 25.6031L17.938 40.1782L18 40.24C19.5 41.7191 21.524 42.0859 23.312 41.9842C25.102 41.8845 26.782 41.3623 28.124 40.553C31.078 38.7769 39.124 33.2016 39.124 33.2016L39.312 33.0761L39.438 32.9525C40.39 32.0096 40.868 30.8595 41.188 29.6515L48.874 25.7885L54.624 23.8589L56 23.4204V4.04935H54C50.6381 4.07226 47.3043 3.437 44.188 2.17962C41.796 1.24874 40.344 0.110552 38.06 0.0627125C36.84 0.0387927 35.732 -0.00705388 34.624 0.000919394H34.626ZM34.686 3.98756C35.586 3.97958 36.626 4.02742 37.938 4.04935C38.148 4.05732 40.07 4.87458 42.75 5.91908C45.016 6.80611 48.164 7.59347 52 7.84862V20.556L47.374 22.1148H47.25L47.124 22.1746L41.064 25.2284C40.7423 24.3033 40.2316 23.4549 39.564 22.7367L39.438 22.5493L30.938 12.1482L29.688 10.5894L28.124 11.8353L22.75 16.1966C20.946 17.4425 19.484 17.0837 18 16.384C17.57 16.1807 17.594 16.1189 17.25 15.8857L26.376 8.34694L26.5 8.22336C29.21 5.54434 30.876 4.61745 32.312 4.23672C33.032 4.04138 33.79 3.99553 34.688 3.98756H34.686ZM20.752 4.04935C21.4193 4.02428 22.0875 4.04493 22.752 4.11114C23.276 4.17294 23.87 4.61745 24.378 4.79684C24.174 4.98422 24.026 5.09186 23.814 5.29517L23.69 5.42075L12.752 14.4505L11.064 15.8219L12.564 17.3787C12.564 17.3787 14.01 18.9374 16.252 19.9959C18.494 21.0544 21.956 21.6543 25.064 19.4976L25.19 19.372L29.064 16.1966L36.44 25.2284L36.502 25.3539L36.564 25.4137C37.884 26.7154 37.854 28.7625 36.564 30.0881C36.548 30.102 36.58 30.1339 36.564 30.1479C36.548 30.1578 36.284 30.3133 36.252 30.3372L33.626 26.7851L30.376 29.1532L32.94 32.5777C31.9 33.2794 31.432 33.6461 30.314 34.3857L27.628 30.7718L24.376 33.1398L26.94 36.5644C26.712 36.7039 26.244 37.0168 26.064 37.1265C25.432 37.5072 24.212 37.9358 23.126 37.9976C22.104 38.0534 21.322 37.8182 20.94 37.4992L20.878 37.4374L7.502 22.6749L7.252 22.362L4 20.7434V7.84862C7.82 7.59945 10.992 6.84398 13.25 5.98088C15.922 4.9603 17.83 4.11912 18.062 4.11114L20.75 4.04935H20.752Z"/>
</mask>
<path d="M34.626 0.000919394C33.516 0.00889267 32.414 0.0627128 31.25 0.373671C29.982 0.716731 28.7788 1.26414 27.688 1.99424C26.156 1.09724 24.672 0.359717 23.25 0.186298C21.484 -0.0309738 19.844 0.0866325 17.938 0.126499C15.678 0.172345 14.204 1.32249 11.812 2.2434C9.422 3.16033 6.344 4.04935 2 4.04935H0V23.235L1.126 23.7952L4.812 25.6031L17.938 40.1782L18 40.24C19.5 41.7191 21.524 42.0859 23.312 41.9842C25.102 41.8845 26.782 41.3623 28.124 40.553C31.078 38.7769 39.124 33.2016 39.124 33.2016L39.312 33.0761L39.438 32.9525C40.39 32.0096 40.868 30.8595 41.188 29.6515L48.874 25.7885L54.624 23.8589L56 23.4204V4.04935H54C50.6381 4.07226 47.3043 3.437 44.188 2.17962C41.796 1.24874 40.344 0.110552 38.06 0.0627125C36.84 0.0387927 35.732 -0.00705388 34.624 0.000919394H34.626ZM34.686 3.98756C35.586 3.97958 36.626 4.02742 37.938 4.04935C38.148 4.05732 40.07 4.87458 42.75 5.91908C45.016 6.80611 48.164 7.59347 52 7.84862V20.556L47.374 22.1148H47.25L47.124 22.1746L41.064 25.2284C40.7423 24.3033 40.2316 23.4549 39.564 22.7367L39.438 22.5493L30.938 12.1482L29.688 10.5894L28.124 11.8353L22.75 16.1966C20.946 17.4425 19.484 17.0837 18 16.384C17.57 16.1807 17.594 16.1189 17.25 15.8857L26.376 8.34694L26.5 8.22336C29.21 5.54434 30.876 4.61745 32.312 4.23672C33.032 4.04138 33.79 3.99553 34.688 3.98756H34.686ZM20.752 4.04935C21.4193 4.02428 22.0875 4.04493 22.752 4.11114C23.276 4.17294 23.87 4.61745 24.378 4.79684C24.174 4.98422 24.026 5.09186 23.814 5.29517L23.69 5.42075L12.752 14.4505L11.064 15.8219L12.564 17.3787C12.564 17.3787 14.01 18.9374 16.252 19.9959C18.494 21.0544 21.956 21.6543 25.064 19.4976L25.19 19.372L29.064 16.1966L36.44 25.2284L36.502 25.3539L36.564 25.4137C37.884 26.7154 37.854 28.7625 36.564 30.0881C36.548 30.102 36.58 30.1339 36.564 30.1479C36.548 30.1578 36.284 30.3133 36.252 30.3372L33.626 26.7851L30.376 29.1532L32.94 32.5777C31.9 33.2794 31.432 33.6461 30.314 34.3857L27.628 30.7718L24.376 33.1398L26.94 36.5644C26.712 36.7039 26.244 37.0168 26.064 37.1265C25.432 37.5072 24.212 37.9358 23.126 37.9976C22.104 38.0534 21.322 37.8182 20.94 37.4992L20.878 37.4374L7.502 22.6749L7.252 22.362L4 20.7434V7.84862C7.82 7.59945 10.992 6.84398 13.25 5.98088C15.922 4.9603 17.83 4.11912 18.062 4.11114L20.75 4.04935H20.752Z" fill="#1C2640"/>
<path d="M34.626 0.000919394L34.7481 17.0005L34.626 -16.9991V0.000919394ZM31.25 0.373671L26.8624 -16.0504L26.8363 -16.0434L26.8103 -16.0364L31.25 0.373671ZM27.688 1.99424L19.0984 16.6646L28.2914 22.0471L37.1441 16.1216L27.688 1.99424ZM23.25 0.186298L21.1741 17.0591L21.1831 17.0602L21.192 17.0613L23.25 0.186298ZM17.938 0.126499L18.2828 17.123L18.2935 17.1228L17.938 0.126499ZM11.812 2.2434L17.9013 18.1154L17.9106 18.1118L17.9199 18.1082L11.812 2.2434ZM0 4.04935V-12.9507H-17V4.04935H0ZM0 23.235H-17V33.7657L-7.5715 38.4558L0 23.235ZM1.126 23.7952L-6.4455 39.016L-6.40294 39.0371L-6.36027 39.0581L1.126 23.7952ZM4.812 25.6031L17.4444 14.2267L15.2467 11.7864L12.2983 10.3402L4.812 25.6031ZM17.938 40.1782L5.30561 51.5547L5.6125 51.8954L5.93731 52.2192L17.938 40.1782ZM18 40.24L5.99931 52.281L6.03159 52.3131L6.06405 52.3451L18 40.24ZM23.312 41.9842L22.3669 25.0105L22.357 25.011L22.347 25.0116L23.312 41.9842ZM28.124 40.553L19.3644 25.9836L19.3547 25.9894L19.345 25.9952L28.124 40.553ZM39.124 33.2016L29.6813 19.0653L29.5607 19.1458L29.4416 19.2284L39.124 33.2016ZM39.312 33.0761L48.7547 47.2124L50.079 46.3278L51.216 45.2125L39.312 33.0761ZM39.438 32.9525L51.342 45.0889L51.3714 45.0602L51.4006 45.0313L39.438 32.9525ZM41.188 29.6515L33.5537 14.4622L26.7149 17.8994L24.7548 25.2982L41.188 29.6515ZM48.874 25.7885L43.4657 9.67172L42.3197 10.0563L41.2397 10.5991L48.874 25.7885ZM54.624 23.8589L49.4619 7.66163L49.3385 7.70097L49.2157 7.74219L54.624 23.8589ZM56 23.4204L61.1621 39.6177L73 35.845V23.4204H56ZM56 4.04935H73V-12.9507H56V4.04935ZM54 4.04935V-12.9507H53.9421L53.8842 -12.9503L54 4.04935ZM44.188 2.17962L50.5489 -13.5855L50.4514 -13.6248L50.3534 -13.663L44.188 2.17962ZM38.06 0.0627125L38.416 -16.9336L38.4046 -16.9338L38.3932 -16.934L38.06 0.0627125ZM34.624 0.000919394L34.5017 -16.9986L34.624 17.0009V0.000919394ZM34.686 3.98756L34.5354 -13.0118L34.686 20.9876V3.98756ZM37.938 4.04935L38.583 -12.9384L38.4026 -12.9453L38.2221 -12.9483L37.938 4.04935ZM42.75 5.91908L48.9468 -9.91126L48.935 -9.91586L48.9233 -9.92045L42.75 5.91908ZM52 7.84862H69V-8.05822L53.1282 -9.1139L52 7.84862ZM52 20.556L57.4284 36.666L69 32.7669V20.556H52ZM47.374 22.1148V39.1148H50.1612L52.8024 38.2248L47.374 22.1148ZM47.25 22.1148V5.1148H43.4205L39.9609 6.75677L47.25 22.1148ZM47.124 22.1746L39.8349 6.81657L39.6533 6.90276L39.4738 6.99322L47.124 22.1746ZM41.064 25.2284L25.0072 30.8121L31.382 49.1438L48.7142 40.4097L41.064 25.2284ZM39.564 22.7367L25.457 32.2231L26.2026 33.3319L27.1122 34.3106L39.564 22.7367ZM39.438 22.5493L53.545 13.063L53.1029 12.4054L52.6015 11.7919L39.438 22.5493ZM30.938 12.1482L17.6756 22.7835L17.7248 22.8448L17.7745 22.9056L30.938 12.1482ZM29.688 10.5894L42.9504 -0.0458438L32.3498 -13.265L19.0961 -2.70761L29.688 10.5894ZM28.124 11.8353L17.5321 -1.46178L17.4715 -1.41351L17.4113 -1.36469L28.124 11.8353ZM22.75 16.1966L32.4103 30.1851L32.9518 29.8112L33.4627 29.3966L22.75 16.1966ZM18 16.384L10.7332 31.7526L10.7418 31.7567L10.7504 31.7607L18 16.384ZM17.25 15.8857L6.42313 2.77923L-11.0664 17.2268L7.71037 29.9568L17.25 15.8857ZM26.376 8.34694L37.2029 21.4534L37.8146 20.948L38.3767 20.3879L26.376 8.34694ZM26.5 8.22336L14.5485 -3.86636L14.5239 -3.84201L14.4993 -3.81755L26.5 8.22336ZM32.312 4.23672L36.6687 20.669L36.7161 20.6564L36.7634 20.6436L32.312 4.23672ZM34.688 3.98756L34.8389 20.9869L34.688 -13.0124V3.98756ZM20.752 4.04935V21.0493H21.0712L21.3902 21.0374L20.752 4.04935ZM22.752 4.11114L24.7429 -12.7719L24.5905 -12.7898L24.4377 -12.8051L22.752 4.11114ZM24.378 4.79684L35.8777 17.3171L56.7076 -1.81497L30.0389 -11.233L24.378 4.79684ZM23.814 5.29517L12.047 -6.97424L11.88 -6.81402L11.7173 -6.64931L23.814 5.29517ZM23.69 5.42075L34.5127 18.5306L35.1793 17.9803L35.7867 17.3652L23.69 5.42075ZM12.752 14.4505L23.4716 27.6448L23.5233 27.6028L23.5747 27.5604L12.752 14.4505ZM11.064 15.8219L0.344387 2.62758L-14.0154 14.294L-1.17801 27.6174L11.064 15.8219ZM12.564 17.3787L25.0272 5.81715L24.9177 5.69913L24.806 5.5832L12.564 17.3787ZM25.064 19.4976L34.756 33.4641L35.9958 32.6038L37.0646 31.5386L25.064 19.4976ZM25.19 19.372L14.4133 6.22424L13.7745 6.74788L13.1894 7.33099L25.19 19.372ZM29.064 16.1966L42.231 5.44347L31.4586 -7.74706L18.2873 3.04888L29.064 16.1966ZM36.44 25.2284L51.6834 17.7024L50.8285 15.9709L49.607 14.4752L36.44 25.2284ZM36.502 25.3539L21.2586 32.8799L22.5693 35.5345L24.7002 37.5898L36.502 25.3539ZM36.564 25.4137L48.5003 13.309L48.4334 13.2431L48.3658 13.1779L36.564 25.4137ZM36.564 30.0881L47.7374 42.9004L48.2618 42.4431L48.7471 41.9444L36.564 30.0881ZM36.564 30.1479L45.5523 44.5774L46.7097 43.8564L47.7374 42.9602L36.564 30.1479ZM36.252 30.3372L22.582 40.4432L32.7416 54.1857L46.4302 43.9536L36.252 30.3372ZM33.626 26.7851L47.296 16.6792L37.2597 3.10342L23.6148 13.0455L33.626 26.7851ZM30.376 29.1532L20.3648 15.4136L6.44555 25.5557L16.7676 39.342L30.376 29.1532ZM32.94 32.5777L42.4478 46.6704L57.2508 36.6833L46.5484 22.3889L32.94 32.5777ZM30.314 34.3857L16.6699 44.5266L26.2701 57.4432L39.6928 48.5644L30.314 34.3857ZM27.628 30.7718L41.2721 20.6309L31.2298 7.1194L17.6209 17.0292L27.628 30.7718ZM24.376 33.1398L14.3689 19.3973L0.442516 29.5383L10.7676 43.3287L24.376 33.1398ZM26.94 36.5644L35.8139 51.0645L51.7373 41.3196L40.5484 26.3755L26.94 36.5644ZM26.064 37.1265L34.8362 51.6883L34.8717 51.667L34.9071 51.6454L26.064 37.1265ZM23.126 37.9976L24.053 54.9723L24.0724 54.9712L24.0917 54.9701L23.126 37.9976ZM20.94 37.4992L8.93931 49.5401L9.46984 50.0689L10.0448 50.5489L20.94 37.4992ZM20.878 37.4374L8.28015 48.8521L8.57076 49.1728L8.87731 49.4783L20.878 37.4374ZM7.502 22.6749L-5.78022 33.2854L-5.45053 33.6981L-5.09585 34.0896L7.502 22.6749ZM7.252 22.362L20.5342 11.7515L18.1897 8.81659L14.8268 7.14283L7.252 22.362ZM4 20.7434H-13V31.2715L-3.57482 35.9625L4 20.7434ZM4 7.84862L2.8935 -9.11534L-13 -8.07866V7.84862H4ZM13.25 5.98088L7.1842 -9.90012L7.18017 -9.89858L13.25 5.98088ZM18.062 4.11114L17.6713 -12.8844L17.5747 -12.8821L17.4781 -12.8788L18.062 4.11114ZM20.75 4.04935V-12.9507H20.5546L20.3593 -12.9462L20.75 4.04935ZM34.5039 -16.9986C32.9848 -16.9877 30.1495 -16.9285 26.8624 -16.0504L35.6376 16.7977C34.6785 17.0539 34.0472 17.0055 34.7481 17.0005L34.5039 -16.9986ZM26.8103 -16.0364C23.7586 -15.2107 20.8608 -13.8928 18.2319 -12.1331L37.1441 16.1216C36.6967 16.421 36.2053 16.6442 35.6897 16.7837L26.8103 -16.0364ZM36.2776 -12.6761C34.6586 -13.624 30.5222 -16.0528 25.308 -16.6887L21.192 17.0613C19.793 16.8907 18.9026 16.5181 18.7145 16.4373C18.5196 16.3535 18.5836 16.3632 19.0984 16.6646L36.2776 -12.6761ZM25.3259 -16.6865C21.9699 -17.0994 18.4077 -16.887 17.5825 -16.8698L18.2935 17.1228C18.8649 17.1108 19.4363 17.0925 19.8243 17.0811C20.2588 17.0683 20.5453 17.0614 20.7879 17.0594C21.2487 17.0556 21.2961 17.0741 21.1741 17.0591L25.3259 -16.6865ZM17.5932 -16.87C13.4067 -16.7851 10.1893 -15.6118 8.21068 -14.7613C7.41536 -14.4194 6.49461 -13.9787 6.26886 -13.8733C5.87639 -13.6901 5.75266 -13.6401 5.70408 -13.6214L17.9199 18.1082C19.0673 17.6665 20.0249 17.2273 20.6521 16.9345C20.8076 16.8619 20.9581 16.7911 21.0761 16.7355C21.203 16.6758 21.2973 16.6314 21.385 16.5906C21.5624 16.508 21.6266 16.4799 21.6383 16.4749C21.6592 16.4659 21.2763 16.6346 20.6535 16.797C20.3334 16.8804 19.9621 16.9595 19.5479 17.0192C19.1324 17.079 18.7083 17.1144 18.2828 17.123L17.5932 -16.87ZM5.72269 -13.6286C5.12086 -13.3977 4.64934 -13.2523 4.15971 -13.15C3.67396 -13.0484 2.98406 -12.9507 2 -12.9507V21.0493C8.92172 21.0493 14.0919 19.5769 17.9013 18.1154L5.72269 -13.6286ZM2 -12.9507H0V21.0493H2V-12.9507ZM-17 4.04935V23.235H17V4.04935H-17ZM-7.5715 38.4558L-6.4455 39.016L8.6975 8.57438L7.5715 8.01425L-7.5715 38.4558ZM-6.36027 39.0581L-2.67427 40.866L12.2983 10.3402L8.61227 8.53227L-6.36027 39.0581ZM-7.82039 36.9795L5.30561 51.5547L30.5704 28.8018L17.4444 14.2267L-7.82039 36.9795ZM5.93731 52.2192L5.99931 52.281L30.0007 28.1991L29.9387 28.1373L5.93731 52.2192ZM6.06405 52.3451C12.2763 58.4706 19.8688 59.2074 24.277 58.9568L22.347 25.0116C23.1792 24.9643 26.7237 24.9676 29.936 28.135L6.06405 52.3451ZM24.2571 58.9579C28.6543 58.7131 33.0507 57.4339 36.903 55.1108L19.345 25.9952C20.5133 25.2906 21.5497 25.056 22.3669 25.0105L24.2571 58.9579ZM36.8837 55.1224C38.8379 53.9474 41.993 51.8287 44.2786 50.2775C45.5054 49.4448 46.6332 48.672 47.453 48.1083C47.8637 47.8259 48.1989 47.5947 48.4328 47.4332C48.5498 47.3524 48.6416 47.2889 48.7049 47.2451C48.7366 47.2232 48.7611 47.2062 48.7782 47.1944C48.7867 47.1885 48.7934 47.1839 48.7981 47.1806C48.8004 47.179 48.8023 47.1777 48.8037 47.1767C48.8044 47.1762 48.805 47.1758 48.8055 47.1755C48.8057 47.1754 48.8059 47.1752 48.806 47.1751C48.8063 47.175 48.8064 47.1748 39.124 33.2016C29.4416 19.2284 29.4417 19.2283 29.4418 19.2283C29.4418 19.2283 29.4418 19.2282 29.4418 19.2283C29.4418 19.2283 29.4416 19.2284 29.4413 19.2286C29.4408 19.229 29.4397 19.2297 29.4382 19.2307C29.4352 19.2328 29.4303 19.2363 29.4235 19.241C29.4099 19.2503 29.3889 19.2649 29.3609 19.2842C29.305 19.323 29.221 19.381 29.1122 19.4561C28.8946 19.6064 28.5781 19.8247 28.1883 20.0927C27.4072 20.6299 26.3388 21.3619 25.1849 22.1451C22.709 23.8255 20.3641 25.3825 19.3644 25.9836L36.8837 55.1224ZM48.5667 47.338L48.7547 47.2124L29.8693 18.9397L29.6813 19.0653L48.5667 47.338ZM51.216 45.2125L51.342 45.0889L27.534 20.816L27.408 20.9396L51.216 45.2125ZM51.4006 45.0313C55.4013 41.069 56.9299 36.6143 57.6212 34.0049L24.7548 25.2982C24.8061 25.1047 25.3787 22.9502 27.4754 20.8737L51.4006 45.0313ZM48.8223 44.8409L56.5083 40.9779L41.2397 10.5991L33.5537 14.4622L48.8223 44.8409ZM54.2823 41.9052L60.0323 39.9757L49.2157 7.74219L43.4657 9.67172L54.2823 41.9052ZM59.7861 40.0563L61.1621 39.6177L50.8379 7.2231L49.4619 7.66163L59.7861 40.0563ZM73 23.4204V4.04935H39V23.4204H73ZM56 -12.9507H54V21.0493H56V-12.9507ZM53.8842 -12.9503C52.7399 -12.9425 51.6066 -13.1587 50.5489 -13.5855L37.8271 17.9447C43.0021 20.0327 48.5362 21.087 54.1158 21.049L53.8842 -12.9503ZM50.3534 -13.663C50.2931 -13.6864 50.1622 -13.7403 49.7615 -13.9283C49.5194 -14.0418 48.6063 -14.4806 47.7915 -14.8306C45.7673 -15.6998 42.5702 -16.8465 38.416 -16.9336L37.704 17.059C37.2968 17.0505 36.8863 17.0168 36.4798 16.9588C36.0741 16.9009 35.7072 16.8238 35.3869 16.7409C35.0699 16.6589 34.8179 16.5763 34.6448 16.5143C34.4761 16.454 34.3771 16.4113 34.3755 16.4106C34.3737 16.4098 34.3899 16.4168 34.43 16.4349C34.4708 16.4534 34.5273 16.4793 34.609 16.5175C34.6929 16.5567 34.7851 16.6001 34.9085 16.6584C35.0225 16.7122 35.1719 16.7828 35.3236 16.854C35.9393 17.1427 36.8869 17.5802 38.0226 18.0222L50.3534 -13.663ZM38.3932 -16.934C37.6759 -16.9481 35.8993 -17.0087 34.5017 -16.9986L34.7463 17.0005C35.5647 16.9946 36.0041 17.0257 37.7268 17.0594L38.3932 -16.934ZM34.624 17.0009H34.626V-16.9991H34.624V17.0009ZM34.8366 20.9869C35.5159 20.9809 35.583 21.0124 37.6539 21.047L38.2221 -12.9483C37.669 -12.9575 35.6561 -13.0217 34.5354 -13.0118L34.8366 20.9869ZM37.293 21.0371C36.6917 21.0143 36.1895 20.9629 35.8271 20.9174C35.4553 20.8706 35.1389 20.8181 34.8951 20.7734C34.4203 20.6863 34.0413 20.5953 33.808 20.5359C33.5605 20.473 33.3585 20.4154 33.2191 20.3741C33.0754 20.3317 32.957 20.2943 32.8713 20.2666C32.7056 20.2131 32.586 20.171 32.5355 20.1531C32.5056 20.1425 32.4834 20.1344 32.4702 20.1296C32.4568 20.1247 32.4493 20.1219 32.4485 20.1216C32.4481 20.1214 32.4637 20.1272 32.4993 20.141C32.5342 20.1544 32.5809 20.1725 32.6416 20.1963C32.7653 20.2448 32.9204 20.3063 33.1175 20.385C33.8722 20.6861 35.1519 21.2033 36.5767 21.7586L48.9233 -9.92045C47.6681 -10.4096 46.6468 -10.8233 45.718 -11.1939C45.3081 -11.3575 44.8032 -11.5579 44.3547 -11.7256C44.1468 -11.8033 43.7627 -11.9451 43.3189 -12.0884C43.1049 -12.1575 42.6967 -12.2858 42.1864 -12.4156C41.9268 -12.4816 41.5248 -12.5778 41.0303 -12.6685C40.6029 -12.7469 39.7157 -12.8954 38.583 -12.9384L37.293 21.0371ZM36.5532 21.7494C40.5258 23.3045 45.3918 24.4466 50.8718 24.8111L53.1282 -9.1139C50.9362 -9.2597 49.5062 -9.69229 48.9468 -9.91126L36.5532 21.7494ZM35 7.84862V20.556H69V7.84862H35ZM46.5716 4.44602L41.9456 6.00479L52.8024 38.2248L57.4284 36.666L46.5716 4.44602ZM47.374 5.1148H47.25V39.1148H47.374V5.1148ZM39.9609 6.75677L39.8349 6.81657L54.4131 37.5326L54.5391 37.4728L39.9609 6.75677ZM39.4738 6.99322L33.4138 10.047L48.7142 40.4097L54.7742 37.356L39.4738 6.99322ZM57.1208 19.6446C56.0245 16.4919 54.285 13.6043 52.0158 11.1629L27.1122 34.3106C26.1781 33.3055 25.4602 32.1147 25.0072 30.8121L57.1208 19.6446ZM53.671 13.2503L53.545 13.063L25.331 32.0357L25.457 32.2231L53.671 13.2503ZM52.6015 11.7919L44.1015 1.39076L17.7745 22.9056L26.2745 33.3068L52.6015 11.7919ZM44.2004 1.51293L42.9504 -0.0458438L16.4256 21.2247L17.6756 22.7835L44.2004 1.51293ZM19.0961 -2.70761L17.5321 -1.46178L38.7159 25.1323L40.2799 23.8865L19.0961 -2.70761ZM17.4113 -1.36469L12.0373 2.99669L33.4627 29.3966L38.8367 25.0352L17.4113 -1.36469ZM13.0897 2.20813C14.8112 1.01925 17.4896 -0.0629129 20.724 0.0263431C22.1327 0.0652187 23.2624 0.320174 24.0146 0.54659C24.732 0.762531 25.191 0.979684 25.2496 1.00729L10.7504 31.7607C12.2259 32.4564 15.5006 33.8951 19.786 34.0134C24.5734 34.1455 28.8848 32.6198 32.4103 30.1851L13.0897 2.20813ZM25.2668 1.01541C25.5025 1.12687 25.9378 1.34182 26.4747 1.66291C26.7502 1.82766 27.0275 2.0053 27.3038 2.19555C27.5793 2.38518 27.8074 2.55532 27.9772 2.68636C28.1272 2.80209 28.2412 2.89506 28.223 2.88029C28.1836 2.84844 28.2554 2.90654 28.206 2.86657C28.1959 2.85837 28.1796 2.84513 28.1602 2.82954C28.121 2.79794 28.063 2.75138 27.9932 2.69617C27.6705 2.4411 27.2718 2.14151 26.7896 1.81459L7.71037 29.9568C7.40016 29.7465 7.12753 29.542 6.91049 29.3705C6.83856 29.3136 6.76709 29.2555 6.82721 29.3042C6.85487 29.3266 7.01293 29.455 7.20831 29.6057C7.69335 29.98 8.29567 30.4074 9.02485 30.8434C9.68898 31.2406 10.2825 31.5395 10.7332 31.7526L25.2668 1.01541ZM28.0769 28.9921L37.2029 21.4534L15.5491 -4.7595L6.42313 2.77923L28.0769 28.9921ZM38.3767 20.3879L38.5007 20.2643L14.4993 -3.81755L14.3753 -3.69397L38.3767 20.3879ZM38.4515 20.3131C39.3162 19.4582 39.5291 19.372 39.219 19.5757C39.0351 19.6965 38.699 19.8989 38.2223 20.1159C37.7306 20.3397 37.2034 20.5272 36.6687 20.669L27.9553 -12.1956C22.4124 -10.726 18.2156 -7.4916 14.5485 -3.86636L38.4515 20.3131ZM36.7634 20.6436C35.9827 20.8554 35.3637 20.9353 35.0265 20.9671C34.7262 20.9953 34.5961 20.989 34.8389 20.9869L34.5371 -13.0118C33.3342 -13.0011 30.7734 -12.9604 27.8606 -12.1701L36.7634 20.6436ZM34.688 -13.0124H34.686V20.9876H34.688V-13.0124ZM21.3902 21.0374C21.2821 21.0414 21.1739 21.0381 21.0663 21.0274L24.4377 -12.8051C23.0012 -12.9482 21.5565 -12.9929 20.1138 -12.9387L21.3902 21.0374ZM20.7611 20.9942C19.8446 20.8861 19.07 20.7137 18.4691 20.5494C17.8676 20.385 17.3756 20.2109 17.0176 20.0723C16.3495 19.8136 15.8868 19.5741 15.8582 19.5596C15.8348 19.5477 15.8141 19.5368 15.9174 19.5906C15.9852 19.626 16.1609 19.7178 16.3618 19.8185C16.5683 19.9221 16.8763 20.0731 17.2474 20.2389C17.6169 20.4041 18.1178 20.615 18.7171 20.8266L30.0389 -11.233C30.914 -10.9239 31.5252 -10.613 31.6048 -10.5731C31.6704 -10.5402 31.7093 -10.5195 31.6395 -10.5559C31.6051 -10.5739 31.4459 -10.6572 31.2838 -10.7398C30.9777 -10.8956 30.2365 -11.2691 29.2938 -11.6341C28.3682 -11.9924 26.7766 -12.5321 24.7429 -12.7719L20.7611 20.9942ZM12.8783 -7.7234C13.069 -7.89859 13.2711 -8.06794 13.0809 -7.90605C12.9109 -7.76141 12.519 -7.42688 12.047 -6.97424L35.581 17.5646C35.4571 17.6834 35.3436 17.7871 35.2485 17.8714C35.1618 17.9484 35.1003 18.0004 35.1171 17.9861C35.1212 17.9826 35.1263 17.9783 35.1384 17.968C35.1486 17.9593 35.1658 17.9448 35.184 17.9292C35.2211 17.8977 35.2782 17.849 35.3448 17.7915C35.4837 17.6715 35.6665 17.5111 35.8777 17.3171L12.8783 -7.7234ZM11.7173 -6.64931L11.5933 -6.52373L35.7867 17.3652L35.9107 17.2397L11.7173 -6.64931ZM12.8673 -7.68913L1.92929 1.3406L23.5747 27.5604L34.5127 18.5306L12.8673 -7.68913ZM2.03239 1.25617L0.344387 2.62758L21.7836 29.0162L23.4716 27.6448L2.03239 1.25617ZM-1.17801 27.6174L0.321993 29.1741L24.806 5.5832L23.306 4.02641L-1.17801 27.6174ZM12.564 17.3787C0.100802 28.9402 0.103263 28.9428 0.10573 28.9455C0.106561 28.9464 0.109039 28.9491 0.110702 28.9509C0.114032 28.9544 0.11739 28.958 0.120779 28.9617C0.127555 28.969 0.134449 28.9764 0.141461 28.9839C0.155485 28.9989 0.169981 29.0144 0.184947 29.0303C0.214876 29.0621 0.246704 29.0957 0.280411 29.131C0.347797 29.2017 0.422854 29.2793 0.505422 29.3633C0.670295 29.5311 0.866635 29.7258 1.09315 29.9418C1.54321 30.371 2.12896 30.9001 2.84002 31.4785C4.21544 32.5973 6.29923 34.0964 8.99441 35.3688L23.5096 4.62296C23.9628 4.8369 24.2026 5.02748 24.2945 5.10224C24.3638 5.15862 24.4479 5.23193 24.5568 5.33574C24.6127 5.38907 24.6786 5.4537 24.7556 5.53209C24.7942 5.57142 24.8361 5.61455 24.8812 5.66184C24.9037 5.6855 24.9272 5.71023 24.9515 5.73609C24.9636 5.74902 24.976 5.76223 24.9887 5.77574C24.995 5.7825 25.0013 5.78932 25.0077 5.79622C25.011 5.79968 25.0142 5.80314 25.0174 5.80663C25.019 5.80838 25.0215 5.81101 25.0223 5.81188C25.0247 5.81451 25.0272 5.81715 12.564 17.3787ZM8.99441 35.3688C14.409 37.9251 24.854 40.3355 34.756 33.4641L15.372 5.53099C17.0366 4.37584 18.9245 3.94019 20.474 3.95303C21.8307 3.96426 22.8276 4.30098 23.5096 4.62296L8.99441 35.3688ZM37.0646 31.5386L37.1906 31.413L13.1894 7.33099L13.0634 7.45657L37.0646 31.5386ZM35.9667 32.5197L39.8407 29.3444L18.2873 3.04888L14.4133 6.22424L35.9667 32.5197ZM15.897 26.9498L23.273 35.9815L49.607 14.4752L42.231 5.44347L15.897 26.9498ZM21.1966 32.7543L21.2586 32.8799L51.7454 17.828L51.6834 17.7024L21.1966 32.7543ZM24.7002 37.5898L24.7622 37.6496L48.3658 13.1779L48.3038 13.1181L24.7002 37.5898ZM24.6277 37.5185C18.9602 31.9298 19.4847 23.2629 24.3809 18.2318L48.7471 41.9444C56.2233 34.2621 56.8078 21.5009 48.5003 13.309L24.6277 37.5185ZM25.3906 17.2757C25.1069 17.5232 24.8261 17.7846 24.5501 18.0603C24.2739 18.3361 24.0038 18.6249 23.7411 18.9267C23.4783 19.2285 23.2244 19.5416 22.9804 19.8658C22.7363 20.1899 22.5038 20.523 22.2832 20.8644C22.0626 21.2058 21.8554 21.5532 21.6617 21.9057C21.468 22.2583 21.289 22.6137 21.1243 22.9709C20.794 23.6868 20.526 24.3985 20.3116 25.0953C19.8828 26.4892 19.6808 27.7826 19.6019 28.8969C19.5625 29.4538 19.5533 29.9717 19.5629 30.4432C19.5724 30.9145 19.6008 31.348 19.6384 31.7377C19.6761 32.1274 19.7241 32.4829 19.7749 32.7993C19.8257 33.1158 19.8809 33.4024 19.9348 33.6549C19.9888 33.9075 20.0432 34.1345 20.0939 34.3318C20.1445 34.5292 20.1933 34.7048 20.2368 34.8542C20.2802 35.0037 20.3204 35.1344 20.3544 35.2417C20.3883 35.3489 20.4183 35.4399 20.4414 35.5089C20.4644 35.5776 20.4834 35.6329 20.4948 35.6662C20.5007 35.6832 20.5056 35.6971 20.5085 35.7056C20.51 35.7099 20.5112 35.7134 20.512 35.7156C20.5124 35.7168 20.5127 35.7177 20.5129 35.7183C20.5131 35.7189 20.5133 35.7193 20.5133 35.7194C20.5138 35.7208 20.5117 35.7148 20.5093 35.7077C20.5065 35.6999 20.502 35.6868 20.4963 35.6705C20.4854 35.6387 20.4668 35.5847 20.4443 35.5175C20.4217 35.4499 20.3922 35.3603 20.3587 35.2545C20.3252 35.1487 20.2854 35.0194 20.2424 34.8713C20.1993 34.7232 20.1509 34.5491 20.1006 34.353C20.0504 34.1571 19.9962 33.9314 19.9426 33.6802C19.889 33.4291 19.834 33.1438 19.7834 32.8286C19.7328 32.5136 19.685 32.1594 19.6474 31.771C19.6099 31.3826 19.5816 30.9504 19.5721 30.4803C19.5626 30.01 19.5717 29.4934 19.611 28.9377C19.6897 27.8258 19.8913 26.5348 20.3195 25.1431C20.5335 24.4474 20.8011 23.7368 21.1309 23.0219C21.2954 22.6653 21.4742 22.3104 21.6676 21.9584C21.861 21.6063 22.0678 21.2594 22.2881 20.9186C22.5084 20.5777 22.7406 20.2451 22.9843 19.9214C23.2279 19.5978 23.4814 19.2851 23.7438 18.9838C24.0061 18.6824 24.2758 18.3941 24.5515 18.1188C24.8271 17.8435 25.1074 17.5826 25.3906 17.3355L47.7374 42.9602C48.0211 42.7127 48.3019 42.4513 48.5779 42.1756C48.8541 41.8998 49.1242 41.6111 49.3869 41.3093C49.6497 41.0074 49.9036 40.6943 50.1476 40.3702C50.3917 40.046 50.6242 39.7129 50.8448 39.3716C51.0654 39.0302 51.2726 38.6827 51.4663 38.3302C51.66 37.9777 51.839 37.6222 52.0037 37.2651C52.334 36.5492 52.602 35.8375 52.8164 35.1406C53.2452 33.7467 53.4472 32.4533 53.5261 31.339C53.5655 30.7821 53.5747 30.2643 53.5651 29.7927C53.5556 29.3214 53.5272 28.8879 53.4896 28.4982C53.4519 28.1085 53.4039 27.753 53.3531 27.4366C53.3023 27.1202 53.2471 26.8335 53.1932 26.5811C53.1392 26.3285 53.0848 26.1015 53.0341 25.9041C52.9835 25.7067 52.9347 25.5312 52.8912 25.3817C52.8478 25.2322 52.8076 25.1015 52.7736 24.9942C52.7397 24.8871 52.7097 24.7961 52.6866 24.727C52.6636 24.6584 52.6446 24.603 52.6332 24.5698C52.6273 24.5527 52.6224 24.5389 52.6195 24.5304C52.618 24.526 52.6167 24.5225 52.616 24.5203C52.6156 24.5192 52.6153 24.5182 52.6151 24.5176C52.6149 24.5171 52.6147 24.5166 52.6147 24.5166C52.6142 24.5152 52.6163 24.5212 52.6187 24.5282C52.6214 24.536 52.626 24.5491 52.6317 24.5655C52.6426 24.5973 52.6612 24.6512 52.6837 24.7184C52.7063 24.7861 52.7358 24.8757 52.7693 24.9814C52.8028 25.0873 52.8426 25.2165 52.8856 25.3646C52.9287 25.5127 52.9771 25.6869 53.0274 25.8829C53.0776 26.0789 53.1318 26.3045 53.1854 26.5557C53.239 26.8069 53.294 27.0922 53.3446 27.4073C53.3952 27.7223 53.443 28.0765 53.4806 28.465C53.5181 28.8534 53.5464 29.2856 53.5559 29.7557C53.5654 30.2259 53.5563 30.7426 53.517 31.2982C53.4383 32.4101 53.2367 33.7012 52.8085 35.0928C52.5945 35.7885 52.3269 36.4992 51.9971 37.214C51.8326 37.5706 51.6538 37.9255 51.4604 38.2776C51.267 38.6296 51.0602 38.9765 50.8399 39.3174C50.6196 39.6583 50.3874 39.9908 50.1437 40.3145C49.9001 40.6382 49.6466 40.9508 49.3842 41.2522C49.1219 41.5535 48.8522 41.8418 48.5765 42.1171C48.3009 42.3924 48.0206 42.6534 47.7374 42.9004L25.3906 17.2757ZM27.5757 15.7184C27.6698 15.6598 27.744 15.6149 27.7563 15.6075C27.7826 15.5915 27.8031 15.5792 27.8122 15.5737C27.831 15.5624 27.8443 15.5546 27.8443 15.5545C27.845 15.5541 27.8437 15.5549 27.8247 15.5662C27.7967 15.5828 27.7418 15.6155 27.6817 15.6515C27.6299 15.6825 27.5314 15.7416 27.4232 15.808C27.3731 15.8387 27.2717 15.9011 27.1495 15.9788C27.0893 16.0171 26.983 16.0852 26.853 16.1716C26.7865 16.2157 26.6914 16.2796 26.5783 16.3579C26.475 16.4294 26.2942 16.5562 26.0738 16.7209L46.4302 43.9536C46.2118 44.1168 46.0334 44.2418 45.933 44.3113C45.8228 44.3877 45.731 44.4493 45.6682 44.491C45.5456 44.5724 45.4483 44.6347 45.3983 44.6665C45.2968 44.731 45.2214 44.7773 45.2008 44.7899C45.1516 44.8201 45.1261 44.8352 45.1463 44.8232C45.1582 44.816 45.1743 44.8065 45.2013 44.7904C45.2098 44.7854 45.232 44.7722 45.2503 44.7612C45.2591 44.756 45.2797 44.7437 45.3042 44.729C45.3162 44.7218 45.339 44.7081 45.3673 44.691C45.3815 44.6824 45.4572 44.6366 45.5523 44.5774L27.5757 15.7184ZM49.922 20.2312L47.296 16.6792L19.956 36.8911L22.582 40.4432L49.922 20.2312ZM23.6148 13.0455L20.3648 15.4136L40.3872 42.8928L43.6372 40.5248L23.6148 13.0455ZM16.7676 39.342L19.3316 42.7666L46.5484 22.3889L43.9844 18.9644L16.7676 39.342ZM23.4322 18.4851C22.7499 18.9454 22.229 19.3144 21.8805 19.5594C21.5516 19.7906 21.3025 19.9639 20.9352 20.2069L39.6928 48.5644C40.4435 48.0679 40.9874 47.6881 41.432 47.3756C41.857 47.0769 42.0901 46.9117 42.4478 46.6704L23.4322 18.4851ZM43.9581 24.2448L41.2721 20.6309L13.9839 40.9127L16.6699 44.5266L43.9581 24.2448ZM17.6209 17.0292L14.3689 19.3973L34.3831 46.8824L37.6351 44.5143L17.6209 17.0292ZM10.7676 43.3287L13.3316 46.7532L40.5484 26.3755L37.9844 22.951L10.7676 43.3287ZM18.0661 22.0642C17.8409 22.2021 17.6389 22.3316 17.5331 22.3996C17.4106 22.4785 17.2887 22.5578 17.2083 22.6102C17.1108 22.6736 17.0642 22.704 17.0285 22.727C17.0136 22.7366 17.0197 22.7326 17.0397 22.72C17.0524 22.7119 17.1209 22.6684 17.2209 22.6075L34.9071 51.6454C35.0521 51.5571 35.1746 51.4799 35.2483 51.4332C35.3292 51.3818 35.4031 51.3343 35.461 51.297C35.5708 51.2261 35.6892 51.149 35.7597 51.1031C35.8473 51.0461 35.8964 51.0142 35.9314 50.9917C35.9831 50.9584 35.9251 50.9964 35.8139 51.0645L18.0661 22.0642ZM17.2918 22.5646C17.9419 22.1729 18.465 21.9307 18.7762 21.7968C19.1167 21.6504 19.421 21.541 19.6936 21.4558C20.1476 21.3139 20.9779 21.0923 22.1603 21.025L24.0917 54.9701C28.0166 54.7468 31.9058 53.4537 34.8362 51.6883L17.2918 22.5646ZM22.199 21.0229C23.1817 20.9692 24.4326 21.0298 25.8718 21.3855C27.1188 21.6937 29.447 22.4556 31.8352 24.4495L10.0448 50.5489C15.0456 54.7241 20.8263 55.1485 24.053 54.9723L22.199 21.0229ZM32.9407 25.4583L32.8787 25.3965L8.87731 49.4783L8.93931 49.5401L32.9407 25.4583ZM33.4759 26.0228L20.0999 11.2603L-5.09585 34.0896L8.28015 48.8521L33.4759 26.0228ZM20.7842 12.0644L20.5342 11.7515L-6.03022 32.9725L-5.78022 33.2854L20.7842 12.0644ZM14.8268 7.14283L11.5748 5.52426L-3.57482 35.9625L-0.322821 37.5811L14.8268 7.14283ZM21 20.7434V7.84862H-13V20.7434H21ZM5.1065 24.8126C10.462 24.4632 15.3246 23.3875 19.3198 21.8603L7.18017 -9.89858C6.65945 -9.69954 5.178 -9.26435 2.8935 -9.11534L5.1065 24.8126ZM19.3158 21.8619C20.8289 21.284 22.1308 20.7546 22.931 20.4318C23.1367 20.3488 23.2943 20.2855 23.422 20.2347C23.4841 20.21 23.5308 20.1916 23.5652 20.1782C23.6004 20.1644 23.6137 20.1594 23.6099 20.1608C23.6081 20.1615 23.57 20.176 23.5053 20.1992C23.4471 20.2201 23.3145 20.2671 23.1324 20.3261C23.0382 20.3566 22.9096 20.3971 22.7543 20.4428C22.6031 20.4873 22.3877 20.5482 22.1252 20.6139C21.8754 20.6764 21.4838 20.7682 20.9965 20.8544C20.7465 20.8987 20.4298 20.9488 20.0609 20.9928C19.6989 21.0359 19.2165 21.0815 18.6459 21.1011L17.4781 -12.8788C15.5985 -12.8142 14.1491 -12.4385 13.8729 -12.3694C13.3305 -12.2337 12.8967 -12.0975 12.6641 -12.0223C12.1876 -11.8681 11.7788 -11.7151 11.5661 -11.6346C11.1121 -11.4626 10.5944 -11.2539 10.211 -11.0992C9.33116 -10.7443 8.34315 -10.3428 7.1842 -9.90012L19.3158 21.8619ZM18.4527 21.1067L21.1407 21.0449L20.3593 -12.9462L17.6713 -12.8844L18.4527 21.1067ZM20.75 21.0493H20.752V-12.9507H20.75V21.0493Z" fill="#1C2640" mask="url(#path-1-inside-1_6097_28777)"/>
</svg>
