<svg width="130" height="126" viewBox="0 0 130 126" fill="none" xmlns="http://www.w3.org/2000/svg">
<mask id="path-1-inside-1_806_10770" fill="white">
<path d="M67.626 0.000919394C66.516 0.00889267 65.414 0.0627128 64.25 0.373671C62.982 0.716731 61.7788 1.26414 60.688 1.99424C59.156 1.09724 57.672 0.359717 56.25 0.186298C54.484 -0.0309738 52.844 0.0866325 50.938 0.126499C48.678 0.172345 47.204 1.32249 44.812 2.2434C42.422 3.16033 39.344 4.04935 35 4.04935H33V23.235L34.126 23.7952L37.812 25.6031L50.938 40.1782L51 40.24C52.5 41.7191 54.524 42.0859 56.312 41.9842C58.102 41.8845 59.782 41.3623 61.124 40.553C64.078 38.7769 72.124 33.2016 72.124 33.2016L72.312 33.0761L72.438 32.9525C73.39 32.0096 73.868 30.8595 74.188 29.6515L81.874 25.7885L87.624 23.8589L89 23.4204V4.04935H87C83.6381 4.07226 80.3043 3.437 77.188 2.17962C74.796 1.24874 73.344 0.110552 71.06 0.0627125C69.84 0.0387927 68.732 -0.00705388 67.624 0.000919394H67.626ZM67.686 3.98756C68.586 3.97958 69.626 4.02742 70.938 4.04935C71.148 4.05732 73.07 4.87458 75.75 5.91908C78.016 6.80611 81.164 7.59347 85 7.84862V20.556L80.374 22.1148H80.25L80.124 22.1746L74.064 25.2284C73.7423 24.3033 73.2316 23.4549 72.564 22.7367L72.438 22.5493L63.938 12.1482L62.688 10.5894L61.124 11.8353L55.75 16.1966C53.946 17.4425 52.484 17.0837 51 16.384C50.57 16.1807 50.594 16.1189 50.25 15.8857L59.376 8.34694L59.5 8.22336C62.21 5.54434 63.876 4.61745 65.312 4.23672C66.032 4.04138 66.79 3.99553 67.688 3.98756H67.686ZM53.752 4.04935C54.4193 4.02428 55.0875 4.04493 55.752 4.11114C56.276 4.17294 56.87 4.61745 57.378 4.79684C57.174 4.98422 57.026 5.09186 56.814 5.29517L56.69 5.42075L45.752 14.4505L44.064 15.8219L45.564 17.3787C45.564 17.3787 47.01 18.9374 49.252 19.9959C51.494 21.0544 54.956 21.6543 58.064 19.4976L58.19 19.372L62.064 16.1966L69.44 25.2284L69.502 25.3539L69.564 25.4137C70.884 26.7154 70.854 28.7625 69.564 30.0881C69.548 30.102 69.58 30.1339 69.564 30.1479C69.548 30.1578 69.284 30.3133 69.252 30.3372L66.626 26.7851L63.376 29.1532L65.94 32.5777C64.9 33.2794 64.432 33.6461 63.314 34.3857L60.628 30.7718L57.376 33.1398L59.94 36.5644C59.712 36.7039 59.244 37.0168 59.064 37.1265C58.432 37.5072 57.212 37.9358 56.126 37.9976C55.104 38.0534 54.322 37.8182 53.94 37.4992L53.878 37.4374L40.502 22.6749L40.252 22.362L37 20.7434V7.84862C40.82 7.59945 43.992 6.84398 46.25 5.98088C48.922 4.9603 50.83 4.11912 51.062 4.11114L53.75 4.04935H53.752Z"/>
</mask>
<path d="M67.626 0.000919394C66.516 0.00889267 65.414 0.0627128 64.25 0.373671C62.982 0.716731 61.7788 1.26414 60.688 1.99424C59.156 1.09724 57.672 0.359717 56.25 0.186298C54.484 -0.0309738 52.844 0.0866325 50.938 0.126499C48.678 0.172345 47.204 1.32249 44.812 2.2434C42.422 3.16033 39.344 4.04935 35 4.04935H33V23.235L34.126 23.7952L37.812 25.6031L50.938 40.1782L51 40.24C52.5 41.7191 54.524 42.0859 56.312 41.9842C58.102 41.8845 59.782 41.3623 61.124 40.553C64.078 38.7769 72.124 33.2016 72.124 33.2016L72.312 33.0761L72.438 32.9525C73.39 32.0096 73.868 30.8595 74.188 29.6515L81.874 25.7885L87.624 23.8589L89 23.4204V4.04935H87C83.6381 4.07226 80.3043 3.437 77.188 2.17962C74.796 1.24874 73.344 0.110552 71.06 0.0627125C69.84 0.0387927 68.732 -0.00705388 67.624 0.000919394H67.626ZM67.686 3.98756C68.586 3.97958 69.626 4.02742 70.938 4.04935C71.148 4.05732 73.07 4.87458 75.75 5.91908C78.016 6.80611 81.164 7.59347 85 7.84862V20.556L80.374 22.1148H80.25L80.124 22.1746L74.064 25.2284C73.7423 24.3033 73.2316 23.4549 72.564 22.7367L72.438 22.5493L63.938 12.1482L62.688 10.5894L61.124 11.8353L55.75 16.1966C53.946 17.4425 52.484 17.0837 51 16.384C50.57 16.1807 50.594 16.1189 50.25 15.8857L59.376 8.34694L59.5 8.22336C62.21 5.54434 63.876 4.61745 65.312 4.23672C66.032 4.04138 66.79 3.99553 67.688 3.98756H67.686ZM53.752 4.04935C54.4193 4.02428 55.0875 4.04493 55.752 4.11114C56.276 4.17294 56.87 4.61745 57.378 4.79684C57.174 4.98422 57.026 5.09186 56.814 5.29517L56.69 5.42075L45.752 14.4505L44.064 15.8219L45.564 17.3787C45.564 17.3787 47.01 18.9374 49.252 19.9959C51.494 21.0544 54.956 21.6543 58.064 19.4976L58.19 19.372L62.064 16.1966L69.44 25.2284L69.502 25.3539L69.564 25.4137C70.884 26.7154 70.854 28.7625 69.564 30.0881C69.548 30.102 69.58 30.1339 69.564 30.1479C69.548 30.1578 69.284 30.3133 69.252 30.3372L66.626 26.7851L63.376 29.1532L65.94 32.5777C64.9 33.2794 64.432 33.6461 63.314 34.3857L60.628 30.7718L57.376 33.1398L59.94 36.5644C59.712 36.7039 59.244 37.0168 59.064 37.1265C58.432 37.5072 57.212 37.9358 56.126 37.9976C55.104 38.0534 54.322 37.8182 53.94 37.4992L53.878 37.4374L40.502 22.6749L40.252 22.362L37 20.7434V7.84862C40.82 7.59945 43.992 6.84398 46.25 5.98088C48.922 4.9603 50.83 4.11912 51.062 4.11114L53.75 4.04935H53.752Z" fill="#1C2640"/>
<path d="M67.626 0.000919394L67.7481 17.0005L67.626 -16.9991V0.000919394ZM64.25 0.373671L59.8624 -16.0504L59.8363 -16.0434L59.8103 -16.0364L64.25 0.373671ZM60.688 1.99424L52.0984 16.6646L61.2914 22.0471L70.1441 16.1216L60.688 1.99424ZM56.25 0.186298L54.1741 17.0591L54.1831 17.0602L54.192 17.0613L56.25 0.186298ZM50.938 0.126499L51.2828 17.123L51.2935 17.1228L50.938 0.126499ZM44.812 2.2434L50.9013 18.1154L50.9106 18.1118L50.9199 18.1082L44.812 2.2434ZM33 4.04935V-12.9507H16V4.04935H33ZM33 23.235H16V33.7657L25.4285 38.4558L33 23.235ZM34.126 23.7952L26.5545 39.016L26.5971 39.0371L26.6397 39.0581L34.126 23.7952ZM37.812 25.6031L50.4444 14.2267L48.2467 11.7864L45.2983 10.3402L37.812 25.6031ZM50.938 40.1782L38.3056 51.5547L38.6125 51.8954L38.9373 52.2192L50.938 40.1782ZM51 40.24L38.9993 52.281L39.0316 52.3131L39.064 52.3451L51 40.24ZM56.312 41.9842L55.3669 25.0105L55.357 25.011L55.347 25.0116L56.312 41.9842ZM61.124 40.553L52.3644 25.9836L52.3547 25.9894L52.345 25.9952L61.124 40.553ZM72.124 33.2016L62.6813 19.0653L62.5607 19.1458L62.4416 19.2284L72.124 33.2016ZM72.312 33.0761L81.7547 47.2124L83.079 46.3278L84.216 45.2125L72.312 33.0761ZM72.438 32.9525L84.342 45.0889L84.3714 45.0602L84.4006 45.0313L72.438 32.9525ZM74.188 29.6515L66.5537 14.4622L59.7149 17.8994L57.7548 25.2982L74.188 29.6515ZM81.874 25.7885L76.4657 9.67172L75.3197 10.0563L74.2397 10.5991L81.874 25.7885ZM87.624 23.8589L82.4619 7.66163L82.3385 7.70097L82.2157 7.74219L87.624 23.8589ZM89 23.4204L94.1621 39.6177L106 35.845V23.4204H89ZM89 4.04935H106V-12.9507H89V4.04935ZM87 4.04935V-12.9507H86.9421L86.8842 -12.9503L87 4.04935ZM77.188 2.17962L83.5489 -13.5855L83.4514 -13.6248L83.3534 -13.663L77.188 2.17962ZM71.06 0.0627125L71.416 -16.9336L71.4046 -16.9338L71.3932 -16.934L71.06 0.0627125ZM67.624 0.000919394L67.5017 -16.9986L67.624 17.0009V0.000919394ZM67.686 3.98756L67.5354 -13.0118L67.686 20.9876V3.98756ZM70.938 4.04935L71.583 -12.9384L71.4026 -12.9453L71.2221 -12.9483L70.938 4.04935ZM75.75 5.91908L81.9468 -9.91126L81.935 -9.91586L81.9233 -9.92045L75.75 5.91908ZM85 7.84862H102V-8.05822L86.1282 -9.1139L85 7.84862ZM85 20.556L90.4284 36.666L102 32.7669V20.556H85ZM80.374 22.1148V39.1148H83.1612L85.8024 38.2248L80.374 22.1148ZM80.25 22.1148V5.1148H76.4205L72.9609 6.75677L80.25 22.1148ZM80.124 22.1746L72.8349 6.81657L72.6533 6.90276L72.4738 6.99322L80.124 22.1746ZM74.064 25.2284L58.0072 30.8121L64.382 49.1438L81.7142 40.4097L74.064 25.2284ZM72.564 22.7367L58.457 32.2231L59.2026 33.3319L60.1122 34.3106L72.564 22.7367ZM72.438 22.5493L86.545 13.063L86.1029 12.4054L85.6015 11.7919L72.438 22.5493ZM63.938 12.1482L50.6756 22.7835L50.7248 22.8448L50.7745 22.9056L63.938 12.1482ZM62.688 10.5894L75.9504 -0.0458438L65.3498 -13.265L52.0961 -2.70761L62.688 10.5894ZM61.124 11.8353L50.5321 -1.46178L50.4715 -1.41351L50.4113 -1.36469L61.124 11.8353ZM55.75 16.1966L65.4103 30.1851L65.9518 29.8112L66.4627 29.3966L55.75 16.1966ZM51 16.384L43.7332 31.7526L43.7418 31.7567L43.7504 31.7607L51 16.384ZM50.25 15.8857L39.4231 2.77923L21.9336 17.2268L40.7104 29.9568L50.25 15.8857ZM59.376 8.34694L70.2029 21.4534L70.8146 20.948L71.3767 20.3879L59.376 8.34694ZM59.5 8.22336L47.5485 -3.86636L47.5239 -3.84201L47.4993 -3.81755L59.5 8.22336ZM65.312 4.23672L69.6687 20.669L69.7161 20.6564L69.7634 20.6436L65.312 4.23672ZM67.688 3.98756L67.8389 20.9869L67.688 -13.0124V3.98756ZM53.752 4.04935V21.0494H54.0712L54.3902 21.0374L53.752 4.04935ZM55.752 4.11114L57.7429 -12.7719L57.5905 -12.7898L57.4377 -12.8051L55.752 4.11114ZM57.378 4.79684L68.8777 17.3171L89.7076 -1.81497L63.0389 -11.233L57.378 4.79684ZM56.814 5.29517L45.047 -6.97424L44.88 -6.81402L44.7173 -6.64931L56.814 5.29517ZM56.69 5.42075L67.5127 18.5306L68.1793 17.9803L68.7867 17.3652L56.69 5.42075ZM45.752 14.4505L56.4716 27.6448L56.5233 27.6028L56.5747 27.5604L45.752 14.4505ZM44.064 15.8219L33.3444 2.62758L18.9846 14.294L31.822 27.6174L44.064 15.8219ZM45.564 17.3787L58.0272 5.81715L57.9177 5.69913L57.806 5.5832L45.564 17.3787ZM58.064 19.4976L67.756 33.4641L68.9958 32.6038L70.0646 31.5386L58.064 19.4976ZM58.19 19.372L47.4133 6.22424L46.7745 6.74788L46.1894 7.33099L58.19 19.372ZM62.064 16.1966L75.231 5.44347L64.4586 -7.74706L51.2873 3.04888L62.064 16.1966ZM69.44 25.2284L84.6834 17.7024L83.8285 15.9709L82.607 14.4752L69.44 25.2284ZM69.502 25.3539L54.2586 32.8799L55.5693 35.5345L57.7002 37.5898L69.502 25.3539ZM69.564 25.4137L81.5003 13.309L81.4334 13.2431L81.3658 13.1779L69.564 25.4137ZM69.564 30.0881L80.7374 42.9004L81.2618 42.4431L81.7471 41.9444L69.564 30.0881ZM69.564 30.1479L78.5523 44.5774L79.7097 43.8564L80.7374 42.9602L69.564 30.1479ZM69.252 30.3372L55.582 40.4432L65.7416 54.1857L79.4302 43.9536L69.252 30.3372ZM66.626 26.7851L80.296 16.6792L70.2597 3.10342L56.6148 13.0455L66.626 26.7851ZM63.376 29.1532L53.3648 15.4136L39.4455 25.5557L49.7676 39.342L63.376 29.1532ZM65.94 32.5777L75.4478 46.6704L90.2508 36.6833L79.5484 22.3889L65.94 32.5777ZM63.314 34.3857L49.6699 44.5266L59.2701 57.4432L72.6928 48.5644L63.314 34.3857ZM60.628 30.7718L74.2721 20.6309L64.2298 7.1194L50.6209 17.0292L60.628 30.7718ZM57.376 33.1398L47.3689 19.3973L33.4425 29.5383L43.7676 43.3287L57.376 33.1398ZM59.94 36.5644L68.8139 51.0645L84.7373 41.3196L73.5484 26.3755L59.94 36.5644ZM59.064 37.1265L67.8362 51.6883L67.8717 51.667L67.9071 51.6454L59.064 37.1265ZM56.126 37.9976L57.053 54.9723L57.0724 54.9712L57.0917 54.9701L56.126 37.9976ZM53.94 37.4992L41.9393 49.5401L42.4698 50.0689L43.0448 50.5489L53.94 37.4992ZM53.878 37.4374L41.2801 48.8521L41.5708 49.1728L41.8773 49.4783L53.878 37.4374ZM40.502 22.6749L27.2198 33.2854L27.5495 33.6981L27.9041 34.0896L40.502 22.6749ZM40.252 22.362L53.5342 11.7515L51.1897 8.81659L47.8268 7.14283L40.252 22.362ZM37 20.7434H20V31.2715L29.4252 35.9625L37 20.7434ZM37 7.84862L35.8935 -9.11534L20 -8.07866V7.84862H37ZM46.25 5.98088L40.1842 -9.90012L40.1802 -9.89858L46.25 5.98088ZM51.062 4.11114L50.6713 -12.8844L50.5747 -12.8821L50.4781 -12.8788L51.062 4.11114ZM53.75 4.04935V-12.9507H53.5546L53.3593 -12.9462L53.75 4.04935ZM67.5039 -16.9986C65.9848 -16.9877 63.1495 -16.9285 59.8624 -16.0504L68.6376 16.7977C67.6785 17.0539 67.0472 17.0055 67.7481 17.0005L67.5039 -16.9986ZM59.8103 -16.0364C56.7586 -15.2107 53.8608 -13.8928 51.2319 -12.1331L70.1441 16.1216C69.6967 16.421 69.2053 16.6442 68.6897 16.7837L59.8103 -16.0364ZM69.2776 -12.6761C67.6586 -13.624 63.5222 -16.0528 58.308 -16.6887L54.192 17.0613C52.793 16.8907 51.9026 16.5181 51.7145 16.4373C51.5196 16.3535 51.5836 16.3632 52.0984 16.6646L69.2776 -12.6761ZM58.3259 -16.6865C54.9699 -17.0994 51.4077 -16.887 50.5825 -16.8698L51.2935 17.1228C51.8649 17.1108 52.4363 17.0925 52.8243 17.0811C53.2588 17.0683 53.5453 17.0614 53.7879 17.0594C54.2487 17.0556 54.2961 17.0741 54.1741 17.0591L58.3259 -16.6865ZM50.5932 -16.87C46.4067 -16.7851 43.1893 -15.6118 41.2107 -14.7613C40.4154 -14.4194 39.4946 -13.9787 39.2689 -13.8733C38.8764 -13.6901 38.7527 -13.6401 38.7041 -13.6214L50.9199 18.1082C52.0673 17.6665 53.0249 17.2273 53.6521 16.9345C53.8076 16.8619 53.9581 16.791 54.0761 16.7355C54.203 16.6758 54.2973 16.6314 54.385 16.5906C54.5624 16.508 54.6266 16.4799 54.6383 16.4749C54.6592 16.4659 54.2763 16.6346 53.6535 16.797C53.3334 16.8804 52.9621 16.9595 52.5479 17.0192C52.1324 17.079 51.7083 17.1144 51.2828 17.123L50.5932 -16.87ZM38.7227 -13.6286C38.1209 -13.3977 37.6493 -13.2523 37.1597 -13.15C36.674 -13.0484 35.9841 -12.9507 35 -12.9507V21.0494C41.9217 21.0494 47.0919 19.5769 50.9013 18.1154L38.7227 -13.6286ZM35 -12.9507H33V21.0494H35V-12.9507ZM16 4.04935V23.235H50V4.04935H16ZM25.4285 38.4558L26.5545 39.016L41.6975 8.57438L40.5715 8.01425L25.4285 38.4558ZM26.6397 39.0581L30.3257 40.866L45.2983 10.3402L41.6123 8.53227L26.6397 39.0581ZM25.1796 36.9795L38.3056 51.5547L63.5704 28.8018L50.4444 14.2267L25.1796 36.9795ZM38.9373 52.2192L38.9993 52.281L63.0007 28.1991L62.9387 28.1373L38.9373 52.2192ZM39.064 52.3451C45.2763 58.4706 52.8688 59.2074 57.277 58.9568L55.347 25.0116C56.1792 24.9643 59.7237 24.9676 62.936 28.135L39.064 52.3451ZM57.2571 58.9579C61.6543 58.7131 66.0507 57.4339 69.903 55.1108L52.345 25.9952C53.5133 25.2906 54.5497 25.056 55.3669 25.0105L57.2571 58.9579ZM69.8837 55.1224C71.8379 53.9474 74.993 51.8287 77.2786 50.2775C78.5054 49.4448 79.6332 48.672 80.453 48.1083C80.8637 47.8259 81.1989 47.5947 81.4328 47.4332C81.5498 47.3524 81.6416 47.2889 81.7049 47.2451C81.7366 47.2232 81.7611 47.2062 81.7782 47.1944C81.7867 47.1885 81.7934 47.1839 81.7981 47.1806C81.8004 47.179 81.8023 47.1777 81.8037 47.1767C81.8044 47.1762 81.805 47.1758 81.8055 47.1755C81.8057 47.1754 81.8059 47.1752 81.806 47.1751C81.8063 47.175 81.8064 47.1748 72.124 33.2016C62.4416 19.2284 62.4417 19.2283 62.4418 19.2283C62.4418 19.2283 62.4418 19.2282 62.4418 19.2283C62.4418 19.2283 62.4416 19.2284 62.4413 19.2286C62.4408 19.229 62.4397 19.2297 62.4382 19.2307C62.4352 19.2328 62.4303 19.2363 62.4235 19.241C62.4099 19.2503 62.3889 19.2649 62.361 19.2842C62.305 19.323 62.221 19.381 62.1122 19.4561C61.8946 19.6064 61.5781 19.8247 61.1883 20.0927C60.4072 20.6299 59.3388 21.3619 58.1849 22.1451C55.709 23.8255 53.3641 25.3825 52.3644 25.9836L69.8837 55.1224ZM81.5667 47.338L81.7547 47.2124L62.8693 18.9397L62.6813 19.0653L81.5667 47.338ZM84.216 45.2125L84.342 45.0889L60.534 20.816L60.408 20.9396L84.216 45.2125ZM84.4006 45.0313C88.4013 41.069 89.9299 36.6143 90.6212 34.0049L57.7548 25.2982C57.8061 25.1047 58.3787 22.9502 60.4754 20.8737L84.4006 45.0313ZM81.8223 44.8409L89.5083 40.9779L74.2397 10.5991L66.5537 14.4622L81.8223 44.8409ZM87.2823 41.9052L93.0323 39.9757L82.2157 7.74219L76.4657 9.67172L87.2823 41.9052ZM92.7861 40.0563L94.1621 39.6177L83.8379 7.2231L82.4619 7.66163L92.7861 40.0563ZM106 23.4204V4.04935H72V23.4204H106ZM89 -12.9507H87V21.0494H89V-12.9507ZM86.8842 -12.9503C85.7399 -12.9425 84.6066 -13.1587 83.5489 -13.5855L70.8271 17.9447C76.0021 20.0327 81.5362 21.087 87.1158 21.049L86.8842 -12.9503ZM83.3534 -13.663C83.2931 -13.6864 83.1622 -13.7403 82.7615 -13.9283C82.5194 -14.0418 81.6063 -14.4806 80.7915 -14.8306C78.7673 -15.6998 75.5702 -16.8465 71.416 -16.9336L70.704 17.059C70.2968 17.0505 69.8863 17.0168 69.4798 16.9588C69.0741 16.9009 68.7072 16.8238 68.3869 16.7409C68.0699 16.6589 67.8179 16.5763 67.6448 16.5143C67.4761 16.454 67.3771 16.4113 67.3755 16.4106C67.3737 16.4098 67.3899 16.4168 67.43 16.4349C67.4708 16.4534 67.5273 16.4793 67.609 16.5175C67.6929 16.5567 67.7851 16.6001 67.9085 16.6584C68.0225 16.7122 68.1719 16.7828 68.3236 16.854C68.9393 17.1427 69.8869 17.5802 71.0226 18.0222L83.3534 -13.663ZM71.3932 -16.934C70.6759 -16.9481 68.8993 -17.0087 67.5017 -16.9986L67.7463 17.0005C68.5647 16.9946 69.0041 17.0257 70.7268 17.0594L71.3932 -16.934ZM67.624 17.0009H67.626V-16.9991H67.624V17.0009ZM67.8366 20.9869C68.5159 20.9809 68.583 21.0124 70.6539 21.047L71.2221 -12.9483C70.669 -12.9575 68.6561 -13.0217 67.5354 -13.0118L67.8366 20.9869ZM70.293 21.0371C69.6917 21.0143 69.1895 20.9629 68.8271 20.9174C68.4553 20.8706 68.1389 20.8181 67.8951 20.7734C67.4203 20.6863 67.0413 20.5953 66.808 20.5359C66.5605 20.473 66.3585 20.4154 66.2191 20.3741C66.0754 20.3316 65.957 20.2943 65.8713 20.2666C65.7056 20.2131 65.586 20.171 65.5355 20.1531C65.5056 20.1425 65.4834 20.1344 65.4702 20.1296C65.4568 20.1247 65.4493 20.1219 65.4485 20.1216C65.4481 20.1214 65.4637 20.1272 65.4993 20.141C65.5342 20.1544 65.5809 20.1725 65.6416 20.1963C65.7653 20.2448 65.9204 20.3063 66.1175 20.385C66.8722 20.6861 68.1519 21.2033 69.5767 21.7586L81.9233 -9.92045C80.6681 -10.4096 79.6468 -10.8233 78.718 -11.1939C78.3081 -11.3575 77.8032 -11.5579 77.3547 -11.7256C77.1468 -11.8033 76.7627 -11.9451 76.3189 -12.0884C76.1049 -12.1575 75.6967 -12.2858 75.1864 -12.4156C74.9268 -12.4816 74.5248 -12.5778 74.0303 -12.6685C73.6029 -12.7469 72.7157 -12.8954 71.583 -12.9384L70.293 21.0371ZM69.5532 21.7494C73.5258 23.3045 78.3918 24.4466 83.8718 24.8111L86.1282 -9.1139C83.9362 -9.2597 82.5062 -9.69229 81.9468 -9.91126L69.5532 21.7494ZM68 7.84862V20.556H102V7.84862H68ZM79.5716 4.44602L74.9456 6.00479L85.8024 38.2248L90.4284 36.666L79.5716 4.44602ZM80.374 5.1148H80.25V39.1148H80.374V5.1148ZM72.9609 6.75677L72.8349 6.81657L87.4131 37.5326L87.5391 37.4728L72.9609 6.75677ZM72.4738 6.99322L66.4138 10.047L81.7142 40.4097L87.7742 37.356L72.4738 6.99322ZM90.1208 19.6446C89.0245 16.4919 87.285 13.6043 85.0158 11.1629L60.1122 34.3106C59.1781 33.3055 58.4602 32.1147 58.0072 30.8121L90.1208 19.6446ZM86.671 13.2503L86.545 13.063L58.331 32.0357L58.457 32.2231L86.671 13.2503ZM85.6015 11.7919L77.1015 1.39076L50.7745 22.9056L59.2745 33.3068L85.6015 11.7919ZM77.2004 1.51293L75.9504 -0.0458438L49.4256 21.2247L50.6756 22.7835L77.2004 1.51293ZM52.0961 -2.70761L50.5321 -1.46178L71.7159 25.1323L73.2799 23.8865L52.0961 -2.70761ZM50.4113 -1.36469L45.0373 2.99669L66.4627 29.3966L71.8367 25.0352L50.4113 -1.36469ZM46.0897 2.20813C47.8112 1.01925 50.4896 -0.0629129 53.724 0.0263431C55.1327 0.0652187 56.2624 0.320174 57.0146 0.54659C57.732 0.762531 58.191 0.979684 58.2496 1.00729L43.7504 31.7607C45.2259 32.4564 48.5006 33.8951 52.786 34.0134C57.5734 34.1455 61.8848 32.6198 65.4103 30.1851L46.0897 2.20813ZM58.2668 1.01541C58.5025 1.12687 58.9378 1.34182 59.4747 1.66291C59.7502 1.82766 60.0275 2.0053 60.3038 2.19555C60.5793 2.38518 60.8074 2.55532 60.9772 2.68636C61.1272 2.80209 61.2412 2.89506 61.223 2.88029C61.1836 2.84844 61.2554 2.90654 61.206 2.86657C61.1959 2.85837 61.1796 2.84513 61.1602 2.82954C61.121 2.79794 61.063 2.75138 60.9932 2.69617C60.6705 2.4411 60.2718 2.14151 59.7896 1.81459L40.7104 29.9568C40.4002 29.7465 40.1275 29.542 39.9105 29.3705C39.8386 29.3136 39.7671 29.2555 39.8272 29.3042C39.8549 29.3266 40.0129 29.455 40.2083 29.6057C40.6934 29.98 41.2957 30.4074 42.0249 30.8434C42.689 31.2406 43.2825 31.5395 43.7332 31.7526L58.2668 1.01541ZM61.0769 28.9921L70.2029 21.4534L48.5491 -4.7595L39.4231 2.77923L61.0769 28.9921ZM71.3767 20.3879L71.5007 20.2643L47.4993 -3.81755L47.3753 -3.69397L71.3767 20.3879ZM71.4515 20.3131C72.3162 19.4582 72.5291 19.372 72.219 19.5757C72.0351 19.6965 71.699 19.8989 71.2223 20.1159C70.7306 20.3397 70.2034 20.5272 69.6687 20.669L60.9553 -12.1955C55.4124 -10.726 51.2156 -7.4916 47.5485 -3.86636L71.4515 20.3131ZM69.7634 20.6436C68.9827 20.8554 68.3637 20.9353 68.0265 20.9671C67.7262 20.9953 67.5961 20.989 67.8389 20.9869L67.5371 -13.0118C66.3342 -13.0011 63.7734 -12.9604 60.8606 -12.1701L69.7634 20.6436ZM67.688 -13.0124H67.686V20.9876H67.688V-13.0124ZM54.3902 21.0374C54.2821 21.0414 54.1739 21.0381 54.0663 21.0274L57.4377 -12.8051C56.0012 -12.9482 54.5565 -12.9929 53.1138 -12.9387L54.3902 21.0374ZM53.7611 20.9942C52.8446 20.8861 52.07 20.7137 51.4691 20.5494C50.8676 20.385 50.3756 20.2109 50.0176 20.0723C49.3495 19.8136 48.8868 19.5741 48.8582 19.5596C48.8348 19.5477 48.8141 19.5368 48.9174 19.5906C48.9852 19.626 49.1609 19.7178 49.3618 19.8185C49.5683 19.9221 49.8763 20.0731 50.2474 20.2389C50.6169 20.4041 51.1178 20.615 51.7171 20.8266L63.0389 -11.233C63.914 -10.9239 64.5252 -10.613 64.6048 -10.5731C64.6704 -10.5402 64.7093 -10.5195 64.6395 -10.5559C64.6051 -10.5739 64.4459 -10.6572 64.2838 -10.7398C63.9777 -10.8956 63.2365 -11.2691 62.2938 -11.6341C61.3682 -11.9924 59.7766 -12.5321 57.7429 -12.7719L53.7611 20.9942ZM45.8783 -7.7234C46.069 -7.89859 46.2711 -8.06794 46.0809 -7.90605C45.9109 -7.76141 45.519 -7.42688 45.047 -6.97424L68.581 17.5646C68.4571 17.6834 68.3436 17.7871 68.2485 17.8714C68.1618 17.9484 68.1003 18.0004 68.1171 17.9861C68.1212 17.9826 68.1263 17.9783 68.1384 17.968C68.1486 17.9593 68.1658 17.9448 68.184 17.9292C68.2211 17.8977 68.2782 17.849 68.3448 17.7915C68.4837 17.6715 68.6665 17.5111 68.8777 17.3171L45.8783 -7.7234ZM44.7173 -6.64931L44.5933 -6.52373L68.7867 17.3652L68.9107 17.2397L44.7173 -6.64931ZM45.8673 -7.68913L34.9293 1.3406L56.5747 27.5604L67.5127 18.5306L45.8673 -7.68913ZM35.0324 1.25617L33.3444 2.62758L54.7836 29.0162L56.4716 27.6448L35.0324 1.25617ZM31.822 27.6174L33.322 29.1741L57.806 5.5832L56.306 4.02641L31.822 27.6174ZM45.564 17.3787C33.1008 28.9402 33.1033 28.9428 33.1057 28.9455C33.1066 28.9464 33.109 28.9491 33.1107 28.9509C33.114 28.9544 33.1174 28.958 33.1208 28.9617C33.1276 28.969 33.1344 28.9764 33.1415 28.9839C33.1555 28.9989 33.17 29.0144 33.1849 29.0303C33.2149 29.0621 33.2467 29.0957 33.2804 29.131C33.3478 29.2017 33.4229 29.2793 33.5054 29.3633C33.6703 29.5311 33.8666 29.7258 34.0932 29.9418C34.5432 30.371 35.129 30.9001 35.84 31.4785C37.2154 32.5973 39.2992 34.0964 41.9944 35.3688L56.5096 4.62296C56.9628 4.8369 57.2026 5.02748 57.2945 5.10224C57.3638 5.15862 57.4479 5.23193 57.5568 5.33574C57.6127 5.38907 57.6786 5.4537 57.7556 5.53209C57.7942 5.57142 57.8361 5.61455 57.8812 5.66184C57.9037 5.6855 57.9272 5.71023 57.9515 5.73609C57.9636 5.74902 57.976 5.76223 57.9887 5.77574C57.995 5.7825 58.0013 5.78932 58.0077 5.79622C58.011 5.79968 58.0142 5.80314 58.0174 5.80663C58.019 5.80838 58.0215 5.81101 58.0223 5.81188C58.0247 5.81451 58.0272 5.81715 45.564 17.3787ZM41.9944 35.3688C47.409 37.9251 57.854 40.3355 67.756 33.4641L48.372 5.53099C50.0366 4.37584 51.9245 3.94019 53.474 3.95303C54.8307 3.96426 55.8276 4.30098 56.5096 4.62296L41.9944 35.3688ZM70.0646 31.5386L70.1906 31.413L46.1894 7.33099L46.0634 7.45657L70.0646 31.5386ZM68.9667 32.5197L72.8407 29.3444L51.2873 3.04888L47.4133 6.22424L68.9667 32.5197ZM48.897 26.9498L56.273 35.9815L82.607 14.4752L75.231 5.44347L48.897 26.9498ZM54.1966 32.7543L54.2586 32.8799L84.7454 17.828L84.6834 17.7024L54.1966 32.7543ZM57.7002 37.5898L57.7622 37.6496L81.3658 13.1779L81.3038 13.1181L57.7002 37.5898ZM57.6277 37.5185C51.9602 31.9298 52.4847 23.2629 57.3809 18.2318L81.7471 41.9444C89.2233 34.2621 89.8078 21.5009 81.5003 13.309L57.6277 37.5185ZM58.3906 17.2757C58.1069 17.5232 57.8261 17.7846 57.5501 18.0603C57.2739 18.3361 57.0038 18.6249 56.7411 18.9267C56.4783 19.2285 56.2244 19.5416 55.9804 19.8658C55.7363 20.1899 55.5038 20.523 55.2832 20.8644C55.0626 21.2058 54.8554 21.5532 54.6617 21.9057C54.468 22.2583 54.289 22.6137 54.1243 22.9709C53.794 23.6868 53.526 24.3985 53.3116 25.0953C52.8828 26.4892 52.6808 27.7826 52.6019 28.8969C52.5625 29.4538 52.5533 29.9717 52.5629 30.4432C52.5724 30.9145 52.6008 31.348 52.6384 31.7377C52.6761 32.1274 52.7241 32.4829 52.7749 32.7993C52.8257 33.1158 52.8809 33.4024 52.9348 33.6549C52.9888 33.9075 53.0432 34.1345 53.0939 34.3318C53.1445 34.5292 53.1933 34.7048 53.2368 34.8542C53.2802 35.0037 53.3204 35.1344 53.3544 35.2417C53.3883 35.3489 53.4183 35.4399 53.4414 35.5089C53.4644 35.5776 53.4834 35.6329 53.4948 35.6662C53.5007 35.6832 53.5056 35.6971 53.5085 35.7056C53.51 35.7099 53.5112 35.7134 53.512 35.7156C53.5124 35.7168 53.5127 35.7177 53.5129 35.7183C53.5131 35.7189 53.5133 35.7193 53.5133 35.7194C53.5138 35.7208 53.5117 35.7148 53.5093 35.7077C53.5065 35.6999 53.502 35.6868 53.4963 35.6705C53.4854 35.6387 53.4668 35.5847 53.4443 35.5175C53.4217 35.4499 53.3922 35.3603 53.3587 35.2545C53.3252 35.1487 53.2854 35.0194 53.2424 34.8713C53.1993 34.7232 53.1509 34.5491 53.1006 34.353C53.0504 34.1571 52.9962 33.9314 52.9426 33.6802C52.889 33.4291 52.834 33.1438 52.7834 32.8286C52.7328 32.5136 52.685 32.1594 52.6474 31.771C52.6099 31.3826 52.5816 30.9504 52.5721 30.4803C52.5626 30.01 52.5717 29.4934 52.611 28.9377C52.6897 27.8258 52.8913 26.5348 53.3195 25.1431C53.5335 24.4474 53.8011 23.7368 54.1309 23.0219C54.2954 22.6653 54.4742 22.3104 54.6676 21.9584C54.861 21.6063 55.0678 21.2594 55.2881 20.9186C55.5084 20.5777 55.7406 20.2451 55.9843 19.9214C56.2279 19.5978 56.4814 19.2851 56.7438 18.9838C57.0061 18.6824 57.2758 18.3941 57.5515 18.1188C57.8271 17.8435 58.1074 17.5826 58.3906 17.3355L80.7374 42.9602C81.0211 42.7127 81.3019 42.4513 81.5779 42.1756C81.8541 41.8998 82.1242 41.6111 82.3869 41.3093C82.6497 41.0074 82.9036 40.6943 83.1476 40.3702C83.3917 40.046 83.6242 39.7129 83.8448 39.3716C84.0654 39.0302 84.2726 38.6827 84.4663 38.3302C84.66 37.9777 84.839 37.6222 85.0037 37.2651C85.334 36.5492 85.602 35.8375 85.8164 35.1406C86.2452 33.7467 86.4472 32.4533 86.5261 31.339C86.5655 30.7821 86.5747 30.2643 86.5651 29.7927C86.5556 29.3214 86.5272 28.8879 86.4896 28.4982C86.4519 28.1085 86.4039 27.753 86.3531 27.4366C86.3023 27.1202 86.2471 26.8335 86.1932 26.5811C86.1392 26.3285 86.0848 26.1015 86.0341 25.9041C85.9835 25.7067 85.9347 25.5312 85.8912 25.3817C85.8478 25.2322 85.8076 25.1015 85.7736 24.9942C85.7397 24.8871 85.7097 24.7961 85.6866 24.727C85.6636 24.6584 85.6446 24.603 85.6332 24.5698C85.6273 24.5527 85.6224 24.5389 85.6195 24.5304C85.618 24.526 85.6167 24.5225 85.616 24.5203C85.6156 24.5192 85.6153 24.5182 85.6151 24.5176C85.6149 24.5171 85.6147 24.5166 85.6147 24.5166C85.6142 24.5152 85.6163 24.5212 85.6187 24.5282C85.6214 24.536 85.626 24.5491 85.6317 24.5655C85.6426 24.5973 85.6612 24.6512 85.6837 24.7184C85.7063 24.7861 85.7358 24.8757 85.7693 24.9814C85.8028 25.0873 85.8426 25.2165 85.8856 25.3646C85.9287 25.5127 85.9771 25.6869 86.0274 25.8829C86.0776 26.0789 86.1318 26.3045 86.1854 26.5557C86.239 26.8069 86.294 27.0922 86.3446 27.4073C86.3952 27.7223 86.443 28.0765 86.4806 28.465C86.5181 28.8534 86.5464 29.2856 86.5559 29.7557C86.5654 30.2259 86.5563 30.7426 86.517 31.2982C86.4383 32.4101 86.2366 33.7012 85.8085 35.0928C85.5945 35.7885 85.3269 36.4992 84.9971 37.214C84.8326 37.5706 84.6538 37.9255 84.4604 38.2776C84.267 38.6296 84.0602 38.9765 83.8399 39.3174C83.6196 39.6583 83.3874 39.9908 83.1437 40.3145C82.9001 40.6382 82.6466 40.9508 82.3842 41.2522C82.1219 41.5535 81.8522 41.8418 81.5765 42.1171C81.3009 42.3924 81.0206 42.6534 80.7374 42.9004L58.3906 17.2757ZM60.5757 15.7184C60.6698 15.6598 60.744 15.6149 60.7563 15.6075C60.7826 15.5915 60.8031 15.5792 60.8122 15.5737C60.831 15.5624 60.8443 15.5546 60.8443 15.5545C60.845 15.5541 60.8437 15.5549 60.8247 15.5662C60.7967 15.5828 60.7418 15.6155 60.6817 15.6515C60.6299 15.6825 60.5314 15.7416 60.4232 15.808C60.3731 15.8387 60.2717 15.9011 60.1495 15.9788C60.0893 16.0171 59.983 16.0852 59.853 16.1716C59.7865 16.2157 59.6914 16.2796 59.5783 16.3579C59.475 16.4294 59.2942 16.5562 59.0738 16.7209L79.4302 43.9536C79.2118 44.1168 79.0334 44.2418 78.933 44.3113C78.8228 44.3877 78.731 44.4493 78.6682 44.491C78.5456 44.5724 78.4483 44.6347 78.3983 44.6665C78.2968 44.731 78.2214 44.7773 78.2008 44.7899C78.1516 44.8201 78.1261 44.8352 78.1463 44.8232C78.1582 44.816 78.1743 44.8065 78.2013 44.7904C78.2098 44.7854 78.232 44.7722 78.2503 44.7612C78.2591 44.756 78.2798 44.7437 78.3042 44.729C78.3162 44.7218 78.339 44.7081 78.3673 44.691C78.3815 44.6824 78.4572 44.6366 78.5523 44.5774L60.5757 15.7184ZM82.922 20.2312L80.296 16.6792L52.956 36.8911L55.582 40.4432L82.922 20.2312ZM56.6148 13.0455L53.3648 15.4136L73.3871 42.8928L76.6371 40.5247L56.6148 13.0455ZM49.7676 39.342L52.3316 42.7666L79.5484 22.3889L76.9844 18.9644L49.7676 39.342ZM56.4322 18.4851C55.7499 18.9454 55.229 19.3144 54.8805 19.5594C54.5516 19.7906 54.3025 19.9639 53.9352 20.2069L72.6928 48.5644C73.4435 48.0679 73.9874 47.6881 74.432 47.3756C74.857 47.0769 75.0901 46.9117 75.4478 46.6704L56.4322 18.4851ZM76.9581 24.2448L74.2721 20.6309L46.9839 40.9127L49.6699 44.5266L76.9581 24.2448ZM50.6209 17.0292L47.3689 19.3973L67.3831 46.8824L70.6351 44.5143L50.6209 17.0292ZM43.7676 43.3287L46.3316 46.7532L73.5484 26.3755L70.9844 22.951L43.7676 43.3287ZM51.0661 22.0642C50.8409 22.2021 50.6389 22.3316 50.5331 22.3996C50.4106 22.4785 50.2887 22.5578 50.2083 22.6102C50.1108 22.6736 50.0642 22.704 50.0285 22.727C50.0136 22.7366 50.0197 22.7326 50.0397 22.72C50.0524 22.7119 50.1209 22.6684 50.2209 22.6075L67.9071 51.6454C68.0521 51.5571 68.1746 51.4799 68.2483 51.4332C68.3292 51.3819 68.4031 51.3343 68.461 51.297C68.5708 51.2261 68.6892 51.149 68.7597 51.1031C68.8473 51.0461 68.8964 51.0142 68.9314 50.9916C68.9831 50.9584 68.9251 50.9964 68.8139 51.0645L51.0661 22.0642ZM50.2918 22.5646C50.9419 22.1729 51.465 21.9307 51.7762 21.7968C52.1167 21.6504 52.421 21.541 52.6936 21.4558C53.1476 21.3139 53.9779 21.0923 55.1603 21.025L57.0917 54.9701C61.0166 54.7468 64.9058 53.4537 67.8362 51.6883L50.2918 22.5646ZM55.199 21.0229C56.1817 20.9692 57.4326 21.0298 58.8718 21.3855C60.1188 21.6937 62.447 22.4556 64.8352 24.4495L43.0448 50.5489C48.0456 54.7241 53.8263 55.1485 57.053 54.9723L55.199 21.0229ZM65.9407 25.4583L65.8787 25.3965L41.8773 49.4783L41.9393 49.5401L65.9407 25.4583ZM66.4759 26.0228L53.0999 11.2603L27.9041 34.0896L41.2801 48.8521L66.4759 26.0228ZM53.7842 12.0644L53.5342 11.7515L26.9698 32.9725L27.2198 33.2854L53.7842 12.0644ZM47.8268 7.14283L44.5748 5.52426L29.4252 35.9625L32.6772 37.5811L47.8268 7.14283ZM54 20.7434V7.84862H20V20.7434H54ZM38.1065 24.8126C43.462 24.4632 48.3246 23.3875 52.3198 21.8603L40.1802 -9.89858C39.6594 -9.69954 38.178 -9.26435 35.8935 -9.11534L38.1065 24.8126ZM52.3158 21.8619C53.8289 21.284 55.1308 20.7546 55.931 20.4318C56.1367 20.3488 56.2943 20.2855 56.422 20.2347C56.4841 20.21 56.5308 20.1916 56.5652 20.1782C56.6004 20.1644 56.6137 20.1594 56.6099 20.1608C56.6081 20.1615 56.57 20.176 56.5053 20.1992C56.4471 20.2201 56.3145 20.2671 56.1324 20.3261C56.0382 20.3566 55.9096 20.3971 55.7543 20.4428C55.6031 20.4873 55.3877 20.5482 55.1252 20.6139C54.8754 20.6764 54.4838 20.7682 53.9965 20.8544C53.7465 20.8987 53.4298 20.9488 53.0609 20.9928C52.6989 21.0359 52.2165 21.0815 51.6459 21.1011L50.4781 -12.8788C48.5985 -12.8142 47.1491 -12.4385 46.8729 -12.3694C46.3305 -12.2337 45.8967 -12.0975 45.6641 -12.0223C45.1876 -11.8681 44.7788 -11.7151 44.5661 -11.6346C44.1121 -11.4626 43.5944 -11.2539 43.211 -11.0992C42.3312 -10.7443 41.3431 -10.3428 40.1842 -9.90012L52.3158 21.8619ZM51.4527 21.1067L54.1407 21.0449L53.3593 -12.9462L50.6713 -12.8844L51.4527 21.1067ZM53.75 21.0494H53.752V-12.9507H53.75V21.0494Z" fill="#1C2640" mask="url(#path-1-inside-1_806_10770)"/>
<path d="M4.33337 80.224C2.57338 80.224 1.34138 79.5147 0.637375 78.096L2.54138 77.008C2.89338 77.712 3.49071 78.064 4.33337 78.064C4.92004 78.064 5.35738 77.9253 5.64538 77.648C5.93338 77.3707 6.07738 76.992 6.07738 76.512V68.8H8.26938V76.512C8.26938 77.6853 7.90138 78.5973 7.16538 79.248C6.42938 79.8987 5.48538 80.224 4.33337 80.224ZM12.4668 77.888H17.1868V80H10.2588V68.8H17.1068V70.912H12.4668V73.296H16.7068V75.376H12.4668V77.888ZM23.1911 68.8C24.7271 68.8 26.0071 69.3387 27.0311 70.416C28.0658 71.4933 28.5831 72.8213 28.5831 74.4C28.5831 75.9787 28.0658 77.3067 27.0311 78.384C26.0071 79.4613 24.7271 80 23.1911 80H18.7431V68.8H23.1911ZM23.1911 77.888C24.1618 77.888 24.9511 77.568 25.5591 76.928C26.1671 76.2773 26.4711 75.4347 26.4711 74.4C26.4711 73.3653 26.1671 72.528 25.5591 71.888C24.9511 71.2373 24.1618 70.912 23.1911 70.912H20.9511V77.888H23.1911ZM36.6294 68.8H38.8374V80H37.1574L32.3574 73.152V80H30.1494V68.8H31.8294L36.6294 75.632V68.8ZM50.339 78.544C49.2083 79.664 47.8323 80.224 46.211 80.224C44.5897 80.224 43.2137 79.664 42.083 78.544C40.963 77.4133 40.403 76.032 40.403 74.4C40.403 72.768 40.963 71.392 42.083 70.272C43.2137 69.1413 44.5897 68.576 46.211 68.576C47.8323 68.576 49.2083 69.1413 50.339 70.272C51.4697 71.392 52.035 72.768 52.035 74.4C52.035 76.032 51.4697 77.4133 50.339 78.544ZM43.635 77.04C44.3283 77.7227 45.187 78.064 46.211 78.064C47.235 78.064 48.0937 77.7227 48.787 77.04C49.4803 76.3467 49.827 75.4667 49.827 74.4C49.827 73.3333 49.4803 72.4533 48.787 71.76C48.0937 71.0667 47.235 70.72 46.211 70.72C45.187 70.72 44.3283 71.0667 43.635 71.76C42.9417 72.4533 42.595 73.3333 42.595 74.4C42.595 75.4667 42.9417 76.3467 43.635 77.04ZM57.0046 80.224C55.8953 80.224 54.962 79.9787 54.2046 79.488C53.4473 78.9867 52.914 78.3093 52.6046 77.456L54.4926 76.352C54.93 77.4933 55.7886 78.064 57.0686 78.064C57.6873 78.064 58.1406 77.952 58.4286 77.728C58.7166 77.504 58.8606 77.2213 58.8606 76.88C58.8606 76.4853 58.6846 76.1813 58.3326 75.968C57.9806 75.744 57.3513 75.504 56.4446 75.248C55.9433 75.0987 55.5166 74.9493 55.1646 74.8C54.8233 74.6507 54.4766 74.4533 54.1246 74.208C53.7833 73.952 53.522 73.632 53.3406 73.248C53.1593 72.864 53.0686 72.416 53.0686 71.904C53.0686 70.8907 53.426 70.0853 54.1406 69.488C54.866 68.88 55.7353 68.576 56.7486 68.576C57.6553 68.576 58.45 68.8 59.1326 69.248C59.826 69.6853 60.3646 70.2987 60.7486 71.088L58.8926 72.16C58.4446 71.2 57.73 70.72 56.7486 70.72C56.29 70.72 55.9273 70.8267 55.6606 71.04C55.4046 71.2427 55.2766 71.5093 55.2766 71.84C55.2766 72.192 55.4206 72.48 55.7086 72.704C56.0073 72.9173 56.5726 73.152 57.4046 73.408C57.746 73.5147 58.002 73.6 58.1726 73.664C58.354 73.7173 58.594 73.808 58.8926 73.936C59.202 74.0533 59.4366 74.1653 59.5966 74.272C59.7673 74.3787 59.9593 74.5227 60.1726 74.704C60.386 74.8853 60.546 75.072 60.6526 75.264C60.77 75.456 60.866 75.6907 60.9406 75.968C61.026 76.2347 61.0686 76.528 61.0686 76.848C61.0686 77.8827 60.69 78.704 59.9326 79.312C59.186 79.92 58.21 80.224 57.0046 80.224ZM69.5105 68.8V70.912H66.4865V80H64.2785V70.912H61.2705V68.8H69.5105ZM77.1306 80L76.4586 77.984H71.9946L71.3226 80H68.9386L72.8586 68.8H75.5946L79.5306 80H77.1306ZM72.6986 75.92H75.7706L74.2346 71.344L72.6986 75.92ZM82.7455 80L78.9855 68.8H81.3855L84.1215 77.408L86.8415 68.8H89.2575L85.4815 80H82.7455ZM96.8169 68.8H99.0249V80H97.3449L92.5449 73.152V80H90.3369V68.8H92.0169L96.8169 75.632V68.8ZM110.527 78.544C109.396 79.664 108.02 80.224 106.399 80.224C104.777 80.224 103.401 79.664 102.271 78.544C101.151 77.4133 100.59 76.032 100.59 74.4C100.59 72.768 101.151 71.392 102.271 70.272C103.401 69.1413 104.777 68.576 106.399 68.576C108.02 68.576 109.396 69.1413 110.527 70.272C111.657 71.392 112.223 72.768 112.223 74.4C112.223 76.032 111.657 77.4133 110.527 78.544ZM103.823 77.04C104.516 77.7227 105.375 78.064 106.399 78.064C107.423 78.064 108.281 77.7227 108.975 77.04C109.668 76.3467 110.015 75.4667 110.015 74.4C110.015 73.3333 109.668 72.4533 108.975 71.76C108.281 71.0667 107.423 70.72 106.399 70.72C105.375 70.72 104.516 71.0667 103.823 71.76C103.129 72.4533 102.783 73.3333 102.783 74.4C102.783 75.4667 103.129 76.3467 103.823 77.04ZM117.192 80.224C116.083 80.224 115.149 79.9787 114.392 79.488C113.635 78.9867 113.101 78.3093 112.792 77.456L114.68 76.352C115.117 77.4933 115.976 78.064 117.256 78.064C117.875 78.064 118.328 77.952 118.616 77.728C118.904 77.504 119.048 77.2213 119.048 76.88C119.048 76.4853 118.872 76.1813 118.52 75.968C118.168 75.744 117.539 75.504 116.632 75.248C116.131 75.0987 115.704 74.9493 115.352 74.8C115.011 74.6507 114.664 74.4533 114.312 74.208C113.971 73.952 113.709 73.632 113.528 73.248C113.347 72.864 113.256 72.416 113.256 71.904C113.256 70.8907 113.613 70.0853 114.328 69.488C115.053 68.88 115.923 68.576 116.936 68.576C117.843 68.576 118.637 68.8 119.32 69.248C120.013 69.6853 120.552 70.2987 120.936 71.088L119.08 72.16C118.632 71.2 117.917 70.72 116.936 70.72C116.477 70.72 116.115 70.8267 115.848 71.04C115.592 71.2427 115.464 71.5093 115.464 71.84C115.464 72.192 115.608 72.48 115.896 72.704C116.195 72.9173 116.76 73.152 117.592 73.408C117.933 73.5147 118.189 73.6 118.36 73.664C118.541 73.7173 118.781 73.808 119.08 73.936C119.389 74.0533 119.624 74.1653 119.784 74.272C119.955 74.3787 120.147 74.5227 120.36 74.704C120.573 74.8853 120.733 75.072 120.84 75.264C120.957 75.456 121.053 75.6907 121.128 75.968C121.213 76.2347 121.256 76.528 121.256 76.848C121.256 77.8827 120.877 78.704 120.12 79.312C119.373 79.92 118.397 80.224 117.192 80.224ZM129.698 68.8V70.912H126.674V80H124.466V70.912H121.458V68.8H129.698ZM19.9035 87.8C20.9808 87.8 21.8875 88.1627 22.6235 88.888C23.3595 89.6133 23.7275 90.504 23.7275 91.56C23.7275 92.616 23.3595 93.5067 22.6235 94.232C21.8875 94.9573 20.9808 95.32 19.9035 95.32H17.9355V99H15.7275V87.8H19.9035ZM19.9035 93.256C20.3728 93.256 20.7622 93.096 21.0715 92.776C21.3808 92.4453 21.5355 92.04 21.5355 91.56C21.5355 91.0693 21.3808 90.664 21.0715 90.344C20.7622 90.024 20.3728 89.864 19.9035 89.864H17.9355V93.256H19.9035ZM34.5109 97.544C33.3802 98.664 32.0042 99.224 30.3829 99.224C28.7615 99.224 27.3855 98.664 26.2549 97.544C25.1349 96.4133 24.5749 95.032 24.5749 93.4C24.5749 91.768 25.1349 90.392 26.2549 89.272C27.3855 88.1413 28.7615 87.576 30.3829 87.576C32.0042 87.576 33.3802 88.1413 34.5109 89.272C35.6415 90.392 36.2069 91.768 36.2069 93.4C36.2069 95.032 35.6415 96.4133 34.5109 97.544ZM27.8069 96.04C28.5002 96.7227 29.3589 97.064 30.3829 97.064C31.4069 97.064 32.2655 96.7227 32.9589 96.04C33.6522 95.3467 33.9989 94.4667 33.9989 93.4C33.9989 92.3333 33.6522 91.4533 32.9589 90.76C32.2655 90.0667 31.4069 89.72 30.3829 89.72C29.3589 89.72 28.5002 90.0667 27.8069 90.76C27.1135 91.4533 26.7669 92.3333 26.7669 93.4C26.7669 94.4667 27.1135 95.3467 27.8069 96.04ZM41.1765 99.224C40.0672 99.224 39.1338 98.9787 38.3765 98.488C37.6192 97.9867 37.0858 97.3093 36.7765 96.456L38.6645 95.352C39.1018 96.4933 39.9605 97.064 41.2405 97.064C41.8592 97.064 42.3125 96.952 42.6005 96.728C42.8885 96.504 43.0325 96.2213 43.0325 95.88C43.0325 95.4853 42.8565 95.1813 42.5045 94.968C42.1525 94.744 41.5232 94.504 40.6165 94.248C40.1152 94.0987 39.6885 93.9493 39.3365 93.8C38.9952 93.6507 38.6485 93.4533 38.2965 93.208C37.9552 92.952 37.6938 92.632 37.5125 92.248C37.3312 91.864 37.2405 91.416 37.2405 90.904C37.2405 89.8907 37.5978 89.0853 38.3125 88.488C39.0378 87.88 39.9072 87.576 40.9205 87.576C41.8272 87.576 42.6218 87.8 43.3045 88.248C43.9978 88.6853 44.5365 89.2987 44.9205 90.088L43.0645 91.16C42.6165 90.2 41.9018 89.72 40.9205 89.72C40.4618 89.72 40.0992 89.8267 39.8325 90.04C39.5765 90.2427 39.4485 90.5093 39.4485 90.84C39.4485 91.192 39.5925 91.48 39.8805 91.704C40.1792 91.9173 40.7445 92.152 41.5765 92.408C41.9178 92.5147 42.1738 92.6 42.3445 92.664C42.5258 92.7173 42.7658 92.808 43.0645 92.936C43.3738 93.0533 43.6085 93.1653 43.7685 93.272C43.9392 93.3787 44.1312 93.5227 44.3445 93.704C44.5578 93.8853 44.7178 94.072 44.8245 94.264C44.9418 94.456 45.0378 94.6907 45.1125 94.968C45.1978 95.2347 45.2405 95.528 45.2405 95.848C45.2405 96.8827 44.8618 97.704 44.1045 98.312C43.3578 98.92 42.3818 99.224 41.1765 99.224ZM48.8105 96.888H53.0825V99H46.6025V87.8H48.8105V96.888ZM63.0734 97.544C61.9427 98.664 60.5667 99.224 58.9454 99.224C57.324 99.224 55.948 98.664 54.8174 97.544C53.6974 96.4133 53.1374 95.032 53.1374 93.4C53.1374 91.768 53.6974 90.392 54.8174 89.272C55.948 88.1413 57.324 87.576 58.9454 87.576C60.5667 87.576 61.9427 88.1413 63.0734 89.272C64.204 90.392 64.7694 91.768 64.7694 93.4C64.7694 95.032 64.204 96.4133 63.0734 97.544ZM56.3694 96.04C57.0627 96.7227 57.9214 97.064 58.9454 97.064C59.9694 97.064 60.828 96.7227 61.5214 96.04C62.2147 95.3467 62.5614 94.4667 62.5614 93.4C62.5614 92.3333 62.2147 91.4533 61.5214 90.76C60.828 90.0667 59.9694 89.72 58.9454 89.72C57.9214 89.72 57.0627 90.0667 56.3694 90.76C55.676 91.4533 55.3294 92.3333 55.3294 93.4C55.3294 94.4667 55.676 95.3467 56.3694 96.04ZM68.5893 99L64.8293 87.8H67.2293L69.9653 96.408L72.6853 87.8H75.1013L71.3253 99H68.5893ZM82.74 99L82.068 96.984H77.604L76.932 99H74.548L78.468 87.8H81.204L85.14 99H82.74ZM78.308 94.92H81.38L79.844 90.344L78.308 94.92ZM92.7075 87.8H94.9155V99H93.2355L88.4355 92.152V99H86.2275V87.8H87.9075L92.7075 94.632V87.8ZM100.052 99.224C98.2921 99.224 97.0601 98.5147 96.3561 97.096L98.2601 96.008C98.6121 96.712 99.2095 97.064 100.052 97.064C100.639 97.064 101.076 96.9253 101.364 96.648C101.652 96.3707 101.796 95.992 101.796 95.512V87.8H103.988V95.512C103.988 96.6853 103.62 97.5973 102.884 98.248C102.148 98.8987 101.204 99.224 100.052 99.224ZM112.865 99L112.193 96.984H107.729L107.057 99H104.673L108.593 87.8H111.329L115.265 99H112.865ZM108.433 94.92H111.505L109.969 90.344L108.433 94.92Z" fill="#1C2640"/>
</svg>
