<svg width="122" height="138" viewBox="0 0 122 138" fill="none" xmlns="http://www.w3.org/2000/svg">
<path d="M19.8879 80.8C20.9652 80.8 21.8719 81.1627 22.6079 81.888C23.3439 82.6133 23.7119 83.504 23.7119 84.56C23.7119 85.616 23.3439 86.5067 22.6079 87.232C21.8719 87.9573 20.9652 88.32 19.8879 88.32H17.9199V92H15.7119V80.8H19.8879ZM19.8879 86.256C20.3572 86.256 20.7465 86.096 21.0559 85.776C21.3652 85.4453 21.5199 85.04 21.5199 84.56C21.5199 84.0693 21.3652 83.664 21.0559 83.344C20.7465 83.024 20.3572 82.864 19.8879 82.864H17.9199V86.256H19.8879ZM31.2934 92L29.0374 88.112H27.3574V92H25.1494V80.8H29.6294C30.664 80.8 31.544 81.1627 32.2694 81.888C32.9947 82.6133 33.3574 83.488 33.3574 84.512C33.3574 85.2053 33.16 85.8507 32.7654 86.448C32.3707 87.0347 31.848 87.4773 31.1974 87.776L33.6774 92H31.2934ZM27.3574 82.864V86.176H29.6294C30.0454 86.176 30.4027 86.016 30.7014 85.696C31 85.3653 31.1494 84.9707 31.1494 84.512C31.1494 84.0533 31 83.664 30.7014 83.344C30.4027 83.024 30.0454 82.864 29.6294 82.864H27.3574ZM44.2765 90.544C43.1458 91.664 41.7698 92.224 40.1485 92.224C38.5272 92.224 37.1512 91.664 36.0205 90.544C34.9005 89.4133 34.3405 88.032 34.3405 86.4C34.3405 84.768 34.9005 83.392 36.0205 82.272C37.1512 81.1413 38.5272 80.576 40.1485 80.576C41.7698 80.576 43.1458 81.1413 44.2765 82.272C45.4072 83.392 45.9725 84.768 45.9725 86.4C45.9725 88.032 45.4072 89.4133 44.2765 90.544ZM37.5725 89.04C38.2658 89.7227 39.1245 90.064 40.1485 90.064C41.1725 90.064 42.0312 89.7227 42.7245 89.04C43.4178 88.3467 43.7645 87.4667 43.7645 86.4C43.7645 85.3333 43.4178 84.4533 42.7245 83.76C42.0312 83.0667 41.1725 82.72 40.1485 82.72C39.1245 82.72 38.2658 83.0667 37.5725 83.76C36.8792 84.4533 36.5325 85.3333 36.5325 86.4C36.5325 87.4667 36.8792 88.3467 37.5725 89.04ZM58.4844 80.8V92H56.2924V84.736L53.1404 89.936H52.8844L49.7324 84.752V92H47.5244V80.8H49.7964L53.0124 86.096L56.2124 80.8H58.4844ZM69.9953 90.544C68.8646 91.664 67.4886 92.224 65.8673 92.224C64.2459 92.224 62.8699 91.664 61.7393 90.544C60.6193 89.4133 60.0592 88.032 60.0592 86.4C60.0592 84.768 60.6193 83.392 61.7393 82.272C62.8699 81.1413 64.2459 80.576 65.8673 80.576C67.4886 80.576 68.8646 81.1413 69.9953 82.272C71.1259 83.392 71.6913 84.768 71.6913 86.4C71.6913 88.032 71.1259 89.4133 69.9953 90.544ZM63.2913 89.04C63.9846 89.7227 64.8433 90.064 65.8673 90.064C66.8913 90.064 67.7499 89.7227 68.4433 89.04C69.1366 88.3467 69.4833 87.4667 69.4833 86.4C69.4833 85.3333 69.1366 84.4533 68.4433 83.76C67.7499 83.0667 66.8913 82.72 65.8673 82.72C64.8433 82.72 63.9846 83.0667 63.2913 83.76C62.5979 84.4533 62.2513 85.3333 62.2513 86.4C62.2513 87.4667 62.5979 88.3467 63.2913 89.04ZM78.5551 92.224C76.8698 92.224 75.4778 91.664 74.3791 90.544C73.2805 89.424 72.7311 88.0427 72.7311 86.4C72.7311 84.7467 73.2805 83.3653 74.3791 82.256C75.4778 81.136 76.8698 80.576 78.5551 80.576C79.5685 80.576 80.5018 80.816 81.3551 81.296C82.2191 81.7653 82.8911 82.4053 83.3711 83.216L81.4671 84.32C81.1898 83.8187 80.7951 83.4293 80.2831 83.152C79.7711 82.864 79.1951 82.72 78.5551 82.72C77.4671 82.72 76.5871 83.0613 75.9151 83.744C75.2538 84.4267 74.9231 85.312 74.9231 86.4C74.9231 87.4773 75.2538 88.3573 75.9151 89.04C76.5871 89.7227 77.4671 90.064 78.5551 90.064C79.1951 90.064 79.7711 89.9253 80.2831 89.648C80.8058 89.36 81.2005 88.9707 81.4671 88.48L83.3711 89.584C82.8911 90.3947 82.2245 91.04 81.3711 91.52C80.5178 91.9893 79.5791 92.224 78.5551 92.224ZM84.7275 80.8H86.9355V92H84.7275V80.8ZM92.0677 92.224C90.3078 92.224 89.0758 91.5147 88.3717 90.096L90.2758 89.008C90.6278 89.712 91.2251 90.064 92.0677 90.064C92.6544 90.064 93.0918 89.9253 93.3798 89.648C93.6678 89.3707 93.8118 88.992 93.8118 88.512V80.8H96.0038V88.512C96.0038 89.6853 95.6358 90.5973 94.8998 91.248C94.1638 91.8987 93.2198 92.224 92.0677 92.224ZM104.881 92L104.209 89.984H99.7446L99.0726 92H96.6886L100.609 80.8H103.345L107.281 92H104.881ZM100.449 87.92H103.521L101.985 83.344L100.449 87.92ZM16.4844 99.8V111H14.2924V103.736L11.1404 108.936H10.8844L7.73238 103.752V111H5.52438V99.8H7.79638L11.0124 105.096L14.2124 99.8H16.4844ZM20.7793 108.888H25.4993V111H18.5713V99.8H25.4193V101.912H20.7793V104.296H25.0193V106.376H20.7793V108.888ZM31.5036 99.8C33.0396 99.8 34.3196 100.339 35.3436 101.416C36.3783 102.493 36.8956 103.821 36.8956 105.4C36.8956 106.979 36.3783 108.307 35.3436 109.384C34.3196 110.461 33.0396 111 31.5036 111H27.0556V99.8H31.5036ZM31.5036 108.888C32.4743 108.888 33.2636 108.568 33.8716 107.928C34.4796 107.277 34.7836 106.435 34.7836 105.4C34.7836 104.365 34.4796 103.528 33.8716 102.888C33.2636 102.237 32.4743 101.912 31.5036 101.912H29.2636V108.888H31.5036ZM38.4619 99.8H40.6699V111H38.4619V99.8ZM50.1511 99.8V101.912H47.1271V111H44.9191V101.912H41.9111V99.8H50.1511ZM53.5918 108.888H58.3118V111H51.3838V99.8H58.2318V101.912H53.5918V104.296H57.8318V106.376H53.5918V108.888ZM66.0121 111L63.7561 107.112H62.0761V111H59.8681V99.8H64.3481C65.3828 99.8 66.2628 100.163 66.9881 100.888C67.7135 101.613 68.0761 102.488 68.0761 103.512C68.0761 104.205 67.8788 104.851 67.4841 105.448C67.0895 106.035 66.5668 106.477 65.9161 106.776L68.3961 111H66.0121ZM62.0761 101.864V105.176H64.3481C64.7641 105.176 65.1215 105.016 65.4201 104.696C65.7188 104.365 65.8681 103.971 65.8681 103.512C65.8681 103.053 65.7188 102.664 65.4201 102.344C65.1215 102.024 64.7641 101.864 64.3481 101.864H62.0761ZM76.8963 111L76.2243 108.984H71.7603L71.0883 111H68.7043L72.6243 99.8H75.3603L79.2963 111H76.8963ZM72.4643 106.92H75.5363L74.0003 102.344L72.4643 106.92ZM86.8638 99.8H89.0718V111H87.3918L82.5918 104.152V111H80.3838V99.8H82.0638L86.8638 106.632V99.8ZM94.8015 111.224C93.6922 111.224 92.7588 110.979 92.0015 110.488C91.2442 109.987 90.7108 109.309 90.4015 108.456L92.2895 107.352C92.7268 108.493 93.5855 109.064 94.8655 109.064C95.4842 109.064 95.9375 108.952 96.2255 108.728C96.5135 108.504 96.6575 108.221 96.6575 107.88C96.6575 107.485 96.4815 107.181 96.1295 106.968C95.7775 106.744 95.1482 106.504 94.2415 106.248C93.7402 106.099 93.3135 105.949 92.9615 105.8C92.6202 105.651 92.2735 105.453 91.9215 105.208C91.5802 104.952 91.3188 104.632 91.1375 104.248C90.9562 103.864 90.8655 103.416 90.8655 102.904C90.8655 101.891 91.2228 101.085 91.9375 100.488C92.6628 99.88 93.5322 99.576 94.5455 99.576C95.4522 99.576 96.2468 99.8 96.9295 100.248C97.6228 100.685 98.1615 101.299 98.5455 102.088L96.6895 103.16C96.2415 102.2 95.5268 101.72 94.5455 101.72C94.0868 101.72 93.7242 101.827 93.4575 102.04C93.2015 102.243 93.0735 102.509 93.0735 102.84C93.0735 103.192 93.2175 103.48 93.5055 103.704C93.8042 103.917 94.3695 104.152 95.2015 104.408C95.5428 104.515 95.7988 104.6 95.9695 104.664C96.1508 104.717 96.3908 104.808 96.6895 104.936C96.9988 105.053 97.2335 105.165 97.3935 105.272C97.5642 105.379 97.7562 105.523 97.9695 105.704C98.1828 105.885 98.3428 106.072 98.4495 106.264C98.5668 106.456 98.6628 106.691 98.7375 106.968C98.8228 107.235 98.8655 107.528 98.8655 107.848C98.8655 108.883 98.4868 109.704 97.7295 110.312C96.9828 110.92 96.0068 111.224 94.8015 111.224ZM108.98 111H106.436L102.436 105.752V111H100.228V99.8H102.436V104.744L106.276 99.8H108.82L104.676 105.24L108.98 111ZM112.279 108.888H116.999V111H110.071V99.8H116.919V101.912H112.279V104.296H116.519V106.376H112.279V108.888ZM27.1379 118.8C28.2152 118.8 29.1219 119.163 29.8579 119.888C30.5939 120.613 30.9619 121.504 30.9619 122.56C30.9619 123.616 30.5939 124.507 29.8579 125.232C29.1219 125.957 28.2152 126.32 27.1379 126.32H25.1699V130H22.9619V118.8H27.1379ZM27.1379 124.256C27.6072 124.256 27.9965 124.096 28.3059 123.776C28.6152 123.445 28.7699 123.04 28.7699 122.56C28.7699 122.069 28.6152 121.664 28.3059 121.344C27.9965 121.024 27.6072 120.864 27.1379 120.864H25.1699V124.256H27.1379ZM38.5434 130L36.2874 126.112H34.6074V130H32.3994V118.8H36.8794C37.914 118.8 38.794 119.163 39.5194 119.888C40.2447 120.613 40.6074 121.488 40.6074 122.512C40.6074 123.205 40.41 123.851 40.0154 124.448C39.6207 125.035 39.098 125.477 38.4474 125.776L40.9274 130H38.5434ZM34.6074 120.864V124.176H36.8794C37.2954 124.176 37.6527 124.016 37.9514 123.696C38.25 123.365 38.3994 122.971 38.3994 122.512C38.3994 122.053 38.25 121.664 37.9514 121.344C37.6527 121.024 37.2954 120.864 36.8794 120.864H34.6074ZM44.4355 127.888H49.1555V130H42.2275V118.8H49.0755V120.912H44.4355V123.296H48.6755V125.376H44.4355V127.888ZM57.0799 118.8H59.2719V130H57.0799V125.36H52.9199V130H50.7119V118.8H52.9199V123.248H57.0799V118.8ZM67.4965 130L65.2405 126.112H63.5605V130H61.3525V118.8H65.8325C66.8672 118.8 67.7472 119.163 68.4725 119.888C69.1978 120.613 69.5605 121.488 69.5605 122.512C69.5605 123.205 69.3632 123.851 68.9685 124.448C68.5738 125.035 68.0512 125.477 67.4005 125.776L69.8805 130H67.4965ZM63.5605 120.864V124.176H65.8325C66.2485 124.176 66.6058 124.016 66.9045 123.696C67.2032 123.365 67.3525 122.971 67.3525 122.512C67.3525 122.053 67.2032 121.664 66.9045 121.344C66.6058 121.024 66.2485 120.864 65.8325 120.864H63.5605ZM78.3806 130L77.7086 127.984H73.2446L72.5726 130H70.1886L74.1086 118.8H76.8446L80.7806 130H78.3806ZM73.9486 125.92H77.0206L75.4846 121.344L73.9486 125.92ZM88.3481 118.8H90.5561V130H88.8761L84.0761 123.152V130H81.8681V118.8H83.5481L88.3481 125.632V118.8ZM94.8418 127.888H99.5618V130H92.6338V118.8H99.4818V120.912H94.8418V123.296H99.0818V125.376H94.8418V127.888Z" fill="#1C2640"/>
<g clip-path="url(#clip0_806_10791)">
<path d="M63.4706 55.0636H63.4708C77.9821 55.108 90.1273 43.1227 90.1 28.3715C90.0726 13.9391 78.0351 1.70359 63.5154 1.93858C48.8796 1.70017 36.8454 13.9394 36.9002 28.5798L36.9002 28.5801C36.9479 35.5993 39.7644 42.3167 44.7387 47.2747C49.713 52.2327 56.4437 55.0314 63.4706 55.0636ZM63.5351 3.98791L63.5356 3.98791C77.1715 4.02522 87.8508 14.7923 88.0623 28.4941C87.8271 42.1452 77.1408 52.9495 63.4985 52.9292L63.4977 52.9292C60.2719 52.9491 57.0744 52.3279 54.0911 51.1019C51.1078 49.8759 48.3984 48.0695 46.1206 45.7878C43.8427 43.5062 42.0419 40.7947 40.8228 37.8114C39.6037 34.828 38.9908 31.6322 39.0197 28.41L39.0197 28.4086C39.003 25.1913 39.6261 22.0026 40.8531 19.0278C42.08 16.053 43.8862 13.3512 46.1669 11.0793C48.4476 8.80736 51.1573 7.01059 54.1388 5.79326C57.1204 4.57592 60.3142 3.96226 63.5351 3.98791Z" fill="#1C2640" stroke="#1C2640" stroke-width="0.2"/>
<path d="M83.9839 34.0202V33.9134L83.9232 33.9174C83.6828 30.2449 83.4368 26.5713 83.1853 22.8965L83.1853 22.8963C83.1532 22.4429 82.9525 22.0877 82.6352 21.907C82.3172 21.726 81.9046 21.7332 81.4761 21.9583L81.4761 21.9583C80.948 22.2361 80.4341 22.5454 79.923 22.853C79.8344 22.9064 79.7458 22.9597 79.6573 23.0127C79.0571 23.3726 78.4571 23.7227 77.8323 24.0146C77.4457 24.1941 77.0773 24.4257 76.7152 24.6566C76.6956 24.6691 76.676 24.6816 76.6564 24.6941C76.3126 24.9134 75.9737 25.1296 75.6216 25.3049C74.8824 25.6729 74.0937 25.8564 73.1169 25.4851L73.1168 25.485C70.9931 24.6811 69.0548 23.6742 67.508 21.9532C67.4606 21.8833 67.4286 21.8029 67.4144 21.7179C67.4001 21.6326 67.4043 21.545 67.4265 21.4617C67.6866 20.8088 67.9575 20.1601 68.2288 19.5106L68.2289 19.5105C68.5008 18.8595 68.7731 18.2076 69.0345 17.5511C69.2193 17.0871 69.2163 16.6589 69.0343 16.314C68.8524 15.9694 68.5017 15.7263 68.0286 15.6122L68.0281 15.6121C67.787 15.5553 67.5487 15.4858 67.3143 15.4037C66.2687 15.0309 65.2234 14.6562 64.1779 14.2815C62.3276 13.6184 60.4769 12.9551 58.6237 12.3019L58.6235 12.3018C58.0288 12.0938 57.5341 12.0501 57.1072 12.2177C56.6803 12.3853 56.343 12.7558 56.0431 13.326L56.043 13.3262C55.2809 14.78 54.5695 16.2653 53.859 17.7487L53.8587 17.7493L53.8585 17.7492L53.8561 17.755C53.7437 18.0332 53.5739 18.2814 53.3594 18.4822C53.1448 18.6829 52.8908 18.8311 52.6156 18.9166L52.6156 18.9166L52.6142 18.917C50.8375 19.4973 49.0904 20.1726 47.3799 20.9405L47.3795 20.9407C45.3379 21.8691 43.5418 23.3004 42.1442 25.1121L42.1442 25.1122C41.2604 26.2588 40.8962 27.4655 40.9907 28.6258C41.0851 29.7854 41.6368 30.8886 42.5665 31.8311C44.7756 34.0891 47.6462 34.8406 50.5292 35.4573L50.5293 35.4573C50.8175 35.5187 51.1114 35.5675 51.404 35.6146C51.4407 35.6205 51.4774 35.6264 51.5141 35.6323C51.7701 35.6734 52.0244 35.7141 52.2748 35.7622C52.8477 35.8721 53.3918 36.0186 53.8695 36.2856C55.2345 37.0563 56.5413 37.9475 57.8513 38.8409C58.5394 39.3102 59.2284 39.7801 59.9272 40.2335L59.9273 40.2335C60.7025 40.736 61.4433 40.9208 62.1153 40.7565C62.7874 40.5922 63.3667 40.0846 63.8314 39.2538L63.8319 39.2529C64.618 37.8151 65.3248 36.3313 65.9487 34.8088L65.9488 34.8089L65.9503 34.8045C66.0516 34.5207 66.2193 34.2686 66.4375 34.0711C66.6557 33.8736 66.9175 33.7371 67.1986 33.6736L67.1986 33.6736L67.2013 33.6729C67.6862 33.5492 68.1692 33.4246 68.651 33.3004C70.3658 32.8581 72.0656 32.4197 73.7863 32.0348C74.3065 31.9257 74.8463 31.9882 75.3315 32.2138C75.959 32.5326 76.5689 32.8937 77.1801 33.2613C77.2518 33.3043 77.3234 33.3475 77.3951 33.3907C77.9349 33.7159 78.4776 34.0428 79.0328 34.3442C80.1006 34.9241 81.2014 35.4364 82.2999 35.9335L82.3004 35.9338C82.7685 36.1426 83.1948 36.1259 83.5064 35.897C83.8152 35.6702 83.9839 35.2548 83.9839 34.7251V34.0202ZM57.0107 20.6559L57.0117 20.6559C60.7677 20.6208 64.0933 21.7653 66.9155 24.463L66.9165 24.4639C68.4302 25.8723 70.2723 26.8389 72.2575 27.2657C73.2857 27.5129 74.28 27.9031 75.2804 28.2956C75.6847 28.4542 76.09 28.6132 76.4989 28.7633C76.5286 28.7748 76.5609 28.8029 76.6029 28.8532C76.6179 28.8712 76.6323 28.8895 76.6477 28.9093C76.6535 28.9167 76.6595 28.9244 76.6658 28.9323C76.6665 28.9333 76.6673 28.9342 76.668 28.9352C76.597 28.9884 76.5206 29.0332 76.4401 29.0686C75.4465 29.3384 74.4468 29.5957 73.4489 29.8526L73.2855 29.8946L73.2854 29.8946C72.5042 30.0965 71.7166 30.2848 70.928 30.4733C69.1913 30.8884 67.4497 31.3047 65.7604 31.8705L65.7604 31.8705C62.6014 32.929 59.4318 33.6408 56.1212 33.5643C55.8724 33.5374 55.626 33.4891 55.3848 33.4198C55.471 33.2033 55.5683 32.9919 55.6763 32.7865C57.1939 30.2923 57.3729 27.5978 56.486 24.8918L56.486 24.8918C56.285 24.2789 55.9647 23.7128 55.6178 23.164C55.4945 22.9691 55.3686 22.7773 55.2432 22.5863C55.0133 22.2363 54.7853 21.889 54.5792 21.5305C54.4777 21.33 54.3859 21.1244 54.3041 20.9143C54.4996 20.7969 54.7103 20.7097 54.9296 20.6554C55.3887 20.6372 55.847 20.6434 56.3079 20.6496C56.5414 20.6527 56.7755 20.6559 57.0107 20.6559ZM54.8358 27.9577H54.8355L54.8361 27.9658C55.008 30.0866 54.0716 31.836 52.3514 33.1764L52.3513 33.1764L52.3482 33.179C52.1354 33.3594 51.8681 33.4521 51.5961 33.4412C49.0959 32.9476 46.6277 32.446 44.5736 30.7774C44.3798 30.6192 44.1991 30.444 44.0336 30.2536L44.0331 30.253C43.3909 29.5269 43.0755 28.9059 43.0632 28.2936C43.0508 27.6818 43.3405 27.0539 43.9671 26.3128L43.9674 26.3125C45.2271 24.8093 46.7872 23.6151 48.537 22.8145L48.5372 22.8144C48.8352 22.6774 49.1295 22.5261 49.4214 22.3759C49.526 22.3221 49.6303 22.2685 49.7343 22.2158C50.1305 22.0148 50.5259 21.8251 50.9341 21.6793L50.9342 21.6792C51.0938 21.622 51.3206 21.6002 51.5354 21.6229C51.7545 21.6459 51.9334 21.712 52.0194 21.8045C53.5694 23.4826 54.8358 25.32 54.8358 27.9577ZM65.7955 17.0502C66.1444 17.2119 66.4787 17.406 66.7946 17.6301C66.6398 17.9686 66.4961 18.2884 66.3583 18.5948C66.0873 19.1978 65.8396 19.749 65.5765 20.2892C65.5154 20.34 65.4441 20.375 65.3683 20.3915C65.2893 20.4087 65.2074 20.4055 65.1298 20.382C62.4626 18.9914 59.5192 18.2787 56.5387 18.3023C56.2536 18.3022 56.1415 18.2284 56.1037 18.1482C56.0831 18.1045 56.0756 18.0434 56.0905 17.9587C56.1055 17.874 56.1418 17.7723 56.2008 17.6539C56.6365 16.7868 57.07 15.9184 57.5012 15.0489L57.5018 15.0476C57.6483 14.7411 57.8024 14.6111 57.9779 14.5701C58.1635 14.5267 58.3987 14.5753 58.7249 14.6932C60.1776 15.2189 61.648 15.6949 63.1177 16.1708C64.012 16.4603 64.906 16.7497 65.7955 17.0502ZM81.6383 32.0515L81.6402 32.0886L81.6455 32.0941C81.6751 32.3934 81.6888 32.618 81.6788 32.7802C81.668 32.9553 81.631 33.0238 81.5953 33.0496C81.5616 33.074 81.4912 33.0867 81.3321 33.0365C81.1788 32.9882 80.9745 32.8918 80.7031 32.7507L80.7025 32.7504C80.3292 32.5595 79.9521 32.3843 79.5774 32.2102L79.5643 32.2041C79.1847 32.0278 78.8075 31.8524 78.4357 31.6613C78.3519 31.6182 78.2769 31.5577 78.2154 31.4832C78.1564 31.4118 78.111 31.3289 78.0817 31.2392C78.0827 31.2348 78.0858 31.224 78.0966 31.2053C78.1129 31.177 78.1396 31.143 78.1749 31.1055C78.245 31.0308 78.3374 30.9547 78.4118 30.9006L78.4119 30.9005C79.0858 30.4082 79.3585 29.6257 79.3236 28.9019C79.2887 28.1817 78.9469 27.4944 78.3601 27.2054L78.3598 27.2053C78.1676 27.1112 78.0294 27.0281 77.9393 26.9516C77.8483 26.8743 77.8206 26.8158 77.8183 26.7721C77.816 26.729 77.837 26.6689 77.9198 26.5844C78.0019 26.5006 78.1321 26.4058 78.3167 26.2953C78.6724 26.0823 79.0313 25.8757 79.3911 25.6686L79.4437 25.6383C79.8209 25.4212 80.199 25.203 80.5738 24.9769C80.7165 24.8911 80.8328 24.8387 80.9262 24.816C81.0189 24.7934 81.0795 24.8022 81.1214 24.8257C81.1638 24.8493 81.2057 24.8983 81.2391 24.9948C81.2726 25.0917 81.294 25.2267 81.3014 25.4064L81.3014 25.4067C81.3726 27.0225 81.4581 28.6367 81.5436 30.2498C81.5754 30.8505 81.6073 31.4511 81.6383 32.0515ZM61.7987 35.228C62.211 35.1705 62.6417 35.1105 63.1001 35.0473C63.1097 35.0692 63.1201 35.0919 63.1305 35.1146L63.134 35.1223C63.1594 35.1776 63.1862 35.2365 63.2091 35.2965C63.232 35.3567 63.2497 35.4146 63.2578 35.4669C63.2659 35.5189 63.2635 35.5589 63.2532 35.5883C62.9074 36.4387 62.5156 37.2679 62.0798 38.0717L62.0798 38.0717C61.9394 38.3309 61.7686 38.4617 61.5864 38.499C61.4018 38.5368 61.1819 38.4836 60.9353 38.3244L60.935 38.3242C60.6376 38.1335 60.3399 37.9441 60.0422 37.7547C59.2787 37.2689 58.5158 36.7835 57.7593 36.2778C57.6762 36.2032 57.6014 36.119 57.5362 36.0268C57.5567 36.01 57.577 35.9928 57.5964 35.9765C57.6195 35.9569 57.6412 35.9385 57.6604 35.9233C57.7233 35.8731 57.7747 35.8417 57.8233 35.8309C58.3925 35.7118 58.9691 35.6206 59.5474 35.5361C60.2737 35.4406 61.0017 35.3391 61.7987 35.228Z" fill="#1C2640" stroke="#1C2640" stroke-width="0.2"/>
<path d="M79.2397 14.3248C79.319 14.3149 79.385 14.2718 79.439 14.2221C79.4932 14.172 79.5433 14.1076 79.5904 14.041C79.6248 13.9924 79.6575 13.943 79.6901 13.8937C79.7517 13.8006 79.8129 13.7081 79.8842 13.6227L79.9291 13.5689L79.8938 13.5083C79.7118 13.1953 79.5064 12.8955 79.2794 12.611L79.2794 12.611L79.2782 12.6096C78.9081 12.1632 78.4888 11.7569 78.0276 11.3976L78.0277 11.3975L78.0225 11.3939C77.5905 11.0993 77.1603 10.794 76.7283 10.4873C75.4404 9.57331 74.1356 8.64729 72.7164 7.95792L72.7153 7.95745C70.4119 6.87039 67.9079 6.2317 65.3472 6.07796C62.3283 5.83562 59.29 6.20244 56.4269 7.155C53.9216 7.97741 51.6182 9.28573 49.6597 10.9992L49.6592 10.9996C49.4268 11.2056 49.2316 11.4355 49.1598 11.6832C49.1233 11.8094 49.1189 11.9402 49.1578 12.0723C49.1965 12.2037 49.2764 12.3302 49.3991 12.4515C49.6427 12.6924 49.9107 12.8007 50.1933 12.7853C50.4717 12.7701 50.7497 12.6357 51.0195 12.4213L51.0195 12.4213L51.0202 12.4208C52.7769 11.0003 54.7691 9.87315 56.9139 9.08626C59.7547 8.05888 62.811 7.70363 65.8247 8.0506L65.8252 8.05065C68.2458 8.3175 70.5889 9.03588 72.7231 10.1654L72.7232 10.1654C74.6822 11.2015 76.4582 12.5291 77.9853 14.099L77.9856 14.0994C78.1223 14.2384 78.3476 14.3032 78.5689 14.3307C78.7952 14.3588 79.0404 14.3506 79.2397 14.3248ZM79.2397 14.3248C79.2398 14.3248 79.2399 14.3248 79.24 14.3248L79.2271 14.2256L79.2395 14.3249C79.2395 14.3249 79.2396 14.3249 79.2397 14.3248Z" fill="#1C2640" stroke="#1C2640" stroke-width="0.2"/>
<path d="M63.8159 50.8376C59.2651 50.9602 55.4489 49.7147 52.0357 47.0052C50.8613 46.0726 49.7888 44.9565 48.7174 43.8415C48.3447 43.4536 47.9721 43.0659 47.5954 42.686C47.1598 42.2453 47.0265 41.59 47.4459 41.0841C47.9172 40.5169 48.4926 40.6357 48.9411 41.2182C50.5724 43.375 52.5472 45.1329 54.7532 46.392M63.8159 50.8376L63.8036 50.9368C63.8061 50.9371 63.8086 50.9374 63.8111 50.9377M63.8159 50.8376L63.8186 50.9375C63.8161 50.9376 63.8136 50.9377 63.8111 50.9377M63.8159 50.8376C65.7566 51.079 68.0417 50.5118 70.2391 49.6304C72.7956 48.633 75.155 47.0376 77.1759 44.9395L54.7532 46.392M63.8111 50.9377C59.2411 51.0594 55.404 49.8068 51.9736 47.0835L51.9735 47.0835C50.7933 46.1463 49.714 45.0231 48.6413 43.9067C48.2695 43.5198 47.8985 43.1337 47.5244 42.7565L47.5243 42.7563C47.0632 42.2899 46.9079 41.5764 47.3689 41.0203L47.369 41.0202C47.6203 40.7178 47.9131 40.584 48.2142 40.6208C48.5096 40.6569 48.7871 40.8544 49.0204 41.1572L49.0209 41.1579L49.0209 41.1579C50.6444 43.3045 52.609 45.053 54.8025 46.3049M63.8111 50.9377C65.7752 51.1799 68.0763 50.6057 70.2759 49.7234C72.8465 48.7204 75.2177 47.1166 77.248 45.0089L77.2485 45.0084C77.4945 44.7492 77.7022 44.4862 77.8029 44.1909C77.9054 43.8902 77.894 43.5657 77.7219 43.1922L77.7215 43.1916C77.5726 42.8746 77.2526 42.7616 76.9157 42.7885C76.5796 42.8154 76.2073 42.9801 75.9044 43.2429L75.9044 43.2428L75.9023 43.2448C74.933 44.1352 73.9241 44.9639 72.8799 45.7274C70.7584 47.1371 68.4327 48.0658 66.023 48.4663L66.0211 48.4666C62.0804 49.1972 58.3627 48.2967 54.8025 46.3049M54.8025 46.3049C54.8023 46.3049 54.8022 46.3048 54.8021 46.3047L54.7532 46.392M54.8025 46.3049C54.8026 46.305 54.8027 46.3051 54.8028 46.3051L54.7532 46.392" fill="#1C2640" stroke="#1C2640" stroke-width="0.2"/>
<path d="M48.7645 29.081L48.7645 29.081H48.7655C49.8929 29.081 50.9059 28.0437 50.8737 26.8913L50.8737 26.8913L50.8735 26.8877C50.8373 26.3171 50.604 25.7802 50.2177 25.3831C49.8312 24.9858 49.3191 24.757 48.7816 24.7439L48.7816 24.7438L48.78 24.7438C48.2369 24.7391 47.7145 24.9602 47.3215 25.3586C46.9287 25.7568 46.6952 26.3014 46.6677 26.8783L46.6674 26.8783L46.6676 26.8862C46.6859 27.4691 46.9127 28.0232 47.3025 28.4325C47.6926 28.8422 48.2162 29.0753 48.7645 29.081Z" fill="#1C2640" stroke="#1C2640" stroke-width="0.2"/>
</g>
<circle cx="63.5" cy="28.5" r="27" stroke="#1C2640"/>
<defs>
<clipPath id="clip0_806_10791">
<rect width="53" height="57" fill="white" transform="translate(37)"/>
</clipPath>
</defs>
</svg>
