<svg width="55" height="57" viewBox="0 0 55 57" fill="none" xmlns="http://www.w3.org/2000/svg">
<g clip-path="url(#clip0_6097_28797)">
<path d="M27.4706 55.0636H27.4708C41.9821 55.108 54.1273 43.1227 54.1 28.3715C54.0726 13.9391 42.0351 1.70359 27.5154 1.93858C12.8796 1.70017 0.845434 13.9394 0.900186 28.5798L0.900188 28.5801C0.947862 35.5993 3.76441 42.3167 8.7387 47.2747C13.713 52.2327 20.4437 55.0314 27.4706 55.0636ZM27.5351 3.98791L27.5356 3.98791C41.1715 4.02522 51.8509 14.7924 52.0623 28.4942C51.8271 42.1452 41.1408 52.9495 27.4985 52.9291L27.4977 52.9292C24.2719 52.9491 21.0744 52.3279 18.0911 51.1019C15.1078 49.8759 12.3984 48.0695 10.1206 45.7878C7.8427 43.5062 6.04185 40.7947 4.82279 37.8114C3.60374 34.828 2.99082 31.6322 3.0197 28.41L3.0197 28.4086C3.00296 25.1913 3.62613 22.0026 4.85305 19.0278C6.07997 16.053 7.8862 13.3512 10.1669 11.0793C12.4476 8.80736 15.1573 7.01059 18.1388 5.79326C21.1203 4.57592 24.3142 3.96226 27.5351 3.98791Z" fill="#1C2640" stroke="#1C2640" stroke-width="0.2"/>
<path d="M47.9848 33.9115L47.9242 33.9154C47.6837 30.2429 47.4378 26.5693 47.1863 22.8945L47.1863 22.8943C47.1542 22.441 46.9535 22.0857 46.6362 21.9051C46.3182 21.724 45.9056 21.7312 45.4771 21.9563L45.477 21.9564C44.949 22.2341 44.4351 22.5435 43.924 22.8511C43.8354 22.9044 43.7468 22.9577 43.6583 23.0108C43.0581 23.3706 42.4583 23.7206 41.8335 24.0126C41.4468 24.192 41.0784 24.4237 40.7162 24.6546C40.6966 24.6671 40.6769 24.6797 40.6573 24.6922C40.3136 24.9115 39.9747 25.1276 39.6226 25.3029C38.8834 25.671 38.0946 25.8545 37.1179 25.4831L37.1178 25.4831C34.994 24.6791 33.0558 23.6723 31.509 21.9512C31.4616 21.8813 31.4295 21.801 31.4153 21.7159C31.4011 21.6306 31.4053 21.5431 31.4275 21.4598C31.6875 20.8069 31.9585 20.1582 32.2298 19.5086C32.5018 18.8576 32.7741 18.2056 33.0355 17.5491C33.2202 17.0852 33.2173 16.657 33.0352 16.312C32.8534 15.9674 32.5027 15.7244 32.0296 15.6103L32.0291 15.6101C31.788 15.5534 31.5497 15.4838 31.3153 15.4017C30.2697 15.029 29.2243 14.6543 28.1788 14.2796C26.3286 13.6164 24.4779 12.9531 22.6247 12.3L22.6245 12.2999C22.0297 12.0918 21.5351 12.0481 21.1082 12.2157C20.6813 12.3834 20.3439 12.7538 20.044 13.3241L20.044 13.3242C19.2818 14.778 18.5704 16.2633 17.8599 17.7468L17.8596 17.7474L17.8595 17.7473L17.8571 17.7531C17.7447 18.0312 17.5749 18.2795 17.3604 18.4802C17.1458 18.6809 16.8918 18.8292 16.6166 18.9146L16.6166 18.9146L16.6152 18.9151C14.8384 19.4953 13.0914 20.1707 11.3809 20.9385L11.3805 20.9387C9.33884 21.8671 7.54274 23.2985 6.14521 25.1102L6.14519 25.1102C5.26137 26.2569 4.89718 27.4635 4.99168 28.6239C5.0861 29.7834 5.63768 30.8864 6.56723 31.8288C8.77638 34.087 11.6471 34.8386 14.5302 35.4554L14.5303 35.4554C14.8184 35.5168 15.1124 35.5656 15.4049 35.6127C15.4417 35.6186 15.4784 35.6245 15.515 35.6304C15.7711 35.6714 16.0253 35.7122 16.2758 35.7602C16.8486 35.8701 17.3928 36.0166 17.8705 36.2836C19.2355 37.0544 20.5423 37.9456 21.8523 38.839C22.5404 39.3083 23.2294 39.7782 23.9282 40.2315L23.9282 40.2316C24.7035 40.7341 25.4443 40.9188 26.1163 40.7545C26.7884 40.5902 27.3677 40.0826 27.8324 39.2518L27.8329 39.251C28.619 37.8131 29.3257 36.3293 29.9497 34.8069L29.9498 34.8069L29.9513 34.8026C30.0526 34.5187 30.2203 34.2666 30.4385 34.0691C30.6567 33.8716 30.9185 33.7351 31.1996 33.6716L31.1996 33.6717L31.2023 33.671C31.6872 33.5472 32.1702 33.4227 32.652 33.2984C34.3668 32.8561 36.0666 32.4177 37.7873 32.0329C38.3075 31.9238 38.8473 31.9862 39.3325 32.2119C39.96 32.5306 40.5699 32.8917 41.1811 33.2593C41.2527 33.3024 41.3244 33.3455 41.396 33.3887C41.9359 33.7139 42.4786 34.0408 43.0338 34.3422C44.1015 34.9221 45.2024 35.4344 46.3009 35.9316L46.3014 35.9318C46.7695 36.1407 47.1958 36.124 47.5074 35.8951C47.8162 35.6683 47.9848 35.2529 47.9848 34.7232V34.0182V33.9115ZM21.0117 20.5539L21.0126 20.6539C24.7687 20.6189 28.0942 21.7634 30.9164 24.4611L30.9174 24.462C32.4312 25.8704 34.2733 26.8369 36.2584 27.2637C37.2866 27.511 38.281 27.9011 39.2814 28.2936C39.6857 28.4522 40.091 28.6113 40.4999 28.7614C40.5296 28.7729 40.5619 28.8009 40.6039 28.8512C40.6189 28.8692 40.6333 28.8876 40.6487 28.9074C40.6545 28.9148 40.6605 28.9225 40.6667 28.9304C40.6675 28.9313 40.6683 28.9323 40.669 28.9333C40.598 28.9865 40.5215 29.0312 40.4411 29.0666C39.4476 29.3364 38.4481 29.5937 37.4504 29.8505L37.2865 29.8927L37.2864 29.8927C36.5052 30.0946 35.7176 30.2828 34.929 30.4713C33.1923 30.8864 31.4507 31.3027 29.7614 31.8685L29.7925 31.9613L29.7614 31.8685C26.6023 32.927 23.4328 33.6388 20.1222 33.5623C19.8733 33.5354 19.627 33.4871 19.3858 33.4178C19.4719 33.2014 19.5692 32.9899 19.6773 32.7845C21.1949 30.2903 21.3739 27.5958 20.4869 24.8899L20.4869 24.8899C20.286 24.277 19.9657 23.7109 19.6188 23.1621C19.4955 22.9671 19.3696 22.7753 19.2441 22.5843C19.0143 22.2343 18.7863 21.8871 18.5802 21.5286C18.4787 21.3281 18.3869 21.1224 18.3051 20.9123C18.5006 20.795 18.7113 20.7077 18.9306 20.6534C19.3896 20.6352 19.848 20.6414 20.3089 20.6476C20.5424 20.6508 20.7765 20.6539 21.0117 20.6539V20.5539ZM18.8368 27.9558H18.8364L18.8371 27.9638C19.009 30.0847 18.0726 31.834 16.3524 33.1745L16.3523 33.1744L16.3492 33.1771C16.1364 33.3574 15.8691 33.4501 15.5971 33.4393C13.097 32.9456 10.6288 32.4441 8.57476 30.7756C8.38084 30.6174 8.20013 30.4421 8.0346 30.2517L8.03403 30.251C7.39183 29.5249 7.07651 28.904 7.06416 28.2917C7.05183 27.6799 7.34151 27.052 7.96812 26.3109L7.96841 26.3105C9.22803 24.8073 10.7882 23.6132 12.538 22.8125L12.5381 22.8125C12.8362 22.6754 13.1305 22.5241 13.4224 22.374C13.527 22.3202 13.6312 22.2666 13.7353 22.2138C14.1315 22.0129 14.5269 21.8231 14.9351 21.6773L14.9352 21.6773C15.0947 21.62 15.3216 21.5983 15.5364 21.6209C15.7555 21.644 15.9345 21.7101 16.0204 21.8026C17.5704 23.4807 18.8368 25.3181 18.8368 27.9558ZM29.7964 17.0482C30.1453 17.2099 30.4797 17.404 30.7955 17.6282C30.6408 17.9667 30.497 18.2864 30.3593 18.5928C30.0883 19.1958 29.8405 19.747 29.5775 20.2873C29.5164 20.3381 29.4451 20.373 29.3693 20.3895C29.2902 20.4068 29.2084 20.4035 29.1308 20.3801C26.4636 18.9894 23.5201 18.2768 20.5397 18.3003C20.2546 18.3003 20.1425 18.2264 20.1047 18.1462C20.0841 18.1025 20.0765 18.0415 20.0915 17.9568C20.1064 17.8721 20.1428 17.7705 20.2017 17.6522C20.6374 16.785 21.0709 15.9166 21.5021 15.047L21.5028 15.0457C21.6492 14.7391 21.8034 14.6091 21.9789 14.5681C22.1644 14.5248 22.3996 14.5733 22.7259 14.6913C24.1785 15.2169 25.649 15.693 27.1187 16.1688C28.013 16.4584 28.907 16.7478 29.7964 17.0482ZM45.6393 32.0496L45.6412 32.0866L45.6465 32.0921C45.6761 32.3915 45.6898 32.616 45.6798 32.7783C45.669 32.9534 45.632 33.0218 45.5963 33.0477C45.5626 33.0721 45.4922 33.0848 45.333 33.0346C45.1798 32.9862 44.9754 32.8898 44.704 32.7487L44.7034 32.7484C44.3303 32.5576 43.9533 32.3824 43.5786 32.2084L43.5653 32.2022C43.1857 32.0258 42.8085 31.8504 42.4367 31.6594C42.3529 31.6162 42.2779 31.5557 42.2164 31.4813C42.1574 31.4098 42.1119 31.327 42.0827 31.2372C42.0837 31.2329 42.0868 31.2221 42.0976 31.2033C42.1139 31.1751 42.1406 31.141 42.1758 31.1035C42.246 31.0289 42.3384 30.9528 42.4128 30.8987L42.4129 30.8986C43.0868 30.4062 43.3595 29.6238 43.3245 28.9C43.2897 28.1797 42.9479 27.4924 42.361 27.2034L42.3608 27.2033C42.1686 27.1093 42.0303 27.0262 41.9403 26.9496C41.8493 26.8723 41.8216 26.8138 41.8193 26.7702C41.817 26.727 41.838 26.667 41.9208 26.5824C42.0028 26.4986 42.1331 26.4038 42.3177 26.2933C42.6733 26.0804 43.0321 25.8739 43.3919 25.6668L43.4446 25.6364C43.8218 25.4192 44.1999 25.2011 44.5747 24.975C44.7174 24.8892 44.8337 24.8368 44.9272 24.814C45.0199 24.7915 45.0804 24.8003 45.1224 24.8237C45.1648 24.8474 45.2067 24.8964 45.2401 24.9929C45.2736 25.0897 45.295 25.2248 45.3024 25.4045L45.3024 25.4048C45.3736 27.0206 45.4591 28.6347 45.5446 30.2478C45.5764 30.8485 45.6082 31.4491 45.6393 32.0496ZM42.3169 27.2931C43.4049 27.8289 43.6373 29.8802 42.3539 30.8178L44.5232 24.8893C44.1318 25.1254 43.7368 25.3528 43.3419 25.5802C42.9823 25.7872 42.6228 25.9942 42.2663 26.2075C41.5186 26.6552 41.5388 26.9125 42.3169 27.2931ZM25.7997 35.226C26.2119 35.1686 26.6427 35.1085 27.1011 35.0454C27.1107 35.0673 27.1211 35.09 27.1315 35.1127L27.135 35.1203C27.1603 35.1756 27.1871 35.2345 27.21 35.2945C27.233 35.3548 27.2507 35.4126 27.2588 35.465C27.2669 35.517 27.2644 35.5569 27.2542 35.5863C26.9084 36.4368 26.5166 37.2659 26.0808 38.0698L26.0808 38.0698C25.9404 38.3289 25.7696 38.4597 25.5874 38.4971C25.4028 38.5349 25.1829 38.4816 24.9362 38.3224L24.936 38.3223C24.6385 38.1316 24.3409 37.9422 24.0432 37.7528C23.2797 37.267 22.5168 36.7815 21.7603 36.2758C21.6772 36.2012 21.6024 36.117 21.5372 36.0249C21.5577 36.0081 21.578 35.9909 21.5973 35.9746C21.6205 35.955 21.6422 35.9366 21.6614 35.9213C21.7243 35.8712 21.7756 35.8397 21.8243 35.829C22.3935 35.7099 22.97 35.6186 23.5484 35.5342C24.2747 35.4386 25.0027 35.3371 25.7997 35.226Z" fill="#1C2640" stroke="#1C2640" stroke-width="0.2"/>
<path d="M43.2397 14.3268C43.0404 14.3526 42.7952 14.3608 42.5689 14.3327C42.3476 14.3052 42.1223 14.2403 41.9856 14.1013L41.9853 14.101C40.4582 12.5311 38.6822 11.2034 36.7232 10.1674L36.7231 10.1673C34.5889 9.03783 32.2458 8.31946 29.8252 8.05261L29.8247 8.05255C26.811 7.70558 23.7547 8.06083 20.9139 9.08821C18.7691 9.87511 16.7769 11.0023 15.0202 12.4227L15.0195 12.4233L15.0195 12.4233C14.7497 12.6376 14.4717 12.7721 14.1933 12.7873C13.9107 12.8027 13.6427 12.6944 13.3991 12.4535C13.2764 12.3321 13.1965 12.2056 13.1578 12.0742C13.1189 11.9422 13.1233 11.8114 13.1598 11.6852C13.2316 11.4375 13.4268 11.2075 13.6592 11.0015L13.6597 11.0011C15.6182 9.28769 17.9216 7.97936 20.4269 7.15695C23.2899 6.2044 26.3283 5.83757 29.3472 6.07992C31.9079 6.23365 34.4119 6.87234 36.7153 7.9594L36.7164 7.95988C38.1356 8.64925 39.4404 9.57526 40.7282 10.4893C41.1603 10.7959 41.5905 11.1013 42.0225 11.3958L42.0277 11.3994L42.0276 11.3996C42.4888 11.7588 42.9081 12.1652 43.2782 12.6115L43.2794 12.613L43.2794 12.613C43.5064 12.8974 43.7118 13.1973 43.8938 13.5103L43.8074 13.5606L43.8842 13.6246C43.8129 13.71 43.7517 13.8026 43.6901 13.8956C43.6575 13.9449 43.6248 13.9944 43.5904 14.043C43.5433 14.1096 43.4932 14.174 43.439 14.224C43.385 14.2738 43.319 14.3169 43.2397 14.3268ZM43.2397 14.3268C43.2396 14.3268 43.2395 14.3268 43.2395 14.3268L43.2272 14.2278L43.24 14.3268C43.2399 14.3268 43.2398 14.3268 43.2397 14.3268Z" fill="#1C2640" stroke="#1C2640" stroke-width="0.2"/>
<path d="M15.9745 47.0815L15.9745 47.0815C19.405 49.8048 23.2421 51.0575 27.8121 50.9358C29.7762 51.178 32.0773 50.6037 34.277 49.7214C36.8475 48.7185 39.2187 47.1146 41.2489 45.0069L41.2494 45.0064C41.4955 44.7473 41.7032 44.4843 41.8039 44.189C41.9064 43.8883 41.895 43.5638 41.7228 43.1903L41.7225 43.1896C41.5736 42.8727 41.2535 42.7597 40.9166 42.7866C40.5805 42.8134 40.2083 42.9781 39.9054 43.2409L39.9054 43.2409L39.9033 43.2428C38.9339 44.1332 37.925 44.9619 36.8809 45.7255C34.7594 47.1352 32.4337 48.0639 30.0239 48.4643L30.0221 48.4647C26.0813 49.1953 22.3637 48.2948 18.8034 46.303C16.61 45.051 14.6454 43.3025 13.0219 41.156L13.0219 41.156L13.0214 41.1553C12.7881 40.8524 12.5106 40.6549 12.2151 40.6188C11.9141 40.582 11.6212 40.7158 11.3699 41.0182L11.3699 41.0183C10.9089 41.5745 11.0642 42.2879 11.5252 42.7544L11.5254 42.7545C11.8995 43.1317 12.2705 43.5178 12.6423 43.9048C13.715 45.0211 14.7943 46.1444 15.9745 47.0815Z" fill="#1C2640" stroke="#1C2640" stroke-width="0.2"/>
<path d="M12.7655 29.081V29.081H12.7665C13.8939 29.081 14.9069 28.0437 14.8746 26.8913L14.8747 26.8913L14.8745 26.8877C14.8383 26.3171 14.605 25.7802 14.2187 25.3831C13.8322 24.9858 13.3201 24.757 12.7826 24.7439L12.7826 24.7438L12.781 24.7438C12.2379 24.7391 11.7155 24.9602 11.3224 25.3586C10.9296 25.7568 10.6961 26.3014 10.6687 26.8783L10.6684 26.8783L10.6686 26.8862C10.6869 27.4691 10.9136 28.0232 11.3035 28.4325C11.6936 28.8422 12.2172 29.0753 12.7655 29.081Z" fill="#1C2640" stroke="#1C2640" stroke-width="0.2"/>
</g>
<circle cx="27.5" cy="28.5" r="27" stroke="#1C2640"/>
<defs>
<clipPath id="clip0_6097_28797">
<rect width="53" height="57" fill="white" transform="translate(1)"/>
</clipPath>
</defs>
</svg>
