<svg width="100" height="43" viewBox="0 0 100 43" fill="none" xmlns="http://www.w3.org/2000/svg">
<path d="M40.394 31.3125C40.394 30.0118 40.394 28.7112 40.394 27.4105C40.394 26.5145 40.7373 25.9653 41.7819 26.0376C43.2139 26.1508 44.6484 25.8979 46.0805 26.3459C47.694 26.8493 48.7509 27.8561 49.0966 29.4073C49.5527 31.4546 49.4914 33.5019 47.8362 35.1109C47.0148 35.9055 45.9068 36.3488 44.7539 36.3441C43.6946 36.3586 42.6328 36.3032 41.5661 36.3586C40.6833 36.4067 40.3964 35.9587 40.3891 35.2145C40.3866 33.9114 40.3964 32.6132 40.394 31.3125ZM43.2164 31.1728C43.2164 31.9315 43.236 32.6902 43.2164 33.4489C43.2017 33.8945 43.4077 34.0631 43.8245 34.08C45.1168 34.1306 45.8745 33.5092 46.2987 32.3313C46.8676 30.7417 46.2374 28.492 43.9839 28.3089C43.4665 28.2656 43.1821 28.4342 43.2164 29.0171C43.2507 29.7348 43.2188 30.455 43.2164 31.1728Z" fill="#E2E2E2"/>
<path d="M78.2818 36.4308C77.3009 36.6283 76.8105 36.0286 76.6437 35.041C76.5407 34.4172 76.1754 34.0776 75.5476 34.1956C74.7973 34.3257 73.8949 33.7524 73.3039 34.6267C73.1767 34.8296 73.0847 35.0518 73.0317 35.2843C72.7865 36.3152 71.2711 36.9318 70.4251 36.2646C69.7557 35.7395 70.2142 35.0169 70.4128 34.4365C71.2539 31.9483 72.1563 29.4795 73.044 27.0058C73.2451 26.4495 73.5565 26.0424 74.2701 26.0424C77.0189 26.0424 76.3299 25.7606 77.4799 28.7136C78.294 30.8091 78.8948 32.9841 79.807 35.0483C80.2116 35.9732 79.7555 36.4236 78.2818 36.4308ZM75.094 30.2864C74.9532 30.3248 74.8219 30.3909 74.7079 30.4806C74.594 30.5703 74.4998 30.6819 74.431 30.8084C74.3622 30.935 74.3203 31.074 74.3078 31.2169C74.2953 31.3599 74.3125 31.5038 74.3583 31.64C74.4883 32.0616 75.0695 31.8809 75.4814 31.681C75.3416 31.2113 75.219 30.7609 75.0891 30.2864H75.094Z" fill="#E2E2E2"/>
<path d="M83.1834 32.5172C82.8916 33.4614 83.0142 34.3863 83.0559 35.2823C83.105 36.3855 82.4135 36.4024 81.6361 36.412C80.8588 36.4216 80.1992 36.3831 80.2212 35.292C80.2776 32.6714 80.258 30.0484 80.2212 27.4254C80.2212 26.4258 80.6479 25.9802 81.6558 26.0453C83.0265 26.1416 84.4242 25.8237 85.768 26.3728C87.7028 27.1629 88.4654 29.3523 87.1118 30.8938C86.202 31.9199 87.0088 32.5028 87.2883 33.2446C87.5483 33.9287 87.9185 34.567 88.1098 35.2848C88.3281 36.1133 87.9627 36.3156 87.2025 36.4288C85.7557 36.6432 85.2065 35.8989 84.797 34.697C84.5297 33.8853 84.385 32.8665 83.1834 32.5172ZM83.024 29.2608C83.0976 29.6389 82.8303 30.2074 83.5733 30.164C84.1717 30.1303 84.8411 30.1182 84.8362 29.2897C84.8362 28.5286 84.255 28.3864 83.6101 28.3503C82.8328 28.307 83.127 28.8995 83.024 29.2608Z" fill="#E2E2E2"/>
<path d="M96.3948 25.9662C97.0473 25.9493 97.6937 26.0925 98.2756 26.3829C99.2393 26.9152 99.1731 27.7775 98.8347 28.4615C98.4963 29.1456 97.7705 28.806 97.2261 28.4832C96.8963 28.3212 96.5258 28.2567 96.1594 28.2977C96.0049 28.2777 95.8481 28.3096 95.7145 28.3883C95.5809 28.4671 95.4784 28.588 95.4238 28.7313C95.2766 29.1167 95.5832 29.2491 95.8014 29.3888C96.7283 29.9814 97.844 30.2391 98.668 31.0291C99.6316 31.9564 99.6341 33.1078 99.3447 34.2109C99.0554 35.3141 98.1677 36.0776 96.9588 36.3666C95.5611 36.699 94.2173 36.634 92.9348 35.9427C92.1747 35.5332 92.0153 34.0423 92.6896 33.5341C93.1801 33.1704 93.5552 33.6738 93.9844 33.7749C94.2762 33.8424 94.5434 34.0399 94.8352 34.0784C95.5047 34.1724 96.3776 34.2783 96.5125 33.469C96.618 32.8524 95.7916 32.6092 95.2423 32.3731C93.9598 31.824 92.719 31.1905 92.5449 29.6514C92.312 27.1705 93.5332 25.9662 96.3948 25.9662Z" fill="#E2E2E2"/>
<path d="M63.6664 31.8999C64.2647 30.3656 64.7576 29.0866 65.2627 27.8052C65.5423 27.1043 65.7532 26.2035 66.6212 26.1192C67.5555 26.0301 68.6001 25.6375 69.4584 26.4732C69.7526 26.7551 69.7306 27.0802 69.733 27.415C69.733 29.9176 69.6276 32.4298 69.7968 34.9227C69.8802 36.1969 69.3358 36.3679 68.3255 36.4257C67.3152 36.4835 66.9032 36.0788 66.9645 35.0504C67.0428 33.7628 66.9795 32.4708 66.7757 31.1966C66.2706 32.5309 65.7385 33.846 65.2701 35.1997C65.0102 35.9488 64.6718 36.4618 63.7424 36.4353C62.8523 36.4112 62.2221 36.298 61.9474 35.2503C61.5637 33.9147 61.0101 32.6321 60.2996 31.4326V34.9275C60.2996 36.2547 59.304 36.8689 58.051 36.3101C57.6684 36.1391 57.5605 35.8139 57.5605 35.4237C57.5605 32.6995 57.5605 29.9754 57.5605 27.2512C57.5605 26.4901 57.9774 26.071 58.7621 26.0469C61.327 25.9385 61.7586 26.2878 62.5212 28.853C62.8081 29.7971 63.2152 30.7052 63.6664 31.8999Z" fill="white"/>
<path d="M50.0873 31.2631C50.0873 29.8179 50.102 28.3727 50.0873 26.942C50.0873 26.2194 50.4404 25.9786 51.1147 26.046C51.8504 26.1183 52.9048 25.7184 52.9318 26.9516C52.9906 29.8107 52.9759 32.6721 52.9318 35.5312C52.9195 36.591 52.0269 36.432 51.3428 36.4464C50.7077 36.4609 50.048 36.4874 50.075 35.5239C50.1167 34.0956 50.0873 32.6745 50.0873 31.2631Z" fill="#E2E2E2"/>
<path d="M88.911 31.242C88.911 29.8209 88.9257 28.3999 88.911 26.9788C88.911 26.1695 89.3744 26.0153 90.061 26.0418C90.7476 26.0683 91.6794 25.9166 91.6942 26.9884C91.7334 29.8113 91.7211 32.6342 91.6942 35.4571C91.6942 36.4688 90.8825 36.4013 90.1885 36.4037C89.4946 36.4061 88.857 36.4519 88.8963 35.4403C88.9502 34.0457 88.911 32.6439 88.911 31.242Z" fill="#E2E2E2"/>
<path d="M0.700458 2.64973L7.01475 9.03499C9.73174 6.36383 12.3555 3.80587 14.9573 1.2166C15.8915 0.286865 17.0048 0.132713 17.9514 1.03836C20.5997 3.57464 23.1965 6.1615 25.7982 8.74596C25.9239 8.87681 25.9971 9.04794 26.0042 9.22768C26.0189 10.8102 26.1293 12.4023 25.9625 13.9679C25.862 14.9313 24.8444 15.466 24.1823 16.1188C22.1298 18.1372 19.9842 20.0858 17.8802 22.0705C17.5444 22.4096 17.0855 22.6042 16.6039 22.6119C16.1223 22.6196 15.6573 22.4396 15.3104 22.1114C13.2408 20.1243 11.2153 18.1131 9.16284 16.1164C8.63072 15.6081 8.04956 15.1264 7.52725 14.5917C7.11039 14.163 6.77689 14.2641 6.39926 14.6447C4.59775 16.411 2.79133 18.1773 0.980004 19.9437C0.872109 20.0496 0.810805 20.2496 0.59992 20.1604C0.389035 20.0713 0.381678 19.8786 0.381678 19.7028C0.381678 18.4021 0.298305 17.0918 0.418461 15.8008C0.496929 14.9723 1.39932 14.5965 1.92163 14.0112C2.54448 13.332 3.24825 12.725 3.90787 12.0843C4.2757 11.723 4.2757 11.3617 3.86619 11.0173C2.78724 10.0683 1.90937 8.91938 0.734788 8.07636C0.63661 7.99008 0.557133 7.88525 0.501099 7.76814C0.445066 7.65103 0.413625 7.52403 0.408652 7.39472C0.379226 6.01458 0.389035 4.63203 0.408652 3.25188C0.403748 3.13386 0.511642 3.01825 0.700458 2.64973ZM23.3853 11.5616C23.3241 11.4053 23.2416 11.2579 23.1401 11.1233C21.0852 9.11127 19.0278 7.10087 16.968 5.09207C16.637 4.7645 16.3207 4.88734 16.0607 5.14266C14.0034 7.15145 11.9632 9.1771 9.90094 11.1835C9.6263 11.4508 9.65572 11.6387 9.90094 11.882C11.964 13.9197 14.0336 15.959 16.1098 17.9999C16.4408 18.3251 16.7081 18.3251 17.0686 17.9638C19.0303 15.9983 21.0288 14.0618 23.0077 12.1084C23.1497 11.9391 23.2761 11.7578 23.3853 11.5665V11.5616Z" fill="#E1251B"/>
<path d="M28.7887 2.67001C29.8505 3.8406 30.9 5.01842 31.9765 6.17215C32.7514 7.00313 33.5655 7.79797 34.36 8.60968C34.6641 8.91798 34.9068 8.96134 35.2648 8.60968C37.7611 6.13602 40.2721 3.68645 42.7807 1.23688C43.8376 0.205984 44.9288 0.19635 45.9685 1.21279C48.4664 3.65995 50.9619 6.11033 53.4549 8.56392C53.5555 8.66267 53.7001 8.7542 53.7369 8.87222C53.9821 9.93924 53.8227 11.0231 53.8424 12.0998C53.862 13.1764 53.9895 14.1423 52.9988 15.0431C50.4976 17.3096 48.1705 19.7544 45.711 22.0667C44.816 22.9073 43.791 22.7555 42.9107 21.8812C40.277 19.2703 37.641 16.6641 34.7523 13.8051C33.1732 15.455 31.6626 17.0375 30.1447 18.6103C29.696 19.0752 29.2301 19.5208 28.7617 19.9639C28.6559 20.042 28.5395 20.1052 28.416 20.1518C28.3449 20.0193 28.2124 19.8893 28.2124 19.7568C28.2002 18.4345 28.1585 17.1073 28.2272 15.7922C28.2738 14.9203 29.186 14.6337 29.6985 14.0724C30.3703 13.3306 31.0668 12.6104 31.7558 11.883C32.1089 11.5097 31.9544 11.2158 31.6381 10.9196C30.6793 9.99223 29.7475 9.03842 28.7715 8.12796C28.572 7.96061 28.4151 7.74973 28.3133 7.51218C28.2115 7.27463 28.1678 7.01699 28.1855 6.75986C28.2272 5.76028 28.1855 4.75829 28.1855 3.7563C28.1977 3.46967 28.1634 3.18064 28.7887 2.67001ZM37.6165 11.2279L44.534 18.302L50.8753 12.0396C51.2406 11.6807 51.172 11.3507 50.8238 11.0111C48.8441 9.07455 46.8701 7.13319 44.9018 5.18702C44.5242 4.81369 44.1931 4.86186 43.8572 5.18702C41.7116 7.25844 39.5733 9.34431 37.6165 11.2279Z" fill="#E1251B"/>
<path d="M35.119 31.4053C35.6707 33.0479 34.4201 34.2571 32.9905 35.524C30.9503 37.3353 29.0671 39.3224 27.1176 41.2276C25.9357 42.3838 24.8763 42.3236 23.6846 41.1433C21.4776 38.9394 19.2413 36.7717 17.0172 34.5846C16.9212 34.4832 16.8335 34.3744 16.7548 34.2595C16.2913 33.614 15.872 33.4622 15.2173 34.1391C13.5474 35.8612 11.8039 37.5111 10.0923 39.1972C9.93291 39.3561 9.81031 39.544 9.53321 39.4501C9.25612 39.3561 9.24631 39.0984 9.24876 38.8575C9.25372 38.8176 9.25372 38.7771 9.24876 38.7371C8.38561 35.341 10.6489 33.4381 12.8289 31.4872C13.2433 31.1162 13.3046 30.8176 12.8559 30.4033C11.9265 29.541 11.1001 28.5631 10.1217 27.7538C8.86623 26.7253 9.30762 25.3837 9.27329 24.1408C9.25857 23.6013 8.90792 22.7968 9.49888 22.5463C10.1536 22.2693 10.4797 23.122 10.8819 23.5098C12.4292 24.955 13.9299 26.4507 15.4233 27.9513C15.8009 28.3319 16.0584 28.3246 16.4311 27.9513C18.8538 25.5427 21.2962 23.175 23.7214 20.7808C25.0553 19.4633 25.9479 19.4537 27.2696 20.7808C29.5011 23.0281 31.5952 25.4271 34.0082 27.4648C35.3102 28.5703 34.9866 29.7264 35.119 31.4053ZM25.4207 24.23C25.3155 24.2802 25.2168 24.3425 25.1265 24.4154C23.0389 26.4612 20.957 28.5085 18.8808 30.5574C18.8165 30.6077 18.7645 30.6716 18.7287 30.7444C18.693 30.8172 18.6745 30.8969 18.6745 30.9777C18.6745 31.0585 18.693 31.1383 18.7287 31.211C18.7645 31.2838 18.8165 31.3477 18.8808 31.398C20.9553 33.4309 23.0495 35.4301 25.1436 37.4533C25.4354 37.7375 25.6733 37.7544 25.9651 37.4678C28.0216 35.4381 30.0814 33.4116 32.1445 31.3884C32.4559 31.0825 32.5344 30.8296 32.1788 30.4852C30.2588 28.6161 28.3608 26.7253 26.4384 24.8586C26.1735 24.5985 25.9038 24.2998 25.4207 24.23Z" fill="#E1251B"/>
<path d="M21.0336 11.1243C21.0679 12.0323 20.5432 12.5285 19.6138 12.5695C18.6844 12.6104 18.1842 12.0877 18.1278 11.1869C18.0616 10.1584 18.6942 9.62371 19.6261 9.6213C20.477 9.60926 21.0606 10.1175 21.0336 11.1243Z" fill="#E1251B"/>
<path d="M48.8145 11.0682C48.8489 12.0316 48.2089 12.4869 47.4242 12.4821C46.5978 12.4821 46.0117 11.9787 46.0338 11.0056C46.0559 10.0325 46.6714 9.80126 47.4879 9.80126C48.3511 9.7844 48.7974 10.2155 48.8145 11.0682Z" fill="#E1251B"/>
<path d="M28.6026 31.8982C27.4992 31.9873 27.0259 31.4164 26.9916 30.453C26.9548 29.4052 27.6904 29.0078 28.5977 29.0078C29.5418 29.0078 30.1401 29.5835 30.1156 30.506C30.0911 31.4285 29.6105 32.0065 28.6026 31.8982Z" fill="#E1251B"/>
</svg>
