<svg width="91" height="56" viewBox="0 0 91 56" fill="none" xmlns="http://www.w3.org/2000/svg">
<g clip-path="url(#clip0_4864_19474)">
<path d="M45.312 55.3648C32.1751 55.3648 19.0387 55.3648 5.9026 55.3648C4.77184 55.3648 3.65815 55.2956 2.673 54.6627C1.15547 53.688 0.546853 52.1601 0.30796 50.4475C0.235431 49.7958 0.208065 49.1398 0.226057 48.4842C0.221507 34.5913 0.221507 20.6984 0.226057 6.80548C0.208424 6.17062 0.254925 5.5356 0.36484 4.91036C0.886991 2.34312 2.80269 0.752885 5.45895 0.683594C5.70581 0.683594 5.95152 0.683594 6.19838 0.683594H85.4141C86.4493 0.683594 87.4618 0.812935 88.3514 1.40307C90.0157 2.50364 90.5572 4.2059 90.754 6.08485C90.7724 6.31532 90.7788 6.54661 90.7733 6.77777C90.7733 20.9602 90.7756 35.1422 90.7801 49.3238C90.7801 50.6553 90.6334 51.9523 89.8928 53.0794C88.8212 54.7089 87.2104 55.3487 85.3504 55.351C72.0028 55.3679 58.6566 55.3725 45.312 55.3648ZM71.9394 34.2437C72.9057 34.2861 73.8736 34.2164 74.8243 34.0358C77.2337 33.5566 79.0539 32.3509 79.6818 29.794C80.0068 28.4217 79.9892 26.9887 79.6306 25.625C79.2268 23.9932 78.2348 22.8915 76.7071 22.2667C75.9986 21.9941 75.2661 21.7911 74.5195 21.6604C73.4957 21.456 72.4536 21.3671 71.4548 21.0541C70.266 20.6799 69.7757 19.9939 69.8508 18.8668C69.9214 17.8101 70.5459 17.1807 71.7278 16.9705C72.5151 16.8464 73.3153 16.8313 74.1065 16.9255C75.392 17.0502 76.6468 17.3435 77.9004 17.6403C78.5568 17.7962 78.7138 17.6784 78.8298 17.0121C78.9322 16.4254 79.0308 15.838 79.1256 15.2498C79.2393 14.5696 79.113 14.3525 78.443 14.1504C77.955 14.0014 77.4579 13.8755 76.9585 13.7716C74.4342 13.2426 71.8973 12.9943 69.3514 13.5995C67.8396 13.9587 66.5245 14.6874 65.8067 16.1506C64.8204 18.1612 64.726 20.2711 65.5519 22.3533C66.2959 24.2299 67.9226 25.0095 69.7268 25.4714C70.9782 25.7971 72.2773 25.8479 73.5013 26.2798C74.656 26.6829 75.053 27.3192 74.9677 28.556C74.8994 29.5665 74.3033 30.2179 73.2181 30.4581C72.2614 30.6694 71.2967 30.6244 70.3343 30.5204C69.0306 30.3795 67.7656 30.0481 66.5006 29.712C65.8602 29.5423 65.6884 29.6578 65.5678 30.3206C65.4541 30.9258 65.3551 31.5321 65.2629 32.1395C65.1492 32.8833 65.2493 33.0634 65.9523 33.2829C67.9033 33.9111 69.9088 34.1594 71.9394 34.2437ZM49.5631 23.7276C49.5631 26.8815 49.57 30.0354 49.5563 33.1893C49.5563 33.7263 49.7326 33.9573 50.2832 33.9434C51.381 33.9169 52.4799 33.9434 53.5822 33.9354C54.2648 33.9354 54.3603 33.8372 54.3603 33.1339C54.3603 31.1533 54.3762 29.1716 54.3478 27.191C54.3398 26.6886 54.4616 26.5339 54.9746 26.542C57.0007 26.5708 59.0278 26.542 61.055 26.5593C61.5101 26.5593 61.7125 26.4045 61.6966 25.9195C61.6727 25.2266 61.7046 24.5337 61.6966 23.8408C61.6887 22.8407 61.6841 22.8406 60.7172 22.8406C58.7833 22.8406 56.8494 22.8303 54.9155 22.8499C54.4843 22.8499 54.3273 22.7494 54.3387 22.2725C54.3717 20.8116 54.3785 19.3484 54.3387 17.884C54.3239 17.3447 54.5082 17.2604 54.9814 17.265C57.2737 17.2893 59.5659 17.265 61.8581 17.2858C62.3473 17.2858 62.5487 17.0987 62.5407 16.6079C62.5271 15.8203 62.5271 15.0323 62.5407 14.2439C62.5498 13.7231 62.3257 13.551 61.8161 13.551C57.9892 13.5672 54.1624 13.5579 50.3356 13.5602C49.6428 13.5602 49.562 13.6538 49.562 14.3686C49.5635 17.4929 49.5639 20.6126 49.5631 23.7276ZM16.8257 17.3008C17.564 17.3008 18.3046 17.2846 19.0417 17.3008C19.6185 17.317 20.0212 17.0594 20.2987 16.5721C21.037 15.2752 21.7662 13.9725 22.5068 12.6756C22.8026 12.1571 22.7696 11.6582 22.4818 11.1512C21.7628 9.88548 21.0492 8.61783 20.3408 7.34826C20.053 6.83088 19.6401 6.56066 19.052 6.56181C17.5754 6.56181 16.0965 6.56181 14.6154 6.56181C14.3674 6.5546 14.1225 6.61905 13.9092 6.74766C13.696 6.87626 13.5231 7.06372 13.4107 7.28822C12.6765 8.58782 11.9421 9.88703 11.2072 11.1859C11.0711 11.4074 10.999 11.6633 10.999 11.9244C10.999 12.1855 11.0711 12.4413 11.2072 12.6629C11.9481 13.9818 12.6902 15.2994 13.4334 16.616C13.544 16.8306 13.7127 17.0087 13.9197 17.1293C14.1267 17.2498 14.3634 17.3077 14.6017 17.2962C15.348 17.2985 16.0874 17.3008 16.8257 17.3008ZM44.5828 23.5463C44.5828 20.3558 44.5828 17.1642 44.5828 13.9714C44.5828 13.253 44.4929 13.1757 43.7797 13.2681C42.6523 13.4136 41.5272 13.5729 40.3999 13.7104C39.971 13.7635 39.7856 13.9413 39.7867 14.4137C39.8019 20.6622 39.8053 26.9107 39.797 33.1593C39.797 33.8776 39.855 33.933 40.5933 33.9342C41.655 33.9342 42.7168 33.9342 43.7785 33.9342C44.5407 33.9342 44.5896 33.8822 44.5896 33.1258C44.5828 29.9307 44.5797 26.7375 44.5805 23.5463H44.5828ZM27.0822 23.9204C27.7829 23.9204 28.4859 23.8973 29.1856 23.9274C29.4517 23.952 29.7191 23.895 29.9529 23.7636C30.1868 23.6322 30.3764 23.4326 30.4972 23.1906C31.2488 21.8571 31.9981 20.5205 32.7451 19.1809C32.8546 18.9985 32.9132 18.7892 32.9144 18.5756C32.9156 18.3619 32.8594 18.152 32.7519 17.9683C31.9988 16.6125 31.2404 15.2598 30.4767 13.9102C30.3655 13.6951 30.197 13.5161 29.9905 13.3936C29.7839 13.2711 29.5476 13.21 29.3084 13.2172C27.8102 13.2172 26.3132 13.2172 24.8161 13.2115C24.5775 13.202 24.3411 13.261 24.134 13.3817C23.927 13.5024 23.7577 13.68 23.6455 13.894C22.8959 15.2071 22.1667 16.5328 21.4204 17.8482C21.2891 18.062 21.2195 18.3088 21.2195 18.5608C21.2195 18.8127 21.2891 19.0595 21.4204 19.2733C22.1576 20.5945 22.8993 21.911 23.6421 23.231C23.7521 23.4459 23.9202 23.6245 24.1268 23.7456C24.3334 23.8668 24.5698 23.9254 24.8081 23.9147C25.565 23.917 26.3223 23.9189 27.0799 23.9204H27.0822ZM27.0185 36.267C27.6828 36.267 28.3483 36.2312 29.0081 36.2774C29.7976 36.3328 30.2845 35.9864 30.6485 35.3004C31.2946 34.082 31.9783 32.8833 32.6666 31.6891C32.9783 31.1475 32.9635 30.6498 32.6575 30.1128C31.9218 28.834 31.193 27.5517 30.471 26.266C30.3578 26.0425 30.1832 25.8572 29.9684 25.7324C29.7536 25.6076 29.5078 25.5486 29.2606 25.5627C27.7818 25.5627 26.3029 25.5754 24.8241 25.5627C24.2632 25.5627 23.8867 25.8236 23.6228 26.2879C22.8947 27.5698 22.1814 28.8609 21.45 30.1416C21.1428 30.6786 21.1553 31.1891 21.4614 31.7203C22.1856 32.983 22.9031 34.2491 23.6137 35.5187C23.8912 36.0152 24.2871 36.2762 24.857 36.2705C25.576 36.2601 26.2984 36.2693 27.0162 36.2693L27.0185 36.267ZM51.7962 44.5658C51.7962 43.8359 51.7735 43.1049 51.8053 42.3773C51.8246 41.9339 51.6131 41.8322 51.2581 41.8923C50.9447 41.953 50.6262 41.982 50.3071 41.9789C48.8157 41.9304 48.3323 42.4166 48.3197 43.9422C48.3038 45.6999 48.7566 46.171 50.5016 46.1156C50.9965 46.0994 50.984 46.3466 50.9191 46.678C50.86 46.9841 50.6177 47.0949 50.3572 47.1838C49.9897 47.3086 49.6075 47.2624 49.2321 47.2901C49.0341 47.304 48.8487 47.3328 48.8385 47.5984C48.8283 47.8641 49.0148 47.9218 49.2048 47.9449C49.7696 48.0151 50.3427 47.9628 50.8861 47.7913C51.5505 47.5892 51.7962 47.2266 51.7962 46.521C51.7996 45.8708 51.7939 45.2183 51.7939 44.5658H51.7962ZM47.5132 44.0761H47.5439C47.5109 43.7724 47.4973 43.4641 47.4415 43.1638C47.3141 42.4836 46.9387 42.1244 46.2766 42.0089C44.6499 41.7329 43.9014 42.3554 43.8877 44.0115C43.8877 44.1847 43.8877 44.3579 43.8991 44.53C43.9605 45.5948 44.452 46.0948 45.4917 46.1537C46.8727 46.2311 47.4415 45.7091 47.5075 44.3059C47.5143 44.2297 47.5109 44.1535 47.5109 44.0761H47.5132ZM39.7924 43.2111C39.7924 43.9988 39.8015 44.7864 39.7924 45.5751C39.7924 45.9031 39.8743 46.0717 40.2372 46.0636C41.1643 46.0463 42.0926 46.0521 43.0197 46.0567C43.2905 46.0567 43.4498 45.9886 43.4395 45.6687C43.4304 45.3684 43.2996 45.2645 43.0175 45.2679C42.4305 45.276 41.8423 45.2437 41.2576 45.2679C40.8344 45.2876 40.6991 45.1363 40.7082 44.7067C40.7332 43.4363 40.7218 42.166 40.7173 40.8957C40.7173 40.6428 40.7969 40.3275 40.3464 40.3621C39.9972 40.3887 39.7776 40.4672 39.789 40.8968C39.8061 41.6729 39.789 42.442 39.7901 43.2111H39.7924ZM56.226 46.1468C56.3396 46.1526 56.4536 46.1526 56.5672 46.1468C57.4011 46.066 57.8447 45.6398 57.8641 44.9065C57.8834 44.1731 57.5786 43.8752 56.7049 43.7043C56.5911 43.6823 56.4774 43.6615 56.3716 43.6338C56.0804 43.5588 55.7209 43.5264 55.7607 43.1014C55.8005 42.6765 56.1657 42.6245 56.4865 42.6129C56.7857 42.6025 57.0871 42.673 57.3886 42.6972C57.5706 42.7123 57.6673 42.6141 57.6821 42.4282C57.6969 42.2422 57.6627 42.1348 57.4659 42.0921C56.8482 41.9604 56.2271 41.8912 55.6162 42.0921C55.1077 42.2584 54.8597 42.6568 54.8609 43.1915C54.862 43.7262 55.1327 44.1039 55.6481 44.2586C55.937 44.3452 56.2385 44.3891 56.5331 44.4584C56.8004 44.5196 56.9768 44.672 56.9768 44.9711C56.9768 45.2703 56.7663 45.4135 56.5081 45.4562C56.0959 45.5277 55.6729 45.4988 55.2738 45.3719C55.0895 45.3141 54.9325 45.3338 54.8711 45.5555C54.8097 45.7772 54.8711 45.9227 55.11 45.9851C55.4705 46.0982 55.8464 46.1528 56.2237 46.1468H56.226ZM69.1444 41.965C68.9363 41.9672 68.7285 41.9823 68.5221 42.0101C67.8566 42.1394 67.4869 42.5725 67.4983 43.1869C67.5097 43.8013 67.8396 44.1697 68.5051 44.3198C68.7326 44.3695 68.9521 44.4007 69.1717 44.4595C69.4231 44.5277 69.6381 44.6443 69.6267 44.9642C69.6153 45.2841 69.3992 45.4354 69.108 45.4677C68.7305 45.5165 68.3471 45.4858 67.9818 45.3777C67.7543 45.3072 67.5711 45.3349 67.5006 45.6144C67.43 45.8939 67.628 45.9493 67.81 45.9967C68.3788 46.1445 68.9624 46.2276 69.5516 46.0833C70.1796 45.9308 70.5311 45.4862 70.5209 44.8453C70.5118 44.2274 70.2262 43.8856 69.5778 43.7297C69.3935 43.6846 69.2047 43.6615 69.0181 43.6246C68.7178 43.5657 68.3629 43.523 68.4027 43.1026C68.4425 42.6822 68.794 42.6118 69.1273 42.6083C69.4297 42.6194 69.7312 42.6472 70.0306 42.6915C70.224 42.7111 70.3013 42.6083 70.3275 42.427C70.3536 42.2457 70.2956 42.136 70.1079 42.0967C69.7932 42.0093 69.4684 41.965 69.1421 41.965H69.1444ZM65.5485 41.965C64.23 41.965 63.8046 42.3693 63.6692 43.6454C63.6437 44.0093 63.6547 44.375 63.7022 44.7367C63.7784 45.5451 64.2562 46.0405 65.0457 46.1225C65.4414 46.1774 65.8439 46.1543 66.231 46.0544C66.4494 45.992 66.785 46.0151 66.7361 45.6467C66.677 45.201 66.3528 45.4158 66.1127 45.4319C65.8727 45.4481 65.6213 45.4643 65.3767 45.4585C65.232 45.4632 65.0893 45.4232 64.9674 45.3438C64.8455 45.2645 64.7503 45.1494 64.6942 45.0139C64.4553 44.3279 64.3654 43.5853 64.7761 42.9571C65.1173 42.4351 65.7146 42.5771 66.2413 42.6834C66.2798 42.6883 66.3178 42.6964 66.355 42.7076C66.5689 42.7896 66.6792 42.6891 66.7282 42.4882C66.7771 42.2873 66.7156 42.1498 66.5075 42.0979C66.1951 42.0052 65.8704 41.9624 65.5451 41.9708L65.5485 41.965ZM58.7799 43.2008C58.7799 43.8359 58.7799 44.4711 58.7799 45.104C58.7799 45.4504 58.8811 45.7564 59.1939 45.9366C59.7115 46.2346 60.2542 46.1572 60.7956 46.0151C60.8514 46.0016 60.9001 45.9672 60.9319 45.9188C60.9638 45.8704 60.9764 45.8116 60.9674 45.7541C60.9595 45.6121 60.9174 45.477 60.7638 45.4469C60.6504 45.434 60.5359 45.434 60.4225 45.4469C59.7331 45.4724 59.6387 45.38 59.633 44.6616C59.633 44.2771 59.633 43.8925 59.633 43.5068C59.633 42.7365 59.633 42.7342 60.3781 42.6984C60.6057 42.6892 60.8582 42.7434 60.8696 42.3889C60.881 42.0343 60.6227 42.0771 60.3986 42.0667C59.6433 42.0332 59.6512 42.0309 59.6217 41.2744C59.6137 41.0562 59.7354 40.7086 59.3247 40.734C58.971 40.7548 58.7343 40.8957 58.7628 41.3461C58.806 41.9743 58.7776 42.591 58.7776 43.2065L58.7799 43.2008ZM62.6749 44.0727C62.6749 43.5357 62.6647 42.9987 62.6749 42.4616C62.6829 42.1279 62.5009 42.0898 62.2392 42.1013C62.0015 42.1129 61.7842 42.1013 61.7842 42.4478C61.7941 43.5026 61.7941 44.5577 61.7842 45.6133C61.7842 45.932 61.9173 46.0532 62.2279 46.0556C62.5384 46.0579 62.6829 45.9574 62.667 45.6236C62.6579 45.1143 62.6715 44.597 62.6727 44.0784L62.6749 44.0727ZM53.8257 44.0819C53.8257 43.5645 53.8143 43.0425 53.8257 42.5298C53.8348 42.2053 53.7119 42.0921 53.3911 42.0967C53.0703 42.1013 52.9622 42.2261 52.9668 42.5448C52.9793 43.5599 52.977 44.5762 52.9668 45.5925C52.9668 45.8927 53.035 46.0463 53.3729 46.0544C53.7347 46.0636 53.8348 45.9066 53.8279 45.5763C53.8143 45.0843 53.8279 44.5843 53.8279 44.0877L53.8257 44.0819ZM62.6818 40.9892C62.6818 40.63 62.733 40.3067 62.2563 40.3078C61.865 40.3078 61.7797 40.5122 61.7922 40.8575C61.8047 41.2029 61.7774 41.5193 62.2654 41.5204C62.7011 41.5274 62.6909 41.2491 62.6795 40.995L62.6818 40.9892ZM53.8222 40.9442C53.837 40.6312 53.8598 40.3367 53.39 40.3367C52.944 40.3367 52.9861 40.6196 52.9759 40.9141C52.9634 41.2387 52.9463 41.5135 53.4093 41.5193C53.8723 41.5251 53.8279 41.2491 53.82 40.9499L53.8222 40.9442Z" fill="#FEFEFE"/>
<path d="M71.9395 34.2442C69.9089 34.1599 67.9034 33.9116 65.9569 33.2868C65.2539 33.0558 65.1538 32.8872 65.2676 32.1435C65.3597 31.536 65.4632 30.9297 65.5724 30.3246C65.693 29.6617 65.8648 29.5462 66.5053 29.716C67.7703 30.0497 69.0353 30.3812 70.3389 30.5244C71.3013 30.6283 72.266 30.6733 73.2227 30.462C74.308 30.2218 74.9041 29.5705 74.9723 28.56C75.0576 27.3266 74.6606 26.6868 73.506 26.2837C72.2819 25.8553 70.9771 25.8045 69.7315 25.4753C67.9273 25.0042 66.3005 24.2293 65.5565 22.3572C64.7306 20.2785 64.825 18.1651 65.8113 16.1545C66.5291 14.6913 67.8442 13.9603 69.3561 13.6034C71.902 12.9983 74.4388 13.2466 76.9631 13.7755C77.4625 13.8794 77.9596 14.0065 78.4477 14.1543C79.1131 14.3564 79.2371 14.5735 79.1302 15.2537C79.0347 15.8412 78.936 16.4286 78.8344 17.016C78.7207 17.6824 78.5614 17.8002 77.905 17.6443C76.6537 17.3475 75.4023 17.0541 74.1112 16.9294C73.3199 16.8352 72.5197 16.8504 71.7325 16.9745C70.5505 17.1846 69.926 17.814 69.8555 18.8707C69.7804 19.9979 70.2707 20.6838 71.4595 21.058C72.4583 21.371 73.5071 21.4599 74.5241 21.6643C75.2707 21.795 76.0033 21.998 76.7117 22.2706C78.2395 22.8954 79.2314 24.0029 79.6353 25.6289C79.9939 26.9926 80.0115 28.4256 79.6865 29.798C79.0585 32.3548 77.2384 33.5605 74.829 34.0397C73.8767 34.2195 72.9072 34.2881 71.9395 34.2442Z" fill="#1E365A"/>
<path d="M49.5633 23.7264C49.5633 20.6106 49.5633 17.4952 49.5633 14.3801C49.5633 13.6618 49.6441 13.5717 50.3369 13.5717C54.1637 13.5717 57.9906 13.5787 61.8174 13.5625C62.327 13.5625 62.5511 13.7357 62.542 14.2554C62.5284 15.043 62.5284 15.831 62.542 16.6194C62.5511 17.1102 62.3498 17.3008 61.8595 17.2973C59.5672 17.28 57.275 17.2973 54.9828 17.2765C54.5096 17.2765 54.3253 17.3562 54.34 17.8955C54.3821 19.3553 54.3753 20.8185 54.34 22.284C54.3287 22.7575 54.4857 22.8614 54.9168 22.8614C56.8507 22.8418 58.7846 22.8522 60.7185 22.8522C61.6854 22.8522 61.69 22.8522 61.698 23.8523C61.698 24.5452 61.6718 25.2381 61.698 25.931C61.7139 26.416 61.508 26.5731 61.0564 26.5708C59.0292 26.5592 57.002 26.5823 54.976 26.5535C54.4663 26.5454 54.3412 26.7001 54.3491 27.2025C54.3776 29.1831 54.3605 31.1648 54.3617 33.1454C54.3617 33.8487 54.2707 33.9445 53.5836 33.9469C52.4846 33.9469 51.3857 33.9284 50.2846 33.9549C49.734 33.9688 49.5554 33.7378 49.5576 33.2008C49.5702 30.0319 49.5633 26.8803 49.5633 23.7264Z" fill="#1E365A"/>
<path d="M16.8255 17.3013C16.0873 17.3013 15.3467 17.3013 14.6095 17.3013C14.3712 17.3128 14.1346 17.2549 13.9276 17.1344C13.7206 17.0139 13.5518 16.8358 13.4412 16.6211C12.6957 15.3046 11.9536 13.9869 11.215 12.668C11.0789 12.4465 11.0068 12.1906 11.0068 11.9295C11.0068 11.6684 11.0789 11.4126 11.215 11.191C11.9498 9.89215 12.6844 8.59294 13.4185 7.29335C13.5309 7.06885 13.7038 6.8814 13.9171 6.7528C14.1303 6.62419 14.3752 6.55974 14.6232 6.56695C16.0998 6.56695 17.5786 6.56695 19.0598 6.56695C19.6479 6.56695 20.0608 6.83602 20.3486 7.3534C21.0547 8.62528 21.7684 9.89293 22.4896 11.1563C22.7774 11.6633 22.8104 12.1622 22.5146 12.6807C21.774 13.9776 21.0449 15.2803 20.3066 16.5772C20.029 17.0646 19.624 17.3221 19.0495 17.3059C18.3033 17.2852 17.5638 17.3013 16.8255 17.3013Z" fill="#1E365A"/>
<path d="M44.5802 23.5447C44.5802 26.7367 44.5802 29.9283 44.5802 33.1196C44.5802 33.8818 44.5313 33.928 43.7691 33.928C42.7074 33.928 41.6456 33.928 40.5839 33.928C39.8501 33.928 39.7876 33.8714 39.7876 33.1531C39.7876 26.9045 39.7842 20.656 39.7773 14.4075C39.7773 13.9328 39.9616 13.7573 40.3905 13.7042C41.5179 13.5667 42.6429 13.4074 43.7703 13.2619C44.4835 13.1695 44.5666 13.2468 44.5734 13.9652C44.5795 17.1603 44.5818 20.3534 44.5802 23.5447Z" fill="#1E365A"/>
<path d="M27.0796 23.919H24.8045C24.5661 23.9298 24.3298 23.8711 24.1232 23.75C23.9166 23.6289 23.7484 23.4503 23.6385 23.2354C22.899 21.9154 22.1596 20.5988 21.4167 19.2777C21.2854 19.0639 21.2158 18.817 21.2158 18.5651C21.2158 18.3132 21.2854 18.0663 21.4167 17.8526C22.1619 16.5372 22.8956 15.2114 23.6419 13.8984C23.754 13.6844 23.9233 13.5068 24.1304 13.3861C24.3375 13.2653 24.5738 13.2063 24.8124 13.2158C26.3095 13.2239 27.8066 13.2158 29.3048 13.2216C29.5439 13.2143 29.7802 13.2755 29.9868 13.398C30.1934 13.5205 30.3619 13.6995 30.4731 13.9145C31.2368 15.2642 31.9952 16.6169 32.7482 17.9727C32.8557 18.1564 32.9119 18.3663 32.9107 18.58C32.9095 18.7936 32.851 19.0029 32.7414 19.1853C31.9936 20.5234 31.2444 21.8599 30.4935 23.1949C30.3727 23.437 30.1831 23.6366 29.9493 23.768C29.7154 23.8994 29.4481 23.9564 29.1819 23.9317C28.4834 23.8971 27.777 23.9202 27.0796 23.919Z" fill="#B5D3E3"/>
<path d="M27.0165 36.2684C26.2964 36.2684 25.5763 36.2615 24.855 36.2684C24.2863 36.2684 23.8892 36.0132 23.6117 35.5166C22.901 34.2463 22.1836 32.9802 21.4593 31.7183C21.1533 31.1871 21.1408 30.6789 21.448 30.1396C22.1794 28.8589 22.8927 27.5678 23.6208 26.2859C23.8847 25.8239 24.2612 25.5548 24.8221 25.5606C26.3009 25.5756 27.7798 25.5687 29.2586 25.5606C29.5058 25.5466 29.7516 25.6056 29.9664 25.7304C30.1812 25.8552 30.3558 26.0405 30.469 26.2639C31.1903 27.5504 31.9191 28.8327 32.6555 30.1108C32.9615 30.642 32.9763 31.1501 32.6646 31.6871C31.982 32.8812 31.2926 34.08 30.6465 35.2984C30.2825 35.9843 29.7956 36.3308 29.0061 36.2754C28.3463 36.2303 27.6808 36.2684 27.0165 36.2684Z" fill="#B5D3E3"/>
<path d="M51.7942 44.5639C51.7942 45.2164 51.7999 45.8689 51.7942 46.5272C51.7874 47.2374 51.5463 47.6001 50.8842 47.7976C50.3408 47.969 49.7677 48.0214 49.2028 47.9512C49.0128 47.9246 48.8263 47.8634 48.8365 47.6047C48.8468 47.346 49.0322 47.3102 49.2301 47.2963C49.6055 47.2686 49.9878 47.3148 50.3552 47.1901C50.6157 47.1012 50.858 46.9903 50.9172 46.6843C50.982 46.3494 50.9945 46.1068 50.4997 46.1219C48.7546 46.1773 48.3019 45.7061 48.3178 43.9484C48.3303 42.4182 48.8138 41.932 50.3051 41.9852C50.6242 41.9883 50.9428 41.9593 51.2562 41.8985C51.6111 41.8385 51.825 41.9401 51.8033 42.3836C51.7715 43.1111 51.7942 43.8422 51.7942 44.572V44.5639ZM50.9422 44.0674C50.9422 43.7417 50.9422 43.416 50.9422 43.0903C50.9422 42.9402 50.9559 42.7889 50.7909 42.6908C50.2073 42.3443 49.3245 42.737 49.2529 43.4183C49.2047 43.8561 49.2089 44.2981 49.2654 44.7349C49.345 45.3123 49.8001 45.5352 50.5327 45.4682C51.1367 45.4139 50.8956 44.9578 50.9388 44.6425C50.953 44.4511 50.9541 44.2589 50.9422 44.0674Z" fill="#B5D3E3"/>
<path d="M47.5114 44.078C47.5114 44.1554 47.5114 44.2316 47.5114 44.309C47.4454 45.711 46.8766 46.233 45.4956 46.1568C44.4547 46.0979 43.9633 45.5978 43.903 44.533C43.8939 44.3598 43.8916 44.1866 43.8916 44.0145C43.9007 42.3642 44.6492 41.736 46.2805 42.012C46.9426 42.1275 47.318 42.4843 47.4454 43.1668C47.5011 43.4671 47.5148 43.7755 47.5478 44.0792L47.5114 44.078ZM44.8039 44.0295C44.8039 44.2028 44.796 44.376 44.8039 44.5481C44.8381 45.2225 45.0576 45.4719 45.6173 45.4962C46.2805 45.5216 46.5524 45.2883 46.6036 44.5989C46.6345 44.2146 46.6345 43.8283 46.6036 43.444C46.5501 42.8239 46.2782 42.5963 45.6776 42.6056C45.1236 42.6137 44.8711 42.8539 44.813 43.451C44.788 43.6438 44.8039 43.8378 44.8039 44.0295Z" fill="#B5D3E3"/>
<path d="M69.142 41.9648C69.4648 41.9657 69.7862 42.01 70.0976 42.0965C70.2853 42.1358 70.3433 42.242 70.3171 42.4268C70.291 42.6116 70.2136 42.7109 70.0202 42.6913C69.7208 42.6469 69.4193 42.6192 69.117 42.6081C68.7837 42.6081 68.4344 42.6901 68.3923 43.1024C68.3502 43.5147 68.7074 43.5643 69.0077 43.6244C69.1943 43.6613 69.3832 43.6844 69.5674 43.7295C70.2159 43.8854 70.5014 44.2272 70.5105 44.8451C70.5208 45.486 70.1692 45.9306 69.5413 46.0831C68.952 46.2274 68.373 46.1443 67.7996 45.9965C67.6176 45.9491 67.4197 45.8925 67.4902 45.6142C67.5607 45.3359 67.7427 45.307 67.9714 45.3775C68.3367 45.4856 68.7201 45.5163 69.0976 45.4675C69.3888 45.4352 69.6004 45.2978 69.6164 44.964C69.6323 44.6303 69.4184 44.5275 69.1613 44.4593C68.9418 44.4004 68.7165 44.3693 68.4947 44.3196C67.8281 44.1695 67.497 43.7941 67.4879 43.1867C67.4788 42.5792 67.8485 42.1392 68.5118 42.0099C68.7207 41.9817 68.9312 41.9667 69.142 41.9648Z" fill="#B5D3E3"/>
<path d="M65.5455 41.9691C65.869 41.9643 66.1914 42.0103 66.5011 42.1054C66.7093 42.1573 66.7718 42.2959 66.7218 42.4957C66.6717 42.6955 66.5625 42.7971 66.3487 42.7151C66.3114 42.7039 66.2734 42.6958 66.2349 42.6909C65.7082 42.5846 65.1121 42.4426 64.7697 42.9646C64.359 43.5928 64.4489 44.3354 64.6878 45.0214C64.7439 45.1569 64.8391 45.2719 64.961 45.3513C65.0829 45.4307 65.2256 45.4707 65.3703 45.466C65.6149 45.466 65.8606 45.4544 66.1063 45.4394C66.3521 45.4244 66.6751 45.2085 66.7297 45.6542C66.7787 46.0226 66.4431 46.0007 66.2246 46.0619C65.8375 46.1618 65.435 46.1849 65.0393 46.13C64.2498 46.0446 63.772 45.5526 63.6958 44.7442C63.6483 44.3825 63.6372 44.0168 63.6628 43.6529C63.8027 42.3733 64.2282 41.9679 65.5455 41.9691Z" fill="#B5D3E3"/>
<path d="M58.7772 43.2072C58.7772 42.5917 58.8056 41.975 58.767 41.3595C58.7385 40.9091 58.9751 40.7682 59.3289 40.7474C59.7453 40.722 59.6179 41.0696 59.6258 41.2879C59.6554 42.0443 59.6475 42.0466 60.4028 42.0801C60.6303 42.0905 60.8863 42.0397 60.8738 42.4023C60.8612 42.7649 60.6076 42.7026 60.3823 42.7118C59.6349 42.7418 59.6361 42.7442 59.6372 43.5202C59.6372 43.9048 59.6372 44.2894 59.6372 44.6751C59.6429 45.3934 59.7373 45.4835 60.4267 45.4604C60.5401 45.4474 60.6546 45.4474 60.768 45.4604C60.9215 45.4904 60.9636 45.6255 60.9716 45.7676C60.9806 45.825 60.9679 45.8838 60.9361 45.9322C60.9042 45.9806 60.8556 46.015 60.7998 46.0286C60.2583 46.1706 59.7157 46.248 59.1981 45.95C58.8853 45.7699 58.7852 45.465 58.784 45.1174C58.784 44.4834 58.784 43.847 58.784 43.2142L58.7772 43.2072Z" fill="#B5D3E3"/>
<path d="M62.6718 44.0802C62.6718 44.5987 62.6582 45.1195 62.6718 45.6334C62.6832 45.9672 62.541 46.0677 62.2327 46.0654C61.9244 46.0631 61.7879 45.9418 61.7891 45.623C61.7944 44.5675 61.7944 43.5123 61.7891 42.4576C61.7891 42.1111 62.0041 42.1203 62.2441 42.1111C62.5057 42.0996 62.6878 42.1377 62.6798 42.4714C62.6627 43.0061 62.673 43.5466 62.6718 44.0802Z" fill="#B5D3E3"/>
<path d="M53.8281 44.0869C53.8281 44.5846 53.819 45.0835 53.8281 45.5813C53.836 45.9116 53.7359 46.0686 53.373 46.0594C53.0318 46.0513 52.9635 45.8977 52.9669 45.5975C52.9783 44.5812 52.9806 43.5649 52.9669 42.5498C52.9669 42.231 53.0727 42.1063 53.3912 42.1017C53.7098 42.0971 53.8349 42.2103 53.8258 42.5348C53.8121 43.0521 53.8281 43.5695 53.8281 44.0869Z" fill="#B5D3E3"/>
<path d="M62.6796 40.9939C62.691 41.2479 62.6978 41.5263 62.2633 41.5251C61.7753 41.5251 61.8014 41.2041 61.79 40.8622C61.7787 40.5204 61.8628 40.3148 62.2542 40.3125C62.7308 40.3102 62.6842 40.6347 62.6796 40.9939Z" fill="#B5D3E3"/>
<path d="M53.8196 40.9489C53.8196 41.248 53.856 41.5263 53.4067 41.5263C52.9573 41.5263 52.9607 41.2457 52.9732 40.9212C52.9835 40.629 52.9414 40.3438 53.3873 40.3438C53.8572 40.3415 53.8344 40.6359 53.8196 40.9489Z" fill="#B5D3E3"/>
<path d="M50.9418 44.0705C50.955 44.2627 50.955 44.4557 50.9418 44.6479C50.8986 44.9632 51.1397 45.4194 50.5357 45.4736C49.8031 45.5406 49.348 45.3177 49.2684 44.7403C49.2119 44.3036 49.2077 43.8615 49.2559 43.4238C49.3276 42.7424 50.2103 42.3463 50.7939 42.6962C50.9589 42.7944 50.9441 42.9457 50.9452 43.0958C50.9429 43.4191 50.9418 43.7448 50.9418 44.0705Z" fill="#FEFEFE"/>
<path d="M44.8032 44.0285C44.8032 43.8368 44.7873 43.6428 44.8032 43.4511C44.8612 42.854 45.1138 42.6138 45.6678 42.6057C46.2684 42.5965 46.5403 42.824 46.5938 43.4442C46.6247 43.8285 46.6247 44.2147 46.5938 44.599C46.5426 45.2919 46.2707 45.5229 45.6075 45.4963C45.0478 45.4756 44.8282 45.2227 44.7941 44.5482C44.785 44.3761 44.7941 44.2017 44.7941 44.0297L44.8032 44.0285Z" fill="#FEFEFE"/>
<rect x="38.0303" y="39.0352" width="35.3134" height="11" fill="#FEFEFE"/>
<rect x="9.50781" y="4.66016" width="25.806" height="33" fill="#FEFEFE"/>
<path d="M40.0205 46.3036V39.7383H44.1819V40.8293H41.4034V42.4145H43.9929V43.5055H41.4034V46.3036H40.0205Z" fill="#00AA8D"/>
<path d="M47.0103 46.4412C45.5486 46.4412 44.6729 45.4593 44.6729 44.0217C44.6729 42.5842 45.5486 41.6055 47.0103 41.6055C48.472 41.6055 49.3509 42.5842 49.3509 44.0217C49.3509 45.4593 48.4751 46.4412 47.0103 46.4412ZM47.0103 45.5299C47.8325 45.5299 47.9554 44.7502 47.9554 44.0217C47.9554 43.2933 47.8231 42.5136 47.0103 42.5136C46.1976 42.5136 46.0652 43.2933 46.0652 44.0217C46.0652 44.7502 46.2007 45.5299 47.0103 45.5299Z" fill="#00AA8D"/>
<path d="M52.3787 46.4412C50.9138 46.4412 50.0381 45.4593 50.0381 44.0217C50.0381 42.5842 50.9138 41.6055 52.3787 41.6055C53.8435 41.6055 54.7161 42.5842 54.7161 44.0217C54.7161 45.4593 53.8404 46.4412 52.3787 46.4412ZM52.3787 45.5299C53.1977 45.5299 53.3237 44.7502 53.3237 44.0217C53.3237 43.2933 53.1883 42.5136 52.3787 42.5136C51.5691 42.5136 51.4336 43.2933 51.4336 44.0217C51.4336 44.7502 51.5659 45.5299 52.3787 45.5299Z" fill="#00AA8D"/>
<path d="M58.6878 39.7383H60.0267V45.3955C60.0267 45.6939 60.055 46.0052 60.0708 46.3036H58.7351C58.7162 46.0854 58.6973 45.8768 58.6973 45.6619H58.6784C58.5439 45.9096 58.3439 46.114 58.1011 46.2518C57.8583 46.3896 57.5825 46.4554 57.3049 46.4416C55.9944 46.4416 55.377 45.1998 55.377 44.0253C55.377 42.7995 56.0826 41.6058 57.475 41.6058C57.7116 41.6136 57.9431 41.6777 58.151 41.7931C58.3589 41.9084 58.5373 42.0718 58.6721 42.2701H58.6878V39.7415V39.7383ZM57.7239 45.5303C58.4484 45.5303 58.6878 44.6478 58.6878 44.0221C58.6878 43.3964 58.4484 42.514 57.7239 42.514C56.8701 42.514 56.7599 43.3226 56.7599 44.0221C56.7599 44.7217 56.8701 45.5303 57.7239 45.5303Z" fill="#00AA8D"/>
<path d="M23.9166 14.1172H29.9272L32.9325 19.4214L29.9272 24.7257H23.9166L20.9082 19.4214L23.9166 14.1172Z" fill="#00305D"/>
<path d="M23.8852 26.4766H29.8989L32.9042 31.7808L29.8989 37.0851H23.8852L20.8799 31.7808L23.8852 26.4766Z" fill="#00305D"/>
<path d="M13.8422 7.41016H19.856L22.8612 12.7112L19.856 18.0155H13.8422L10.8369 12.7112L13.8422 7.41016Z" fill="#00AA8D"/>
</g>
<defs>
<clipPath id="clip0_4864_19474">
<rect width="91" height="55" fill="white" transform="translate(0 0.535156)"/>
</clipPath>
</defs>
</svg>
