<svg width="57" height="56" viewBox="0 0 57 56" fill="none" xmlns="http://www.w3.org/2000/svg">
<g clip-path="url(#clip0_4864_19476)">
<path d="M57 55.5362V24.4627C57 24.4627 54.6079 0.691532 30.0293 0.536165C5.45082 0.380797 0 18.2232 0 23.9966C0 34.3192 2.2582 43.1472 14.5615 55.5362H57Z" fill="white"/>
<path fill-rule="evenodd" clip-rule="evenodd" d="M51.0323 39.4958V28.4803C51.0323 16.3119 41.146 6.44922 28.9487 6.44922C16.7513 6.44922 6.86816 16.3119 6.86816 28.4803C6.86816 28.4958 11.2849 28.4958 11.2849 28.4803C11.2849 18.7481 19.1932 10.8554 28.9518 10.8554C38.7103 10.8554 46.6187 18.7481 46.6187 28.4803V39.4958H51.0354H51.0323Z" fill="#77787B"/>
<path d="M28.967 34.0748L25.2044 30.3211V24.6316L28.967 28.3852L37.5326 19.84C35.3398 17.6525 32.3122 16.3008 28.9639 16.3008C22.2734 16.3008 16.8506 21.7107 16.8506 28.3884C16.8506 35.066 22.2734 40.4759 28.9639 40.4759C35.6544 40.4759 41.0803 35.0629 41.0803 28.3884C41.0803 26.5208 40.6535 24.7497 39.8967 23.1711L28.9639 34.0748H28.967Z" fill="#F37021"/>
<path d="M36.3399 50.3555C35.2373 50.0168 35.013 49.069 35.0815 48.0187H36.6732C36.6732 48.7427 36.7043 49.3518 37.5827 49.3518C38.1215 49.3518 38.3832 49.0069 38.3832 48.491C38.3832 47.1238 35.175 47.0399 35.175 44.784C35.175 43.597 35.745 42.6523 37.6886 42.6523C39.2397 42.6523 40.0091 43.3453 39.9032 44.93H38.352C38.352 44.3614 38.2555 43.7865 37.6138 43.7865C37.0968 43.7865 36.7915 44.0693 36.7915 44.5944C36.7915 46.0331 39.9997 45.9088 39.9997 48.2922C39.9997 49.6066 39.3519 50.1442 38.5607 50.3555H36.3399Z" fill="#77787B"/>
<path d="M43.8774 45.1063C43.8898 44.401 43.7715 43.7826 42.9274 43.7826C41.9369 43.7826 41.9369 45.1157 41.9369 46.5886C41.9369 48.9595 42.1705 49.3821 43.0769 49.3821C43.3416 49.3821 43.6251 49.3199 43.868 49.236V47.5549H43.0021V46.3897H45.4597V50.2335C45.2915 50.2676 45.0236 50.3111 44.7215 50.3547H41.9961C40.5197 49.988 40.3203 48.8227 40.3203 46.5047C40.3203 44.5936 40.4169 42.6484 43.0208 42.6484C44.5813 42.6484 45.5531 43.5216 45.4597 45.1063H43.8774Z" fill="#77787B"/>
<path d="M48.472 42.6484C49.8643 42.6484 50.6243 43.1891 50.7302 44.4072V44.9261H49.179C49.179 44.373 49.042 43.7826 48.3972 43.7826C47.8802 43.7826 47.5718 44.0654 47.5718 44.5905C47.5718 45.9205 50.3128 45.9143 50.7271 47.788V48.888C50.5589 49.7736 50.0013 50.1775 49.341 50.3547H47.1202C46.0175 50.016 45.7933 49.0682 45.8618 48.0179H47.4534C47.4534 48.7419 47.4846 49.351 48.363 49.351C48.8987 49.351 49.1634 49.0061 49.1634 48.4902C49.1634 47.123 45.9552 47.0391 45.9552 44.7832C45.9552 43.5962 46.5253 42.6547 48.4689 42.6515L48.472 42.6484Z" fill="#77787B"/>
<path d="M30.2939 50.3516H53.8602V50.6561H30.2939V50.3516Z" fill="#F37021"/>
<path d="M50.7207 41.25H51.026V52.222H50.7207V41.25Z" fill="#F37021"/>
<path d="M7.1581 30.2493L7.12695 29.8205L10.4909 29.5781L10.522 30.0069L7.1581 30.2493Z" fill="#F37021" stroke="#F37021"/>
<path d="M8.276 31.2893L8.17944 31.3049C7.72781 31.3795 7.63125 31.6871 7.67797 31.9605C7.73403 32.2961 7.92092 32.5292 8.31649 32.4639C9.05469 32.3427 8.72453 30.8667 9.72436 30.6989C10.3131 30.6026 10.6962 30.9693 10.7896 31.5255C10.8893 32.1314 10.6526 32.523 9.97043 32.6069L9.89567 32.1656C10.2601 32.1097 10.4812 31.9543 10.4158 31.5566C10.3722 31.3049 10.2009 31.0687 9.84272 31.1278C9.11076 31.2489 9.46272 32.7218 8.40682 32.8958C7.706 33.0108 7.40076 32.5665 7.30731 32.0196C7.136 31.0408 7.88666 30.9165 8.20748 30.873L8.276 31.2925V31.2893Z" fill="#F37021" stroke="#F37021"/>
<path d="M8.90584 33.4485L9.96486 33.1253C10.6096 32.9296 11.1204 33.1347 11.3291 33.8152C11.5378 34.4957 11.2263 34.9525 10.5847 35.1482L9.52568 35.4714C8.63175 35.7448 8.17699 35.5211 7.9683 34.8406C7.75961 34.1601 8.01191 33.722 8.90584 33.4485ZM9.37929 35.0581L10.4695 34.7256C11.1454 34.5205 11.0239 34.0513 10.9865 33.9208C10.946 33.7903 10.784 33.3335 10.1081 33.5417L9.01797 33.8742C8.31093 34.0886 8.19568 34.3496 8.31404 34.738C8.4324 35.1265 8.67535 35.2756 9.37929 35.0612V35.0581Z" fill="#F37021" stroke="#F37021"/>
<path d="M11.2449 38.3165C10.4912 38.6956 9.74987 39.0716 9.35429 38.2916C9.13626 37.8597 9.28577 37.4216 9.74987 37.201L9.94298 37.5832C9.73118 37.6888 9.55052 37.8846 9.67511 38.1301C9.862 38.4998 10.2825 38.3196 11.0269 37.9467V37.9374C10.7746 37.9467 10.6127 37.7976 10.5005 37.577C10.3853 37.347 10.2887 36.8529 11.0799 36.4552C11.7309 36.1289 12.1638 36.3962 12.3569 36.7784C12.7556 37.5707 12.0236 37.9219 11.2418 38.3134L11.2449 38.3165ZM11.2823 36.8374C10.9958 36.9835 10.7092 37.1948 10.8774 37.5272C11.0456 37.8597 11.3851 37.7572 11.6748 37.6111C11.9364 37.4806 12.2448 37.2507 12.0797 36.9213C11.9146 36.5919 11.5471 36.7038 11.2823 36.8343V36.8374Z" fill="#F37021" stroke="#F37021"/>
<path d="M12.5248 40.3179C11.8177 40.7809 11.1263 41.2439 10.6435 40.5106C10.1607 39.7773 10.8584 39.3267 11.5623 38.8606C12.2912 38.3821 12.964 37.9222 13.453 38.6617C13.942 39.4013 13.2536 39.8363 12.5248 40.3148V40.3179ZM11.7305 39.2677C11.2726 39.5691 10.6808 39.9171 10.9456 40.3148C11.2072 40.7126 11.7648 40.3086 12.2195 40.0072C12.9484 39.5287 13.3938 39.2273 13.154 38.8637C12.911 38.497 12.4625 38.7891 11.7305 39.2677Z" fill="#F37021" stroke="#F37021"/>
<path d="M14.0164 42.1394C13.3685 42.6831 12.7362 43.2176 12.1693 42.5464C11.6056 41.8752 12.2441 41.3439 12.892 40.8032C13.5616 40.2439 14.1752 39.7094 14.7452 40.3899C15.3152 41.0673 14.683 41.58 14.0164 42.1394ZM13.1038 41.1854C12.6864 41.5365 12.1382 41.9529 12.4434 42.3165C12.7487 42.68 13.2564 42.2139 13.6738 41.8659C14.3434 41.3066 14.7515 40.9586 14.468 40.623C14.1846 40.2874 13.7703 40.6292 13.1007 41.1885L13.1038 41.1854Z" fill="#F37021" stroke="#F37021"/>
<path d="M14.1191 44.4949L13.8076 44.1997L15.717 42.1985L15.1407 42.0991L15.4242 41.8008C15.5332 41.8412 15.9194 41.8847 16.0876 41.8971L16.3555 42.1519L14.1191 44.4949Z" fill="#F37021" stroke="#F37021"/>
<path d="M14.9915 15.2184L15.0383 15.265C15.2594 15.4763 15.4619 15.4048 15.5896 15.2712C15.7484 15.1065 15.7983 14.9138 15.6052 14.7305C15.2438 14.3856 14.5866 15.15 14.0976 14.6839C13.8111 14.4073 13.8547 14.0593 14.1132 13.7859C14.3966 13.4907 14.7019 13.4627 15.0196 13.7921L14.814 14.0065C14.6396 13.8356 14.4683 13.7797 14.2814 13.9723C14.163 14.0966 14.1038 14.283 14.2814 14.4508C14.6396 14.7926 15.2874 14.0158 15.8014 14.5099C16.144 14.8362 16.0256 15.178 15.7702 15.4452C15.3155 15.9268 14.9479 15.5757 14.7984 15.4234L14.9947 15.2184H14.9915Z" fill="white" stroke="white" stroke-width="0.2" stroke-miterlimit="3.86"/>
<path d="M15.8106 12.2755L16.0287 12.0859L16.4772 13.5371L17.0379 14.1834L16.8198 14.3698L16.2592 13.7235L14.8887 13.071L15.1316 12.8597L16.1751 13.391L15.8044 12.2755H15.8106Z" fill="white" stroke="white" stroke-width="0.2" stroke-miterlimit="3.86"/>
<path d="M17.518 12.9377L17.5554 12.9905C17.7329 13.2391 17.9447 13.2049 18.0942 13.0961C18.278 12.9625 18.3652 12.7854 18.2094 12.5679C17.9198 12.1639 17.1317 12.7978 16.7393 12.2478C16.5057 11.9247 16.6147 11.5891 16.9199 11.3685C17.2532 11.1292 17.5553 11.1572 17.8076 11.5394L17.5647 11.7134C17.4245 11.5114 17.2657 11.4275 17.0445 11.5829C16.9044 11.6823 16.814 11.8532 16.9573 12.0521C17.247 12.4529 18.0226 11.8097 18.4399 12.3846C18.7172 12.7668 18.5396 13.0806 18.2375 13.2981C17.7017 13.6896 17.4058 13.2764 17.2875 13.0992L17.518 12.9346V12.9377Z" fill="white" stroke="white" stroke-width="0.2" stroke-miterlimit="3.86"/>
<path d="M19.1066 10.0508L19.2312 10.2652L18.7203 10.5635L19.7295 12.285L19.4835 12.4279L18.4743 10.7064L17.9635 11.0047L17.8389 10.7903L19.1097 10.0508H19.1066Z" fill="white" stroke="white" stroke-width="0.2" stroke-miterlimit="3.86"/>
<path d="M20.5111 11.8591L19.5518 9.83001L20.6014 9.33594L20.7073 9.55967L19.9193 9.93255L20.2277 10.5851L20.9596 10.2402L21.0655 10.4639L20.3336 10.8088L20.6668 11.5111L21.4736 11.132L21.5795 11.3557L20.5142 11.856L20.5111 11.8591Z" fill="white" stroke="white" stroke-width="0.2" stroke-miterlimit="3.86"/>
<path d="M22.1708 11.1135L21.9154 11.1974L21.2021 9.06891L21.6413 8.92287L22.7782 10.5294H22.7844L22.7284 8.55931L23.1769 8.41016L23.8902 10.5387L23.6192 10.6288L22.9838 8.73643H22.9776L23.0149 10.8308L22.7564 10.9178L21.5354 9.22117H21.5292L22.1646 11.1167L22.1708 11.1135Z" fill="white" stroke="white" stroke-width="0.2" stroke-miterlimit="3.86"/>
<path d="M25.7876 8.51862C25.7689 8.39122 25.7409 8.26693 25.6692 8.20789C25.6007 8.14574 25.4637 8.14263 25.4045 8.15195C25.1709 8.18924 25.1023 8.34461 25.0961 8.37879C25.0899 8.40365 25.0463 8.4689 25.1055 8.848L25.202 9.4415C25.2892 9.98529 25.4792 10.0195 25.6973 9.98529C25.7845 9.97286 26.0399 9.89828 25.9714 9.46636L26.2641 9.41975C26.3887 10.1158 25.8966 10.1966 25.7502 10.2214C25.473 10.2649 25.0463 10.3178 24.9061 9.45704L24.8033 8.83246C24.7005 8.20789 24.9497 7.98416 25.3858 7.91269C25.825 7.84122 26.0305 8.04009 26.0741 8.47512L25.7814 8.52173L25.7876 8.51862Z" fill="white" stroke="white" stroke-width="0.2" stroke-miterlimit="3.86"/>
<path d="M26.7839 10.0329L26.625 7.79563L27.7806 7.71484L27.7993 7.96343L26.9302 8.02558L26.9801 8.74648L27.7868 8.69055L27.8055 8.93914L26.9988 8.99507L27.0517 9.7688L27.9394 9.70665L27.9581 9.95524L26.7839 10.0391V10.0329Z" fill="white" stroke="white" stroke-width="0.2" stroke-miterlimit="3.86"/>
<path d="M28.631 8.9181L28.6186 9.94974H28.332L28.3601 7.70312L29.1356 7.71245C29.5343 7.71866 29.6714 7.99832 29.6683 8.27798C29.6683 8.54211 29.5156 8.74098 29.2509 8.78448V8.7907C29.5094 8.8342 29.5997 8.9212 29.6122 9.37177C29.6122 9.4681 29.6402 9.81923 29.6838 9.95906H29.3848C29.3069 9.80058 29.3288 9.50849 29.3069 9.21019C29.2883 8.93674 29.0671 8.9212 28.9706 8.9212H28.6342L28.631 8.9181ZM28.631 8.66951L29.0609 8.67572C29.2665 8.67572 29.3692 8.50171 29.3692 8.30595C29.3692 8.14437 29.2914 7.96414 29.0702 7.96103L28.6373 7.95482L28.6279 8.66951H28.631Z" fill="white" stroke="white" stroke-width="0.2" stroke-miterlimit="3.86"/>
<path d="M31.515 7.85867L31.4932 8.10726L30.9045 8.05754L30.7363 10.0462L30.4498 10.0214L30.618 8.03268L30.0293 7.98296L30.0511 7.73438L31.515 7.85867Z" fill="white" stroke="white" stroke-width="0.2" stroke-miterlimit="3.86"/>
<path d="M31.9455 10.184L31.6621 10.1436L31.9767 7.92188L32.2601 7.96227L31.9455 10.184Z" fill="white" stroke="white" stroke-width="0.2" stroke-miterlimit="3.86"/>
<path d="M32.4531 10.2625L32.8923 8.0625L33.9856 8.28001L33.9357 8.52549L33.1228 8.36391L32.9826 9.07239L33.752 9.22465L33.7021 9.46702L32.9328 9.31476L32.7335 10.3215L32.4531 10.2656V10.2625Z" fill="white" stroke="white" stroke-width="0.2" stroke-miterlimit="3.86"/>
<path d="M34.1444 10.6427L33.8672 10.5713L34.4372 8.40234L34.7144 8.47381L34.1444 10.6427Z" fill="white" stroke="white" stroke-width="0.2" stroke-miterlimit="3.86"/>
<path d="M36.1313 9.55739C36.1749 9.43621 36.2061 9.31502 36.1749 9.22801C36.1407 9.14101 36.0223 9.07575 35.9662 9.05711C35.742 8.98253 35.6081 9.08508 35.5894 9.11304C35.5738 9.13479 35.5022 9.16897 35.3776 9.53253L35.1844 10.1012C35.0069 10.6232 35.1564 10.7413 35.3651 10.8128C35.4492 10.8407 35.7077 10.8967 35.8541 10.4834L36.1344 10.5797C35.9164 11.254 35.443 11.0955 35.3028 11.0458C35.0381 10.9557 34.6362 10.8003 34.9166 9.97688L35.1222 9.37717C35.3277 8.77745 35.6517 8.69666 36.069 8.83649C36.4926 8.97943 36.5799 9.25287 36.4117 9.65683L36.1313 9.5605V9.55739Z" fill="white" stroke="white" stroke-width="0.2" stroke-miterlimit="3.86"/>
<path d="M37.7078 9.53516L38.038 9.68742L37.7577 12.0304L37.4649 11.8967L37.5428 11.3436L36.7547 10.9801L36.3779 11.3933L36.1162 11.2722L37.7078 9.53516ZM37.7546 9.849H37.7483L36.926 10.7843L37.5801 11.0857L37.7546 9.849Z" fill="white" stroke="white" stroke-width="0.2" stroke-miterlimit="3.86"/>
<path d="M40.0251 10.7607L39.9005 10.9751L39.3896 10.6799L38.3898 12.4045L38.1406 12.2615L39.1405 10.5369L38.6296 10.2418L38.7542 10.0273L40.0251 10.7607Z" fill="white" stroke="white" stroke-width="0.2" stroke-miterlimit="3.86"/>
<path d="M39.4145 13.0682L39.1777 12.9067L40.4486 11.0547L40.6853 11.2163L39.4145 13.0682Z" fill="white" stroke="white" stroke-width="0.2" stroke-miterlimit="3.86"/>
<path d="M40.3708 12.7289L40.838 12.1602C41.1214 11.8153 41.4828 11.7376 41.8503 12.039C42.2178 12.3404 42.2147 12.7071 41.9313 13.052L41.4641 13.6207C41.0685 14.1023 40.7352 14.1458 40.3677 13.8444C40.0001 13.543 39.9752 13.2074 40.3708 12.7258V12.7289ZM41.2305 13.4467L41.7101 12.8594C42.0092 12.4958 41.7662 12.2783 41.6977 12.2224C41.6291 12.1664 41.3675 11.9738 41.0685 12.3342L40.5888 12.9215C40.2773 13.3006 40.3085 13.4871 40.5203 13.658C40.729 13.8289 40.919 13.8226 41.2305 13.4435V13.4467Z" fill="white" stroke="white" stroke-width="0.2" stroke-miterlimit="3.86"/>
<path d="M44.0146 14.1632L42.3887 15.7138L42.1177 15.431L42.9151 13.4454H42.9088L41.4979 14.7847L41.3203 14.6013L42.9462 13.0508L43.2265 13.3429L42.4385 15.3005H42.4416L43.8339 13.9768L44.0115 14.1601L44.0146 14.1632Z" fill="white" stroke="white" stroke-width="0.2" stroke-miterlimit="3.86"/>
</g>
<defs>
<clipPath id="clip0_4864_19476">
<rect width="57" height="55" fill="white" transform="translate(0 0.535156)"/>
</clipPath>
</defs>
</svg>
