<svg width="474" height="129" viewBox="0 0 474 129" fill="none" xmlns="http://www.w3.org/2000/svg">
<path fill-rule="evenodd" clip-rule="evenodd" d="M176.762 91.2819C141.891 77.0983 108.877 43.7392 87.3811 0C81.0384 11.0933 78.65 23.9826 80.5873 43.5015C59.5956 41.6262 43.8319 39.6981 0.972656 28.7105C14.2418 41.4149 44.4688 65.0278 89.6634 78.8944C115.989 85.4975 153.912 89.565 176.762 91.2819Z" fill="#E2E2E2"/>
<path fill-rule="evenodd" clip-rule="evenodd" d="M354.382 47.0672C375.984 31.2197 395.622 14.8967 422.161 8.13507C460.535 0.765964 495.618 23.1638 456.74 67.3256C426.46 98.1491 365.501 128.735 278.934 128.735H278.775C226.813 128.735 165.669 117.668 96.3775 89.116C194.808 112.016 275.139 112.016 354.249 47.0672H354.382Z" fill="#E2E2E2"/>
</svg>
