<svg width="163" height="64" viewBox="0 0 163 64" fill="none" xmlns="http://www.w3.org/2000/svg">
<g clip-path="url(#clip0_1302_14204)">
<path fill-rule="evenodd" clip-rule="evenodd" d="M60.7244 24.65C51.3448 20.8198 42.4649 11.8114 36.683 0C34.977 2.99565 34.3346 6.47632 34.8557 11.7472C29.2094 11.2408 24.9693 10.7202 13.4412 7.75304C17.0102 11.1838 25.1406 17.5602 37.2969 21.3048C44.378 23.0879 54.5784 24.1863 60.7244 24.65Z" fill="#E2E2E2"/>
<path fill-rule="evenodd" clip-rule="evenodd" d="M108.5 12.7112C114.311 8.43171 119.593 4.02382 126.731 2.1979C137.053 0.207931 146.489 6.2563 136.032 18.1819C127.887 26.5055 111.491 34.7649 88.2063 34.7649H88.1635C74.1869 34.7649 57.7406 31.7764 39.1028 24.0662C65.5783 30.2501 87.1855 30.2501 108.464 12.7112H108.5Z" fill="#E2E2E2"/>
<path d="M17.0674 43.9922L11.7423 55.6324C11.7171 55.6981 11.6885 55.7623 11.6566 55.825L11.521 56.1246C11.1855 56.8378 10.9214 57.4798 10.7501 57.979L10.1862 56.5525L10.1433 56.4527C9.99343 56.0818 9.88636 55.8036 9.8007 55.6467L4.42566 44.142L4.36142 43.9922L0 63.2H2.85527L4.79685 54.2059C4.90654 53.7715 4.98997 53.3309 5.04668 52.8864C5.04668 52.594 5.11093 52.2944 5.13234 52.0091C5.21086 52.2802 5.31079 52.5583 5.41073 52.8294C5.56063 53.2217 5.73195 53.6068 5.92468 54.0134L10.7072 63.899L10.7572 63.9989L15.5683 54.2059C15.7729 53.7936 15.9471 53.3669 16.0894 52.9292C16.1894 52.6225 16.275 52.3087 16.3464 51.9949C16.3821 52.3087 16.4321 52.6582 16.4749 52.9934C16.5534 53.6639 16.6034 54.0348 16.6391 54.1703L18.652 63.1644V63.2072H21.5073L17.1316 44.1491L17.0674 43.9922Z" fill="#E2E2E2"/>
<path d="M31.3437 44.0781L22.4566 63.1291L22.421 63.2004H25.6974L27.8388 58.5143H34.977L37.0328 63.1647H40.2735L31.4079 44.2208L31.3437 44.0781ZM30.7583 51.8597C30.8797 51.553 30.9939 51.2392 31.101 50.9039C31.208 50.5687 31.2794 50.3333 31.3651 49.9838C31.465 50.3191 31.5578 50.64 31.6577 50.9396C31.7577 51.2392 31.879 51.5673 32.0004 51.8597L33.8349 55.9324H28.9167L30.7583 51.8597Z" fill="#E2E2E2"/>
<path d="M50.4097 53.4097C51.1748 52.4163 51.5551 51.1803 51.4804 49.929C51.4919 49.1345 51.3337 48.3467 51.0165 47.6181C50.7286 46.9409 50.2744 46.3472 49.6959 45.892C49.181 45.5072 48.5895 45.2373 47.9613 45.1003C47.0213 44.9157 46.0636 44.8368 45.1061 44.8649H40.9374V63.2026H43.7926V55.0573H44.0425L50.0885 63.1812H53.5791L47.3475 54.9218C48.5231 54.8238 49.6177 54.2833 50.4097 53.4097ZM43.9854 47.5253H44.4636C45.9412 47.5253 46.962 47.7322 47.4974 48.1387C47.7926 48.3918 48.0212 48.7133 48.1631 49.0752C48.3049 49.4371 48.3558 49.8282 48.3111 50.2143C48.352 50.5674 48.3042 50.925 48.1721 51.255C48.04 51.585 47.8278 51.8769 47.5545 52.1044C47.0476 52.461 46.0126 52.6394 44.4636 52.6394H43.9854V47.5253Z" fill="#E2E2E2"/>
<path d="M57.762 44.8867H54.6855V63.2101H57.762V44.8867Z" fill="#E2E2E2"/>
<path d="M73.3803 44.9794L73.466 44.8867H69.6971L63.2227 52.3259V44.8867H60.1533V63.203H63.2227V54.0092L70.3323 63.1816L70.3538 63.203H74.3154L66.1993 53.0392L73.3803 44.9794Z" fill="#E2E2E2"/>
<path d="M89.8124 47.2525C87.95 45.4591 85.4642 44.457 82.8777 44.457C80.2912 44.457 77.8054 45.4591 75.943 47.2525C75.0294 48.1379 74.3053 49.1994 73.8145 50.3727C73.3237 51.5461 73.0764 52.8067 73.0877 54.0783C73.072 55.3479 73.3149 56.6073 73.8015 57.7801C74.3008 58.9448 75.029 59.9974 75.943 60.8756C76.8555 61.7687 77.9348 62.4739 79.1194 62.9512C80.3201 63.4308 81.6025 63.673 82.8955 63.6644C84.1724 63.6739 85.4386 63.4315 86.6216 62.9512C87.8091 62.4679 88.8924 61.7608 89.8124 60.8685C90.7278 59.9887 91.4561 58.9334 91.9539 57.7659C92.6933 55.9998 92.8844 54.0525 92.5026 52.1765C92.1207 50.3006 91.1835 48.5825 89.8124 47.2454V47.2525ZM82.8955 60.8043C82.0222 60.8064 81.1573 60.6326 80.3528 60.2931C79.5482 59.9536 78.8204 59.4556 78.2129 58.8286C77.5967 58.203 77.1114 57.461 76.7853 56.6461C76.4513 55.8238 76.2816 54.9443 76.2856 54.057C76.2801 53.1602 76.4498 52.2711 76.7853 51.4393C77.1121 50.6226 77.5973 49.8784 78.2129 49.2496C78.8217 48.625 79.55 48.1288 80.3543 47.7907C81.1587 47.4525 82.0229 47.2792 82.8955 47.2811C83.7666 47.2763 84.6292 47.4511 85.4296 47.7946C86.2324 48.1209 86.9608 48.6061 87.571 49.2211C88.1885 49.8539 88.6738 50.6031 88.9987 51.4251C89.6647 53.0894 89.6647 54.946 88.9987 56.6104C88.3347 58.2486 87.0528 59.5602 85.4296 60.2622C84.634 60.6261 83.7705 60.8181 82.8955 60.8257V60.8043Z" fill="#E2E2E2"/>
<path d="M109.806 43.9922L104.488 55.6324L104.417 55.7894L104.267 56.1246C103.976 56.729 103.717 57.348 103.489 57.979L102.925 56.5525L102.868 56.4099C102.725 56.0533 102.618 55.7965 102.547 55.6467L97.0791 43.9922L92.7177 63.2H95.5729L97.543 54.2059C97.6505 53.7714 97.7316 53.3308 97.7858 52.8864C97.8286 52.6154 97.85 52.3301 97.8714 52.002C97.9571 52.2802 98.0499 52.5583 98.1569 52.8294C98.314 53.2288 98.4781 53.6139 98.6709 54.0134L103.439 63.9133L103.489 64.0131L108.307 54.2059C108.51 53.7925 108.684 53.366 108.828 52.9292C108.93 52.6248 109.016 52.3154 109.085 52.002C109.128 52.3301 109.171 52.6582 109.207 52.9934C109.292 53.7067 109.342 54.0348 109.378 54.1703L111.391 63.1644V63.2072H114.246L109.821 44.1562L109.806 43.9922Z" fill="#E2E2E2"/>
<path d="M115.631 63.203H125.917V60.4427H118.701V54.6654H125.917V51.955H118.701V47.5043H125.917V44.8867H115.631V63.203Z" fill="#E2E2E2"/>
<path d="M137.21 53.4098C137.982 52.4196 138.365 51.1819 138.288 49.9292C138.298 49.134 138.137 48.346 137.817 47.6182C137.553 46.9804 137.136 46.4172 136.604 45.9782C136.071 45.5391 135.438 45.2377 134.761 45.1005C133.821 44.9154 132.864 44.8365 131.906 44.8651H127.773V63.2028H130.628V55.0574H130.878L136.924 63.1814H140.415L134.155 54.9219C135.326 54.8167 136.416 54.2773 137.21 53.4098ZM130.785 47.5255H131.264C132.734 47.5255 133.755 47.7324 134.297 48.1389C134.591 48.3927 134.819 48.7146 134.959 49.0764C135.1 49.4382 135.15 49.829 135.104 50.2145C135.146 50.5669 135.099 50.9242 134.968 51.2542C134.837 51.5841 134.627 51.8764 134.355 52.1046C133.848 52.4612 132.813 52.6395 131.264 52.6395H130.785V47.5255Z" fill="#E2E2E2"/>
<path d="M155.141 46.3622C154.261 45.7541 153.3 45.2739 152.286 44.9357C151.288 44.6207 150.248 44.4619 149.202 44.4649C147.898 44.4596 146.604 44.7016 145.39 45.1782C144.218 45.6386 143.152 46.3327 142.256 47.2181C141.351 48.1017 140.639 49.1629 140.165 50.335C139.684 51.5369 139.442 52.8208 139.451 54.1152C139.444 55.4141 139.686 56.7022 140.165 57.9097C140.637 59.0726 141.343 60.1267 142.237 61.0074C143.132 61.8881 144.198 62.5766 145.369 63.0309C146.608 63.5071 147.924 63.7489 149.252 63.7441C150.291 63.7555 151.325 63.6113 152.321 63.3162C153.259 63.0362 154.142 62.5997 154.934 62.0252V58.4874L154.841 58.5659C154.012 59.2926 153.066 59.8738 152.043 60.2848C151.069 60.665 150.033 60.8586 148.988 60.8554C148.137 60.8753 147.292 60.7167 146.506 60.3899C145.72 60.0631 145.012 59.5754 144.426 58.9582C143.262 57.5964 142.63 55.8592 142.649 54.068C142.667 52.2768 143.334 50.5529 144.526 49.2152C145.154 48.58 145.907 48.0825 146.738 47.7546C147.569 47.4267 148.459 47.2756 149.352 47.3108C150.35 47.3081 151.339 47.4895 152.271 47.8457C153.236 48.2212 154.13 48.7592 154.912 49.4363L154.998 49.5147L155.169 46.4121L155.141 46.3622Z" fill="#E2E2E2"/>
<path fill-rule="evenodd" clip-rule="evenodd" d="M160.523 49.8289C161.013 49.8289 161.492 49.6837 161.899 49.4118C162.306 49.1398 162.624 48.7533 162.811 48.301C162.999 47.8488 163.048 47.3511 162.952 46.871C162.857 46.3909 162.621 45.9499 162.274 45.6038C161.928 45.2577 161.487 45.022 161.006 44.9265C160.526 44.831 160.028 44.88 159.575 45.0673C159.123 45.2546 158.736 45.5719 158.463 45.9789C158.191 46.3859 158.046 46.8644 158.046 47.3539C158.044 47.6794 158.107 48.0021 158.231 48.3033C158.355 48.6044 158.537 48.878 158.767 49.1082C158.998 49.3384 159.272 49.5206 159.573 49.6443C159.874 49.768 160.197 49.8308 160.523 49.8289ZM160.523 49.1869C160.16 49.1869 159.805 49.0794 159.504 48.878C159.202 48.6766 158.967 48.3903 158.828 48.0554C158.689 47.7204 158.653 47.3519 158.724 46.9963C158.795 46.6407 158.969 46.3141 159.226 46.0577C159.482 45.8014 159.809 45.6268 160.165 45.5561C160.521 45.4853 160.89 45.5216 161.225 45.6604C161.56 45.7991 161.847 46.034 162.048 46.3355C162.25 46.6369 162.358 46.9913 162.358 47.3539C162.374 47.6002 162.338 47.8471 162.252 48.0785C162.166 48.3099 162.032 48.5205 161.859 48.6964C161.685 48.8722 161.477 49.0094 161.247 49.0989C161.016 49.1884 160.77 49.2281 160.523 49.2155V49.1869ZM161.051 47.5536C161.137 47.5466 161.22 47.5223 161.296 47.4822C161.372 47.4422 161.439 47.3871 161.493 47.3205C161.547 47.2538 161.587 47.1769 161.61 47.0944C161.634 47.0119 161.64 46.9254 161.629 46.8403C161.629 46.2341 161.301 46.0486 160.751 46.0486H159.495V48.6449H160.038V47.5536H160.459L161.037 48.6449H161.672L161.051 47.5536ZM160.038 47.0757V46.5693H160.609C160.88 46.5693 161.115 46.5693 161.115 46.7975C161.115 47.0258 160.88 47.0757 160.609 47.0757H160.038Z" fill="#E2E2E2"/>
</g>
<defs>
<clipPath id="clip0_1302_14204">
<rect width="163" height="64" fill="white"/>
</clipPath>
</defs>
</svg>
