<svg width="1230" height="495" viewBox="0 0 1230 495" fill="none" xmlns="http://www.w3.org/2000/svg">
<g opacity="0.11">
<path d="M340.364 181.929L346.289 141.199L0 142.253L54.7087 181.929H340.364Z" fill="#AAAAAA"/>
<path d="M334.477 222.395L339.127 190.398H66.4082L110.505 222.395H334.477Z" fill="#AAAAAA"/>
<path d="M328.589 262.746L333.277 230.637H121.866L166.151 262.746H328.589Z" fill="#AAAAAA"/>
<path d="M322.74 303.101L327.427 270.992H177.513L221.797 303.101H322.74Z" fill="#AAAAAA"/>
<path d="M233.159 311.344L313.104 369.313L321.541 311.344H233.159Z" fill="#AAAAAA"/>
<path d="M475.467 289.398L333.052 232.708L346.363 141.199L475.467 289.398Z" fill="#AAAAAA"/>
<path d="M447.794 319.887L364.513 323.651L435.72 333.363L447.794 319.887Z" fill="#AAAAAA"/>
<path d="M470.93 292.825L415.809 271.707L457.056 305.811L470.93 292.825Z" fill="#AAAAAA"/>
<path d="M505.315 324.669L480.979 296.211L445.882 333.025L492.829 354.783L496.766 369.313L505.315 324.669Z" fill="#AAAAAA"/>
<path d="M1062 151.586L1016.85 135.701C1000.28 129.866 993.381 122.978 995.406 109.201C997.506 94.8965 1010.67 84.319 1033.88 84.319C1062.38 84.319 1076.66 94.9342 1089.19 110.292L1152.52 52.5486C1135.05 27.6669 1103.59 4.85547 1040.25 4.85547C976.92 4.85547 912.462 41.4064 902.075 112.4C893.376 171.725 925.661 203.495 975.345 220.999L1015.47 235.303C1038.04 243.246 1048.58 250.662 1046.33 266.02C1044.79 276.409 1039.24 283.636 1030.32 288.266H824.868L865.74 9.10908H769.709L716.913 369.311H1034.25C1087.84 369.311 1133.92 316.197 1142.06 260.712C1149.52 209.857 1130.28 175.414 1062 151.586Z" fill="#BCBCBC"/>
<path d="M738.024 1.69493L529.801 180.196L371.824 1.69493C369.574 -0.940048 367.399 -0.413052 366.912 2.74893L351.65 106.944L510.677 294.441C511.502 294.78 512.289 294.404 513.789 293.049L617.132 203.534L592.834 369.35H688.865L742.598 2.74893C742.973 0.113945 740.424 -0.413052 738.024 1.69493Z" fill="#BCBCBC"/>
</g>
</svg>
