<svg width="189" height="74" viewBox="0 0 189 74" fill="none" xmlns="http://www.w3.org/2000/svg">
<g clip-path="url(#clip0_6412_25373)">
<path d="M91.7334 61.5733C91.7839 61.5677 91.8511 61.5564 91.9408 61.5564C92.0306 61.5564 92.0978 61.5508 92.1483 61.5508C92.1876 61.5508 92.2548 61.5508 92.3502 61.5564C92.4399 61.5564 92.5127 61.5677 92.5632 61.5733V70.8585C92.5127 70.8641 92.4399 70.8753 92.3502 70.8753C92.2548 70.8753 92.1932 70.881 92.1483 70.881C92.0978 70.881 92.0306 70.881 91.9408 70.8753C91.8511 70.8753 91.7839 70.8641 91.7334 70.8585V61.5733ZM93.0902 67.5327L95.3946 64.4151C95.5292 64.3926 95.675 64.3757 95.8376 64.3757C96.0226 64.3757 96.1964 64.387 96.3646 64.4151L94.0714 67.4483L96.7795 70.8585C96.6281 70.881 96.4768 70.8979 96.3254 70.8979C96.1404 70.8979 95.9609 70.8866 95.7815 70.8585L93.0902 67.5383V67.5327Z" fill="#C8353D"/>
<path d="M98.3273 67.7585C98.3273 68.6195 98.5235 69.2498 98.916 69.6549C99.3085 70.0601 99.9028 70.2627 100.693 70.2627C101.013 70.2627 101.31 70.2346 101.579 70.1783C101.854 70.122 102.117 70.0488 102.381 69.9588C102.42 70.0545 102.454 70.167 102.482 70.3021C102.504 70.4371 102.521 70.5609 102.532 70.6679C102.291 70.7804 102.005 70.8592 101.675 70.9211C101.349 70.9774 100.991 71.0111 100.604 71.0111C100.049 71.0111 99.572 70.9267 99.1739 70.7635C98.7758 70.6003 98.4506 70.3696 98.1927 70.077C97.9348 69.7844 97.7498 69.4298 97.6264 69.0247C97.5031 68.6139 97.4414 68.1693 97.4414 67.6797C97.4414 67.1901 97.4975 66.7681 97.6096 66.3517C97.7217 65.9409 97.8956 65.5751 98.1254 65.2656C98.3553 64.9561 98.6525 64.7085 99.0113 64.534C99.3702 64.3596 99.8019 64.2695 100.306 64.2695C100.727 64.2695 101.097 64.3427 101.428 64.4834C101.753 64.6241 102.028 64.8266 102.252 65.0855C102.476 65.3444 102.645 65.6482 102.757 66.0084C102.869 66.3685 102.925 66.7568 102.925 67.1789C102.925 67.252 102.925 67.3533 102.919 67.4715C102.919 67.5897 102.908 67.691 102.902 67.7754H98.3217L98.3273 67.7585ZM102.101 67.0663C102.101 66.8075 102.067 66.5486 102 66.2954C101.932 66.0422 101.826 65.8227 101.686 65.6314C101.546 65.44 101.361 65.2881 101.131 65.1699C100.906 65.0517 100.632 64.9955 100.312 64.9955C99.7234 64.9955 99.2692 65.1755 98.9384 65.5413C98.6132 65.9015 98.4114 66.4136 98.3497 67.072H102.101V67.0663Z" fill="#C8353D"/>
<path d="M105.285 67.7585C105.285 68.6195 105.482 69.2498 105.874 69.6549C106.266 70.0601 106.861 70.2627 107.651 70.2627C107.971 70.2627 108.268 70.2346 108.537 70.1783C108.812 70.122 109.075 70.0488 109.339 69.9588C109.378 70.0545 109.412 70.167 109.44 70.3021C109.468 70.4371 109.479 70.5609 109.49 70.6679C109.244 70.7804 108.963 70.8592 108.633 70.9211C108.302 70.983 107.949 71.0111 107.562 71.0111C107.007 71.0111 106.53 70.9267 106.132 70.7635C105.734 70.6003 105.409 70.3696 105.151 70.077C104.893 69.7844 104.708 69.4298 104.584 69.0247C104.461 68.6139 104.399 68.1693 104.399 67.6797C104.399 67.1901 104.455 66.7681 104.568 66.3517C104.68 65.9409 104.854 65.5751 105.083 65.2656C105.313 64.9561 105.61 64.7085 105.969 64.534C106.328 64.3596 106.76 64.2695 107.264 64.2695C107.685 64.2695 108.055 64.3427 108.386 64.4834C108.711 64.6241 108.986 64.8266 109.21 65.0855C109.434 65.3444 109.603 65.6482 109.715 66.0084C109.827 66.3685 109.883 66.7568 109.883 67.1789C109.883 67.252 109.883 67.3533 109.883 67.4715C109.883 67.5897 109.872 67.691 109.86 67.7754H105.28L105.285 67.7585ZM109.059 67.0663C109.059 66.8075 109.025 66.5486 108.958 66.2954C108.89 66.0422 108.784 65.8227 108.644 65.6314C108.498 65.44 108.319 65.2881 108.089 65.1699C107.864 65.0517 107.59 64.9955 107.27 64.9955C106.681 64.9955 106.227 65.1755 105.896 65.5413C105.571 65.9015 105.369 66.4136 105.308 67.072H109.059V67.0663Z" fill="#C8353D"/>
<path d="M111.716 64.4137C111.766 64.408 111.828 64.3968 111.906 64.3968C111.979 64.3968 112.047 64.3912 112.097 64.3912C112.148 64.3912 112.209 64.3912 112.288 64.3968C112.361 64.3968 112.428 64.408 112.478 64.4137L112.551 65.2972C112.725 65.027 112.983 64.7851 113.314 64.5769C113.645 64.3686 114.076 64.2617 114.603 64.2617C114.996 64.2617 115.36 64.3236 115.685 64.4474C116.011 64.5712 116.291 64.7626 116.521 65.0214C116.751 65.2803 116.93 65.6123 117.059 66.0062C117.188 66.4001 117.255 66.8784 117.255 67.4356C117.255 67.9927 117.182 68.4879 117.031 68.9324C116.88 69.377 116.661 69.7484 116.369 70.0579C116.078 70.3674 115.725 70.5981 115.299 70.767C114.872 70.9302 114.39 71.0146 113.846 71.0146C113.645 71.0146 113.426 70.9977 113.19 70.9639C112.955 70.9302 112.742 70.8795 112.551 70.812V73.8451C112.501 73.8508 112.428 73.862 112.338 73.862C112.243 73.862 112.181 73.8677 112.136 73.8677C112.086 73.8677 112.019 73.8676 111.929 73.862C111.839 73.862 111.772 73.8508 111.721 73.8451V64.4249L111.716 64.4137ZM112.546 70.0354C112.736 70.1086 112.938 70.1705 113.146 70.2042C113.353 70.2436 113.628 70.2605 113.97 70.2605C114.312 70.2605 114.609 70.2099 114.9 70.1029C115.192 69.996 115.45 69.8328 115.669 69.6021C115.887 69.377 116.061 69.0844 116.184 68.7355C116.308 68.3866 116.375 67.9645 116.375 67.4806C116.375 66.704 116.229 66.1019 115.943 65.6629C115.652 65.224 115.186 65.0045 114.542 65.0045C114.34 65.0045 114.121 65.0383 113.886 65.1058C113.65 65.1734 113.437 65.2915 113.235 65.4547C113.033 65.6179 112.876 65.8318 112.742 66.0962C112.613 66.3607 112.546 66.6984 112.546 67.1035V70.0354Z" fill="#C8353D"/>
<path d="M119.521 65.1191H118.714C118.708 65.0797 118.697 65.029 118.697 64.9671C118.697 64.9109 118.691 64.8433 118.691 64.7758C118.691 64.7083 118.691 64.6408 118.697 64.5732C118.697 64.5057 118.708 64.4494 118.714 64.41H120.351V70.8534C120.301 70.859 120.233 70.8703 120.144 70.8703C120.054 70.8703 119.987 70.8759 119.936 70.8759C119.891 70.8759 119.824 70.8759 119.734 70.8703C119.639 70.8703 119.572 70.859 119.521 70.8534V65.1191ZM119.106 62.8344C119.095 62.7612 119.089 62.6655 119.089 62.5586C119.089 62.4517 119.084 62.356 119.084 62.2829C119.084 62.2154 119.084 62.1309 119.089 62.0297C119.095 61.9284 119.101 61.8439 119.106 61.7764C119.179 61.7708 119.275 61.7595 119.381 61.7595C119.488 61.7595 119.583 61.7539 119.656 61.7539C119.723 61.7539 119.807 61.7539 119.908 61.7595C120.009 61.7595 120.093 61.7708 120.16 61.7764C120.166 61.8439 120.177 61.9284 120.177 62.0297C120.177 62.1309 120.183 62.2154 120.183 62.2829C120.183 62.356 120.183 62.4517 120.177 62.5586C120.177 62.6712 120.166 62.7612 120.16 62.8344C120.093 62.84 120.009 62.8512 119.908 62.8512C119.807 62.8512 119.723 62.8569 119.656 62.8569C119.583 62.8569 119.488 62.8569 119.381 62.8512C119.275 62.8512 119.179 62.84 119.106 62.8344Z" fill="#C8353D"/>
<path d="M122.565 64.4158C122.633 64.4102 122.7 64.399 122.762 64.399C122.823 64.399 122.885 64.3933 122.947 64.3933C123.014 64.3933 123.076 64.3933 123.137 64.399C123.193 64.399 123.261 64.4102 123.328 64.4158C123.345 64.5678 123.356 64.7591 123.367 64.9842C123.373 65.2093 123.378 65.4119 123.378 65.5807C123.463 65.4288 123.569 65.2768 123.704 65.1193C123.838 64.9617 123.995 64.821 124.175 64.6972C124.354 64.5734 124.561 64.4665 124.797 64.3877C125.032 64.3089 125.29 64.2695 125.565 64.2695C126.305 64.2695 126.838 64.489 127.174 64.9336C127.511 65.3781 127.679 65.9971 127.679 66.7962V70.8648C127.628 70.8704 127.561 70.8817 127.471 70.8817C127.382 70.8817 127.314 70.8873 127.264 70.8873C127.219 70.8873 127.152 70.8873 127.062 70.8817C126.967 70.8817 126.899 70.8704 126.849 70.8648V67.0495C126.849 66.3348 126.737 65.8227 126.518 65.5076C126.3 65.1924 125.963 65.0405 125.52 65.0405C125.229 65.0405 124.948 65.1024 124.69 65.2149C124.432 65.3331 124.208 65.5019 124.018 65.727C123.827 65.9521 123.681 66.2279 123.569 66.5542C123.463 66.8806 123.406 67.2577 123.406 67.6797V70.8648C123.356 70.8704 123.289 70.8817 123.199 70.8817C123.109 70.8817 123.042 70.8873 122.992 70.8873C122.947 70.8873 122.885 70.8873 122.79 70.8817C122.7 70.8817 122.627 70.8704 122.577 70.8648V64.4215L122.565 64.4158Z" fill="#C8353D"/>
<path d="M133.073 70.212C133.813 70.2289 134.34 70.3809 134.654 70.6735C134.968 70.9661 135.125 71.3488 135.125 71.8271C135.125 72.1535 135.041 72.4517 134.873 72.7162C134.704 72.9807 134.469 73.2114 134.166 73.3971C133.863 73.5885 133.504 73.7348 133.09 73.8417C132.675 73.9486 132.226 73.9993 131.738 73.9993C131.363 73.9993 131.015 73.9711 130.701 73.9092C130.387 73.8473 130.112 73.7573 129.882 73.6279C129.653 73.4984 129.473 73.324 129.35 73.1101C129.226 72.8963 129.159 72.6318 129.159 72.3223C129.159 72.0128 129.254 71.692 129.434 71.3994C129.613 71.1068 129.86 70.8873 130.152 70.741C129.995 70.6397 129.86 70.5103 129.748 70.3584C129.636 70.2008 129.585 70.0095 129.585 69.7844C129.585 69.458 129.664 69.1822 129.821 68.9628C129.978 68.7433 130.185 68.5463 130.443 68.3719C130.152 68.1862 129.916 67.9386 129.737 67.6291C129.563 67.3196 129.473 66.9482 129.473 66.5149C129.473 66.2053 129.524 65.9127 129.63 65.637C129.737 65.3612 129.894 65.1249 130.101 64.9223C130.309 64.7197 130.566 64.5622 130.875 64.444C131.183 64.3258 131.536 64.2695 131.94 64.2695C132.282 64.2695 132.591 64.3145 132.86 64.4046C133.129 64.4946 133.364 64.6072 133.566 64.7535C133.65 64.7197 133.757 64.6803 133.88 64.6409C134.003 64.5959 134.144 64.5622 134.295 64.534C134.446 64.5059 134.603 64.4777 134.76 64.4609C134.917 64.4384 135.074 64.4271 135.226 64.4271C135.259 64.5509 135.276 64.6916 135.276 64.8435C135.276 65.0011 135.259 65.1474 135.226 65.2712H134.032C134.149 65.4569 134.239 65.6539 134.301 65.8565C134.362 66.0647 134.396 66.2841 134.396 66.5205C134.396 66.8806 134.334 67.2014 134.205 67.4828C134.082 67.7585 133.903 67.9949 133.684 68.1862C133.465 68.3775 133.202 68.5182 132.905 68.6195C132.607 68.7208 132.288 68.7714 131.94 68.7714C131.581 68.7714 131.262 68.7264 130.998 68.6307C130.763 68.7827 130.6 68.929 130.499 69.0641C130.398 69.1991 130.353 69.3623 130.353 69.5368C130.353 69.6212 130.365 69.7 130.393 69.7787C130.421 69.8575 130.471 69.925 130.55 69.9869C130.628 70.0489 130.74 70.0995 130.88 70.1389C131.021 70.1783 131.206 70.1952 131.436 70.1952L133.073 70.2177V70.212ZM131.284 70.9717C130.892 70.9605 130.572 71.073 130.331 71.3038C130.09 71.5345 129.972 71.8384 129.972 72.221C129.972 72.4236 130.017 72.5924 130.112 72.7275C130.208 72.8625 130.331 72.9695 130.494 73.0426C130.656 73.1158 130.847 73.172 131.065 73.2002C131.284 73.2283 131.514 73.2452 131.755 73.2452C132.534 73.2452 133.146 73.1101 133.577 72.8457C134.015 72.5812 134.233 72.2604 134.233 71.8946C134.233 71.5739 134.127 71.3488 133.908 71.2137C133.689 71.0787 133.336 71.0055 132.837 70.9999L131.279 70.9774L131.284 70.9717ZM130.353 66.5149C130.353 66.9538 130.482 67.3196 130.735 67.6178C130.993 67.9161 131.391 68.068 131.935 68.068C132.478 68.068 132.882 67.9217 133.14 67.6178C133.398 67.3139 133.532 66.9482 133.532 66.5149C133.532 66.0815 133.404 65.7101 133.14 65.4119C132.882 65.1136 132.478 64.9617 131.935 64.9617C131.391 64.9617 130.987 65.1136 130.735 65.4119C130.477 65.7101 130.353 66.0815 130.353 66.5149Z" fill="#C8353D"/>
<path d="M139.655 64.4137C139.706 64.408 139.767 64.3968 139.846 64.3968C139.919 64.3968 139.986 64.3912 140.037 64.3912C140.087 64.3912 140.149 64.3912 140.227 64.3968C140.3 64.3968 140.367 64.408 140.418 64.4137L140.491 65.2972C140.665 65.027 140.922 64.7851 141.253 64.5769C141.584 64.3686 142.016 64.2617 142.543 64.2617C142.935 64.2617 143.3 64.3236 143.625 64.4474C143.95 64.5712 144.23 64.7626 144.46 65.0214C144.69 65.2803 144.87 65.6123 144.999 66.0062C145.128 66.4001 145.195 66.8784 145.195 67.4356C145.195 67.9927 145.122 68.4879 144.971 68.9324C144.819 69.377 144.6 69.7484 144.309 70.0579C144.017 70.3674 143.664 70.5981 143.238 70.767C142.812 70.9302 142.33 71.0146 141.786 71.0146C141.584 71.0146 141.365 70.9977 141.13 70.9639C140.894 70.9302 140.681 70.8795 140.491 70.812V73.8451C140.44 73.8508 140.367 73.862 140.278 73.862C140.182 73.862 140.121 73.8677 140.076 73.8677C140.025 73.8677 139.958 73.8676 139.868 73.862C139.779 73.862 139.711 73.8508 139.661 73.8451V64.4249L139.655 64.4137ZM140.485 70.0354C140.676 70.1086 140.878 70.1705 141.085 70.2042C141.292 70.2436 141.567 70.2605 141.909 70.2605C142.251 70.2605 142.548 70.2099 142.84 70.1029C143.131 69.996 143.389 69.8328 143.608 69.6021C143.827 69.377 144.001 69.0844 144.124 68.7355C144.247 68.3866 144.315 67.9645 144.315 67.4806C144.315 66.704 144.169 66.1019 143.883 65.6629C143.591 65.224 143.126 65.0045 142.481 65.0045C142.279 65.0045 142.061 65.0383 141.825 65.1058C141.59 65.1734 141.377 65.2915 141.175 65.4547C140.973 65.6179 140.816 65.8318 140.681 66.0962C140.552 66.3607 140.485 66.6984 140.485 67.1035V70.0354Z" fill="#C8353D"/>
<path d="M147.067 64.417C147.135 64.4114 147.202 64.4002 147.264 64.4002C147.325 64.4002 147.387 64.3945 147.449 64.3945C147.516 64.3945 147.578 64.3945 147.639 64.4002C147.695 64.4002 147.763 64.4114 147.83 64.417C147.847 64.569 147.858 64.7491 147.869 64.9516C147.875 65.1599 147.88 65.3456 147.88 65.5144C148.049 65.2049 148.284 64.9404 148.587 64.7265C148.89 64.5127 149.288 64.4058 149.781 64.4058H149.916C149.961 64.4058 150.011 64.4058 150.073 64.417C150.095 64.5577 150.112 64.6928 150.112 64.8222C150.112 64.9573 150.101 65.0867 150.073 65.2161C150.005 65.2105 149.955 65.2049 149.916 65.2049H149.798C149.226 65.2049 148.772 65.385 148.424 65.7451C148.082 66.1053 147.908 66.7074 147.908 67.5515V70.8604C147.858 70.866 147.791 70.8773 147.701 70.8773C147.611 70.8773 147.544 70.8829 147.494 70.8829C147.449 70.8829 147.387 70.8829 147.292 70.8773C147.202 70.8773 147.129 70.866 147.079 70.8604V64.417H147.067Z" fill="#C8353D"/>
<path d="M153.789 71.0028C153.313 71.0028 152.892 70.9184 152.533 70.744C152.174 70.5695 151.872 70.3332 151.636 70.0293C151.395 69.7254 151.216 69.3709 151.103 68.9545C150.986 68.5437 150.93 68.0991 150.93 67.6264C150.93 67.1537 150.986 66.7148 151.103 66.2984C151.221 65.8876 151.401 65.5274 151.636 65.2235C151.877 64.9197 152.174 64.6833 152.533 64.5089C152.892 64.3344 153.313 64.25 153.789 64.25C154.266 64.25 154.686 64.3344 155.039 64.5089C155.398 64.6833 155.695 64.9197 155.931 65.2235C156.172 65.5274 156.351 65.8819 156.475 66.2984C156.598 66.7092 156.66 67.1537 156.66 67.6264C156.66 68.0991 156.598 68.5381 156.475 68.9545C156.351 69.3653 156.172 69.7254 155.931 70.0293C155.69 70.3332 155.393 70.5695 155.039 70.744C154.686 70.9184 154.266 71.0028 153.789 71.0028ZM153.789 70.2713C154.462 70.2713 154.961 70.0349 155.292 69.5622C155.623 69.0895 155.791 68.448 155.791 67.6321C155.791 66.8161 155.623 66.1689 155.292 65.7019C154.961 65.2292 154.456 64.9928 153.789 64.9928C153.122 64.9928 152.617 65.2292 152.287 65.7019C151.956 66.1746 151.788 66.8161 151.788 67.6321C151.788 68.448 151.95 69.0952 152.287 69.5622C152.617 70.0349 153.116 70.2713 153.789 70.2713Z" fill="#C8353D"/>
<path d="M158.505 64.4137C158.572 64.408 158.639 64.3968 158.701 64.3968C158.763 64.3968 158.824 64.3912 158.886 64.3912C158.953 64.3912 159.015 64.3912 159.077 64.3968C159.133 64.3968 159.2 64.408 159.267 64.4137C159.284 64.5656 159.295 64.7457 159.307 64.9539C159.312 65.1677 159.318 65.3534 159.318 65.5223C159.391 65.3647 159.492 65.2071 159.609 65.0552C159.727 64.9032 159.867 64.7682 160.024 64.65C160.181 64.5318 160.366 64.4362 160.574 64.3686C160.781 64.2955 161.011 64.2617 161.275 64.2617C161.516 64.2617 161.729 64.2899 161.903 64.3518C162.076 64.4137 162.233 64.4924 162.362 64.5994C162.491 64.7063 162.603 64.8301 162.688 64.9708C162.777 65.1115 162.856 65.2746 162.934 65.4491C163.024 65.314 163.131 65.1734 163.248 65.0327C163.366 64.892 163.501 64.7626 163.652 64.65C163.803 64.5375 163.977 64.4418 164.173 64.3743C164.37 64.3067 164.588 64.2673 164.835 64.2673C165.581 64.2673 166.119 64.4812 166.45 64.9089C166.781 65.3365 166.949 65.9556 166.949 66.7546V70.857C166.898 70.8626 166.831 70.8739 166.741 70.8739C166.652 70.8739 166.584 70.8795 166.534 70.8795C166.489 70.8795 166.422 70.8795 166.332 70.8739C166.237 70.8739 166.169 70.8626 166.119 70.857V67.0416C166.119 66.3607 166.007 65.8543 165.788 65.5279C165.564 65.2015 165.233 65.0327 164.79 65.0327C164.521 65.0327 164.285 65.0889 164.084 65.1959C163.882 65.3028 163.714 65.4547 163.579 65.6404C163.444 65.8261 163.344 66.04 163.271 66.2932C163.198 66.5464 163.164 66.8053 163.164 67.081V70.857C163.114 70.8626 163.046 70.8739 162.957 70.8739C162.867 70.8739 162.8 70.8795 162.749 70.8795C162.704 70.8795 162.643 70.8795 162.547 70.8739C162.452 70.8739 162.385 70.8626 162.334 70.857V66.8784C162.334 66.2313 162.233 65.753 162.026 65.4378C161.819 65.1283 161.527 64.9708 161.14 64.9708C160.882 64.9708 160.641 65.0383 160.422 65.1677C160.204 65.2972 160.013 65.4829 159.856 65.7192C159.699 65.9556 159.576 66.2369 159.486 66.5577C159.396 66.8784 159.352 67.2386 159.352 67.6269V70.8626C159.301 70.8683 159.234 70.8795 159.144 70.8795C159.054 70.8795 158.987 70.8851 158.937 70.8851C158.892 70.8851 158.83 70.8851 158.735 70.8795C158.645 70.8795 158.572 70.8683 158.522 70.8626V64.4193L158.505 64.4137Z" fill="#C8353D"/>
<path d="M169.416 65.1191H168.608C168.603 65.0797 168.592 65.029 168.592 64.9671C168.592 64.9109 168.586 64.8433 168.586 64.7758C168.586 64.7083 168.586 64.6408 168.592 64.5732C168.592 64.5057 168.603 64.4494 168.608 64.41H170.246V70.8534C170.195 70.859 170.128 70.8703 170.038 70.8703C169.948 70.8703 169.881 70.8759 169.831 70.8759C169.786 70.8759 169.719 70.8759 169.629 70.8703C169.533 70.8703 169.466 70.859 169.416 70.8534V65.1191ZM169.001 62.8344C168.99 62.7612 168.984 62.6655 168.984 62.5586C168.984 62.4517 168.978 62.356 168.978 62.2829C168.978 62.2154 168.978 62.1309 168.984 62.0297C168.99 61.9284 168.995 61.8439 169.001 61.7764C169.074 61.7708 169.169 61.7595 169.276 61.7595C169.382 61.7595 169.477 61.7539 169.55 61.7539C169.618 61.7539 169.702 61.7539 169.803 61.7595C169.904 61.7595 169.988 61.7708 170.055 61.7764C170.061 61.8439 170.072 61.9284 170.072 62.0297C170.072 62.1309 170.077 62.2154 170.077 62.2829C170.077 62.356 170.077 62.4517 170.072 62.5586C170.072 62.6712 170.061 62.7612 170.055 62.8344C169.988 62.84 169.904 62.8512 169.803 62.8512C169.702 62.8512 169.618 62.8569 169.55 62.8569C169.477 62.8569 169.382 62.8569 169.276 62.8512C169.169 62.8512 169.074 62.84 169.001 62.8344Z" fill="#C8353D"/>
<path d="M172.286 69.9683C172.471 70.0415 172.707 70.109 173.004 70.1653C173.296 70.2216 173.576 70.2497 173.845 70.2497C174.35 70.2497 174.748 70.1372 175.039 69.9177C175.331 69.6926 175.482 69.4169 175.482 69.0905C175.482 68.8654 175.437 68.674 175.348 68.5277C175.258 68.3814 175.14 68.2576 174.994 68.1563C174.849 68.055 174.68 67.9706 174.495 67.9087C174.31 67.8468 174.12 67.7793 173.929 67.7118C173.722 67.6442 173.509 67.5711 173.307 67.4867C173.099 67.4023 172.92 67.2953 172.757 67.1659C172.6 67.0365 172.471 66.8789 172.376 66.6932C172.281 66.5075 172.23 66.2768 172.23 66.001C172.23 65.489 172.415 65.0725 172.791 64.7518C173.167 64.431 173.738 64.2734 174.523 64.2734C174.849 64.2734 175.168 64.3016 175.471 64.3635C175.779 64.4254 176.015 64.4873 176.183 64.5548C176.138 64.7968 176.082 65.0388 176.009 65.2751C175.835 65.2188 175.611 65.1569 175.336 65.1007C175.062 65.0444 174.781 65.0106 174.49 65.0106C173.98 65.0106 173.615 65.1007 173.402 65.2807C173.189 65.4608 173.082 65.6972 173.082 65.9954C173.082 66.153 173.116 66.2937 173.189 66.4062C173.262 66.5188 173.357 66.6144 173.481 66.6988C173.604 66.7832 173.738 66.8508 173.895 66.9071C174.052 66.9633 174.215 67.0196 174.394 67.0702C174.619 67.1434 174.849 67.2278 175.078 67.3178C175.308 67.4079 175.521 67.5204 175.706 67.6667C175.897 67.8074 176.048 67.9931 176.172 68.207C176.295 68.4264 176.357 68.7022 176.357 69.0286C176.357 69.3324 176.295 69.6082 176.172 69.8558C176.048 70.1034 175.88 70.3172 175.662 70.4861C175.443 70.6605 175.185 70.7899 174.882 70.8856C174.579 70.9756 174.249 71.0263 173.89 71.0263C173.486 71.0263 173.127 71.0038 172.813 70.9531C172.499 70.9025 172.247 70.835 172.051 70.7506C172.101 70.4973 172.18 70.2441 172.292 69.9909L172.286 69.9683Z" fill="#C8353D"/>
<path d="M178.678 67.7585C178.678 68.6195 178.874 69.2498 179.267 69.6549C179.659 70.0601 180.253 70.2627 181.044 70.2627C181.364 70.2627 181.661 70.2346 181.93 70.1783C182.205 70.122 182.468 70.0488 182.732 69.9588C182.771 70.0545 182.804 70.167 182.833 70.3021C182.861 70.4371 182.872 70.5609 182.883 70.6679C182.642 70.7804 182.356 70.8592 182.025 70.9211C181.7 70.9774 181.341 71.0111 180.954 71.0111C180.399 71.0111 179.923 70.9267 179.524 70.7635C179.126 70.6003 178.801 70.3696 178.543 70.077C178.285 69.7844 178.1 69.4298 177.977 69.0247C177.854 68.6195 177.792 68.1693 177.792 67.6797C177.792 67.1901 177.848 66.7681 177.96 66.3517C178.072 65.9352 178.246 65.5751 178.476 65.2656C178.706 64.9561 179.003 64.7085 179.362 64.534C179.721 64.3596 180.152 64.2695 180.657 64.2695C181.078 64.2695 181.448 64.3427 181.778 64.4834C182.104 64.6241 182.378 64.8266 182.603 65.0855C182.827 65.3444 182.995 65.6482 183.107 66.0084C183.219 66.3685 183.275 66.7568 183.275 67.1789C183.275 67.252 183.275 67.3533 183.27 67.4715C183.27 67.5897 183.259 67.691 183.253 67.7754H178.672L178.678 67.7585ZM182.451 67.0663C182.451 66.8075 182.418 66.5486 182.35 66.2954C182.283 66.0422 182.177 65.8227 182.036 65.6314C181.896 65.44 181.711 65.2881 181.481 65.1699C181.257 65.0517 180.982 64.9955 180.663 64.9955C180.074 64.9955 179.62 65.1755 179.289 65.5413C178.964 65.9015 178.762 66.4136 178.7 67.072H182.451V67.0663Z" fill="#C8353D"/>
<path d="M184.936 69.9683C185.121 70.0415 185.356 70.109 185.653 70.1653C185.945 70.2216 186.225 70.2497 186.494 70.2497C186.999 70.2497 187.397 70.1372 187.689 69.9177C187.98 69.6926 188.132 69.4169 188.132 69.0905C188.132 68.8654 188.087 68.674 187.997 68.5277C187.907 68.3814 187.79 68.2576 187.644 68.1563C187.498 68.055 187.33 67.9706 187.145 67.9087C186.96 67.8468 186.769 67.7793 186.578 67.7118C186.371 67.6442 186.158 67.5711 185.956 67.4867C185.749 67.4023 185.569 67.2953 185.407 67.1659C185.25 67.0365 185.121 66.8789 185.025 66.6932C184.93 66.5075 184.88 66.2768 184.88 66.001C184.88 65.489 185.065 65.0725 185.44 64.7518C185.816 64.431 186.388 64.2734 187.173 64.2734C187.498 64.2734 187.818 64.3016 188.12 64.3635C188.429 64.4254 188.664 64.4873 188.832 64.5548C188.788 64.7968 188.731 65.0388 188.659 65.2751C188.485 65.2188 188.261 65.1569 187.986 65.1007C187.711 65.0444 187.431 65.0106 187.139 65.0106C186.629 65.0106 186.264 65.1007 186.051 65.2807C185.838 65.4608 185.732 65.6972 185.732 65.9954C185.732 66.153 185.765 66.2937 185.838 66.4062C185.911 66.5188 186.007 66.6144 186.13 66.6988C186.253 66.7832 186.388 66.8508 186.545 66.9071C186.702 66.9633 186.864 67.0196 187.044 67.0702C187.268 67.1434 187.498 67.2278 187.728 67.3178C187.958 67.4079 188.171 67.5204 188.356 67.6667C188.546 67.8074 188.698 67.9931 188.821 68.207C188.945 68.4264 189.006 68.7022 189.006 69.0286C189.006 69.3324 188.945 69.6082 188.821 69.8558C188.698 70.1034 188.53 70.3172 188.311 70.4861C188.092 70.6605 187.834 70.7899 187.532 70.8856C187.229 70.9756 186.898 71.0263 186.539 71.0263C186.136 71.0263 185.777 71.0038 185.463 70.9531C185.149 70.9025 184.896 70.835 184.7 70.7506C184.751 70.4973 184.829 70.2441 184.941 69.9909L184.936 69.9683Z" fill="#C8353D"/>
<path d="M50.893 27.1982L51.7789 21.1094L0 21.2669L8.18034 27.1982H50.893Z" fill="#C8353D"/>
<path d="M50.0128 33.2481L50.708 28.4648H9.92969L16.5233 33.2481H50.0128Z" fill="#C8353D"/>
<path d="M49.132 39.2806L49.8329 34.4805H18.2217L24.8433 39.2806H49.132Z" fill="#C8353D"/>
<path d="M48.2581 45.3119L48.959 40.5117H26.543L33.1646 45.3119H48.2581Z" fill="#C8353D"/>
<path d="M34.8633 46.543L46.817 55.2091L48.0785 46.543H34.8633Z" fill="#C8353D"/>
<path d="M71.0945 43.2644L49.7998 34.7895L51.7902 21.1094L71.0945 43.2644Z" fill="#C8353D"/>
<path d="M66.9566 47.8242L54.5039 48.387L65.1512 49.8388L66.9566 47.8242Z" fill="#C8353D"/>
<path d="M70.4158 43.7781L62.1738 40.6211L68.3413 45.7195L70.4158 43.7781Z" fill="#C8353D"/>
<path d="M75.5577 48.5355L71.9189 44.2812L66.6709 49.7848L73.6906 53.0374L74.2793 55.2096L75.5577 48.5355Z" fill="#C8353D"/>
<path d="M158.797 22.6621L152.046 20.2873C149.568 19.4151 148.536 18.3853 148.839 16.3257C149.153 14.1872 151.121 12.606 154.592 12.606C158.853 12.606 160.989 14.1929 162.862 16.4888L172.332 7.85645C169.719 4.13675 165.015 0.726562 155.545 0.726562C146.075 0.726562 136.437 6.19074 134.884 16.804C133.583 25.6727 138.41 30.4222 145.839 33.039L151.839 35.1774C155.214 36.3647 156.79 37.4733 156.453 39.7693C156.223 41.3225 155.393 42.4029 154.059 43.0951H123.339L129.451 1.36246H115.092L107.197 55.2108H154.648C162.66 55.2108 169.551 47.2706 170.767 38.9758C171.883 31.3733 169.007 26.2242 158.797 22.6621Z" fill="white"/>
<path d="M180.456 9.58892C179.85 9.58892 179.295 9.482 178.796 9.27379C178.297 9.06557 177.871 8.77858 177.512 8.41842C177.153 8.05827 176.884 7.62496 176.688 7.12976C176.492 6.62892 176.391 6.08869 176.391 5.50344C176.391 4.9182 176.492 4.3836 176.688 3.88276C176.884 3.38192 177.159 2.94861 177.512 2.58846C177.865 2.22831 178.291 1.94131 178.796 1.7331C179.295 1.52489 179.85 1.41797 180.456 1.41797C181.061 1.41797 181.616 1.51926 182.115 1.72747C182.614 1.93006 183.04 2.21706 183.399 2.58284C183.752 2.94862 184.027 3.38192 184.223 3.87713C184.42 4.37797 184.52 4.9182 184.52 5.50344C184.52 6.08869 184.42 6.63455 184.223 7.12976C184.027 7.63059 183.752 8.05827 183.399 8.41842C183.046 8.77858 182.62 9.06557 182.115 9.27379C181.616 9.482 181.061 9.58892 180.456 9.58892ZM180.456 8.87424C180.966 8.87424 181.426 8.7842 181.824 8.60976C182.227 8.43531 182.569 8.19333 182.85 7.89508C183.13 7.59683 183.349 7.2423 183.494 6.8315C183.646 6.42071 183.719 5.97614 183.719 5.50344C183.719 5.03074 183.646 4.59744 183.494 4.18664C183.343 3.77584 183.13 3.42131 182.85 3.12306C182.569 2.82481 182.227 2.58284 181.824 2.40839C181.42 2.23394 180.966 2.1439 180.456 2.1439C179.945 2.1439 179.497 2.23394 179.093 2.40839C178.689 2.58284 178.347 2.82481 178.067 3.12306C177.787 3.42131 177.574 3.78147 177.428 4.18664C177.277 4.59744 177.204 5.03637 177.204 5.50344C177.204 5.97052 177.277 6.42071 177.428 6.8315C177.579 7.2423 177.792 7.59683 178.067 7.89508C178.342 8.19333 178.684 8.43531 179.093 8.60976C179.497 8.7842 179.951 8.87424 180.456 8.87424ZM179.11 3.31439C179.301 3.29188 179.486 3.275 179.665 3.25812C179.844 3.24124 180.041 3.23561 180.248 3.23561C180.512 3.23561 180.753 3.26375 180.971 3.31439C181.19 3.36504 181.381 3.44382 181.538 3.54512C181.695 3.64641 181.818 3.78147 181.908 3.95029C181.997 4.11911 182.042 4.31607 182.042 4.54116C182.042 4.87318 181.964 5.13766 181.801 5.34025C181.639 5.54284 181.465 5.68915 181.274 5.78481L182.424 7.53493C182.323 7.55181 182.227 7.55744 182.143 7.56306C182.059 7.56306 181.975 7.56306 181.897 7.56306C181.745 7.56306 181.599 7.55181 181.47 7.5293L180.22 5.57097L180.439 5.46968C180.613 5.3909 180.781 5.27835 180.938 5.14329C181.095 5.00823 181.173 4.83379 181.173 4.61995C181.173 4.40611 181.095 4.24291 180.943 4.12474C180.792 4.00656 180.59 3.95029 180.343 3.95029C180.287 3.95029 180.226 3.95029 180.158 3.95029C180.091 3.95029 180.018 3.96154 179.94 3.97842V7.5293C179.833 7.55181 179.693 7.56306 179.536 7.56306C179.379 7.56306 179.239 7.55181 179.11 7.5293V3.31439Z" fill="white"/>
<path d="M110.354 0.252216L79.219 26.9372L55.5975 0.252216C55.2611 -0.1417 54.9359 -0.0629171 54.863 0.409783L52.5811 15.9864L76.3595 44.0163C76.4829 44.067 76.6006 44.0107 76.8249 43.8081L92.2773 30.4262L88.6441 55.2148H103.003L111.038 0.409783C111.094 0.0158662 110.712 -0.0629171 110.354 0.252216Z" fill="white"/>
</g>
<defs>
<clipPath id="clip0_6412_25373">
<rect width="189" height="74" fill="white"/>
</clipPath>
</defs>
</svg>
