<svg width="858" height="763" viewBox="0 0 858 763" fill="none" xmlns="http://www.w3.org/2000/svg">
<path opacity="0.22" d="M355.235 575.39C390.565 588.919 430.173 571.247 443.702 535.917C457.232 500.588 439.559 460.98 404.23 447.45C368.9 433.921 329.292 451.593 315.763 486.923C302.233 522.252 319.906 561.861 355.235 575.39Z" fill="white"/>
<path opacity="0.22" d="M754.715 441.465L754.651 441.322L754.194 439.722C751.38 430.154 747.913 421.049 743.941 412.642C745.171 390.493 737.708 365.906 721.702 339.413C721.458 338.964 721.163 338.494 720.867 338.025C720.751 337.862 720.635 337.699 720.591 337.504C714.202 327.339 707.396 318.261 700.25 310.538C700.526 280.484 683.932 250.56 651.009 221.685C650.654 221.371 650.247 221.037 649.892 220.723C649.724 220.54 649.536 220.409 649.369 220.226C634.021 207.224 618.827 197.547 603.935 191.428C592.849 164.504 567.107 142.95 527.283 127.284C526.868 127.125 526.453 126.966 526.039 126.808C525.883 126.748 525.676 126.669 525.52 126.609C485.49 111.636 451.916 110.534 425.591 123.25C410.297 117.868 392.143 114.835 371.367 114.3L370.471 114.313C326.487 113.855 294.202 125.061 274.333 147.611C263.661 148.63 252.214 150.896 239.993 154.409L239.387 154.592C209.585 163.662 187.516 177.058 173.618 194.415C164.903 198.083 156.027 202.639 147.144 208.143L146.348 208.669C110.224 231.763 90.4778 258.338 87.7382 287.686C85.1697 314.724 97.455 341.93 123.386 366.405C138.349 380.566 161.21 401.729 191.581 429.508C150.155 429.198 125.018 440.054 116.631 461.955C92.4612 525.07 240.375 601.009 331.549 635.923C422.722 670.838 583.524 713.122 607.694 650.008C616.081 628.106 604.624 603.237 573.588 575.797C614.993 575.386 646.121 574.958 666.488 574.386C702.083 573.472 729.398 561.431 745.546 539.593C763.13 515.871 766.206 482.852 754.663 441.445L754.715 441.465ZM724.584 524.026C710.435 543.127 684.832 547.749 665.823 548.187C616.228 549.499 511.505 550.122 435.181 550.46C432.185 554.715 428.749 558.565 425.018 561.945C450.494 561.845 479.783 561.722 509.514 561.53C561.879 594.111 589.486 624.453 583.32 640.555C573.268 666.805 471.234 661.335 340.927 611.433C210.62 561.532 131.011 497.503 141.084 471.201C147.25 455.099 188.114 450.978 248.795 461.689C270.845 481.709 292.54 501.416 311.381 518.487C310.83 513.407 310.825 508.3 311.437 503.132C255.029 452.083 177.832 381.913 141.309 347.384C127.475 334.309 111.508 313.768 113.717 290.154C115.687 269.179 131.44 249.149 160.46 230.637L162.43 229.373C166.545 226.853 170.613 224.611 174.602 222.576C167.738 242.983 172.041 267.132 187.3 292.626C213.681 336.569 272.033 429.564 312.955 494.511C313.596 491.906 314.36 489.29 315.352 486.701C316.105 484.734 316.962 482.806 317.923 480.918C277.381 416.532 222.428 328.935 197.095 286.759C187.336 270.495 177.478 246.416 185.984 224.204C193.519 204.529 214.13 189.506 247.102 179.454L247.708 179.27L248.385 179.054C257.867 176.333 266.653 174.651 274.843 173.751C267.149 191.049 266.129 212.803 272.063 237.814C283.859 287.095 309.435 386.061 329.773 463.786C332.736 460.706 336.002 457.919 339.428 455.491C319.35 378.638 294.673 283.222 283.175 235.182C278.377 215.119 276.094 186.935 292.206 166.745C306.458 148.93 332.491 140.08 369.578 140.39L371.403 140.436L371.702 140.431C388.879 140.894 403.51 143.351 415.746 147.561C400.714 161.516 391.187 182.98 388.022 210.8C382.285 261.322 372.686 363.679 365.282 444.316C369.094 443.52 372.981 442.99 376.938 442.902C384.266 362.77 393.757 262.094 399.4 212.129C401.792 191.138 409.336 163.214 431.914 149.419C451.949 137.143 480.207 137.694 516.919 151.397L517.593 151.655C553.239 165.662 574.688 184.147 581.399 206.664C588.968 232.064 575.93 257.883 563.709 275.051C534.515 316.056 474.705 396.81 426.282 461.799C429.116 464.487 431.656 467.478 434.012 470.636C482.698 405.273 543.477 323.228 573.045 281.713C589.272 258.896 596.538 236.506 594.652 216.133C606.603 221.244 619.216 229.28 632.58 240.631L633.645 241.574C661.557 266.155 675.052 290.202 673.758 312.979C672.315 338.786 651.74 358.216 634.768 369.943C593.705 398.329 511.352 453.055 445.801 496.345C446.709 500.493 447.298 504.696 447.445 508.968C513.773 465.203 599.218 408.455 641.331 379.343C662.433 364.746 676.205 347.875 682.053 329.81C687.662 336.114 693.206 343.521 698.696 352.154L698.812 352.317L698.96 352.552C716.803 382.005 722.088 407.004 714.554 426.679C706.119 448.859 682.7 460.195 664.574 465.78C617.477 480.278 518.123 508.783 444.945 529.62C444.367 531.596 443.769 533.623 442.995 535.642C442.004 538.231 440.825 540.688 439.563 543.054C513.378 522.105 618.869 491.854 667.924 476.74C696.289 468.011 715.55 452.945 724.124 433.194C725.925 437.802 727.608 442.721 729.171 447.95L729.26 448.34L729.22 448.444C738.536 481.696 736.881 507.125 724.337 524.05L724.584 524.026Z" fill="#8A6E4B"/>
</svg>
