<svg width="60" height="60" viewBox="0 0 60 60" fill="none" xmlns="http://www.w3.org/2000/svg">
<path d="M57.4917 25.9107L6.46136 0.421077C5.77293 0.102442 5.01566 -0.039121 4.25849 0.00927383C3.50131 0.0576687 2.76827 0.294485 2.12611 0.698165C1.48394 1.10184 0.953037 1.65957 0.581727 2.32056C0.210417 2.98156 0.0104935 3.72483 0.000154302 4.48273V55.44C-0.00627476 56.2179 0.188298 56.9844 0.565067 57.6653C0.941836 58.3462 1.48806 58.9185 2.15094 59.3269C2.81382 59.7353 3.57095 59.9659 4.34913 59.9965C5.12732 60.0271 5.90025 59.8567 6.59322 59.5016L57.4917 34.012C58.2456 33.6339 58.8795 33.0538 59.3225 32.3366C59.7654 31.6193 60 30.7931 60 29.9504C60 29.1076 59.7654 28.2814 59.3225 27.5642C58.8795 26.8469 58.2456 26.2668 57.4917 25.8887V25.9107Z" fill="#F5FAFF"/>
</svg>
