<svg width="79" height="53" viewBox="0 0 79 53" fill="none" xmlns="http://www.w3.org/2000/svg">
<path d="M63.665 19.8727C62.5598 14.2719 59.5444 9.22849 55.1337 5.60398C50.7231 1.97948 45.191 -0.00129055 39.4821 6.30848e-07C29.9735 6.30848e-07 21.7152 5.39589 17.6025 13.2923C12.7667 13.8149 8.29456 16.1061 5.04545 19.7257C1.79634 23.3452 -0.00056493 28.0378 1.33228e-07 32.9018C1.33228e-07 43.7923 8.85058 52.6429 19.7411 52.6429H62.5134C71.5943 52.6429 78.9643 45.2729 78.9643 36.192C78.9643 27.5059 72.2194 20.4649 63.665 19.8727ZM62.5134 46.0625H19.7411C12.4698 46.0625 6.58036 40.1731 6.58036 32.9018C6.58036 26.1569 11.6143 20.5307 18.2934 19.8398L21.8139 19.4779L23.459 16.3522C24.9721 13.4067 27.2686 10.9359 30.0957 9.21182C32.9228 7.4877 36.1708 6.57713 39.4821 6.58036C48.1024 6.58036 55.5382 12.7001 57.2162 21.1558L58.2033 26.0911L63.2372 26.453C65.7106 26.6194 68.0291 27.7164 69.7262 29.5234C71.4233 31.3303 72.3729 33.7131 72.3839 36.192C72.3839 41.6208 67.9422 46.0625 62.5134 46.0625ZM26.3214 29.6116H34.7114V39.4821H44.2529V29.6116H52.6429L39.4821 16.4509L26.3214 29.6116Z" fill="#AFAFAF"/>
</svg>
