<svg width="69" height="56" viewBox="0 0 69 56" fill="none" xmlns="http://www.w3.org/2000/svg">
<g clip-path="url(#clip0_4864_19475)">
<path d="M58.9282 16.7532C57.2053 10.6988 51.6845 6.43484 45.3233 6.43484C44.8294 6.43484 44.3354 6.46216 43.8445 6.51375C40.3145 2.69595 35.4111 0.535156 30.1704 0.535156C21.0623 0.535156 13.2735 7.26942 11.7284 16.1584C4.74377 18.9262 0 25.8152 0 33.466C0 43.7176 8.27675 52.0573 18.451 52.0573C20.0473 52.0573 21.7641 51.8509 23.4026 51.4715C26.6916 54.1027 30.7607 55.5352 35.0135 55.5352C39.2664 55.5352 43.1066 54.1786 46.3474 51.687C47.8955 52.0876 49.1906 52.2302 49.9105 52.2788C50.293 52.3061 50.6845 52.3182 51.0701 52.3182C55.9433 52.3182 60.5094 50.2606 63.934 46.5217C67.1989 42.9558 69 38.3186 69 33.469C69 26.3918 65.0875 19.9701 58.9282 16.7563V16.7532Z" fill="white"/>
<path d="M39.1371 38.722C39.0889 38.6674 39.0316 38.6219 38.9563 38.5915C38.8811 38.5581 38.7847 38.543 38.6642 38.543H38.4805V39.8935H38.6672C38.7847 39.8935 38.875 39.8813 38.9503 39.854C39.0226 39.8267 39.0828 39.7872 39.131 39.7326C39.1792 39.675 39.2184 39.6052 39.2395 39.5232C39.2666 39.4352 39.2786 39.326 39.2786 39.2015C39.2786 39.1044 39.2666 39.0134 39.2425 38.9284C39.2214 38.8525 39.1853 38.7827 39.1371 38.722Z" fill="#80BC00"/>
<path d="M38.1036 31.2188C38.0615 31.419 38.0193 31.5586 37.9681 31.7438L37.4561 33.4949H38.7542L38.2392 31.7438C38.188 31.5556 38.1367 31.4069 38.1036 31.2188Z" fill="#80BC00"/>
<path d="M32.3239 30.6055H31.7998V32.1138H32.3329C32.9504 32.1138 33.1943 31.8315 33.1943 31.3672C33.1943 30.8483 32.869 30.6055 32.3239 30.6055Z" fill="#80BC00"/>
<path d="M27.0802 31.1328C26.7037 30.8172 26.2821 30.7109 25.4357 30.7109H25.3936V34.4164H25.4357C26.1977 34.4164 26.6706 34.3011 27.0471 34.0037C27.4658 33.676 27.7097 33.1388 27.7097 32.5682C27.7097 31.9977 27.4688 31.4727 27.0802 31.1358V31.1328Z" fill="#80BC00"/>
<path d="M20.4268 38.5542C20.4057 38.5482 20.3846 38.5451 20.3575 38.5421C20.3274 38.5421 20.2882 38.5391 20.243 38.5391H20.1045V39.0337H20.2762C20.3394 39.0337 20.3876 39.0277 20.4268 39.0125C20.4659 39.0004 20.4991 38.9821 20.5231 38.9609C20.5472 38.9397 20.5653 38.9154 20.5744 38.8881C20.5894 38.8547 20.5954 38.8213 20.5954 38.7849C20.5954 38.7242 20.5834 38.6726 20.5563 38.6331C20.5322 38.5998 20.49 38.5694 20.4298 38.5542H20.4268Z" fill="#80BC00"/>
<path d="M49.2841 30.6055C48.1516 30.6055 47.4619 31.346 47.4619 32.6024C47.4619 33.8588 48.1306 34.5963 49.2841 34.5963C50.4377 34.5963 51.1063 33.8558 51.1063 32.6024C51.1063 31.349 50.4256 30.6055 49.2841 30.6055Z" fill="#80BC00"/>
<path d="M36.6282 39.867C36.6884 39.9004 36.7727 39.9155 36.8751 39.9155C36.9775 39.9155 37.0559 39.8973 37.1191 39.864C37.1824 39.8275 37.2366 39.779 37.2757 39.7213C37.3179 39.6546 37.348 39.5817 37.3661 39.4998C37.3842 39.4118 37.3932 39.3177 37.3932 39.2175C37.3932 39.1174 37.3842 39.0112 37.3661 38.9262C37.348 38.8412 37.3209 38.7684 37.2787 38.7077C37.2426 38.65 37.1914 38.6045 37.1281 38.5711C37.0649 38.5377 36.9806 38.5195 36.8842 38.5195C36.7878 38.5195 36.7065 38.5377 36.6432 38.5742C36.577 38.6106 36.5258 38.6561 36.4866 38.7198C36.4444 38.7805 36.4143 38.8534 36.3962 38.9353C36.3782 39.0233 36.3691 39.1174 36.3691 39.2115C36.3691 39.3207 36.3782 39.4239 36.3962 39.5119C36.4143 39.5999 36.4414 39.6728 36.4806 39.7304C36.5167 39.7881 36.5679 39.8336 36.6312 39.867H36.6282Z" fill="#80BC00"/>
<path d="M42.7695 39.3916H43.2213L42.9954 38.7422L42.7695 39.3916Z" fill="#80BC00"/>
<path d="M23.5439 39.3916H23.9927L23.7668 38.7422L23.5439 39.3916Z" fill="#80BC00"/>
<path d="M33.209 39.3916H33.6578L33.4319 38.7422L33.209 39.3916Z" fill="#80BC00"/>
<path d="M33.2002 42.3604H33.649L33.4231 41.7109L33.2002 42.3604Z" fill="#80BC00"/>
<path d="M52.4164 38.7038C52.3773 38.6431 52.3291 38.6006 52.2658 38.5672C52.2026 38.5338 52.1213 38.5156 52.0219 38.5156C51.9225 38.5156 51.8442 38.5338 51.7779 38.5703C51.7147 38.6067 51.6635 38.6552 51.6243 38.7129C51.5821 38.7736 51.552 38.8464 51.5339 38.9284C51.5159 39.0164 51.5068 39.1104 51.5068 39.2076C51.5068 39.3138 51.5159 39.417 51.5339 39.508C51.552 39.596 51.5791 39.6658 51.6183 39.7265C51.6544 39.7872 51.7056 39.8297 51.7659 39.8631C51.8291 39.8965 51.9104 39.9116 52.0128 39.9116C52.1152 39.9116 52.1936 39.8934 52.2598 39.857C52.3231 39.8206 52.3743 39.7751 52.4164 39.7144C52.4556 39.6506 52.4857 39.5778 52.5038 39.4928C52.5219 39.4048 52.5309 39.3107 52.5309 39.2106C52.5309 39.1044 52.5219 39.0073 52.5038 38.9193C52.4857 38.8312 52.4556 38.7584 52.4164 38.7007V38.7038Z" fill="#80BC00"/>
<path d="M30.2728 41.6899C30.2276 41.6322 30.1674 41.5898 30.0921 41.5564C30.0168 41.523 29.9174 41.5078 29.7969 41.5078H29.6162V42.8613H29.7999C29.9144 42.8613 30.0108 42.8462 30.0861 42.8189C30.1584 42.7915 30.2186 42.7521 30.2638 42.6975C30.315 42.6428 30.3511 42.573 30.3752 42.485C30.3993 42.397 30.4144 42.2878 30.4144 42.1664C30.4144 42.0662 30.4023 41.9782 30.3782 41.8932C30.3541 41.8143 30.321 41.7445 30.2728 41.6869V41.6899Z" fill="#80BC00"/>
<path d="M31.8115 41.523C31.7935 41.5169 31.7694 41.5139 31.7423 41.5109C31.7121 41.5109 31.676 41.5078 31.6278 41.5078H31.4893V42.0055H31.6609C31.7212 42.0055 31.7694 41.9995 31.8115 41.9843C31.8537 41.9691 31.8838 41.9539 31.9049 41.9327C31.929 41.9114 31.9471 41.8872 31.9591 41.8568C31.9712 41.8234 31.9772 41.7901 31.9772 41.7536C31.9772 41.6929 31.9651 41.6444 31.938 41.6019C31.9169 41.5655 31.8718 41.5412 31.8115 41.523Z" fill="#80BC00"/>
<path d="M53.4915 21.065C53.4975 20.9406 53.5005 20.8192 53.5005 20.6948C53.5005 16.1425 49.838 12.4552 45.3232 12.4552C43.9257 12.4552 42.6064 12.8103 41.4559 13.4355C39.3234 9.34759 35.0706 6.55859 30.1702 6.55859C23.1314 6.55859 17.4268 12.3096 17.4268 19.4019C17.4268 19.9209 17.4599 20.4307 17.5202 20.9345C11.0656 21.414 5.97852 26.8403 5.97852 33.4653C5.97852 40.0903 11.5626 46.0355 18.4539 46.0355C20.5682 46.0355 23.2308 45.5044 24.9747 44.5697C27.3059 47.5772 30.9353 49.5104 35.0164 49.5104C39.0976 49.5104 42.6034 47.6409 44.9407 44.7214C46.7418 45.7047 48.814 46.163 50.32 46.2661C57.3227 46.7426 63.0272 40.5334 63.0272 33.4623C63.0272 27.4958 58.9762 22.4823 53.4975 21.062L53.4915 21.065ZM14.3185 33.8234C14.2191 33.9509 13.8637 33.9812 13.7462 33.872C13.7402 33.79 13.7342 33.7081 13.7252 33.6261C13.8968 33.4501 14.3125 33.5321 14.3185 33.8234ZM13.933 28.212C13.8456 28.5792 13.7432 28.1392 13.4451 28.2515C13.439 28.1695 13.433 28.0876 13.424 28.0026C13.6649 27.9905 13.6288 28.3 13.933 28.209V28.212ZM13.5475 25.505C13.6649 25.599 13.689 25.8843 13.5896 25.9996C13.2613 26.0573 13.0475 25.4412 13.5475 25.505ZM9.82172 28.3061C9.86088 28.5641 10.1139 28.5641 10.1169 28.8645C9.80666 28.7188 9.43017 28.6521 9.02658 28.6248C9.06573 28.3273 9.56571 28.4184 9.82473 28.3061H9.82172ZM9.70124 30.8068C9.32174 30.8189 9.29765 30.7522 8.96333 30.8705C8.86694 30.6126 9.74944 30.5397 9.70124 30.8068ZM9.80365 36.0297C9.35789 35.9994 9.14705 36.2512 8.82177 36.1147C8.81574 36.0297 8.80972 35.9478 8.80068 35.8658C9.24946 35.8021 9.54462 35.7171 9.80365 36.0297ZM8.17119 27.2864C8.15011 27.3957 8.03867 27.429 8.02963 27.5474C7.91819 27.5292 7.89108 27.4139 7.77061 27.4017C7.76157 27.1893 8.05674 27.1802 8.17119 27.2864ZM7.79771 28.7279C7.69531 28.4366 8.11095 28.5883 8.2736 28.5216C8.376 28.8129 7.96337 28.6612 7.79771 28.7279ZM9.51149 37.4652C9.25247 37.3772 8.94224 37.3559 8.67117 37.2892C9.11091 36.9978 9.73438 36.9796 10.3819 37.0615C10.2404 37.4014 9.68317 37.0676 9.51149 37.4682V37.4652ZM10.1591 28.3638C10.1229 28.2333 10.2223 28.2151 10.2193 28.1088C10.4301 28.1028 10.5476 28.2029 10.5747 28.4093C10.388 28.4518 10.2584 28.4214 10.1591 28.3638ZM10.8849 37.101C10.7855 37.2072 10.7554 37.1435 10.638 37.1222C10.7223 36.9675 11.3156 36.6033 11.3066 37.2315C11.0506 37.3256 11.0446 37.1253 10.8849 37.101ZM11.7493 37.6078C11.6951 37.3286 12.1951 37.2194 12.156 37.5744C12.0204 37.5866 11.8849 37.5987 11.7493 37.6078ZM12.7041 35.2042C12.6108 34.8917 13.0686 34.8522 13.0294 35.1769C12.918 35.186 12.8126 35.1951 12.7041 35.2042ZM13.5204 26.1696C13.5987 26.2576 13.6438 26.379 13.6378 26.5763C13.5234 26.47 13.2463 26.558 13.1318 26.4518C13.174 26.2849 13.3306 26.2121 13.5204 26.1696ZM13.174 34.9129C13.4812 34.9372 14.0233 34.6853 14.0113 35.0919C13.7854 35.1557 13.4872 35.2649 13.1951 35.1617C13.189 35.0768 13.18 34.9948 13.174 34.9129ZM13.3035 42.4544C13.4119 42.4423 13.5204 42.4362 13.6288 42.4271C13.6378 42.5364 13.6469 42.6456 13.6559 42.7579C13.4029 42.8156 13.2824 42.7184 13.3035 42.4544ZM13.8697 43.3193C13.8276 43.1039 13.9601 43.0401 14.1739 43.0462C14.18 43.1312 14.189 43.2131 14.195 43.2951C14.0866 43.3042 13.9782 43.3133 13.8697 43.3224V43.3193ZM13.7041 34.3697C13.7673 34.0237 14.0655 34.3211 14.3516 34.2331C14.433 34.8188 13.9029 34.4637 13.7041 34.3697ZM16.1437 24.6643C16.0413 24.373 16.457 24.5217 16.6196 24.4579C16.6497 24.8464 16.3997 24.634 16.1437 24.6643ZM16.2853 23.4049C16.3004 22.9648 17.0804 22.9254 17.2581 23.241C17.1316 23.5839 16.5413 23.5475 16.2853 23.4049ZM52.7235 28.3668C52.7747 28.3668 52.8229 28.3607 52.8138 28.2909C52.868 28.297 52.9222 28.3 52.9765 28.3031C52.9765 28.3547 52.9795 28.4002 53.0488 28.3941C53.0457 28.4487 53.0397 28.5034 53.0337 28.558C52.9825 28.558 52.9373 28.561 52.9463 28.6339C52.8891 28.6278 52.8379 28.6248 52.7807 28.6217C52.7807 28.5701 52.7777 28.5216 52.7054 28.5337C52.7084 28.4791 52.7144 28.4245 52.7174 28.3698L52.7235 28.3668ZM52.103 22.9193C52.097 23.0012 52.091 23.0832 52.0819 23.1651C51.6964 23.0771 51.1753 23.1742 51.0187 23.0771C51.1964 22.6674 51.6904 22.7797 52.103 22.9193ZM51.4344 27.0133C51.1271 27.0679 51.1422 26.5823 51.3862 26.5945C51.4494 26.6976 51.4765 26.8251 51.4344 27.0133ZM50.6392 21.7175C50.6151 21.9391 50.4193 22.0999 50.2928 21.936C50.2838 21.7175 50.4254 21.675 50.6392 21.7175ZM47.6243 20.3185H49.5941V27.3592H47.6243V20.3185ZM42.5161 20.3185H47.3954V21.9967H45.9316V27.3592H43.9829V21.9967H42.5161V20.3185ZM38.0223 20.3185H42.2751V21.9755H39.968V22.9982H41.7029V24.6158H39.968V25.7022H42.2842V27.3592H38.0223V20.3185ZM39.6126 36.0934L39.215 34.9432H36.9922L36.5947 36.0934H33.4743L32.0376 33.8568C31.9443 33.7202 31.881 33.6049 31.7756 33.4137C31.7967 33.5958 31.7967 33.699 31.7967 33.8477V36.0934H29.86V29.0557H32.4141C34.1008 29.0557 35.0224 29.9388 35.0224 31.3439C35.0224 32.2817 34.5496 32.8219 33.7755 33.1072L34.9592 35.013L37.0645 29.0314H39.1608L41.6215 36.0904H39.6126V36.0934ZM39.703 39.1859C39.703 39.3619 39.6789 39.5197 39.6337 39.6533C39.5885 39.7898 39.5192 39.9052 39.4289 39.9932C39.3415 40.0842 39.2301 40.154 39.0976 40.1965C38.968 40.239 38.8174 40.2633 38.6458 40.2633H38.2392C38.2 40.2633 38.1608 40.2511 38.1277 40.2238C38.1006 40.2026 38.0675 40.1601 38.0675 40.0812V38.3513C38.0675 38.2876 38.0886 38.2391 38.1307 38.2057C38.1669 38.1784 38.203 38.1662 38.2422 38.1662H38.6789C38.8536 38.1662 39.0042 38.1905 39.1277 38.236C39.2542 38.2846 39.3596 38.3544 39.4469 38.4424C39.5313 38.5304 39.5975 38.6397 39.6397 38.7671C39.6819 38.8915 39.706 39.0342 39.706 39.1859H39.703ZM35.9561 38.2937C35.9561 38.3149 35.9471 38.3392 35.935 38.3665L35.3086 40.1662C35.3025 40.1874 35.2905 40.2056 35.2724 40.2238C35.2574 40.239 35.2363 40.2511 35.2122 40.2602C35.1911 40.2663 35.173 40.2693 35.1459 40.2724C35.1218 40.2724 35.0977 40.2724 35.0646 40.2724C35.0164 40.2724 34.9803 40.2724 34.9532 40.2663C34.9381 40.2663 34.923 40.2602 34.911 40.2572C34.8959 40.2542 34.8809 40.2451 34.8688 40.236C34.8538 40.2238 34.8387 40.2117 34.8297 40.1935C34.8267 40.1874 34.8176 40.1753 34.8146 40.1601L34.1851 38.3574C34.1731 38.3271 34.167 38.2998 34.167 38.2785C34.167 38.2421 34.1821 38.2057 34.2122 38.1844C34.2273 38.1693 34.2544 38.1601 34.2935 38.1541C34.3417 38.1541 34.417 38.1541 34.4562 38.1541C34.4803 38.1541 34.5014 38.1602 34.5164 38.1693C34.5375 38.1784 34.5526 38.1905 34.5676 38.2087C34.5797 38.2269 34.5887 38.2421 34.5917 38.2542L35.0706 39.6715L35.5375 38.2633C35.5375 38.2633 35.5465 38.236 35.5495 38.2269C35.5646 38.1996 35.5857 38.1844 35.6128 38.1723C35.6338 38.1662 35.6549 38.1602 35.679 38.1571C35.7182 38.1571 35.7995 38.1571 35.8387 38.1571C35.8748 38.1632 35.9019 38.1753 35.92 38.1935C35.9441 38.2148 35.9531 38.2482 35.9501 38.2876L35.9561 38.2937ZM29.61 38.2846C29.61 38.2603 29.616 38.2391 29.6311 38.2178C29.6401 38.2026 29.6612 38.1814 29.6974 38.1723C29.7064 38.1693 29.7245 38.1632 29.7486 38.1602C29.7877 38.1541 29.857 38.1541 29.8931 38.1602C29.9142 38.1602 29.9323 38.1662 29.9474 38.1723C29.9684 38.1784 29.9895 38.1966 30.0046 38.2148C30.0196 38.2391 30.0257 38.2573 30.0257 38.2815V40.1449C30.0257 40.1662 30.0196 40.1904 30.0076 40.2086C29.9925 40.2299 29.9745 40.2451 29.9474 40.2542C29.9293 40.2602 29.9112 40.2633 29.8901 40.2663C29.8721 40.2663 29.848 40.2724 29.8178 40.2724C29.7877 40.2724 29.7666 40.2724 29.7456 40.2663C29.7215 40.2633 29.7034 40.2602 29.6913 40.2542C29.6642 40.242 29.6431 40.2269 29.6311 40.2056C29.6221 40.1935 29.613 40.1692 29.613 40.1449V38.2815L29.61 38.2846ZM25.8692 36.0934H23.4296V29.0557H25.8692C28.1402 29.0557 29.6431 30.4365 29.6431 32.567C29.6431 34.2361 28.4595 36.0934 25.8692 36.0934ZM35.4351 25.1317V20.3185H37.3928V25.5444C37.3928 26.3122 37.2663 26.7674 36.9531 27.0618C36.6489 27.3592 36.1459 27.514 35.5194 27.514C34.8267 27.514 34.2393 27.3562 33.7363 27.0284L34.4682 25.5414C34.7212 25.7204 34.8688 25.772 35.0556 25.772C35.3296 25.772 35.4321 25.596 35.4321 25.1286L35.4351 25.1317ZM30.9804 20.3185L31.7665 23.5293C31.8388 23.8146 31.881 24.0027 31.9352 24.3305C31.9864 24.0149 32.0286 23.8237 32.1009 23.5293L32.887 20.3185H34.8267L32.8779 27.3592H30.9925L29.0438 20.3185H30.9834H30.9804ZM26.8421 20.3185H28.8119V27.3592H26.8421V20.3185ZM26.0951 15.9271C26.9505 18.6432 23.8693 19.581 23.8693 19.581C23.8693 19.581 23.8332 15.9635 26.0951 15.9271ZM22.1555 17.0833C23.8934 17.5082 23.6645 19.584 23.6645 19.584C21.6284 19.1106 21.8332 18.1455 22.1555 17.0833ZM21.1465 21.9451L21.2941 20.3185H26.5318L23.8904 25.7113H26.4234L26.2788 27.3592H20.9568L23.6073 21.9451H21.1435H21.1465ZM17.8786 30.6793L18.0262 29.0557H23.2609L20.6225 34.4516H23.1585L23.0139 36.0934H17.6919L20.3454 30.6793H17.8816H17.8786ZM19.3334 40.148C19.3334 40.1753 19.3243 40.2026 19.3062 40.2208C19.2972 40.2329 19.2791 40.2481 19.255 40.2572C19.237 40.2633 19.2189 40.2663 19.2008 40.2693C19.1828 40.2693 19.1557 40.2754 19.1285 40.2754C19.0984 40.2754 19.0743 40.2754 19.0532 40.2693C19.0322 40.2663 19.0141 40.2633 18.999 40.2572C18.9689 40.2451 18.9508 40.2299 18.9388 40.2086C18.9267 40.1935 18.9207 40.1692 18.9207 40.148V39.365H18.2009V40.148C18.2009 40.1692 18.1948 40.1935 18.1828 40.2117C18.1677 40.2329 18.1497 40.2481 18.1226 40.2572C18.1045 40.2633 18.0864 40.2663 18.0683 40.2693C18.0322 40.2754 17.969 40.2754 17.9238 40.2693C17.9057 40.2693 17.8876 40.2633 17.8696 40.2572C17.8455 40.2481 17.8244 40.2329 17.8093 40.2147C17.7973 40.1965 17.7882 40.1722 17.7882 40.148V38.2846C17.7882 38.2633 17.7943 38.2421 17.8063 38.2239C17.8214 38.2057 17.8394 38.1844 17.8726 38.1753C17.8816 38.1723 17.8997 38.1662 17.9208 38.1632C17.9659 38.1571 18.0292 38.1571 18.0683 38.1632C18.0894 38.1662 18.1075 38.1693 18.1226 38.1753C18.1436 38.1814 18.1647 38.1996 18.1798 38.2178C18.1949 38.2421 18.2009 38.2603 18.2009 38.2846V38.9826H18.9207V38.2846C18.9207 38.2633 18.9267 38.2421 18.9388 38.2239C18.9539 38.2026 18.9749 38.1844 19.0051 38.1753C19.0171 38.1693 19.0322 38.1662 19.0563 38.1632C19.0954 38.1601 19.1617 38.1571 19.2038 38.1632C19.2279 38.1662 19.246 38.1693 19.2581 38.1753C19.2791 38.1814 19.3002 38.1996 19.3153 38.2178C19.3273 38.233 19.3364 38.2573 19.3364 38.2846V40.148H19.3334ZM21.1134 40.2086C21.1044 40.2299 21.0803 40.2481 21.0532 40.2602C21.0381 40.2663 21.017 40.2724 20.9959 40.2724C20.9718 40.2724 20.9477 40.2724 20.9146 40.2724C20.8845 40.2724 20.8604 40.2724 20.8423 40.2724C20.8152 40.2693 20.7971 40.2633 20.7821 40.2572C20.755 40.2451 20.7339 40.2269 20.7219 40.2056C20.7128 40.1935 20.7038 40.1753 20.6978 40.1571L20.5231 39.7049C20.505 39.6563 20.4839 39.6108 20.4628 39.5713C20.4448 39.5349 20.4237 39.5046 20.3966 39.4773C20.3755 39.456 20.3484 39.4378 20.3152 39.4226C20.2851 39.4105 20.243 39.4044 20.1948 39.4044H20.1014V40.151C20.1014 40.1753 20.0924 40.1995 20.0773 40.2208C20.0653 40.236 20.0472 40.2511 20.0231 40.2602C20.008 40.2663 19.99 40.2693 19.9689 40.2724C19.9297 40.2785 19.8635 40.2785 19.8213 40.2724C19.8002 40.2693 19.7851 40.2663 19.7671 40.2602C19.743 40.2511 19.7219 40.236 19.7098 40.2178C19.7008 40.2086 19.6918 40.1844 19.6918 40.151V38.3544C19.6918 38.2906 19.7129 38.2421 19.752 38.2087C19.7882 38.1814 19.8243 38.1693 19.8635 38.1693H20.2731C20.3243 38.1693 20.3664 38.1693 20.4026 38.1693L20.4899 38.1784C20.5773 38.1935 20.6526 38.2148 20.7128 38.2482C20.7791 38.2815 20.8363 38.321 20.8815 38.3726C20.9267 38.4242 20.9628 38.4818 20.9839 38.5456C21.005 38.6093 21.017 38.6791 21.017 38.755C21.017 38.8308 21.008 38.8976 20.9869 38.9553C20.9628 39.019 20.9357 39.0736 20.8965 39.1161C20.8604 39.1586 20.8182 39.1981 20.761 39.2314C20.749 39.2405 20.7369 39.2466 20.7249 39.2527C20.7459 39.2739 20.767 39.2952 20.7851 39.3225C20.8092 39.3559 20.8333 39.3923 20.8544 39.4378C20.8755 39.4773 20.8965 39.5258 20.9176 39.5744L21.0893 40.0023C21.1044 40.0417 21.1134 40.069 21.1194 40.0873C21.1254 40.1085 21.1285 40.1267 21.1285 40.1419C21.1285 40.1571 21.1285 40.1783 21.1134 40.2026V40.2086ZM22.2971 40.2238C22.282 40.239 22.264 40.2511 22.2399 40.2602C22.2188 40.2663 22.2007 40.2693 22.1736 40.2724C22.1495 40.2724 22.1224 40.2724 22.0923 40.2724C22.0411 40.2724 22.0079 40.2724 21.9808 40.2663C21.9658 40.2663 21.9537 40.2602 21.9417 40.2572C21.9236 40.2511 21.9116 40.2451 21.9025 40.239C21.8844 40.2269 21.8724 40.2147 21.8634 40.1995C21.8543 40.1874 21.8513 40.1753 21.8483 40.1662L21.2188 38.3574C21.2098 38.3271 21.2038 38.3058 21.2007 38.2815C21.2007 38.2421 21.2158 38.2057 21.2459 38.1844C21.261 38.1693 21.2881 38.1601 21.3242 38.1541C21.3694 38.1541 21.4447 38.1541 21.4869 38.1541C21.508 38.1541 21.529 38.1602 21.5471 38.1662C21.5682 38.1753 21.5893 38.1875 21.6013 38.2087C21.6104 38.2239 21.6164 38.236 21.6224 38.2482L22.1013 39.6685L22.5651 38.2573C22.5651 38.2573 22.5742 38.23 22.5832 38.2148C22.5983 38.1844 22.6314 38.1693 22.6435 38.1662C22.6645 38.1602 22.6856 38.1541 22.7097 38.151C22.7489 38.151 22.8302 38.151 22.8693 38.151C22.9085 38.1571 22.9356 38.1693 22.9537 38.1935C22.9718 38.2087 22.9838 38.2451 22.9778 38.2846C22.9778 38.3028 22.9687 38.324 22.9597 38.3513L22.3302 40.154C22.3212 40.1753 22.3121 40.1935 22.2941 40.2117L22.2971 40.2238ZM24.6434 40.236C24.6132 40.2602 24.5831 40.2663 24.562 40.2693C24.5379 40.2693 24.5108 40.2693 24.4777 40.2693C24.4446 40.2693 24.4175 40.2693 24.3964 40.2693C24.3693 40.2693 24.3512 40.2633 24.3362 40.2572C24.309 40.2481 24.288 40.2329 24.2729 40.2117C24.2669 40.2026 24.2578 40.1904 24.2548 40.1753L24.1072 39.7504H23.4175L23.279 40.1631C23.279 40.1631 23.2669 40.1935 23.2579 40.2086C23.2428 40.2238 23.2278 40.239 23.2067 40.2481C23.1916 40.2542 23.1705 40.2602 23.1434 40.2633C23.0983 40.2693 23.026 40.2633 22.9838 40.2633C22.9477 40.2602 22.9205 40.2481 22.9025 40.2299C22.8814 40.2087 22.8663 40.1813 22.8663 40.1358C22.8663 40.1176 22.8724 40.0933 22.8814 40.063L23.5259 38.2603C23.535 38.2391 23.544 38.2239 23.5561 38.2087C23.5802 38.1844 23.6012 38.1753 23.6193 38.1693C23.6434 38.1632 23.6645 38.1602 23.6886 38.1571C23.7308 38.1571 23.8091 38.1571 23.8512 38.1571C23.8753 38.1571 23.8994 38.1632 23.9205 38.1662C23.9446 38.1753 23.9657 38.1875 23.9838 38.2057C23.9988 38.2239 24.0079 38.2391 24.0139 38.2542L24.6614 40.063C24.6735 40.0964 24.6795 40.1206 24.6795 40.1419C24.6795 40.1692 24.6705 40.2056 24.6434 40.2299V40.236ZM26.1915 38.4151C26.1885 38.4394 26.1825 38.4576 26.1734 38.4758C26.1644 38.4909 26.1523 38.5092 26.1282 38.5243C26.1102 38.5365 26.0891 38.5425 26.065 38.5425H25.6012V40.148C25.6012 40.1692 25.5951 40.1935 25.5831 40.2117C25.568 40.2329 25.55 40.2481 25.5228 40.2572C25.5078 40.2633 25.4897 40.2663 25.4686 40.2693C25.4475 40.2693 25.4235 40.2754 25.3963 40.2754C25.3692 40.2754 25.3451 40.2754 25.3241 40.2693C25.3 40.2663 25.2819 40.2633 25.2698 40.2572C25.2427 40.2481 25.2247 40.2329 25.2096 40.2147C25.1976 40.1965 25.1915 40.1722 25.1915 40.148V38.5425H24.7277C24.7066 38.5425 24.6855 38.5365 24.6644 38.5274C24.6404 38.5092 24.6253 38.4909 24.6193 38.4697C24.6132 38.4636 24.6072 38.4424 24.6042 38.4242C24.5982 38.3999 24.5982 38.3787 24.5982 38.3574C24.5982 38.3331 24.5982 38.3119 24.6042 38.2937C24.6102 38.2724 24.6132 38.2542 24.6223 38.236C24.6283 38.2239 24.6404 38.2057 24.6584 38.1935C24.6855 38.1753 24.7066 38.1693 24.7277 38.1693H26.068C26.0921 38.1693 26.1102 38.1753 26.1282 38.1844C26.1523 38.1996 26.1674 38.2208 26.1734 38.233C26.1855 38.2573 26.1885 38.2755 26.1915 38.2967C26.1915 38.3149 26.1945 38.3331 26.1945 38.3574C26.1945 38.3787 26.1945 38.3969 26.1915 38.4181V38.4151ZM27.1794 40.2511C27.089 40.2785 26.9957 40.2906 26.8963 40.2906C26.827 40.2906 26.7607 40.2845 26.7005 40.2693C26.6463 40.2602 26.5921 40.2451 26.5409 40.2269C26.4957 40.2117 26.4535 40.1904 26.4204 40.1722C26.3843 40.151 26.3571 40.1328 26.3421 40.1146C26.324 40.0964 26.309 40.0721 26.2999 40.0387C26.2939 40.0144 26.2879 39.9841 26.2879 39.9416C26.2879 39.9143 26.2879 39.893 26.2879 39.8779C26.2909 39.8566 26.2939 39.8414 26.3029 39.8202C26.315 39.7898 26.3361 39.7716 26.3511 39.7625C26.3782 39.7443 26.4385 39.7383 26.5108 39.7838C26.5348 39.799 26.565 39.8172 26.6011 39.8354C26.6373 39.8536 26.6794 39.8718 26.7306 39.887C26.815 39.9143 26.9384 39.9203 27.0318 39.893C27.068 39.8809 27.1011 39.8627 27.1252 39.8414C27.1463 39.8232 27.1674 39.799 27.1794 39.7686C27.1945 39.7413 27.1975 39.7049 27.1975 39.6654C27.1975 39.626 27.1884 39.5926 27.1734 39.5683C27.1523 39.5349 27.1282 39.5076 27.0951 39.4833C27.0559 39.456 27.0137 39.4317 26.9686 39.4105L26.8059 39.3346C26.7517 39.3103 26.6945 39.28 26.6403 39.2466C26.583 39.2102 26.5288 39.1707 26.4867 39.1252C26.4385 39.0736 26.4023 39.019 26.3722 38.9553C26.3421 38.8885 26.327 38.8126 26.327 38.7186C26.327 38.6245 26.3421 38.5425 26.3782 38.4697C26.4144 38.3969 26.4626 38.3331 26.5228 38.2815C26.583 38.233 26.6553 38.1935 26.7366 38.1693C26.8541 38.1328 26.9957 38.1237 27.1342 38.145C27.1824 38.1541 27.2246 38.1632 27.2698 38.1784C27.3119 38.1905 27.3481 38.2057 27.3842 38.2239C27.4204 38.2421 27.4444 38.2573 27.4595 38.2724C27.4776 38.2906 27.4866 38.3028 27.4926 38.318C27.4987 38.3271 27.5017 38.3362 27.5047 38.3544C27.5077 38.3696 27.5107 38.3817 27.5107 38.3969C27.5107 38.409 27.5107 38.4272 27.5107 38.4515C27.5107 38.4697 27.5107 38.4879 27.5107 38.5061C27.5047 38.5365 27.5047 38.5486 27.4987 38.5607C27.4896 38.5881 27.4746 38.6093 27.4505 38.6245C27.4414 38.6366 27.3782 38.6579 27.2999 38.6093C27.2788 38.5972 27.2517 38.582 27.2246 38.5668C27.1884 38.5486 27.1523 38.5334 27.1101 38.5213C27.0409 38.5 26.9294 38.497 26.8662 38.5213C26.836 38.5334 26.8119 38.5456 26.7939 38.5638C26.7758 38.582 26.7638 38.6002 26.7547 38.6214C26.7457 38.6457 26.7397 38.67 26.7397 38.6973C26.7397 38.7337 26.7487 38.7671 26.7638 38.7944C26.7818 38.8248 26.8119 38.8521 26.8451 38.8764C26.8812 38.9037 26.9234 38.928 26.9746 38.9522L27.1342 39.0281C27.1884 39.0524 27.2457 39.0827 27.2999 39.1161C27.3601 39.1495 27.4113 39.192 27.4565 39.2375C27.5017 39.283 27.5408 39.3407 27.5709 39.4075C27.6011 39.4742 27.6161 39.5501 27.6161 39.6381C27.6161 39.7413 27.595 39.8354 27.5589 39.9143C27.5197 39.9932 27.4685 40.063 27.3993 40.1206C27.336 40.1753 27.2547 40.2178 27.1643 40.2481L27.1794 40.2511ZM28.9655 43.1039C28.9655 43.1221 28.9594 43.1403 28.9504 43.1585C28.9353 43.1858 28.9203 43.204 28.9022 43.2162C28.8872 43.2253 28.8661 43.2344 28.839 43.2344H27.7005C27.6553 43.2344 27.6131 43.2192 27.583 43.1888C27.5619 43.1676 27.5348 43.1251 27.5348 43.0553V42.9977C27.5348 42.9825 27.5348 42.9673 27.5348 42.9521C27.5348 42.937 27.5408 42.9187 27.5499 42.8945C27.5559 42.8793 27.5649 42.8641 27.574 42.8459L27.6101 42.7852L28.4203 41.5076H27.6854C27.6613 41.5076 27.6402 41.5015 27.6222 41.4924C27.6011 41.4772 27.589 41.4651 27.577 41.4499C27.5649 41.4286 27.5589 41.4074 27.5559 41.3831C27.5559 41.3649 27.5529 41.3467 27.5529 41.3255C27.5529 41.3042 27.5529 41.2799 27.5559 41.2648C27.5559 41.2375 27.5649 41.2192 27.574 41.201C27.583 41.1828 27.5981 41.1646 27.6161 41.1525C27.6372 41.1403 27.6613 41.1343 27.6824 41.1343H28.7516C28.8149 41.1343 28.851 41.1616 28.8721 41.1828C28.8992 41.2132 28.9173 41.2557 28.9173 41.3073V41.368C28.9173 41.3892 28.9173 41.4074 28.9143 41.4226C28.9113 41.4438 28.9052 41.462 28.8992 41.4772C28.8932 41.4924 28.8872 41.5106 28.8751 41.5288C28.8691 41.544 28.854 41.5652 28.836 41.5895L28.0318 42.858H28.8299C28.8751 42.858 28.9173 42.8854 28.9384 42.9278C28.9534 42.9521 28.9594 42.9916 28.9594 43.0432C28.9594 43.0675 28.9594 43.0887 28.9534 43.1039H28.9655ZM29.104 40.2724C29.0649 40.2724 29.0317 40.2724 29.0076 40.2663C28.9835 40.2663 28.9474 40.2572 28.9203 40.2329C28.9022 40.2208 28.8902 40.2056 28.8781 40.1874L28.3119 39.4135V40.1449C28.3119 40.1662 28.3059 40.1874 28.2938 40.2056C28.2818 40.2269 28.2607 40.242 28.2336 40.2542C28.2155 40.2602 28.1974 40.2633 28.1763 40.2663C28.1432 40.2724 28.0739 40.2724 28.0318 40.2663C28.0077 40.2633 27.9896 40.2602 27.9776 40.2542C27.9535 40.2451 27.9324 40.2299 27.9203 40.2117C27.9053 40.1874 27.8992 40.1662 27.8992 40.1449V38.2815C27.8992 38.2603 27.9053 38.2391 27.9143 38.2208C27.9324 38.1966 27.9535 38.1814 27.9776 38.1723C27.9896 38.1662 28.0047 38.1632 28.0288 38.1602C28.0739 38.1541 28.1372 38.1571 28.1733 38.1602C28.1944 38.1602 28.2125 38.1662 28.2275 38.1723C28.2516 38.1814 28.2757 38.1966 28.2878 38.2208C28.2998 38.2421 28.3059 38.2603 28.3059 38.2815V38.9189L28.848 38.233C28.848 38.233 28.8691 38.2087 28.8841 38.1966C28.8962 38.1875 28.9143 38.1753 28.9323 38.1693C28.9534 38.1632 28.9685 38.1602 28.9896 38.1571C29.0378 38.1541 29.101 38.1571 29.1371 38.1571C29.1552 38.1571 29.1733 38.1632 29.1914 38.1693C29.2185 38.1814 29.2365 38.1966 29.2516 38.2178C29.2636 38.2421 29.2667 38.2603 29.2667 38.2785C29.2667 38.3028 29.2606 38.3271 29.2486 38.3513C29.2365 38.3726 29.2245 38.3938 29.2034 38.4211L28.601 39.1434L29.2516 40.0144C29.2787 40.0569 29.2908 40.0751 29.2938 40.0933C29.2998 40.1055 29.3028 40.1237 29.3028 40.1419C29.3028 40.1631 29.2968 40.1813 29.2877 40.1995C29.2817 40.2147 29.2636 40.236 29.2275 40.2511C29.2124 40.2572 29.1944 40.2602 29.1703 40.2633C29.1522 40.2633 29.1251 40.2693 29.095 40.2693L29.104 40.2724ZM30.7636 42.6183C30.7154 42.7549 30.6461 42.8702 30.5588 42.9612C30.4714 43.0492 30.357 43.119 30.2275 43.1646C30.101 43.2071 29.9474 43.2283 29.7757 43.2283H29.3691C29.3299 43.2283 29.2938 43.2162 29.2576 43.1919C29.2275 43.1676 29.1944 43.1251 29.1944 43.0462V41.3164C29.1944 41.2375 29.2275 41.195 29.2546 41.1737C29.2908 41.1464 29.3269 41.1343 29.3691 41.1343H29.8058C29.9805 41.1343 30.1311 41.1585 30.2546 41.2041C30.3811 41.2526 30.4865 41.3224 30.5738 41.4104C30.6582 41.5015 30.7244 41.6107 30.7666 41.7352C30.8088 41.8596 30.8298 42.0022 30.8298 42.154C30.8298 42.33 30.8057 42.4848 30.7636 42.6183ZM32.5015 43.1646C32.4834 43.1979 32.4623 43.2162 32.4352 43.2253C32.4231 43.2313 32.4021 43.2344 32.381 43.2374C32.3539 43.2374 32.3268 43.2404 32.2966 43.2404C32.2695 43.2404 32.2454 43.2404 32.2274 43.2404C32.1942 43.2344 32.1762 43.2283 32.1581 43.2222C32.137 43.2162 32.1159 43.1949 32.1039 43.1737C32.0979 43.1615 32.0888 43.1464 32.0828 43.1281L31.9081 42.676C31.887 42.6274 31.869 42.5788 31.8479 42.5394C31.8298 42.503 31.8057 42.4726 31.7816 42.4453C31.7575 42.421 31.7304 42.4028 31.7003 42.3877C31.6672 42.3755 31.628 42.3694 31.5798 42.3694H31.4864V43.116C31.4864 43.1372 31.4804 43.1585 31.4684 43.1767C31.4443 43.2071 31.4262 43.2162 31.4081 43.2222C31.3901 43.2283 31.372 43.2313 31.3509 43.2344C31.3148 43.2404 31.2425 43.2435 31.2003 43.2344C31.1822 43.2313 31.1642 43.2283 31.1461 43.2192C31.134 43.2162 31.1069 43.204 31.0919 43.1797C31.0798 43.1555 31.0738 43.1373 31.0738 43.113V41.3164C31.0738 41.2526 31.0949 41.2041 31.1371 41.1707C31.1702 41.1464 31.2063 41.1312 31.2485 41.1312H31.6581C31.7093 41.1312 31.7515 41.1312 31.7846 41.1343C31.8178 41.1343 31.8509 41.1403 31.875 41.1434C31.9593 41.1586 32.0316 41.1798 32.0948 41.2132C32.1641 41.2466 32.2213 41.289 32.2635 41.3406C32.3087 41.3862 32.3418 41.4438 32.3659 41.5106C32.387 41.5743 32.3991 41.6441 32.3991 41.72C32.3991 41.7959 32.39 41.8596 32.3689 41.9203C32.3478 41.981 32.3177 42.0356 32.2786 42.0842C32.2424 42.1297 32.1973 42.1691 32.143 42.2025C32.131 42.2086 32.1189 42.2177 32.1069 42.2207C32.128 42.242 32.1491 42.2632 32.1671 42.2905C32.1912 42.3209 32.2123 42.3573 32.2364 42.4059C32.2575 42.4453 32.2786 42.4939 32.2997 42.5455L32.4713 42.9734C32.4864 43.0098 32.4954 43.0371 32.5015 43.0553C32.5075 43.0766 32.5105 43.0948 32.5105 43.113C32.5105 43.1312 32.5075 43.1494 32.5015 43.1615V43.1646ZM34.2966 43.2071C34.2725 43.2283 34.2454 43.2344 34.2213 43.2374C34.1942 43.2374 34.167 43.2404 34.1339 43.2404C34.1008 43.2404 34.0737 43.2404 34.0556 43.2404C34.0285 43.2404 34.0104 43.2344 33.9954 43.2283C33.9683 43.2162 33.9502 43.204 33.9351 43.1828C33.9291 43.1797 33.9201 43.1646 33.914 43.1464L33.7665 42.7215H33.0767L32.9382 43.1342C32.9322 43.1524 32.9231 43.1676 32.9111 43.1828C32.896 43.201 32.8779 43.2162 32.8569 43.2222C32.8478 43.2283 32.8267 43.2313 32.8026 43.2374C32.7454 43.2435 32.6792 43.2435 32.64 43.2374C32.6189 43.2374 32.5828 43.2283 32.5587 43.201C32.5376 43.1797 32.5256 43.1494 32.5256 43.113C32.5256 43.0857 32.5346 43.0583 32.5406 43.0341L33.1882 41.2314C33.1942 41.2132 33.2062 41.195 33.2183 41.1798C33.2303 41.1646 33.2514 41.1494 33.2815 41.1403C33.3026 41.1312 33.3267 41.1282 33.3508 41.1282C33.39 41.1282 33.4683 41.1282 33.5104 41.1282C33.5345 41.1282 33.5586 41.1312 33.5767 41.1373C33.6068 41.1464 33.6279 41.1616 33.643 41.1798C33.655 41.1919 33.6671 41.2132 33.6731 41.2344L34.3176 43.0341C34.3297 43.0644 34.3357 43.0887 34.3357 43.1099C34.3357 43.1494 34.3237 43.1828 34.2966 43.204V43.2071ZM34.3086 40.236C34.2875 40.2542 34.2604 40.2633 34.2273 40.2693C34.2032 40.2693 34.1761 40.2693 34.143 40.2693C34.1098 40.2693 34.0827 40.2693 34.0646 40.2693C34.0375 40.2693 34.0195 40.2633 34.0044 40.2572C33.9743 40.2481 33.9562 40.2299 33.9412 40.2117C33.9351 40.2026 33.9291 40.1904 33.9231 40.1753L33.7755 39.7504H33.0858L32.9472 40.1631C32.9472 40.1631 32.9352 40.1935 32.9261 40.2086C32.9111 40.2238 32.896 40.239 32.8749 40.2481C32.8539 40.2572 32.8358 40.2602 32.8117 40.2663C32.7665 40.2724 32.6942 40.2724 32.6521 40.2663C32.6159 40.2633 32.5918 40.2542 32.5737 40.236C32.5617 40.2238 32.5617 40.2026 32.5557 40.1874V40.1935C32.5436 40.2178 32.5286 40.2329 32.5105 40.2451C32.4924 40.2572 32.4713 40.2633 32.4472 40.2633H31.3117C31.2666 40.2633 31.2274 40.2481 31.1943 40.2178C31.1612 40.1844 31.1461 40.1389 31.1461 40.0842V40.0266C31.1461 40.0114 31.1461 39.9932 31.1461 39.981C31.1461 39.9659 31.1521 39.9477 31.1612 39.9264C31.1672 39.9143 31.1732 39.8961 31.1852 39.8748L31.1973 39.8536C31.1973 39.8536 31.2124 39.8293 31.2214 39.8141L32.0346 38.5365H31.2967C31.2756 38.5365 31.2545 38.5304 31.2334 38.5213C31.2093 38.5092 31.1973 38.4909 31.1883 38.4758C31.1762 38.4576 31.1702 38.4363 31.1672 38.412C31.1672 38.3969 31.1642 38.3756 31.1642 38.3544C31.1642 38.3301 31.1642 38.3089 31.1672 38.2906C31.1702 38.2664 31.1762 38.2482 31.1852 38.2299C31.1973 38.2087 31.2093 38.1966 31.2244 38.1814C31.2515 38.1662 31.2726 38.1632 31.2967 38.1632H32.3689C32.4141 38.1632 32.4563 38.1784 32.4864 38.2057C32.5195 38.2391 32.5346 38.2815 32.5346 38.3331V38.3938C32.5346 38.4151 32.5346 38.4302 32.5316 38.4485C32.5286 38.4697 32.5225 38.4849 32.5165 38.5031C32.5105 38.5183 32.5015 38.5395 32.4894 38.5577C32.4804 38.5729 32.4683 38.5941 32.4533 38.6154L31.6491 39.887H32.4472C32.4954 39.887 32.5346 39.9112 32.5557 39.9568C32.5647 39.9719 32.5647 39.9992 32.5677 40.0235L33.2002 38.2603C33.2093 38.2391 33.2183 38.2239 33.2273 38.2087C33.2514 38.1844 33.2725 38.1753 33.2906 38.1693C33.3147 38.1632 33.3358 38.1602 33.3599 38.1571C33.405 38.1571 33.4803 38.1571 33.5225 38.1571C33.5466 38.1571 33.5737 38.1632 33.5918 38.1693C33.6189 38.1784 33.64 38.1905 33.655 38.2057C33.6701 38.2208 33.6791 38.2391 33.6882 38.2573L34.3357 40.063C34.3447 40.0903 34.3508 40.1176 34.3508 40.1389C34.3508 40.1753 34.3387 40.2087 34.3146 40.2299L34.3086 40.236ZM36.1097 41.3315L35.4802 43.1342C35.4682 43.1585 35.4592 43.1737 35.4471 43.1888C35.426 43.2101 35.408 43.2222 35.3839 43.2283C35.3658 43.2344 35.3447 43.2374 35.3206 43.2404C35.2965 43.2404 35.2724 43.2404 35.2423 43.2404C35.2182 43.2404 35.1971 43.2404 35.1791 43.2404C35.17 43.2404 35.1429 43.2404 35.1278 43.2374C35.1128 43.2344 35.1007 43.2313 35.0887 43.2253C35.0797 43.2253 35.0676 43.2192 35.0525 43.2101C35.0315 43.1949 35.0224 43.1858 35.0134 43.1706C35.0104 43.1646 35.0044 43.1524 34.9983 43.1403L34.3658 41.3315C34.3568 41.3012 34.3508 41.2769 34.3508 41.2557C34.3508 41.2192 34.3628 41.1859 34.3899 41.1616C34.417 41.1434 34.4441 41.1343 34.4773 41.1312C34.5194 41.1282 34.5977 41.1282 34.6369 41.1312C34.658 41.1312 34.6761 41.1373 34.6971 41.1434C34.7242 41.1586 34.7423 41.1707 34.7544 41.1889C34.7634 41.201 34.7694 41.2132 34.7755 41.2253L35.2574 42.6456L35.7212 41.2375C35.7212 41.2375 35.7302 41.2101 35.7363 41.198C35.7483 41.1768 35.7664 41.1586 35.7935 41.1464C35.8176 41.1373 35.8417 41.1343 35.8628 41.1343C35.8989 41.1312 35.9802 41.1312 36.0194 41.1343C36.0585 41.1403 36.0856 41.1525 36.1067 41.1737C36.1308 41.198 36.1399 41.2314 36.1338 41.2678C36.1338 41.283 36.1278 41.3042 36.1188 41.3346L36.1097 41.3315ZM35.9893 39.6715C35.9531 39.541 35.935 39.3893 35.935 39.2254C35.935 39.0615 35.9531 38.9219 35.9923 38.7853C36.0314 38.6518 36.0917 38.5334 36.173 38.4394C36.2543 38.3422 36.3567 38.2664 36.4772 38.2148C36.7091 38.1146 37.0585 38.1116 37.2934 38.2057C37.4079 38.2512 37.5073 38.324 37.5856 38.4181C37.6639 38.5092 37.7211 38.6214 37.7573 38.7519C37.7934 38.8824 37.8115 39.0311 37.8115 39.192C37.8115 39.3528 37.7904 39.5046 37.7542 39.6381C37.7151 39.7747 37.6548 39.893 37.5735 39.9901C37.4922 40.0873 37.3928 40.1631 37.2693 40.2178C37.1488 40.2693 37.0133 40.2967 36.8537 40.2967C36.694 40.2967 36.5645 40.2724 36.4501 40.2238C36.3356 40.1783 36.2362 40.1055 36.1579 40.0144C36.0796 39.9234 36.0224 39.8081 35.9893 39.6745V39.6715ZM37.4741 42.8854C37.435 42.9703 37.3838 43.0371 37.3145 43.0948C37.2482 43.1494 37.1669 43.1919 37.0796 43.2222C36.9952 43.2495 36.9019 43.2617 36.7995 43.2617C36.7272 43.2617 36.6639 43.2556 36.6037 43.2435C36.5495 43.2344 36.4983 43.2192 36.4441 43.201C36.3959 43.1828 36.3567 43.1646 36.3236 43.1464C36.2904 43.1251 36.2664 43.1099 36.2483 43.0917C36.2242 43.0644 36.2121 43.0401 36.2031 43.0128C36.1941 42.9825 36.1911 42.9491 36.1911 42.9157C36.1911 42.8884 36.1911 42.8641 36.1971 42.8489C36.1971 42.8307 36.2061 42.8095 36.2091 42.7973C36.2242 42.77 36.2362 42.7549 36.2543 42.7427C36.3206 42.7093 36.3507 42.7184 36.42 42.764C36.4441 42.7791 36.4742 42.7974 36.5103 42.8156C36.5465 42.8338 36.5916 42.852 36.6428 42.8672C36.7272 42.8945 36.8537 42.9005 36.941 42.8732C36.9802 42.8611 37.0103 42.8459 37.0344 42.8247C37.0585 42.8034 37.0766 42.7822 37.0916 42.7518C37.1037 42.7245 37.1097 42.6881 37.1097 42.6486C37.1097 42.6092 37.1007 42.5758 37.0856 42.5515C37.0675 42.5212 37.0404 42.4939 37.0073 42.4696C36.9742 42.4453 36.932 42.421 36.8808 42.3968L36.7212 42.3209C36.6639 42.2966 36.6097 42.2663 36.5555 42.2329C36.4983 42.1965 36.4471 42.157 36.4019 42.1115C36.3537 42.0599 36.3145 42.0053 36.2874 41.9415C36.2573 41.8748 36.2423 41.7959 36.2423 41.7048C36.2423 41.6138 36.2603 41.5288 36.2935 41.456C36.3266 41.3831 36.3748 41.3194 36.435 41.2678C36.4953 41.2192 36.5675 41.1798 36.6459 41.1555C36.7693 41.1191 36.9049 41.107 37.0434 41.1312C37.0916 41.1403 37.1338 41.1494 37.179 41.1646C37.2181 41.1768 37.2573 41.195 37.2904 41.2101C37.3326 41.2314 37.3567 41.2466 37.3717 41.2678C37.3778 41.2739 37.3898 41.286 37.3988 41.2982C37.4079 41.3164 37.4139 41.3285 37.4169 41.3437C37.4169 41.3588 37.4229 41.371 37.4229 41.3892C37.4229 41.4013 37.4229 41.4195 37.4229 41.4408C37.4229 41.4651 37.4229 41.4833 37.4229 41.4984C37.4229 41.5136 37.4169 41.5349 37.4139 41.55C37.4109 41.5652 37.3988 41.5865 37.3838 41.6016C37.3235 41.6472 37.2904 41.6411 37.2181 41.6016C37.194 41.5865 37.1669 41.5713 37.1368 41.5561C37.1067 41.5409 37.0705 41.5258 37.0284 41.5136C36.9561 41.4893 36.8507 41.4863 36.7844 41.5136C36.7513 41.5258 36.7302 41.5379 36.7121 41.5561C36.6971 41.5713 36.682 41.5925 36.673 41.6107C36.6639 41.635 36.6609 41.6593 36.6609 41.6866C36.6609 41.7261 36.67 41.7564 36.685 41.7837C36.7031 41.8141 36.7302 41.8414 36.7633 41.8657C36.7995 41.893 36.8416 41.9173 36.8928 41.9415C36.947 41.9688 36.9982 41.9931 37.0555 42.0174C37.1097 42.0417 37.1669 42.072 37.2211 42.1054C37.2753 42.1358 37.3296 42.1782 37.3777 42.2238C37.4259 42.2723 37.4651 42.33 37.4952 42.3937C37.5253 42.4605 37.5404 42.5364 37.5404 42.6274C37.5404 42.7306 37.5223 42.8216 37.4832 42.9036L37.4741 42.8854ZM39.1608 41.3831C39.1548 41.4104 39.1518 41.4256 39.1457 41.4378C39.1277 41.4681 39.1126 41.4833 39.0976 41.4924C39.0765 41.5045 39.0554 41.5106 39.0373 41.5106H38.5735V43.116C38.5735 43.1403 38.5675 43.1615 38.5524 43.1828C38.5373 43.2101 38.5072 43.2192 38.4952 43.2253C38.4801 43.2313 38.462 43.2344 38.4379 43.2374C38.4229 43.2404 38.3958 43.2435 38.3657 43.2435C38.3355 43.2435 38.3114 43.2435 38.2904 43.2374C38.2723 43.2374 38.2512 43.2313 38.2331 43.2222C38.2181 43.2162 38.194 43.2071 38.1759 43.1767C38.1669 43.1646 38.1578 43.1433 38.1578 43.116V41.5106H37.694C37.6729 41.5106 37.6518 41.5045 37.6338 41.4924C37.6157 41.4833 37.6006 41.4651 37.5886 41.4408C37.5795 41.4195 37.5735 41.4044 37.5735 41.3862C37.5705 41.368 37.5675 41.3467 37.5675 41.3224C37.5675 41.3012 37.5675 41.2769 37.5735 41.2587C37.5735 41.2405 37.5826 41.2192 37.5886 41.2041C37.6006 41.1768 37.6157 41.1616 37.6338 41.1464C37.6548 41.1343 37.6759 41.1282 37.697 41.1282H39.0373C39.0584 41.1282 39.0765 41.1343 39.0976 41.1434C39.1186 41.1586 39.1337 41.1737 39.1427 41.1919C39.1518 41.2132 39.1548 41.2283 39.1608 41.2466C39.1638 41.2739 39.1668 41.2951 39.1668 41.3164C39.1668 41.3406 39.1668 41.3588 39.1638 41.3771L39.1608 41.3831ZM41.0282 41.3315L40.4017 43.1342C40.3957 43.1555 40.3836 43.1737 40.3656 43.1919C40.3445 43.2101 40.3264 43.2222 40.3083 43.2283C40.2873 43.2344 40.2662 43.2374 40.2421 43.2404C40.218 43.2404 40.1939 43.2404 40.1608 43.2404C40.1367 43.2404 40.1156 43.2404 40.0975 43.2404C40.0794 43.2344 40.0614 43.2404 40.0463 43.2344C40.0343 43.2344 40.0162 43.2283 40.0041 43.2253C39.9981 43.2253 39.98 43.2192 39.962 43.204C39.9499 43.1949 39.9379 43.1858 39.9288 43.1676C39.9258 43.1615 39.9198 43.1494 39.9138 43.1373L39.2813 41.3285C39.2692 41.2981 39.2632 41.2708 39.2632 41.2496C39.2632 41.2041 39.2843 41.1737 39.3024 41.1586C39.3295 41.1403 39.3566 41.1312 39.3897 41.1282C39.4349 41.1282 39.5132 41.1252 39.5493 41.1282C39.5704 41.1282 39.5915 41.1343 39.6126 41.1403C39.6367 41.1494 39.6487 41.1646 39.6548 41.1707C39.6758 41.198 39.6819 41.2132 39.6879 41.2253L40.1668 42.6426L40.6306 41.2344C40.6306 41.2344 40.6397 41.2071 40.6457 41.195C40.6607 41.1707 40.6788 41.1555 40.7059 41.1434C40.727 41.1343 40.7511 41.1312 40.7752 41.1312C40.8083 41.1282 40.8927 41.1252 40.9288 41.1312C40.9649 41.1373 40.9921 41.1464 41.0131 41.1677C41.0312 41.1889 41.0463 41.2192 41.0433 41.2617C41.0433 41.2799 41.0372 41.3042 41.0252 41.3346L41.0282 41.3315ZM42.9709 42.6062C42.9317 42.7397 42.8715 42.858 42.7932 42.9552C42.7149 43.0523 42.6125 43.1281 42.489 43.1828C42.3685 43.2344 42.2299 43.2586 42.0733 43.2586C41.9167 43.2586 41.7842 43.2344 41.6667 43.1858C41.5493 43.1403 41.4529 43.0674 41.3746 42.9734C41.2993 42.8823 41.242 42.767 41.2059 42.6335C41.1698 42.506 41.1517 42.3603 41.1517 42.1874C41.1517 42.0144 41.1698 41.8778 41.2089 41.7473C41.2481 41.6138 41.3083 41.4985 41.3896 41.4013C41.4709 41.3042 41.5733 41.2283 41.6938 41.1768C41.8143 41.1252 41.9498 41.0979 42.1095 41.0979C42.2571 41.0979 42.3926 41.1221 42.507 41.1677C42.6245 41.2162 42.7239 41.289 42.7992 41.3801C42.8775 41.4711 42.9347 41.5804 42.9709 41.7139C43.007 41.8414 43.0251 41.984 43.0251 42.154C43.0251 42.3239 43.004 42.4696 42.9649 42.6001L42.9709 42.6062ZM43.8745 40.2329C43.8504 40.2542 43.8232 40.2633 43.7901 40.2693C43.766 40.2693 43.7419 40.2693 43.7058 40.2693C43.6727 40.2693 43.6486 40.2693 43.6275 40.2693C43.6004 40.2693 43.5823 40.2633 43.5672 40.2572C43.5341 40.2451 43.516 40.2299 43.504 40.2117C43.501 40.2056 43.4919 40.1935 43.4889 40.1844L43.3383 39.7534H42.6486L42.5101 40.1662C42.501 40.1844 42.495 40.1965 42.489 40.2056C42.4739 40.2269 42.4558 40.239 42.4378 40.2481C42.4167 40.2572 42.3986 40.2633 42.3715 40.2663C42.3263 40.2724 42.254 40.2663 42.2119 40.2663C42.1787 40.2633 42.1516 40.2542 42.1336 40.236C42.1215 40.2238 42.1155 40.2117 42.1095 40.1995C42.0974 40.2178 42.0854 40.236 42.0673 40.2481C42.0522 40.2602 42.0312 40.2663 42.0041 40.2663H40.8655C40.8204 40.2663 40.7782 40.2511 40.7481 40.2208C40.715 40.1844 40.7029 40.1419 40.7029 40.0873V40.0296C40.7029 40.0144 40.7029 39.9962 40.7029 39.9841C40.7029 39.9628 40.7119 39.9446 40.718 39.9294C40.724 39.9143 40.733 39.893 40.7451 39.8748C40.7511 39.8627 40.7631 39.8414 40.7752 39.8202L41.5884 38.5395H40.8535C40.8264 38.5395 40.8083 38.5334 40.7963 38.5274C40.7692 38.5122 40.7541 38.494 40.7451 38.4788C40.733 38.4545 40.727 38.4363 40.724 38.4151C40.724 38.3999 40.721 38.3787 40.721 38.3574C40.721 38.3331 40.721 38.3119 40.724 38.2937C40.724 38.2694 40.733 38.2542 40.739 38.2391C40.7541 38.2117 40.7662 38.1966 40.7812 38.1844C40.8143 38.1693 40.8324 38.1662 40.8535 38.1662H41.9257C41.9709 38.1662 42.0131 38.1814 42.0432 38.2087C42.0763 38.2451 42.0914 38.2846 42.0914 38.3362V38.3969C42.0914 38.4181 42.0914 38.4333 42.0884 38.4515C42.0884 38.4667 42.0794 38.4849 42.0733 38.5061C42.0673 38.5183 42.0613 38.5334 42.0553 38.5486C42.0372 38.579 42.0251 38.5972 42.0131 38.6184L41.2089 39.89H42.0071C42.0522 39.89 42.0914 39.9143 42.1155 39.9568C42.1245 39.975 42.1245 40.0023 42.1275 40.0296L42.76 38.2633C42.7661 38.2451 42.7751 38.2269 42.7872 38.2117C42.8112 38.1875 42.8353 38.1784 42.8504 38.1723C42.8715 38.1662 42.8926 38.1632 42.9167 38.1602C42.9618 38.1602 43.0371 38.1602 43.0793 38.1602C43.1034 38.1602 43.1275 38.1662 43.1456 38.1693C43.1727 38.1784 43.1938 38.1905 43.2118 38.2117C43.2239 38.2269 43.2359 38.2451 43.245 38.2664L43.8895 40.069C43.9016 40.0994 43.9076 40.1237 43.9076 40.1449C43.9076 40.1904 43.8895 40.2178 43.8745 40.236V40.2329ZM42.1908 36.0904L40.2421 29.0527H42.1818L42.9679 32.2605C43.0402 32.5427 43.0823 32.7339 43.1335 33.0617C43.1847 32.746 43.2299 32.5579 43.3022 32.2605L44.0883 29.0527H46.025L44.0763 36.0904H42.1908ZM45.6123 39.6958C45.6123 39.7777 45.6063 39.8536 45.5882 39.9234C45.5702 39.9992 45.5431 40.066 45.5009 40.1176C45.4587 40.1753 45.4045 40.2178 45.3382 40.2451C45.275 40.2724 45.1967 40.2876 45.1033 40.2876C45.0702 40.2876 45.0401 40.2876 45.0069 40.2785C44.9768 40.2724 44.9497 40.2663 44.9226 40.2602C44.8955 40.2511 44.8714 40.242 44.8533 40.2329C44.8232 40.2178 44.8051 40.2056 44.7931 40.1904C44.7901 40.1904 44.781 40.1753 44.772 40.1631C44.766 40.1571 44.76 40.1419 44.7569 40.1237C44.7539 40.1115 44.7509 40.0964 44.7479 40.0782C44.7479 40.063 44.7479 40.0478 44.7479 40.0266C44.7479 40.0023 44.7479 39.981 44.7479 39.9659C44.7509 39.9385 44.7539 39.9203 44.763 39.9052C44.778 39.8779 44.7901 39.8627 44.8081 39.8505C44.8413 39.8293 44.9106 39.8384 44.9407 39.8566L44.9708 39.8748C44.9919 39.8839 45.0099 39.893 45.028 39.8991C45.0611 39.9112 45.1154 39.9082 45.1455 39.8991C45.1545 39.8991 45.1605 39.89 45.1666 39.8809C45.1726 39.8718 45.1816 39.8536 45.1907 39.8141C45.1967 39.7807 45.1997 39.7322 45.1997 39.6745V38.2876C45.1997 38.2664 45.2057 38.2451 45.2178 38.2269C45.2328 38.2057 45.2539 38.1905 45.278 38.1784C45.2931 38.1723 45.3111 38.1693 45.3352 38.1632C45.3804 38.1632 45.4376 38.1632 45.4738 38.1632C45.5039 38.1662 45.522 38.1723 45.54 38.1784C45.5641 38.1875 45.5822 38.2026 45.5973 38.2239C45.6063 38.236 45.6153 38.2603 45.6153 38.2846V39.6988L45.6123 39.6958ZM47.4767 40.236C47.4466 40.2602 47.4165 40.2663 47.3954 40.2693C47.3713 40.2693 47.3442 40.2693 47.3111 40.2693C47.2779 40.2693 47.2508 40.2693 47.2327 40.2693C47.2056 40.2693 47.1876 40.2633 47.1725 40.2572C47.1424 40.2481 47.1243 40.2329 47.1123 40.2147C47.1002 40.1965 47.0942 40.1874 47.0912 40.1753L46.9436 39.7504H46.2539L46.1153 40.1631C46.1093 40.1813 46.1003 40.1965 46.0912 40.2086C46.0792 40.2238 46.0611 40.239 46.043 40.2481C46.0219 40.2572 46.0039 40.2633 45.9768 40.2663C45.9316 40.2724 45.8623 40.2724 45.8171 40.2663C45.781 40.2633 45.7569 40.2511 45.7358 40.2329C45.7177 40.2117 45.6997 40.1844 45.6997 40.1389C45.6997 40.1206 45.7057 40.0964 45.7147 40.066L46.3623 38.2633C46.3713 38.2421 46.3804 38.2269 46.3924 38.2117C46.4135 38.1905 46.4316 38.1814 46.4557 38.1723C46.4798 38.1662 46.5008 38.1632 46.5249 38.1602C46.5701 38.1602 46.6454 38.1602 46.6876 38.1602C46.7117 38.1602 46.7358 38.1662 46.7569 38.1693C46.781 38.1784 46.802 38.1905 46.8171 38.2057C46.8322 38.2239 46.8442 38.2391 46.8532 38.2603L47.5008 40.066C47.5098 40.0933 47.5159 40.1206 47.5159 40.1419C47.5159 40.1783 47.5038 40.2117 47.4797 40.2329L47.4767 40.236ZM48.4646 43.9475C48.299 43.9354 48.1363 43.9202 47.9737 43.9081C47.9857 43.4468 48.1514 43.6957 48.4887 43.7017C48.4827 43.7837 48.4736 43.8656 48.4676 43.9506L48.4646 43.9475ZM49.1031 38.3574L48.4736 40.1662C48.4676 40.1874 48.4556 40.2087 48.4375 40.2238C48.4224 40.239 48.4014 40.2511 48.3773 40.2602C48.3592 40.2663 48.3381 40.2693 48.311 40.2724C48.2869 40.2724 48.2628 40.2724 48.2327 40.2724C48.1845 40.2724 48.1484 40.2724 48.1213 40.2663C48.1062 40.2663 48.0881 40.2602 48.0791 40.2572C48.064 40.2572 48.052 40.2451 48.0429 40.242C48.0249 40.2269 48.0128 40.2178 48.0038 40.2026C47.9978 40.1935 47.9917 40.1813 47.9857 40.1692L47.3562 38.3635C47.3442 38.3331 47.3412 38.3089 47.3412 38.2846C47.3382 38.2512 47.3532 38.2148 47.3833 38.1905C47.4014 38.1753 47.4285 38.1632 47.4647 38.1602C47.5128 38.1602 47.5881 38.1602 47.6273 38.1602C47.6514 38.1602 47.6725 38.1662 47.6905 38.1753C47.7116 38.1844 47.7267 38.1966 47.7418 38.2148L47.7538 38.233C47.7538 38.233 47.7628 38.2512 47.7658 38.2603L48.2447 39.6776L48.7086 38.2694C48.7086 38.2694 48.7176 38.2421 48.7236 38.233C48.7387 38.2057 48.7568 38.1905 48.7839 38.1784C48.805 38.1693 48.8291 38.1662 48.8531 38.1632C48.8953 38.1632 48.9736 38.1632 49.0128 38.1632C49.0519 38.1693 49.079 38.1814 49.0971 38.2057C49.1122 38.2178 49.1272 38.2542 49.1242 38.2937C49.1242 38.3149 49.1152 38.3362 49.1092 38.3574H49.1031ZM49.1995 44.0082C49.2086 43.896 49.2176 43.7867 49.2266 43.6774C49.4857 43.6592 49.5519 43.8079 49.6152 43.9567C49.5158 44.0204 49.3863 44.0477 49.1995 44.0082ZM50.838 44.1448C50.5368 44.1205 50.2356 44.0963 49.9374 44.0689C49.9133 43.6653 50.9043 43.814 50.838 44.1448ZM50.8862 40.0782C50.8862 40.1085 50.8802 40.1328 50.8681 40.1601C50.8561 40.1844 50.841 40.2026 50.8229 40.2208C50.8019 40.239 50.7808 40.2511 50.7567 40.2572C50.7356 40.2633 50.7145 40.2663 50.6934 40.2663H50.6091C50.573 40.2663 50.5428 40.2633 50.5187 40.2572C50.4886 40.2481 50.4615 40.2329 50.4344 40.2117C50.4133 40.1965 50.3892 40.1722 50.3651 40.1358C50.3441 40.1085 50.326 40.0751 50.3019 40.0296L49.7146 38.928C49.7055 38.9098 49.6935 38.8915 49.6844 38.8703V40.1449C49.6844 40.1692 49.6784 40.1904 49.6664 40.2117C49.6513 40.2299 49.6332 40.2451 49.6091 40.2542C49.5911 40.2602 49.573 40.2633 49.5519 40.2663C49.5338 40.2663 49.5097 40.2724 49.4796 40.2724C49.4495 40.2724 49.4224 40.2724 49.4043 40.2663C49.3832 40.2663 49.3652 40.2602 49.3501 40.2542C49.329 40.2451 49.311 40.2329 49.2959 40.2147C49.2778 40.1874 49.2718 40.1662 49.2718 40.1449V38.3544C49.2718 38.2724 49.3079 38.2269 49.3381 38.2057C49.3712 38.1784 49.4134 38.1662 49.4585 38.1662H49.585C49.6242 38.1662 49.6543 38.1662 49.6814 38.1784C49.7115 38.1844 49.7387 38.1966 49.7627 38.2148C49.7868 38.233 49.8049 38.2542 49.826 38.2785C49.8441 38.2998 49.8621 38.3301 49.8802 38.3665L50.4796 39.4955V38.2846C50.4796 38.2603 50.4856 38.2391 50.4977 38.2208C50.5127 38.1966 50.5338 38.1844 50.5489 38.1784C50.5669 38.1693 50.585 38.1662 50.6121 38.1632C50.6513 38.1571 50.7145 38.1571 50.7537 38.1632C50.7838 38.1662 50.8019 38.1723 50.8169 38.1784C50.835 38.1875 50.8531 38.1996 50.8681 38.2208C50.8802 38.2421 50.8892 38.2633 50.8892 38.2846V40.0751L50.8862 40.0782ZM52.8891 39.6381C52.853 39.7716 52.7927 39.887 52.7114 39.9871C52.6301 40.0873 52.5277 40.1631 52.4072 40.2147C52.2897 40.2663 52.1482 40.2936 51.9916 40.2936C51.8349 40.2936 51.6994 40.2693 51.585 40.2238C51.4705 40.1783 51.3711 40.1055 51.2928 40.0114C51.2175 39.9173 51.1603 39.802 51.1241 39.6715C51.088 39.541 51.0699 39.3923 51.0699 39.2254C51.0699 39.0585 51.088 38.9189 51.1271 38.7853C51.1663 38.6488 51.2265 38.5334 51.3079 38.4394C51.3892 38.3422 51.4916 38.2664 51.6121 38.2148C51.7325 38.1632 51.8711 38.1359 52.0307 38.1359C52.1813 38.1359 52.3138 38.1601 52.4283 38.2057C52.5458 38.2542 52.6452 38.324 52.7205 38.4181C52.7988 38.5092 52.856 38.6214 52.8921 38.7519C52.9283 38.8794 52.9463 39.0281 52.9463 39.192C52.9463 39.3559 52.9283 39.5076 52.8861 39.6381H52.8891ZM49.2778 36.3575C47.1906 36.3575 45.5069 34.7096 45.5069 32.652C45.5069 30.5944 47.1394 28.8433 49.2899 28.8433C51.4404 28.8433 53.0488 30.5003 53.0488 32.6004C53.0488 34.7005 51.3832 36.3575 49.2778 36.3575ZM53.2656 21.7721C53.1843 21.7661 53.103 21.757 53.0186 21.7509C52.9825 21.4353 53.2566 21.4899 53.3831 21.3655C53.3981 21.5688 53.2174 21.5324 53.2656 21.7721ZM60.2472 29.0011C60.5454 29.696 60.8074 28.561 60.2472 29.0011V29.0011ZM59.3075 25.4352C59.4973 25.4261 59.6147 25.4807 59.6208 25.6264C59.5093 25.6446 59.4551 25.7326 59.2864 25.681C59.2925 25.599 59.3015 25.5171 59.3075 25.4352ZM53.5036 22.8707C53.4975 22.7129 53.609 22.6978 53.612 22.549C53.8168 22.5551 54.0096 22.5642 54.0065 22.7463C53.8559 22.81 53.7806 22.9618 53.5005 22.8738L53.5036 22.8707ZM55.0065 44.4968C54.8107 44.3997 54.4915 44.7487 54.5246 44.3694C54.5366 44.248 55.145 44.2419 55.0065 44.4968ZM54.7716 26.464C54.8378 26.3547 55.4553 26.1635 55.4252 26.5186C55.2113 26.4549 54.8951 26.7189 54.7716 26.464ZM55.8408 33.4471C55.6239 33.4501 55.4282 33.438 55.5336 33.1679C55.6872 33.2164 55.883 33.2286 55.8408 33.4471ZM56.3588 27.1802C56.0998 27.1984 56.0336 27.0527 55.9703 26.901C56.2052 26.904 56.4161 26.9283 56.3588 27.1802ZM57.4883 42.3816C57.2413 42.3361 56.8468 42.418 56.8468 42.16C57.145 42.2329 57.5154 41.9355 57.4883 42.3816ZM57.0004 27.3987C56.8558 27.2652 56.654 27.1832 56.7143 26.8767C56.8076 26.8676 56.8498 26.7948 56.892 26.725C57.2564 26.7705 57.5305 26.8919 57.5064 27.2743C57.2504 27.2136 57.2986 27.511 57.0034 27.3987H57.0004ZM58.3467 42.9521C58.2985 42.9521 58.2503 42.9582 58.2594 43.028C58.0425 43.0341 58.0003 42.8914 58.0395 42.679C58.2564 42.6729 58.3889 42.7397 58.3467 42.9552V42.9521ZM58.5455 35.5806C58.5304 35.4683 58.4431 35.4136 58.4913 35.2437C58.5726 35.2498 58.6539 35.2558 58.7352 35.2649C58.7413 35.4531 58.6901 35.5715 58.5455 35.5806ZM59.678 37.8354C59.5364 37.7747 59.187 37.8931 59.1931 37.711C59.3527 37.6898 59.3617 37.4895 59.6177 37.5805C59.6117 37.6867 59.7141 37.7049 59.678 37.8354ZM59.678 26.8797C59.946 26.8979 60.0093 26.6703 60.3466 26.7705C60.1298 27.1832 60.3918 27.2469 60.3526 27.684C60.199 27.6536 60.1629 27.7629 60.0183 27.7386C59.9159 27.4412 59.6117 27.3228 59.681 26.8797H59.678ZM60.5755 40.9006C60.3587 40.9067 60.1629 40.8915 60.2683 40.6244C60.3767 40.6335 60.4852 40.6426 60.5966 40.6517C60.5906 40.7367 60.5816 40.8156 60.5755 40.9006ZM60.3647 35.4865C60.4731 35.3438 60.7954 35.4561 60.952 35.3681C61.1056 35.7626 60.3195 35.8051 60.3647 35.4865ZM61.0273 35.4561C61.2201 35.4743 61.2803 35.3347 61.5243 35.4136C61.6116 35.796 60.9309 35.8385 61.0273 35.4561ZM61.0755 34.8795C61.3375 34.8947 61.5875 34.7612 61.6357 35.0919C61.4791 35.2164 61.0273 35.1587 61.0755 34.8795ZM61.9761 33.96C61.9821 33.875 61.9881 33.793 61.9972 33.7111C62.1417 33.7445 62.4158 33.6625 62.3104 33.9053C62.199 33.9205 62.1447 34.0116 61.9761 33.963V33.96Z" fill="#80BC00"/>
<path d="M42.4955 41.6695C42.4563 41.6118 42.4051 41.5663 42.3449 41.536C42.2816 41.5026 42.2003 41.4844 42.1009 41.4844C42.0015 41.4844 41.9202 41.5026 41.8599 41.539C41.7937 41.5754 41.7425 41.624 41.7033 41.6816C41.6612 41.7423 41.631 41.8152 41.616 41.8971C41.5979 41.9821 41.5889 42.0762 41.5889 42.1763C41.5889 42.2886 41.5979 42.3857 41.616 42.4768C41.631 42.5617 41.6612 42.6376 41.7003 42.6953C41.7364 42.756 41.7877 42.7985 41.8509 42.8318C41.9774 42.8956 42.2093 42.8986 42.3418 42.8258C42.4051 42.7893 42.4563 42.7408 42.4985 42.6801C42.5376 42.6164 42.5677 42.5405 42.5858 42.4585C42.6039 42.3705 42.6129 42.2765 42.6129 42.1793C42.6129 42.0731 42.6039 41.976 42.5858 41.888C42.5677 41.803 42.5406 41.7272 42.5015 41.6695H42.4955Z" fill="#80BC00"/>
<path d="M46.377 39.3916H46.8257L46.5998 38.7422L46.377 39.3916Z" fill="#80BC00"/>
</g>
<defs>
<clipPath id="clip0_4864_19475">
<rect width="69" height="55" fill="white" transform="translate(0 0.535156)"/>
</clipPath>
</defs>
</svg>
