<svg width="442" height="281" viewBox="0 0 442 281" fill="none" xmlns="http://www.w3.org/2000/svg">
<g clip-path="url(#clip0_4854_18122)">
<path d="M264.83 274.778C267.54 275.778 269.55 274.578 271.15 273.308C275.623 269.896 279.89 266.223 283.93 262.308C287.476 258.569 290.792 254.618 293.86 250.478C295.018 249.08 295.821 247.423 296.2 245.648C298.2 233.398 304.15 223.188 312.3 214.118C315.64 210.388 319.12 206.758 323.71 204.558C325.009 203.91 326.479 203.689 327.91 203.928C330.66 204.588 331.91 206.368 330.25 209.108C326.8 214.798 323.56 220.638 319.76 226.108C314.34 233.858 308.76 241.518 302.76 248.838C295.91 257.188 288.68 265.238 281.34 273.168C277.678 277.102 272.859 279.767 267.58 280.778C262.74 281.778 259.41 279.338 257.96 274.558C256.81 270.768 257.54 267.038 258.63 263.768C262.29 252.768 265.22 241.508 270.94 231.288C273.04 227.548 274.64 223.528 276.6 219.698C277.69 217.558 279.05 215.548 279.6 213.048L269.6 226.268C267.19 229.458 264.91 232.758 262.3 235.778C259.89 238.568 257.05 240.858 252.62 239.778C250.98 242.288 249.24 244.908 247.53 247.548C244.756 251.943 240.779 255.449 236.07 257.648C233.572 258.832 230.844 259.453 228.079 259.467C225.314 259.481 222.58 258.887 220.07 257.728C215.21 255.668 213.62 252.448 214.81 247.298C215.688 244.282 216.271 241.187 216.55 238.058C211.11 244.488 205.42 250.718 200.37 257.438C198.24 260.288 195.96 260.648 193.08 260.298C191.47 260.098 189.24 259.758 189.24 257.828C189.24 256.228 190.1 253.938 191.34 253.138C202.66 245.838 210.2 234.988 218.6 224.908C221.255 221.684 223.412 218.081 225 214.218C228.77 205.358 232.54 196.498 236.55 187.748C238.31 183.908 240.65 180.338 242.71 176.638C244.77 172.938 246.58 169.328 248.71 165.778C253.31 158.108 257.51 150.118 262.81 142.948C272.76 129.488 282.01 115.448 293.81 103.418C295.9 101.288 297.54 98.7182 299.62 96.5782C307 88.9982 314.45 81.4882 321.93 73.9982C333.528 62.5405 345.948 51.9456 359.09 42.2982C377.7 28.3682 397.6 16.6582 419.55 8.76824C423.804 7.37924 428.147 6.28334 432.55 5.48824C434.026 5.22635 435.543 5.31195 436.98 5.73824C440.69 6.73824 442.33 10.3882 440.16 13.5282C437.84 16.9405 435.158 20.0921 432.16 22.9282C426 28.6982 419.57 34.2682 413.06 39.6982C402.06 48.8382 390.81 57.6382 379.94 66.8982C369.07 76.1582 358.2 85.9982 347.41 95.6882C341.41 101.008 335.41 106.278 329.78 111.898C319.514 122.078 309.374 132.412 299.36 142.898C289.26 153.452 279.307 164.152 269.5 174.998C262.14 183.148 255.06 191.568 247.96 199.998C241.29 207.878 234.76 215.868 228.16 223.808C227.74 224.318 227.09 224.738 226.88 225.328C224.03 233.628 220.45 241.778 221.42 250.888C221.522 251.201 221.674 251.495 221.87 251.758C228.14 254.878 235.6 253.528 241.42 245.618C243.7 242.528 246.9 239.758 246.42 235.118C246.25 233.438 247.82 232.178 249.84 232.248C254.84 232.428 258.35 229.388 261.03 225.978C268.6 216.308 275.47 206.078 283.08 196.448C291.32 186.018 300.08 176.008 308.64 165.818C313.45 160.078 318.17 154.258 323.12 148.638C326.52 144.768 330.12 141.028 333.85 137.508C337.58 133.988 340.38 134.508 343.11 139.648C341.69 140.948 340.23 142.278 338.78 143.648C327.35 154.208 318.11 166.648 309.37 179.378C301.29 191.158 293.12 202.948 286.15 215.378C277.95 229.978 270.49 245.068 266.02 261.378C264.84 265.738 263.56 270.228 264.83 274.778ZM432.83 12.5682C428 12.4582 424.44 13.8782 420.83 15.0882C404.15 20.7482 389.07 29.6582 374.54 39.2982C351 54.8882 329.85 73.4282 310.22 93.6282C295.72 108.279 282.48 124.125 270.64 140.998C264.43 149.998 258.39 159.178 252.78 168.578C247.68 177.128 243.19 186.048 238.61 194.888C236.9 198.198 235.69 201.758 234.26 205.208C237.49 202.208 240.05 198.888 242.84 195.728C250.84 186.648 258.924 177.612 267.09 168.618C274.9 159.978 282.66 151.288 290.66 142.838C299.12 133.908 307.66 125.088 316.48 116.478C326.23 106.918 336.11 97.4782 346.19 88.2982C353.8 81.2982 361.77 74.8082 369.67 68.1782C381.14 58.5582 392.78 49.1782 404.16 39.3982C412.75 32.0482 421.07 24.3982 429.45 16.7682C430.665 15.4545 431.778 14.0505 432.78 12.5682H432.83Z" fill="white"/>
<path d="M0 239.561C2.56 236.281 5.05 232.971 7.67 229.781C17.39 218.001 27 206.001 36.94 194.401C47.76 181.771 58.6 169.141 70 157.001C80.94 145.381 92.43 134.271 104 123.261C119.52 108.481 136.24 95.0005 153.32 82.0005C169.32 69.8205 185.97 58.4605 202.89 47.5205C217.73 37.9405 233.14 29.3605 248.77 21.2305C262.18 14.2179 276.087 8.20161 290.38 3.23053C293.48 2.04661 296.657 1.07765 299.89 0.330533C304.34 -0.529467 305.11 0.100534 307.72 5.05053C306.862 6.14973 305.889 7.1553 304.82 8.05053C294.823 14.9596 284.223 20.9538 273.15 25.9605C272.352 26.1348 271.536 26.212 270.72 26.1905C272.43 22.6405 275.62 21.7805 277.97 20.0205C280.64 18.0205 283.47 16.2705 286.24 14.4205C288.84 12.6805 291.45 10.9605 294.06 9.23053L293.67 8.23053C291.88 8.78053 290.07 9.23053 288.33 9.90053C272.42 15.8188 256.922 22.7909 241.94 30.7705C227.793 38.1851 214.078 46.3949 200.86 55.3605C190.56 62.3605 180.03 69.0905 169.86 76.3605C160.96 82.7605 152.46 89.7105 143.86 96.4505C138.86 100.331 133.78 104.081 129.09 108.271C118.09 118.121 107.09 127.951 96.5 138.271C86.41 148.131 76.7 158.401 67.22 168.861C57.74 179.321 48.22 190.261 39.27 201.401C29.38 213.701 19.08 225.751 11.33 239.621C9.79 242.381 7.05 242.621 4.51 243.091C2.41 243.511 1.15 242.121 0 239.561Z" fill="white"/>
<path d="M93.4604 259.531L96.0504 259.711L94.7004 263.291C93.9604 262.991 93.3204 262.931 93.1504 262.611C92.601 261.84 92.2569 260.941 92.1504 260.001C92.3028 258.686 92.5979 257.392 93.0304 256.141C95.1504 248.331 97.0304 240.461 99.4704 232.731C101.47 226.281 104.03 220.001 106.3 213.631C108.51 207.421 110.4 201.081 112.91 194.991C117.4 184.111 121.99 173.261 127 162.611C137.1 141.111 149 120.531 160.67 99.8707C162.47 96.7007 164.07 93.4107 165.85 90.2207C167.47 87.3507 169.54 86.6007 171.95 87.8307C174.51 89.1307 175.17 91.6107 173.35 94.5807C168.65 102.221 163.64 109.681 159.07 117.391C152.55 128.391 146.07 139.391 140.07 150.671C134.89 160.301 130.07 170.161 125.52 180.101C121.52 188.691 118.1 197.511 114.52 206.271C112.52 211.181 110.52 216.111 108.83 221.131C105.13 231.951 101.544 242.811 98.0704 253.711C97.2704 256.231 96.4404 258.311 93.0704 258.231L93.4604 259.531Z" fill="white"/>
<path d="M119.43 270.421C118.85 268.791 118.43 268.181 118.5 267.691C118.772 266.216 119.211 264.776 119.81 263.401C122.01 258.562 123.463 253.416 124.12 248.141C124.409 246.182 125.035 244.287 125.97 242.541C126.506 241.485 127.436 240.683 128.559 240.309C129.682 239.935 130.908 240.018 131.97 240.541C134.22 241.431 134.88 242.961 134.23 245.841C133.94 247.091 133.61 248.331 133.3 249.551C133.87 249.761 134.2 250.011 134.4 249.941C135.73 249.431 137.31 248.021 138.33 249.791C138.93 250.841 138.67 252.621 138.33 253.941C137.47 257.041 135.21 258.801 132.01 258.421C126.15 257.741 123.55 261.151 121.72 265.871C121.17 267.111 120.47 268.311 119.43 270.421Z" fill="white"/>
</g>
<defs>
<clipPath id="clip0_4854_18122">
<rect width="441.17" height="280.93" fill="white"/>
</clipPath>
</defs>
</svg>
