<svg width="76" height="54" viewBox="0 0 76 54" fill="none" xmlns="http://www.w3.org/2000/svg">
<g clip-path="url(#clip0_4854_17848)">
<path d="M37.9559 53.361C28.5888 53.361 19.2227 53.361 9.85758 53.361C8.6406 53.3282 7.45644 52.9592 6.43624 52.295C5.45188 51.7557 4.59422 51.0122 3.92066 50.1144C3.2471 49.2167 2.77324 48.1853 2.53083 47.0895C2.51599 47.0182 2.49819 46.9469 2.4774 46.8786C2.4549 46.621 2.38334 46.37 2.26654 46.1392C2.1329 45.964 1.82102 45.9433 1.63094 45.7978C0.683542 45.0762 -0.0351706 44.2269 0.00343823 42.9322C0.0212577 42.27 -0.0292018 41.5959 0.330157 41.0109C0.986508 39.9449 1.84181 39.1491 3.19312 39.1402C3.47229 39.1402 3.54656 39.057 3.58219 38.769C3.79457 36.7417 4.51583 34.801 5.67897 33.127C5.74134 33.029 5.75916 32.9814 5.67897 32.8834C5.05237 32.0793 4.49592 31.223 4.01579 30.3237C3.46339 29.3201 2.92881 28.3075 2.46848 27.2622C2.33479 26.8949 2.33479 26.4922 2.46848 26.1249C2.80093 25.2645 3.20426 24.4331 3.67428 23.6394C4.26826 22.5823 4.91571 21.5608 5.60769 20.5601C6.24733 19.6106 6.95711 18.7103 7.73115 17.8668C8.40829 17.1541 9.03199 16.382 9.75368 15.7258C10.704 14.8349 11.7019 14.0213 12.7236 13.2344C14.518 11.8965 16.4505 10.7546 18.4882 9.82837C20.2763 8.97875 22.1514 8.32559 24.0805 7.88037C24.4815 7.79129 24.8705 7.65174 25.2685 7.60126C25.5655 7.56266 25.6902 7.45278 25.8208 7.14989C26.3006 5.94984 27.0064 4.85306 27.8998 3.91909C28.075 3.74686 28.2532 3.57462 28.4225 3.39348C30.0084 1.70681 32.0101 0.765486 34.2108 0.201284C34.7577 0.0803227 35.317 0.0244866 35.877 0.0349751C37.8787 0.0171582 39.8804 0.0349969 41.8821 0.0201495C42.4228 0.00940565 42.957 0.138859 43.4327 0.395939C43.9084 0.653019 44.3094 1.02894 44.5966 1.48706C45.4876 2.74612 45.5025 4.37046 44.4957 5.85817C43.8572 6.7995 43.2067 7.73786 42.5652 8.67918C42.3514 8.97613 42.3484 9.0058 42.6781 9.13052C43.7923 9.54941 44.8761 10.0455 45.9213 10.6153C47.0676 11.2507 48.1952 11.9189 49.304 12.6197C50.7414 13.5263 52.162 14.4558 53.5658 15.408C54.6498 16.1474 55.6982 16.9343 56.7495 17.7183C57.4504 18.2409 58.1335 18.7903 58.8285 19.3366C58.9889 19.4643 59.0483 19.3367 59.1255 19.2506C59.4937 18.7101 59.8323 18.1459 60.2273 17.6262C61.0918 16.5282 62.0683 15.5231 63.1408 14.627C64.383 13.6059 65.7539 12.7523 67.2185 12.0882C68.2696 11.6014 69.3711 11.2319 70.5031 10.9864C70.9176 10.8603 71.3594 10.8541 71.7772 10.9686C72.9058 11.3042 73.5592 12.0733 73.5592 13.2255C73.5592 15.6456 73.5325 18.0657 73.5592 20.4858C73.5859 22.2438 72.9266 23.7523 72 25.1747C71.681 25.5838 71.3197 25.9581 70.9219 26.2912C70.4586 26.7544 70.5032 26.6772 70.9428 27.1405C71.3638 27.5506 71.7539 27.9913 72.1099 28.4589C72.7825 29.3839 73.2345 30.4504 73.4315 31.5769C73.4979 31.9337 73.5366 32.295 73.5473 32.6578C73.5473 34.683 73.5473 36.7082 73.5473 38.7334C73.5473 39.0867 73.4998 39.4579 74.0255 39.4579C74.9521 40.028 75.6887 40.7793 75.8995 41.8661C76.2411 43.6478 75.5639 45.0643 74.0047 45.9522C73.8727 46.0187 73.7593 46.1171 73.6748 46.2384C73.5903 46.3597 73.5373 46.5002 73.5206 46.647C73.2556 47.9563 72.696 49.1881 71.8842 50.249C70.6958 51.7687 69.0159 52.8279 67.1323 53.2452C66.7296 53.3406 66.3166 53.3865 65.9027 53.3818L37.9559 53.361ZM71.1803 16.9195C71.1803 15.9069 71.1803 14.8943 71.1803 13.8817C71.1803 13.5254 71.0615 13.4125 70.7467 13.5105C69.2106 13.9485 67.7402 14.5907 66.375 15.4199C65.6385 15.895 64.9791 16.477 64.2961 17.0086C63.6642 17.5468 63.0917 18.1511 62.5884 18.8111C61.8088 19.7433 61.1529 20.7723 60.6371 21.8726C60.1738 22.8317 59.1818 22.998 58.4067 22.2735C58.282 22.1547 58.1721 22.0181 58.0355 21.9112C56.9782 21.0916 55.9189 20.277 54.8577 19.4673C52.8678 17.9499 50.8186 16.5216 48.6921 15.2031C46.996 14.1154 45.24 13.124 43.4324 12.2337C42.2334 11.6624 40.9923 11.1838 39.72 10.8023C38.0557 10.3202 36.3624 9.94432 34.6504 9.67693C33.8504 9.57583 33.0452 9.52227 32.2389 9.51656C31.7459 9.49578 31.2499 9.51656 30.7539 9.51656C30.3589 9.51656 29.9283 9.41856 29.5659 9.54328C28.9007 9.77193 28.2176 9.59081 27.5464 9.7868C26.8752 9.98278 26.0614 9.95307 25.3279 10.1342C23.4273 10.5857 21.5737 11.2161 19.7919 12.0169C18.347 12.6643 16.9566 13.427 15.634 14.2974C14.3216 15.1416 13.0942 16.1112 11.9692 17.1927C11.8118 17.3501 11.6484 17.4896 11.4821 17.65C11.1399 17.9295 10.8129 18.2268 10.5021 18.5408C9.9794 19.1199 9.48043 19.7286 8.99634 20.3225C8.29316 21.1608 7.6339 22.035 7.0213 22.9416C6.34713 24.0077 5.80664 25.1569 5.19484 26.2585C5.11032 26.3917 5.06548 26.5462 5.06548 26.704C5.06548 26.8617 5.11032 27.0162 5.19484 27.1494C5.41164 27.5295 5.57795 27.9392 5.78882 28.3193C6.2343 29.1003 6.69764 29.8694 7.15501 30.6385C7.27677 30.8375 7.43117 30.9087 7.63609 30.7306C7.9123 30.49 8.18258 30.2406 8.4766 30.0268C9.51065 29.2188 10.6599 28.5702 11.8861 28.1026C13.1898 27.6542 14.5174 27.2771 15.9192 27.2889C16.338 27.2889 16.7567 27.2889 17.1785 27.2889C18.3172 27.3017 19.4472 27.49 20.5285 27.8472C22.1643 28.3282 23.6817 29.1454 24.9834 30.2465C25.1378 30.3742 25.322 30.3327 25.3487 30.1456C25.4887 29.3843 25.5878 28.6161 25.6457 27.8442C25.7212 26.4285 25.6345 25.0088 25.3873 23.6127C25.1388 22.2375 24.7332 20.8954 24.1785 19.6128C23.4629 17.9552 22.4741 16.4294 21.2532 15.0992C21.0712 14.9359 20.9315 14.7309 20.8461 14.5018C20.7608 14.2727 20.7323 14.0263 20.7631 13.7837C20.7932 13.5763 20.8725 13.3791 20.9945 13.2086C21.1164 13.0381 21.2774 12.8993 21.464 12.8038C21.957 12.5484 22.7827 12.8275 23.1183 13.2937C23.1749 13.3975 23.2394 13.4968 23.3113 13.5907C23.9443 14.2974 24.5137 15.0586 25.013 15.8653C25.9782 17.3508 26.7403 18.9587 27.2791 20.6462C27.5827 21.5618 27.7917 22.5061 27.9028 23.4642C27.9948 24.2304 28.1997 24.9876 28.1819 25.7656C28.1552 26.793 28.2473 27.8175 28.0602 28.8479C27.9503 29.4626 27.9117 30.0921 27.7632 30.7009C27.6147 31.3096 27.4662 31.8649 27.3266 32.4499C27.3266 32.4855 27.3563 32.536 27.3711 32.5776C27.4149 32.559 27.4552 32.5328 27.49 32.5004C28.3043 31.3138 29.3497 30.3038 30.5638 29.5309C31.7635 28.6614 33.1292 28.0479 34.5761 27.7284C34.9979 27.6393 35.0246 27.5057 34.7692 27.1108C34.7039 27.0068 34.6534 26.897 34.5851 26.796C33.0011 24.4204 31.4172 22.0448 29.8332 19.6692C29.6992 19.4706 29.6223 19.2391 29.6107 18.9999C29.5992 18.7606 29.6536 18.5227 29.7679 18.3122C29.876 18.0738 30.0628 17.8798 30.2968 17.7625C30.5309 17.6452 30.7981 17.6118 31.0539 17.6678C31.247 17.7051 31.4306 17.7808 31.5939 17.8905C31.7572 18.0002 31.8967 18.1416 32.0042 18.3062C32.6249 19.1971 33.2248 20.1147 33.8247 21.0263C35.1335 23.006 36.4373 24.9935 37.7362 26.989C37.787 27.0958 37.8697 27.1843 37.9729 27.2423C38.0761 27.3002 38.1946 27.3248 38.3123 27.3127C38.8056 27.2422 39.3071 27.2523 39.7973 27.3424C40.516 27.5503 41.2822 27.5354 41.9683 27.8739C42.0242 27.9016 42.0851 27.9177 42.1474 27.9212C42.2097 27.9246 42.272 27.9153 42.3306 27.894C42.3892 27.8726 42.4429 27.8395 42.4883 27.7968C42.5337 27.754 42.57 27.7025 42.5949 27.6453C42.8046 27.2624 43.0419 26.8951 43.3047 26.5466C43.3604 26.4914 43.4046 26.4257 43.4348 26.3533C43.4649 26.2809 43.4804 26.2033 43.4804 26.1249C43.4804 26.0465 43.4649 25.9689 43.4348 25.8965C43.4046 25.8241 43.3604 25.7585 43.3047 25.7032C42.4554 24.462 41.6386 23.2 40.81 21.9468C40.3764 21.2846 40.3853 21.2906 39.919 21.9676C39.5926 22.5105 39.2148 23.0206 38.7905 23.491C38.3836 23.9037 37.8995 23.8176 37.4867 23.6929C37.3311 23.6261 37.192 23.5262 37.0791 23.4C36.9662 23.2738 36.8824 23.1244 36.8333 22.9624C36.7679 22.7253 36.7589 22.4761 36.8068 22.2348C36.8548 21.9936 36.9584 21.7668 37.1095 21.5727C37.6352 20.8778 38.0688 20.1176 38.5737 19.405C38.6771 19.2995 38.735 19.1577 38.735 19.01C38.735 18.8623 38.6771 18.7205 38.5737 18.6151C38.3529 18.3301 38.1486 18.0326 37.9619 17.7242C37.5699 17.1125 37.1926 16.4889 36.7976 15.8802C36.7257 15.7796 36.6775 15.6641 36.6564 15.5422C36.6353 15.4204 36.642 15.2953 36.6759 15.1764C36.8214 14.7042 37.0769 14.2855 37.5966 14.143C37.8689 14.0664 38.1591 14.0832 38.4208 14.1909C38.6824 14.2986 38.9004 14.4908 39.0399 14.7369C39.4349 15.3308 39.8359 15.901 40.2279 16.4889C40.3497 16.673 40.4091 16.673 40.5249 16.4889C40.8219 16.0376 41.1189 15.5981 41.4159 15.1556C41.8079 14.5944 42.2355 14.1074 43.0344 14.2648C43.3314 14.3212 43.9046 14.7636 43.9254 15.0457C43.9581 15.506 43.9908 15.9604 43.6849 16.385C43.1622 17.1125 42.6959 17.8697 42.1732 18.6121C42.0721 18.7181 42.0156 18.859 42.0156 19.0055C42.0156 19.1521 42.0721 19.293 42.1732 19.399C42.4375 19.7465 42.6632 20.1236 42.9068 20.4858C43.5958 21.5133 44.2937 22.5348 44.9708 23.5711C45.1193 23.8028 45.152 23.7849 45.2946 23.5711C45.8648 22.6803 46.4677 21.8429 47.0498 20.9758C47.6319 20.1087 48.2377 19.1496 48.8466 18.2439C49.197 17.7183 49.9811 17.4837 50.4652 17.7658C51.1393 18.1578 51.4185 18.9536 51.0591 19.4911C50.9493 19.6514 50.8661 19.8296 50.7622 19.99C49.5346 21.8251 48.3061 23.6593 47.0765 25.4924C46.83 25.8606 46.542 26.2348 47.0231 26.6386C47.525 27.6661 46.9874 28.5183 45.8351 28.5064C45.6648 28.5199 45.4934 28.5008 45.3302 28.45C45.1699 28.3758 45.1075 28.45 45.0333 28.5391C44.9607 28.6657 44.8803 28.7877 44.7927 28.9044C44.6531 29.0528 44.7689 29.1241 44.864 29.2013C45.2649 29.4745 45.6837 29.721 46.0668 30.0149C46.5183 30.35 46.9441 30.7182 47.3408 31.1166C47.7596 31.5561 48.1071 32.0609 48.4902 32.5331C48.6001 32.6697 48.7426 32.7142 48.8585 32.5538C49.4163 31.7852 50.0656 31.0872 50.7919 30.4752C51.1809 30.1456 51.5789 29.8249 51.9977 29.5339C52.699 29.0578 53.4462 28.6529 54.2281 28.3253C55.6037 27.721 57.0806 27.3805 58.582 27.3216C59.0245 27.3216 59.4729 27.3216 59.9154 27.3216C61.0547 27.3339 62.1855 27.5201 63.2685 27.8739C64.1608 28.1745 65.0253 28.552 65.8523 29.0023C66.9719 29.5339 67.8629 30.3802 68.7569 31.1968C69.2971 31.7557 69.7797 32.3675 70.1973 33.023C70.5091 33.4566 70.7705 33.9139 71.0585 34.3771C71.0912 34.4306 71.1299 34.481 71.1655 34.5315C71.1803 34.4899 71.216 34.4425 71.213 34.4009C71.1566 33.5991 71.213 32.7676 71.017 32.0015C70.8257 31.1409 70.4417 30.3349 69.8938 29.6441C69.3459 28.9533 68.6485 28.3958 67.854 28.0135C67.5764 27.8551 67.325 27.6548 67.1086 27.4196C66.871 27.1939 66.8116 26.3476 67.0254 26.116C67.2301 25.8757 67.4766 25.6745 67.7531 25.5221C68.5219 25.1372 69.2071 24.6044 69.7696 23.9542C70.4285 23.2013 70.8709 22.2839 71.0496 21.2995C71.1652 20.5031 71.2198 19.6989 71.213 18.8942C71.2011 18.2053 71.1803 17.5698 71.1803 16.9195ZM37.9649 46.2491C27.293 46.2491 16.6231 46.2491 5.95515 46.2491C5.62252 46.2491 5.28986 46.2966 4.95723 46.3204C5.06415 46.6411 5.15327 46.9678 5.28395 47.2795C5.72198 48.2931 6.4259 49.1693 7.32127 49.8155C8.48844 50.6885 9.8398 50.9647 11.2297 50.9647C29.063 50.9845 46.8963 50.9845 64.7297 50.9647C65.3145 50.9884 65.8999 50.9335 66.4701 50.8014C68.549 50.2075 70.0992 48.9781 70.8031 46.8489C70.8625 46.6648 70.9308 46.4837 70.9932 46.3026C70.8031 46.2818 70.6131 46.2551 70.42 46.2402C70.322 46.2402 70.224 46.2402 70.1231 46.2402L37.9649 46.2491ZM37.9649 43.8735H71.4713C71.6443 43.8869 71.8181 43.8869 71.9911 43.8735C72.3031 43.85 72.6101 43.782 72.9029 43.6716C73.3929 43.4341 73.4552 42.9678 73.4018 42.4838C73.3852 42.3029 73.3163 42.1307 73.2034 41.9884C73.0905 41.846 72.9386 41.7395 72.7663 41.682C72.389 41.5943 72.004 41.5446 71.6169 41.5336C49.1802 41.5336 26.7435 41.5336 4.30684 41.5336C4.13504 41.5157 3.96187 41.5157 3.79007 41.5336C2.67042 41.7741 2.45955 41.982 2.52489 42.9322C2.54137 43.1252 2.61872 43.308 2.74575 43.4542C2.87278 43.6004 3.04296 43.7025 3.23177 43.7458C3.63242 43.8485 4.04473 43.8984 4.4583 43.8943C15.6351 43.8745 26.8069 43.8656 37.9738 43.8676L37.9649 43.8735ZM25.9575 39.1223C26.2307 39.1223 26.5009 39.1223 26.7742 39.1223C27.1157 39.1223 27.2078 38.9976 27.1247 38.668C26.9821 38.1098 26.8633 37.5396 26.6673 36.9992C26.1717 35.4665 25.3092 34.0782 24.1548 32.9547C23.8994 32.7202 23.6707 32.4618 23.4182 32.2272C22.7316 31.6054 21.9494 31.0981 21.1017 30.7247C20.2603 30.3061 19.3583 30.0225 18.4288 29.8843L16.5577 29.6675C16.2607 29.8902 15.937 29.7863 15.6252 29.7893C14.7301 29.8238 13.8482 30.0168 13.0206 30.3594C12.3673 30.6152 11.7364 30.9251 11.1347 31.2859C10.6683 31.5467 10.2329 31.8595 9.83684 32.2183C8.84277 33.092 7.9954 34.1197 7.32721 35.262C6.76197 36.3804 6.35042 37.5701 6.10365 38.7987C6.0591 38.9768 6.10361 39.1342 6.36794 39.1253C6.81045 39.1253 7.25891 39.1253 7.70142 39.1253C7.92417 39.1253 8.20339 39.1936 8.34892 39.0837C8.49444 38.9739 8.43207 38.6858 8.48849 38.4898C8.74996 37.3093 9.2558 36.1966 9.97345 35.2234C10.6328 34.3979 11.3693 33.6407 12.5186 33.5011C12.6846 33.4699 12.8329 33.3777 12.9344 33.2428C13.57 32.3311 14.5441 32.1084 15.5331 32.055C16.5108 31.9556 17.4976 31.9946 18.4644 32.1708C19.2276 32.3401 19.9137 32.6162 20.3918 33.2487C20.4389 33.3293 20.5038 33.3979 20.5815 33.4494C20.6593 33.5009 20.7478 33.5338 20.8403 33.5457C21.62 33.6492 22.3334 34.0386 22.842 34.6384C23.5071 35.4164 24.0509 36.2904 24.4547 37.2308C24.5882 37.5909 24.6877 37.9627 24.7517 38.3414C24.8082 38.5967 24.722 38.9709 24.8675 39.0986C25.013 39.2263 25.3814 39.1491 25.6486 39.158L25.9575 39.1223ZM37.9708 31.954C38.6242 32.0223 39.2835 32.052 39.9279 32.1738C40.5606 32.2642 41.1439 32.5668 41.5822 33.0319C41.9 33.3972 42.1495 33.5961 42.5712 33.6258C43.088 33.6555 43.4235 33.9822 43.7888 34.2375C44.0181 34.4517 44.2178 34.6953 44.3828 34.9621C45.3064 36.1202 46.0252 37.3674 46.1113 38.8907C46.1113 39.0333 46.1647 39.1253 46.3222 39.1253H48.2466C48.4575 39.1253 48.4991 38.9857 48.4724 38.8284C48.4136 38.4729 48.3352 38.121 48.2377 37.7742C47.9508 36.7774 47.5523 35.8161 47.0498 34.9087C46.3614 33.7709 45.4754 32.7653 44.4333 31.9392C43.6481 31.2918 42.7541 30.7891 41.793 30.4544C41.0493 30.1762 40.2833 29.9616 39.5033 29.813C39.1647 29.7566 38.8083 29.8308 38.4668 29.7893C38.1444 29.7343 37.815 29.7343 37.4926 29.7893C37.16 29.8605 36.7917 29.7566 36.4591 29.8249C35.268 30.0311 34.1172 30.425 33.0496 30.9919C31.6538 31.7847 30.4094 32.7439 29.5095 34.095C29.3076 34.392 29.1116 34.7037 28.9155 35.0066C28.8616 35.0837 28.8302 35.1742 28.8249 35.2682C28.8197 35.3621 28.8407 35.4556 28.8858 35.5382C29.0967 36.0697 29.2065 36.6458 29.3758 37.1981C29.5633 37.7483 29.6635 38.3244 29.6728 38.9056C29.6858 38.971 29.711 39.0335 29.7471 39.0897C29.7746 39.0246 29.7955 38.957 29.8095 38.8878C29.8064 38.7648 29.8123 38.6417 29.8273 38.5196C30.101 37.3142 30.6218 36.1787 31.3568 35.1848C31.9508 34.4365 32.6368 33.7357 33.6288 33.5397C33.9363 33.4954 34.2167 33.3388 34.4158 33.1002C34.7185 32.723 35.127 32.4448 35.5889 32.3014C36.3677 32.0841 37.1713 31.9683 37.9797 31.957L37.9708 31.954ZM68.6232 39.1223C68.748 39.1223 68.8697 39.1223 68.9945 39.1223C69.2588 39.1045 69.5884 39.1728 69.7696 39.0362C70.0072 38.8462 69.7161 38.5493 69.6924 38.2939C69.6938 38.2691 69.6938 38.2444 69.6924 38.2196C69.5211 37.2684 69.2025 36.3497 68.7479 35.4966C68.1803 34.4114 67.4275 33.4336 66.5235 32.6073C65.643 31.77 64.6189 31.098 63.5001 30.6237C61.2549 29.6883 60.6936 29.7804 58.8047 29.7922C58.4841 29.7648 58.1615 29.7718 57.8424 29.813C56.6901 30.0713 55.5467 30.3475 54.4953 30.9414C53.052 31.758 51.7571 32.7231 50.8542 34.1306C50.6582 34.4276 50.4622 34.7453 50.2603 35.0393C50.1415 35.2026 50.183 35.3363 50.2394 35.4996C50.5958 36.625 51.0235 37.7386 51.0295 38.9442C51.0394 38.9901 51.0586 39.0336 51.0859 39.0719C51.1195 39.0183 51.1455 38.9603 51.1631 38.8996C51.167 38.7535 51.1799 38.6077 51.2017 38.4631C51.4593 37.2813 51.9655 36.1678 52.6866 35.1967C53.346 34.3741 54.0855 33.6139 55.2378 33.4892C55.3813 33.4664 55.5101 33.3887 55.5972 33.2725C56.2357 32.3282 57.2365 32.0847 58.2523 32.0371C59.229 31.9358 60.2153 31.9758 61.1806 32.1559C61.9439 32.3282 62.6329 32.5984 63.1021 33.2428C63.1519 33.3198 63.2188 33.3843 63.2976 33.4312C63.3765 33.4781 63.4651 33.5061 63.5566 33.513C64.0867 33.5712 64.5898 33.777 65.0088 34.1069C65.288 34.3825 65.5443 34.6805 65.7751 34.9977C66.6809 36.135 67.3758 37.3733 67.4679 38.858C67.4679 39.0392 67.5452 39.1253 67.7323 39.1223C68.0382 39.1223 68.3352 39.1253 68.6322 39.1253L68.6232 39.1223ZM42.8919 3.53007C42.8169 3.33263 42.7235 3.14275 42.6127 2.96292C42.4561 2.75776 42.25 2.59566 42.0137 2.4918C41.7774 2.38793 41.5185 2.3457 41.2614 2.36902C39.3458 2.36902 37.4273 2.3096 35.5177 2.52341C35.1355 2.56796 34.7579 2.64546 34.3891 2.75504C33.5032 3.00259 32.6542 3.36709 31.8646 3.83891C30.7337 4.57107 29.7462 5.50401 28.9511 6.59163C28.897 6.69333 28.8581 6.80235 28.8354 6.91529C28.9541 6.91529 29.0729 6.9539 29.1947 6.95984C30.7628 7.0222 32.3339 6.85589 33.9049 7.08454C34.6682 7.19441 35.4404 7.2627 36.2066 7.38148C37.2799 7.53266 38.3382 7.77609 39.3696 8.10903C39.5095 8.16981 39.6677 8.17267 39.8097 8.11701C39.9516 8.06134 40.0657 7.9517 40.127 7.81208C40.8536 6.75692 41.5782 5.69683 42.3009 4.63177C42.4642 4.39124 42.5979 4.13883 42.7493 3.88346C42.8078 3.77025 42.8584 3.65316 42.9008 3.53304L42.8919 3.53007ZM34.0386 39.1223C34.4069 39.1223 34.7752 39.1223 35.1434 39.1223C35.3337 39.108 35.5231 39.0832 35.7107 39.0481L35.4464 38.5552C35.0425 37.8366 34.6445 37.1209 34.2376 36.4053C34.0832 36.1351 33.9406 36.1083 33.7238 36.3311C33.0704 36.9862 32.5959 37.798 32.3457 38.6888C32.2418 38.9858 32.3606 39.1194 32.7081 39.1253C33.1596 39.1312 33.602 39.1253 34.0475 39.1253L34.0386 39.1223ZM12.6909 39.1223C13.1809 39.1223 13.6739 39.1223 14.1758 39.1223C14.3897 39.1223 14.4342 39.0184 14.3273 38.8432C14.0511 38.3889 13.7808 37.9316 13.5017 37.4802C13.2611 37.0912 13.0027 36.7111 12.7711 36.3132C12.685 36.1677 12.5959 36.141 12.489 36.239C11.7572 36.919 11.2409 37.7986 11.004 38.769C10.9327 39.0184 11.0337 39.1194 11.301 39.1253C11.7643 39.1312 12.2306 39.1253 12.6998 39.1253L12.6909 39.1223ZM55.3982 39.1223C55.8912 39.1223 56.3813 39.1223 56.8832 39.1223C57.094 39.1223 57.1326 39.0214 57.0227 38.8254C56.7465 38.3711 56.4792 37.9138 56.2001 37.4624C55.9833 37.115 55.7605 36.7705 55.5289 36.429C55.2972 36.0875 55.3002 36.1113 55.021 36.3815C54.4704 36.9323 54.0626 37.6091 53.8331 38.3532C53.7739 38.5097 53.7272 38.6705 53.6935 38.8343C53.6668 39.0006 53.7291 39.1164 53.9311 39.1164C54.4241 39.1224 54.9171 39.1253 55.4071 39.1253L55.3982 39.1223ZM16.6171 37.6376C16.6587 37.6138 16.7152 37.602 16.7359 37.5693C17.2586 36.6686 17.7794 35.7668 18.2981 34.8641C18.3159 34.8285 18.2981 34.7216 18.2565 34.7127C18.0772 34.6423 17.8911 34.5905 17.7012 34.5582C17.3448 34.5137 16.9735 34.481 16.623 34.4632C16.2642 34.4757 15.9064 34.5074 15.5509 34.5582C15.4339 34.584 15.3195 34.6208 15.2094 34.6681C14.9777 34.7275 14.9629 34.8314 15.0787 35.0393C15.4796 35.7579 15.8598 36.4914 16.2518 37.216C16.324 37.3425 16.4054 37.4636 16.4954 37.5782C16.528 37.599 16.5844 37.605 16.6349 37.6257L16.6171 37.6376ZM38.1519 34.4721C37.5787 34.5078 37.1689 34.5285 36.762 34.5642C36.6729 34.5642 36.5927 34.6622 36.5006 34.6919C36.3551 34.7453 36.3106 34.8255 36.3908 34.968C36.866 35.8114 37.3441 36.6577 37.8164 37.504C37.9203 37.694 37.9975 37.7 38.1133 37.504C38.6093 36.6458 39.1052 35.7846 39.6161 34.9324C39.7408 34.7245 39.6606 34.7127 39.4735 34.6859C38.9835 34.6087 38.4875 34.5137 38.1608 34.4603L38.1519 34.4721ZM61.047 34.7691C61.0112 34.7426 60.9734 34.7187 60.9341 34.6978C60.8033 34.6364 60.6658 34.5906 60.5243 34.5612C60.1174 34.5078 59.6927 34.6236 59.3006 34.4157C58.9383 34.6354 58.5344 34.5018 58.1513 34.5553C58.0593 34.5553 57.982 34.6503 57.8899 34.6741C57.7028 34.7275 57.6524 34.8107 57.7563 34.9888C58.2285 35.8114 58.6978 36.6309 59.1521 37.4624C59.2799 37.694 59.3333 37.7148 59.4729 37.4624C59.9659 36.6013 60.4768 35.746 60.9787 34.8908L61.047 34.7691ZM20.5107 38.9858H21.9956C22.1827 38.9858 22.2926 38.8967 22.2421 38.7244C21.9867 37.9939 21.7313 37.2575 21.1938 36.6725C20.9948 36.4587 20.7661 36.2687 20.5493 36.0786C20.4126 36.3013 20.2701 36.5211 20.1365 36.7497C19.7504 37.4179 19.3732 38.0949 18.9752 38.7571C18.8564 38.959 18.9099 38.9976 19.1148 38.9976C19.5841 38.9769 20.0504 38.9798 20.5196 38.9798L20.5107 38.9858ZM41.8673 38.9858C42.3603 38.9858 42.8533 38.9858 43.3522 38.9858C43.575 38.9858 43.6671 38.8581 43.5869 38.6472C43.2335 37.7089 42.8385 36.7943 42.0217 36.1469C41.9237 36.0697 41.894 36.0578 41.8198 36.1885C41.5555 36.6488 41.2614 37.0794 40.9912 37.5515C40.7595 37.9494 40.5605 38.3622 40.3229 38.7571C40.1952 38.9739 40.2873 38.9917 40.4714 38.9887L41.8673 38.9858ZM63.1883 38.9858C63.6813 38.9858 64.1743 38.9858 64.6732 38.9858C64.9079 38.9858 65.0147 38.864 64.9375 38.671C64.6227 37.8871 64.3673 37.0645 63.705 36.4736C63.5566 36.3459 63.4081 36.2093 63.2715 36.0756C63.1794 36.236 63.0903 36.3934 62.9953 36.5508L61.6855 38.7244C61.6083 38.8551 61.5073 38.9887 61.7924 38.9858C62.2617 38.9739 62.7309 38.9798 63.1972 38.9798L63.1883 38.9858Z" fill="#2F2A32"/>
<path d="M13.1098 22.5304C13.5167 22.5304 13.9118 22.5691 14.1196 23.0323C14.2354 23.2751 14.2887 23.543 14.2747 23.8116C14.2607 24.0802 14.1798 24.341 14.0395 24.5705C13.9597 24.6618 13.8572 24.7304 13.7425 24.7695C13.5336 24.8676 13.3064 24.9207 13.0756 24.9253C12.8449 24.9299 12.6157 24.8859 12.403 24.7962C12.2998 24.7598 12.2066 24.6997 12.1308 24.6208C12.055 24.5419 11.9987 24.4464 11.9665 24.3419C11.8134 23.9524 11.8081 23.5204 11.9516 23.1273C12.1387 22.5809 12.5901 22.5097 13.1098 22.5304Z" fill="#2F2A32"/>
</g>
<defs>
<clipPath id="clip0_4854_17848">
<rect width="76" height="53.3617" fill="white"/>
</clipPath>
</defs>
</svg>
