<svg width="57" height="63" viewBox="0 0 57 63" fill="none" xmlns="http://www.w3.org/2000/svg">
<g clip-path="url(#clip0_4854_17835)">
<path d="M0.00252038 33.9366C0.00252038 26.0307 0.00252038 18.122 0.00252038 10.2107C-0.018336 9.42202 0.172452 8.64205 0.555213 7.95113C0.937974 7.26021 1.49891 6.68332 2.18019 6.27989C2.74222 5.90201 3.40466 5.69948 4.08292 5.69821C6.25521 5.72212 8.43022 5.69821 10.6052 5.69821H10.8721C11.5259 5.69821 11.4511 5.76197 11.4538 5.14578C11.4752 4.74855 11.4752 4.35047 11.4538 3.95325C11.3764 3.19098 11.6753 2.54025 12.0329 1.91344C12.6493 0.851044 13.6688 0.319868 14.8163 0.00911786C14.9491 -0.00824762 15.0837 -0.00824762 15.2166 0.00911786C20.2523 0.00911786 25.2881 0.00911786 30.3266 0.00911786C31.1386 0.0136388 31.9264 0.284318 32.5682 0.779327C33.4388 1.41129 34.0268 2.35676 34.2068 3.41407C34.3082 3.85497 34.2282 4.33569 34.2388 4.80049C34.2388 5.08202 34.2709 5.36357 34.2869 5.64511C34.5698 5.6637 34.8526 5.69821 35.1355 5.69821C37.2705 5.69821 39.4054 5.69821 41.527 5.69821C42.4992 5.71447 43.4297 6.09366 44.1343 6.76061C44.8337 7.36445 45.317 8.17823 45.5113 9.07928C45.551 9.29556 45.5654 9.51574 45.554 9.73533C45.554 14.2859 45.554 18.8365 45.554 23.3871C45.554 24.0962 45.4552 24.0033 46.1998 24.0059C48.5749 24.0059 50.9473 23.99 53.3224 24.0059C53.7928 24.0009 54.2595 24.0886 54.6955 24.2641C55.1316 24.4396 55.5284 24.6994 55.863 25.0285C56.2356 25.3817 56.5293 25.809 56.7252 26.2826C56.921 26.7562 57.0146 27.2655 56.9999 27.7774C56.9999 31.9101 56.9999 36.0411 56.9999 40.1702C56.9999 41.3628 56.6156 42.4013 55.6655 43.1582C55.1304 43.6161 54.4523 43.8752 53.7468 43.8913C51.2845 43.8913 48.8213 43.8913 46.3573 43.8913C46.2025 43.8913 46.045 43.8913 45.8903 43.8913C45.5727 43.8913 45.5674 43.8913 45.562 44.2312C45.562 44.6057 45.562 44.9829 45.562 45.3574C45.562 49.6441 45.562 53.93 45.562 58.215C45.5363 58.929 45.3278 59.6248 44.9562 60.2362C44.4225 61.2189 43.5525 61.7076 42.5998 62.114C42.2559 62.2491 41.8886 62.315 41.519 62.3078C29.0652 62.3185 16.6168 62.3185 4.17368 62.3078C2.62585 62.3078 1.449 61.5111 0.664409 60.1538C0.227377 59.3983 0.0024276 58.5396 0.0132055 57.6679C0.00786814 49.7548 0.00429949 41.8444 0.00252038 33.9366ZM2.93805 33.9366V57.0649C2.92939 57.435 2.96891 57.8046 3.05552 58.1645C3.10071 58.4335 3.22369 58.6836 3.4095 58.8841C3.5953 59.0846 3.83584 59.2268 4.10162 59.2933C4.3334 59.3531 4.57201 59.3826 4.81146 59.3809H40.8919C41.0013 59.3809 41.1133 59.3809 41.2228 59.3809C41.8552 59.3225 42.6639 58.7196 42.6318 57.9228C42.5678 56.3133 42.6131 54.6985 42.6131 53.0863V44.3375C42.6131 43.8514 42.6345 43.878 42.1381 43.878C40.5636 43.878 38.9864 43.862 37.4119 43.878C36.7322 43.8732 36.0739 43.6402 35.5438 43.2166C35.0839 42.8775 34.7129 42.4329 34.4625 41.9205C34.2121 41.4082 34.0896 40.8433 34.1054 40.2738V27.9713C34.0977 27.5801 34.1381 27.1894 34.2255 26.808C34.3589 26.2111 34.6467 25.6593 35.0605 25.2074C35.4744 24.7554 35.9998 24.4191 36.5846 24.2317C37.0133 24.0806 37.4642 24.0016 37.9189 23.9979C39.2719 24.0139 40.6249 23.9979 41.978 23.9979C42.1325 24.0099 42.2878 24.0099 42.4423 23.9979C42.4799 23.987 42.5142 23.967 42.5422 23.9396C42.5701 23.9123 42.5908 23.8785 42.6024 23.8412C42.6191 23.6647 42.6235 23.4872 42.6158 23.3101V10.2532C42.6091 10.1436 42.6091 10.0336 42.6158 9.92389C42.6241 9.80288 42.6068 9.68147 42.565 9.56755C42.5231 9.45362 42.4577 9.34971 42.3729 9.26256C42.2265 9.05757 42.0315 8.89168 41.8053 8.77957C41.5791 8.66746 41.3286 8.61257 41.076 8.61979C39.0798 8.65432 37.073 8.61981 35.0848 8.63309C34.818 8.63309 34.5511 8.657 34.2842 8.67028C34.2602 8.93587 34.2229 9.22801 34.2175 9.50954C34.255 10.2279 34.1646 10.9472 33.9507 11.6343C33.6679 12.3693 33.1733 13.0048 32.5291 13.4613C31.8849 13.9177 31.1196 14.1747 30.3293 14.2C25.2695 14.2 20.2097 14.2 15.1499 14.2C14.5794 14.21 14.0178 14.059 13.53 13.7644C12.217 12.9464 11.3524 11.8229 11.4298 10.1709C11.4458 9.77517 11.4298 9.37409 11.4298 8.97835C11.4298 8.63573 11.4298 8.62511 11.0508 8.62511C8.89633 8.62511 6.74362 8.62511 4.59268 8.62511C4.48059 8.62511 4.37118 8.62511 4.25909 8.62511C3.7734 8.66495 3.13292 9.15631 3.05819 9.58658C2.97582 10.0131 2.93028 10.4458 2.92209 10.88C2.92743 18.5735 2.93271 26.2635 2.93805 33.9499V33.9366ZM45.4766 40.959H53.0076C53.1631 40.9684 53.319 40.9684 53.4746 40.959C53.5936 40.9403 53.7033 40.8836 53.7871 40.7973C53.8709 40.7111 53.9242 40.6001 53.9389 40.481C53.9456 40.3492 53.9456 40.2171 53.9389 40.0853V27.8226C53.9389 27.6898 53.9389 27.557 53.9389 27.4242C53.9456 27.3363 53.9193 27.2491 53.865 27.1794C53.8108 27.1097 53.7325 27.0625 53.6453 27.047C53.3531 26.9579 53.049 26.9131 52.7434 26.9142C47.9504 26.9142 43.1567 26.9142 38.362 26.9142C38.2285 26.9142 38.095 26.9142 37.9643 26.9142C37.3478 26.9673 37.0836 27.2356 37.0356 27.8518C37.0356 27.9155 37.0356 27.9846 37.0356 28.051C37.0356 32.0279 37.0356 36.0039 37.0356 39.979C37.0356 40.6935 37.3158 40.959 38.0284 40.959H45.4766ZM22.7075 11.2652C25.1467 11.2652 27.585 11.2652 30.0224 11.2652C30.1932 11.2772 30.3646 11.2523 30.5249 11.1923C30.6852 11.1323 30.8306 11.0387 30.9512 10.9176C31.0718 10.7966 31.1648 10.6511 31.2237 10.4911C31.2826 10.331 31.3061 10.1602 31.2926 9.99029C31.2926 9.3741 31.2926 8.75526 31.2926 8.1311C31.2926 6.85446 31.2926 5.57517 31.2926 4.29322C31.3082 4.08616 31.2749 3.87834 31.1951 3.68645C31.1154 3.49456 30.9916 3.32395 30.8336 3.18832C30.5269 2.97839 30.1551 2.88421 29.7848 2.92272H16.2173C15.9958 2.92272 15.7743 2.92272 15.5528 2.92272C15.2436 2.9329 14.9501 3.06098 14.733 3.28046C14.516 3.49995 14.392 3.79404 14.3867 4.10196C14.3867 6.15593 14.3867 8.20813 14.3867 10.2585C14.3938 10.4068 14.4398 10.5505 14.5201 10.6755C14.6302 10.8741 14.7955 11.0368 14.9962 11.1442C15.1969 11.2516 15.4245 11.2991 15.6516 11.2811C18.008 11.2652 20.3591 11.2784 22.7075 11.2784V11.2652Z" fill="#2F2A32"/>
<path d="M9.94091 28.3831C9.00955 28.3831 8.07279 28.3831 7.14944 28.3831C6.96327 28.3845 6.77868 28.3492 6.60632 28.2791C6.43396 28.2091 6.27724 28.1058 6.14523 27.9752C6.01322 27.8445 5.90858 27.6892 5.83725 27.518C5.76593 27.3469 5.72939 27.1633 5.72975 26.9781C5.72975 25.0781 5.72975 23.18 5.72975 21.2836C5.72142 21.0818 5.75527 20.8804 5.82924 20.6923C5.90321 20.5042 6.01567 20.3335 6.15944 20.1909C6.3032 20.0483 6.47517 19.937 6.66444 19.864C6.8537 19.7911 7.05613 19.7581 7.25889 19.7671C9.07625 19.7671 10.8936 19.7671 12.711 19.7671C13.0599 19.7773 13.4016 19.8682 13.709 20.0327C14.2134 20.2717 14.2588 20.7763 14.3842 21.2332C14.3952 21.3213 14.3952 21.4106 14.3842 21.4988C14.3842 23.2694 14.3842 25.0348 14.3842 26.7948C14.3842 27.7775 13.7758 28.3884 12.799 28.3884C11.8223 28.3884 10.8936 28.3831 9.94091 28.3831ZM8.62789 24.0724H8.69193V25.4004C9.14827 25.4243 9.60465 25.4615 10.0583 25.4695C10.512 25.4774 10.939 25.4535 11.3927 25.4455C11.4167 24.9914 11.454 24.5372 11.462 24.0831C11.47 23.6289 11.446 23.2092 11.4353 22.771C10.9817 22.7471 10.5253 22.7099 10.069 22.7019C9.61266 22.694 9.19096 22.7178 8.75063 22.7258L8.62789 24.0724Z" fill="#2F2A32"/>
<path d="M5.72689 46.6384C5.72689 45.7115 5.72689 44.7793 5.72689 43.8576C5.72262 43.6719 5.75567 43.4871 5.82416 43.3142C5.89266 43.1413 5.99523 42.9839 6.12576 42.851C6.25628 42.7181 6.41213 42.6125 6.58424 42.5405C6.75634 42.4684 6.94123 42.4313 7.12794 42.4314C9.03337 42.4314 10.9397 42.4314 12.8469 42.4314C13.0496 42.4217 13.2521 42.454 13.4417 42.5263C13.6312 42.5986 13.8036 42.7093 13.9478 42.8514C14.0921 42.9934 14.2051 43.1638 14.2798 43.3517C14.3544 43.5395 14.389 43.7408 14.3814 43.9426C14.3814 45.7726 14.432 47.6052 14.3653 49.4352C14.328 50.5188 13.9437 50.9943 12.7268 51.0288C10.9121 51.0899 9.09202 51.05 7.27466 51.0447C7.06653 51.0553 6.85853 51.0219 6.66431 50.9467C6.47009 50.8715 6.29407 50.7562 6.14784 50.6084C6.00162 50.4606 5.88852 50.2837 5.81596 50.0893C5.74339 49.8948 5.71305 49.6873 5.72689 49.4804C5.72422 48.5348 5.72689 47.5866 5.72689 46.6384ZM10.0821 48.1284C10.4344 48.1284 10.7893 48.1284 11.1496 48.1284C11.3684 48.1284 11.4699 48.0806 11.4645 47.8363C11.4512 47.1112 11.4645 46.3835 11.4645 45.6584C11.4645 45.4433 11.4138 45.3397 11.1683 45.345C10.4397 45.3583 9.71119 45.345 8.97998 45.345C8.76382 45.345 8.66242 45.3928 8.66509 45.6371C8.68111 46.3622 8.66509 47.09 8.66509 47.8151C8.66509 48.0328 8.71576 48.1391 8.96128 48.1284C9.32955 48.1045 9.70582 48.1284 10.0821 48.1284Z" fill="#2F2A32"/>
<path d="M9.99356 39.6518C9.01683 39.6518 8.03743 39.5987 7.05803 39.6677C6.35884 39.7182 5.70502 38.9267 5.7237 38.3397C5.7237 37.5429 5.7237 36.7461 5.7237 35.9493C5.7237 34.8259 5.7237 33.6997 5.7237 32.5736C5.71375 32.3127 5.7753 32.054 5.90176 31.8252C6.02821 31.5964 6.21479 31.4061 6.44155 31.2748C6.63169 31.1671 6.85137 31.1225 7.06871 31.1473C9.02573 31.1473 10.9765 31.1473 12.9211 31.1473C13.1129 31.1412 13.3039 31.1739 13.4826 31.2436C13.6612 31.3132 13.8238 31.4183 13.9604 31.5525C14.097 31.6867 14.2046 31.8471 14.2769 32.024C14.3492 32.2009 14.3846 32.3906 14.3808 32.5816C14.3968 33.551 14.3808 34.5231 14.3808 35.5032C14.3808 36.3663 14.3808 37.2269 14.3808 38.0874C14.3928 38.3157 14.3528 38.5438 14.2636 38.7544C14.1744 38.9651 14.0384 39.153 13.8658 39.3038C13.6273 39.5319 13.3078 39.657 12.9771 39.6518C11.987 39.6438 10.989 39.6518 9.99356 39.6518ZM10.0576 36.7302C10.4339 36.7302 10.8102 36.7302 11.1864 36.7302C11.3866 36.7302 11.4533 36.6532 11.4533 36.4646C11.4533 35.7608 11.4533 35.0543 11.4533 34.3398C11.4533 34.1433 11.3813 34.0742 11.1864 34.0742C10.4339 34.0742 9.684 34.0742 8.93144 34.0742C8.73129 34.0742 8.66457 34.1486 8.66457 34.3398C8.66457 35.0481 8.66457 35.7564 8.66457 36.4646C8.66457 36.6612 8.73929 36.7302 8.93144 36.7302C9.30772 36.7222 9.68132 36.7302 10.0576 36.7302Z" fill="#2F2A32"/>
<path d="M24.1857 28.3852C22.3177 28.3852 20.4496 28.3852 18.6002 28.3852C18.3051 28.3946 18.0137 28.3183 17.7615 28.1654C17.5094 28.0126 17.3075 27.7899 17.1805 27.5246C16.7748 26.8261 17.3006 25.5247 18.3921 25.4609C18.5015 25.4609 18.6136 25.4609 18.723 25.4609H29.7632C30.2382 25.4609 30.6919 25.5194 31.0042 25.9178C31.61 26.6933 31.5993 27.3467 30.8201 28.109C30.5408 28.3231 30.1877 28.4186 29.8379 28.3746C27.9619 28.3825 26.0778 28.3852 24.1857 28.3852Z" fill="#2F2A32"/>
<path d="M24.2448 39.6526H18.5952C18.2539 39.683 17.9131 39.5883 17.6369 39.3863C17.3607 39.1844 17.1682 38.889 17.0954 38.5557C17.0309 38.2374 17.0711 37.907 17.21 37.6133C17.3489 37.3196 17.5792 37.0782 17.8667 36.9249C18.1675 36.798 18.49 36.7295 18.8167 36.723C22.4265 36.7336 26.0381 36.7336 29.6515 36.723C29.8911 36.7185 30.1297 36.7562 30.356 36.8346C31.2581 37.1586 31.6904 38.0032 31.2794 38.8372C31.1763 39.0811 31.0023 39.2887 30.7797 39.4335C30.5572 39.5784 30.2963 39.6537 30.0304 39.6499C28.101 39.642 26.1742 39.6526 24.2448 39.6526Z" fill="#2F2A32"/>
<path d="M24.2762 48.1287H29.9257C30.2565 48.1045 30.5851 48.2 30.8508 48.3976C31.1166 48.5953 31.3016 48.8817 31.3721 49.2044C31.4577 49.5317 31.4243 49.8786 31.2778 50.1838C31.1313 50.489 30.8811 50.7329 30.5715 50.8723C30.2867 50.9775 29.9865 51.0349 29.6829 51.0423C26.0482 51.0529 22.4134 51.0529 18.7787 51.0423C18.5848 51.027 18.3923 50.9986 18.2023 50.9573C17.5058 50.8643 17.2229 50.3411 17.0734 49.7701C16.8573 48.9255 17.7085 48.1234 18.2876 48.126H24.2708L24.2762 48.1287Z" fill="#2F2A32"/>
<path d="M21.4022 45.3538C20.4282 45.3538 19.4567 45.3538 18.4827 45.3538C18.0964 45.3461 17.7289 45.1869 17.46 44.9108C17.1911 44.6348 17.0427 44.2642 17.047 43.8797C17.0553 43.519 17.1954 43.1737 17.4409 42.9082C17.6865 42.6428 18.0208 42.4755 18.3813 42.4375C18.4694 42.4375 18.5601 42.4375 18.6482 42.4375H24.2256C24.8741 42.4375 25.5813 42.9687 25.6988 43.5185C25.7774 43.8745 25.7271 44.2468 25.5567 44.5695C25.3862 44.8922 25.1067 45.1446 24.7674 45.2821C24.6027 45.3379 24.4288 45.3622 24.255 45.3538C23.305 45.3564 22.355 45.3538 21.4022 45.3538Z" fill="#2F2A32"/>
<path d="M21.4447 22.6857C20.4706 22.6857 19.4939 22.6592 18.5091 22.6857C18.2429 22.6978 17.9789 22.6331 17.7487 22.4992C17.5186 22.3654 17.3323 22.1682 17.2122 21.9314C16.9293 21.464 17.02 20.9594 17.3029 20.4627C17.6231 19.9049 18.1356 19.7801 18.68 19.7642C19.7474 19.7323 20.8149 19.7642 21.8824 19.7642C22.6136 19.7642 23.3475 19.7907 24.076 19.7642C24.4514 19.7576 24.8191 19.8712 25.1248 20.0882C25.6425 20.4175 25.7679 20.9567 25.6985 21.5224C25.6617 21.7699 25.5627 22.0041 25.4106 22.2033C25.2585 22.4025 25.0583 22.5602 24.8285 22.6618C24.6807 22.706 24.525 22.7178 24.3722 22.6964L21.4447 22.6857Z" fill="#2F2A32"/>
<path d="M21.4823 31.1638C22.4136 31.1638 23.3503 31.2249 24.2737 31.1452C25.3251 31.0575 25.9309 32.2501 25.648 33.023C25.5582 33.3273 25.3725 33.5948 25.1183 33.7861C24.8641 33.9774 24.5549 34.0823 24.2363 34.0854C22.3735 34.096 20.5117 34.096 18.6508 34.0854C18.2673 34.0957 17.8931 33.9666 17.5984 33.7221C17.3036 33.4777 17.1085 33.1347 17.0496 32.7574C17.03 32.5672 17.0483 32.3751 17.1035 32.1921C17.1587 32.009 17.2496 31.8385 17.3711 31.6905C17.4926 31.5425 17.6422 31.4197 17.8114 31.3294C17.9806 31.239 18.1661 31.1827 18.3572 31.1638C19.4006 31.1531 20.4495 31.1638 21.4823 31.1638Z" fill="#2F2A32"/>
<path d="M51.3023 31.1792C51.3064 31.3788 51.2644 31.5766 51.1798 31.7575C51.0951 31.9385 50.97 32.0977 50.8139 32.223C48.9271 34.0822 47.035 35.9414 45.175 37.8457C45.0418 37.9899 44.8808 38.1057 44.7016 38.1863C44.5223 38.267 44.3285 38.3107 44.1319 38.3149C43.9352 38.3191 43.7397 38.2837 43.5572 38.2109C43.3746 38.138 43.2087 38.0292 43.0694 37.8909C42.0927 36.9932 41.148 36.0556 40.246 35.0862C40.089 34.9322 39.9674 34.7462 39.8895 34.541C39.8116 34.3358 39.7793 34.1163 39.7948 33.8975C39.8102 33.6787 39.8731 33.4658 39.9791 33.2735C40.0851 33.0812 40.2317 32.914 40.4088 32.7834C41.0973 32.3319 41.7564 32.3903 42.3729 32.9826C42.9066 33.4873 43.4217 33.9999 43.9234 34.5311C44.1155 34.7356 44.2116 34.6798 44.3797 34.5125C45.8315 33.057 47.2966 31.6095 48.7484 30.1514C48.8812 30.0075 49.0424 29.8924 49.2219 29.8134C49.4015 29.7343 49.5955 29.6929 49.7918 29.6919C50.4936 29.6759 50.8886 30.0664 51.1821 30.6135C51.2474 30.7959 51.2879 30.9862 51.3023 31.1792Z" fill="#2F2A32"/>
</g>
<defs>
<clipPath id="clip0_4854_17835">
<rect width="57" height="62.32" fill="white"/>
</clipPath>
</defs>
</svg>
