<svg width="52" height="62" viewBox="0 0 52 62" fill="none" xmlns="http://www.w3.org/2000/svg">
<path d="M26.1572 46.7824C23.9994 46.7824 21.8416 46.7542 19.6864 46.7824C18.402 46.8056 17.0868 45.5315 17.1587 44.242C17.1857 43.8366 17.1857 43.4298 17.1587 43.0244C17.13 42.6078 17.0699 42.1939 16.9789 41.7863C16.8288 41.1388 16.4398 40.5719 15.8897 40.1988C13.7583 38.6984 11.9854 36.7449 10.6982 34.4783C9.99143 33.2423 9.44417 31.9217 9.0696 30.5481C8.92832 30.0498 8.81274 29.5412 8.70742 29.0325C8.37605 27.5298 8.41973 25.9989 8.4634 24.4782C8.50849 23.7864 8.6081 23.0993 8.76136 22.4232C8.95119 21.4413 9.23419 20.4797 9.6065 19.5514C9.86744 18.8423 10.1844 18.1552 10.5544 17.4964C10.9471 16.8023 11.3758 16.1293 11.8388 15.4799C12.1753 15.0227 12.5323 14.5758 12.9125 14.1545C13.2927 13.7332 13.7114 13.3222 14.1327 12.9292C15.1578 11.9579 16.3086 11.1286 17.5543 10.4632C18.5035 9.93561 19.5036 9.5053 20.5393 9.17888C21.4366 8.91369 22.3471 8.6959 23.2673 8.52642C24.56 8.29978 25.8753 8.2299 27.1847 8.31833C27.9547 8.37416 28.7197 8.48578 29.4735 8.65228C30.3075 8.83256 31.1315 9.05634 31.9421 9.32272C32.2791 9.43395 32.61 9.56255 32.9337 9.70802C34.0598 10.1772 35.125 10.781 36.1061 11.5061C36.7194 11.9512 37.3077 12.4297 37.8683 12.9395C38.5945 13.6274 39.2806 14.3564 39.9234 15.1229C41.2387 16.8384 42.2318 18.7784 42.8543 20.8486C43.1297 21.81 43.3383 22.7893 43.4786 23.7795C43.6224 24.8661 43.5607 25.945 43.571 27.0238C43.5524 27.8613 43.4421 28.6942 43.2422 29.5078C43.0223 30.5265 42.7172 31.5249 42.3303 32.4926C41.8501 33.7005 41.2421 34.8535 40.5168 35.9321C39.6866 37.112 38.7276 38.1959 37.6577 39.1636C37.2504 39.5314 36.8215 39.8745 36.3733 40.1911C36.1804 40.3199 35.9714 40.4226 35.7516 40.4968C35.1146 40.7382 34.6188 40.4711 34.1898 40.0216C33.9983 39.823 33.8724 39.5704 33.8293 39.298C33.7861 39.0255 33.8277 38.7463 33.9483 38.4983C34.0708 38.181 34.2912 37.911 34.5777 37.7277C34.981 37.4708 35.2893 37.0573 35.6926 36.7927C36.2937 36.3971 36.6507 35.7832 37.1516 35.3028C37.3916 35.0644 37.6052 34.8009 37.7887 34.5168C38.2124 33.9451 38.5952 33.3442 38.9343 32.7187C39.4348 31.729 39.8308 30.6899 40.116 29.6182C40.2547 29.0557 40.3729 28.4828 40.4962 27.9152C40.4975 27.8938 40.4975 27.8723 40.4962 27.8509C40.5666 27.2222 40.6052 26.5904 40.6118 25.9578C40.5786 24.9947 40.4669 24.036 40.2778 23.0911C40.1157 22.2942 39.8898 21.5116 39.6023 20.751C39.1466 19.4873 38.5023 18.3 37.6911 17.2293C37.1681 16.5089 36.58 15.8382 35.934 15.2256C35.0907 14.4306 34.1457 13.7508 33.1238 13.2041C32.2041 12.7443 31.2974 12.2536 30.2981 11.9942C29.5366 11.784 28.765 11.6125 27.9862 11.4805C27.1796 11.3572 26.3781 11.4188 25.5766 11.3751C24.5039 11.35 23.4336 11.4869 22.4017 11.781C21.3437 12.035 20.3213 12.419 19.3576 12.9241C18.4726 13.3638 17.6445 13.9099 16.8916 14.5501C16.3547 15.033 15.7998 15.5005 15.3041 16.0219C14.6496 16.7076 14.0749 17.465 13.5907 18.2799C12.9308 19.3752 12.4129 20.5499 12.0494 21.7759C11.8012 22.6376 11.6293 23.5195 11.5357 24.4114C11.4817 24.9252 11.4355 25.4595 11.4304 25.986C11.459 26.7201 11.5379 27.4514 11.6667 28.1746C11.8986 29.7723 12.421 31.3141 13.2079 32.7238C13.6486 33.5864 14.1976 34.3892 14.8417 35.1127C15.1705 35.4698 15.4582 35.8834 15.8152 36.1993C16.399 36.7506 17.0113 37.2711 17.6494 37.7585C18.9053 38.6715 19.7616 40.0329 20.0409 41.5602C20.1693 42.1998 20.1129 42.8266 20.1488 43.4585C20.1694 43.8053 20.1488 43.8156 20.5033 43.8156H25.6409C28.2096 43.8156 30.7785 43.8156 33.3319 43.8156C33.8367 43.809 34.3376 43.9036 34.8053 44.0937C35.2729 44.2839 35.6978 44.5657 36.0547 44.9227C36.4321 45.2893 36.7311 45.7289 36.9333 46.2146C37.1356 46.7004 37.2369 47.2222 37.2313 47.7483C37.2425 48.2646 37.1519 48.7782 36.9646 49.2595C36.7773 49.7408 36.4969 50.1805 36.1395 50.5533C35.5984 51.115 34.8967 51.4954 34.1307 51.6425C33.6114 51.7366 33.0834 51.7737 32.5561 51.753H21.9803C21.6844 51.7352 21.3906 51.8136 21.1429 51.9764C20.9954 52.0836 20.8843 52.2334 20.8246 52.4056C20.7649 52.5779 20.7595 52.7643 20.809 52.9397C20.8421 53.0934 20.9188 53.2343 21.03 53.3455C21.1411 53.4567 21.2821 53.5334 21.4358 53.5665C21.6758 53.6462 21.928 53.6827 22.1807 53.6744C24.9781 53.6744 27.7781 53.6538 30.5755 53.6744C31.6492 53.6744 32.7025 53.8516 33.6067 54.5452C33.9226 54.7911 34.1952 55.088 34.4133 55.4236C34.9019 56.0844 35.1583 56.8882 35.1428 57.7098C35.1227 58.7076 34.7295 59.6616 34.0408 60.3839C33.4489 60.9813 32.6999 61.399 31.8805 61.5886C31.734 61.6161 31.5848 61.6256 31.4361 61.6168H22.7202C22.336 61.636 21.9595 61.504 21.6715 61.249C21.3834 60.9941 21.2066 60.6365 21.1789 60.2529C21.1671 60.0539 21.1951 59.8546 21.2612 59.6666C21.3273 59.4787 21.4302 59.3057 21.5639 59.1579C21.6976 59.0101 21.8593 58.8905 22.0398 58.8059C22.2202 58.7213 22.4157 58.6736 22.6148 58.6654C23.6834 58.6654 24.752 58.6654 25.8207 58.6654C27.4647 58.6654 29.1088 58.6654 30.7554 58.6654C30.9639 58.6607 31.1706 58.6261 31.3693 58.5626C31.4881 58.539 31.601 58.4916 31.7012 58.4235C31.8013 58.3553 31.8867 58.2677 31.9524 58.1658C32.018 58.064 32.0626 57.95 32.0833 57.8306C32.1041 57.7113 32.1006 57.589 32.0731 57.4709C32.0243 57.1421 31.5594 56.7774 31.133 56.7517C31.0045 56.7517 30.8761 56.7517 30.7476 56.7517C29.5943 56.7517 28.4357 56.7671 27.2875 56.7517C26.2934 56.7337 25.2992 56.6567 24.3051 56.6361C23.311 56.6156 22.2937 56.6695 21.2919 56.6155C20.7077 56.5738 20.1422 56.3923 19.6428 56.0864C19.0198 55.7293 18.5117 55.2017 18.1785 54.5657C17.946 54.1446 17.7944 53.6837 17.7315 53.2068C17.6241 52.4152 17.7593 51.6096 18.1193 50.8964C18.4793 50.1832 19.0473 49.5961 19.7481 49.2125C20.1487 48.9966 20.583 48.8498 21.0325 48.7783C21.7036 48.6828 22.3821 48.651 23.0592 48.6833C26.4552 48.6833 29.8537 48.6833 33.2496 48.6833C33.4704 48.6825 33.6851 48.6106 33.8618 48.4783C34.0385 48.346 34.168 48.1603 34.2309 47.9487C34.2571 47.7272 34.2076 47.5035 34.0905 47.3137C33.9735 47.1239 33.7958 46.9793 33.5862 46.9032C33.3277 46.8173 33.0571 46.7731 32.7847 46.7722C30.5601 46.7773 28.3586 46.7824 26.1572 46.7824Z" fill="#2F2A32"/>
<path d="M7.29199 8.5446C7.30484 7.80224 7.89564 7.14209 8.48903 7.17291C8.85007 7.18421 9.19415 7.32878 9.45489 7.57876C10.3874 8.51891 11.3301 9.44879 12.2575 10.4044C12.4772 10.6318 12.6782 10.8767 12.8585 11.1365C13.1617 11.5654 12.9716 12.4619 12.5144 12.7625C12.2678 12.9344 11.9687 13.0144 11.6693 12.9886C11.3698 12.9628 11.0889 12.8328 10.8754 12.6212C9.88903 11.5937 8.8615 10.5893 7.8494 9.57981C7.54904 9.30992 7.35198 8.94392 7.29199 8.5446Z" fill="#2F2A32"/>
<path d="M44.7354 8.4491C44.7149 8.83101 44.5517 9.19132 44.2782 9.45862C43.201 10.5529 42.1161 11.6386 41.0236 12.7157C40.4584 13.2706 39.5131 12.9315 39.2254 12.4589C39.0827 12.2099 39.0212 11.9226 39.0498 11.6371C39.0784 11.3515 39.1954 11.082 39.3846 10.8663C40.3325 9.76943 41.4011 8.79588 42.3978 7.75041C42.5981 7.5337 42.8487 7.36962 43.1274 7.27263C43.2904 7.2131 43.4654 7.19368 43.6376 7.21603C43.8097 7.23839 43.9739 7.30187 44.1164 7.40107C44.458 7.63996 44.7714 7.9559 44.7354 8.4491Z" fill="#2F2A32"/>
<path d="M48.3369 27.1617C47.5483 27.1617 46.7597 27.1617 45.9711 27.1617C45.8202 27.1667 45.6698 27.14 45.5298 27.0835C45.3897 27.027 45.2631 26.9418 45.1579 26.8334C45.0527 26.7251 44.9713 26.596 44.9189 26.4543C44.8665 26.3127 44.8443 26.1617 44.8537 26.0109C44.8537 25.1966 45.3212 24.7266 46.1509 24.7266C47.6434 24.7266 49.1358 24.7266 50.6257 24.7266C51.3964 24.7266 51.8793 25.1145 51.9949 25.9647C52.0309 26.2216 51.8254 26.5581 51.6661 26.8175C51.5804 26.9396 51.464 27.0368 51.3287 27.0995C51.1934 27.1622 51.044 27.1881 50.8954 27.1746C50.0426 27.1566 49.1898 27.1617 48.3369 27.1617Z" fill="#2F2A32"/>
<path d="M27.1697 3.61554C27.1697 4.38615 27.1697 5.15677 27.1697 5.92739C27.1888 6.07451 27.1719 6.22404 27.1204 6.36318C27.069 6.50233 26.9845 6.62693 26.8743 6.72626C26.6434 6.93648 26.3558 7.07407 26.0472 7.12185C25.8806 7.1301 25.714 7.10529 25.5571 7.04886C25.4001 6.99242 25.2559 6.90548 25.1327 6.79305C24.9011 6.58271 24.7571 6.29293 24.7294 5.98132C24.7011 5.53693 24.7294 5.08741 24.7294 4.64046C24.7294 3.55388 24.7448 2.46476 24.7294 1.37819C24.7047 1.05081 24.8079 0.726588 25.0172 0.473675C25.2265 0.220763 25.5257 0.0588422 25.8519 0.0218905C26.1319 -0.0346214 26.4993 0.155471 26.7793 0.3173C26.9133 0.404306 27.0213 0.525904 27.0918 0.669246C27.1624 0.812588 27.1928 0.972322 27.18 1.13157C27.162 1.95099 27.1671 2.77556 27.1697 3.61554Z" fill="#2F2A32"/>
<path d="M3.58056 27.1606C2.79194 27.1606 2.00333 27.1606 1.21471 27.1606C1.06745 27.1809 0.917428 27.164 0.778345 27.1115C0.639263 27.059 0.515508 26.9726 0.418364 26.86C0.219503 26.5936 0.0793925 26.2881 0.00733235 25.9636C-0.0825753 25.4704 0.57505 24.7794 1.1145 24.7177C1.17866 24.7139 1.24299 24.7139 1.30715 24.7177H5.84368C6.06471 24.7046 6.28483 24.7553 6.47791 24.8636C6.67099 24.972 6.82891 25.1336 6.93284 25.3291C7.04815 25.5235 7.10894 25.7453 7.10894 25.9713C7.10894 26.1973 7.04815 26.4191 6.93284 26.6135C6.84236 26.7927 6.70032 26.9409 6.52501 27.0388C6.34969 27.1368 6.14909 27.1801 5.94897 27.1631C5.15522 27.158 4.36918 27.1606 3.58056 27.1606Z" fill="#2F2A32"/>
</svg>
