<svg width="200" height="78" viewBox="0 0 200 78" fill="none" xmlns="http://www.w3.org/2000/svg">
<g id="Frame" clip-path="url(#clip0_1_335)">
<path id="Vector" fill-rule="evenodd" clip-rule="evenodd" d="M74.5084 30.0421C62.9997 25.3741 52.1042 14.3952 45.0098 0C42.9165 3.65095 42.1283 7.89301 42.7676 14.3169C35.8397 13.6998 30.6371 13.0652 16.4922 9.44901C20.8714 13.6302 30.8473 21.4015 45.763 25.9652C54.4515 28.1384 66.9673 29.4771 74.5084 30.0421Z" fill="#E2E2E2"/>
<path id="Vector_2" fill-rule="evenodd" clip-rule="evenodd" d="M133.129 15.4905C140.258 10.2748 146.74 4.90269 155.498 2.67735C168.163 0.252073 179.742 7.62352 166.91 22.1578C156.917 32.3022 136.799 42.3684 108.229 42.3684H108.176C91.027 42.3684 70.8474 38.7262 47.979 29.3293C80.4642 36.8659 106.976 36.8659 133.085 15.4905H133.129Z" fill="#E2E2E2"/>
<path id="Vector_3" d="M20.9415 53.6168L14.4077 67.8034C14.3768 67.8834 14.3417 67.9617 14.3026 68.0381L14.1362 68.4032C13.7245 69.2725 13.4005 70.0548 13.1903 70.6633L12.4984 68.9247L12.4458 68.803C12.2619 68.351 12.1305 68.012 12.0254 67.8208L5.43026 53.7994L5.35143 53.6168L0 77.0264H3.50339L5.8857 66.0648C6.02029 65.5354 6.12266 64.9983 6.19225 64.4567C6.19225 64.1003 6.27107 63.7352 6.29735 63.3875C6.39369 63.7178 6.51631 64.0568 6.63893 64.3871C6.82286 64.8652 7.03306 65.3346 7.26954 65.8301L13.1377 77.8783L13.199 78L19.1023 66.0648C19.3533 65.5623 19.567 65.0423 19.7416 64.5088C19.8642 64.135 19.9693 63.7526 20.0569 63.3701C20.1007 63.7526 20.162 64.1785 20.2146 64.5871C20.3109 65.4042 20.3722 65.8562 20.416 66.0214L22.8859 76.9829V77.0351H26.3893L21.0204 53.8081L20.9415 53.6168Z" fill="#E2E2E2"/>
<path id="Vector_4" d="M38.4586 53.7212L27.5543 76.9395L27.5105 77.0264H31.5306L34.1582 71.3153H42.9167L45.4391 76.983H49.4155L38.5374 53.895L38.4586 53.7212ZM37.7404 63.205C37.8893 62.8312 38.0294 62.4487 38.1608 62.0402C38.2922 61.6316 38.3798 61.3447 38.4849 60.9188C38.6075 61.3273 38.7214 61.7185 38.844 62.0836C38.9666 62.4487 39.1155 62.8486 39.2644 63.205L41.5153 68.1685H35.4807L37.7404 63.205Z" fill="#E2E2E2"/>
<path id="Vector_5" d="M61.8525 65.0913C62.7913 63.8807 63.2578 62.3742 63.1663 60.8493C63.1803 59.881 62.9862 58.9208 62.597 58.0328C62.2438 57.2075 61.6865 56.4839 60.9766 55.9292C60.3449 55.4602 59.6191 55.1312 58.8483 54.9643C57.695 54.7393 56.5199 54.6431 55.3449 54.6774H50.23V77.0265H53.7334V67.0993H54.0399L61.4584 77.0004H65.7413L58.0951 66.9342C59.5376 66.8147 60.8806 66.1561 61.8525 65.0913ZM53.9699 57.9198H54.5567C56.3697 57.9198 57.6221 58.1719 58.279 58.6674C58.6413 58.9758 58.9218 59.3677 59.0958 59.8087C59.2699 60.2497 59.3323 60.7264 59.2775 61.197C59.3277 61.6273 59.2691 62.0632 59.107 62.4654C58.9449 62.8675 58.6844 63.2233 58.3491 63.5006C57.7272 63.9352 56.4573 64.1525 54.5567 64.1525H53.9699V57.9198Z" fill="#E2E2E2"/>
<path id="Vector_6" d="M70.8735 54.7035H67.0986V77.0352H70.8735V54.7035Z" fill="#E2E2E2"/>
<path id="Vector_7" d="M90.0371 54.8165L90.1422 54.7035H85.5177L77.5738 63.77V54.7035H73.8076V77.0265H77.5738V65.8215L86.2972 77.0004L86.3235 77.0265H91.1845L81.2261 64.6393L90.0371 54.8165Z" fill="#E2E2E2"/>
<path id="Vector_8" d="M110.199 57.5894C107.914 55.4036 104.864 54.1824 101.69 54.1824C98.5167 54.1824 95.4667 55.4036 93.1815 57.5894C92.0606 58.6685 91.1721 59.9622 90.5699 61.3922C89.9677 62.8221 89.6643 64.3586 89.6781 65.9084C89.6589 67.4556 89.9569 68.9905 90.554 70.4199C91.1666 71.8393 92.0601 73.1222 93.1815 74.1925C94.3012 75.281 95.6255 76.1404 97.079 76.7221C98.5522 77.3067 100.126 77.6019 101.712 77.5914C103.279 77.6029 104.833 77.3075 106.284 76.7221C107.741 76.1331 109.07 75.2714 110.199 74.1838C111.322 73.1116 112.216 71.8255 112.827 70.4025C113.734 68.2501 113.969 65.8768 113.5 63.5905C113.032 61.3042 111.882 59.2103 110.199 57.5807V57.5894ZM101.712 74.1056C100.641 74.1082 99.5795 73.8963 98.5923 73.4826C97.6051 73.0689 96.7121 72.4618 95.9667 71.6977C95.2107 70.9353 94.6152 70.031 94.215 69.0377C93.8053 68.0357 93.597 66.9637 93.6019 65.8823C93.5952 64.7894 93.8034 63.7057 94.215 62.692C94.6161 61.6966 95.2114 60.7897 95.9667 60.0234C96.7138 59.262 97.6073 58.6574 98.5942 58.2453C99.5812 57.8331 100.642 57.6219 101.712 57.6242C102.781 57.6183 103.84 57.8314 104.822 58.25C105.807 58.6477 106.7 59.2391 107.449 59.9886C108.207 60.7598 108.802 61.6728 109.201 62.6747C110.018 64.7031 110.018 66.9658 109.201 68.9943C108.386 70.9908 106.813 72.5893 104.822 73.445C103.845 73.8885 102.786 74.1225 101.712 74.1317V74.1056Z" fill="#E2E2E2"/>
<path id="Vector_9" d="M134.732 53.6168L128.207 67.8034L128.119 67.9946L127.935 68.4032C127.578 69.1399 127.26 69.8942 126.98 70.6633L126.289 68.9247L126.218 68.7509C126.043 68.3162 125.912 68.0033 125.824 67.8208L119.115 53.6168L113.764 77.0264H117.267L119.685 66.0648C119.817 65.5352 119.916 64.9982 119.982 64.4567C120.035 64.1264 120.061 63.7786 120.088 63.3788C120.193 63.7178 120.307 64.0568 120.438 64.3871C120.631 64.8739 120.832 65.3433 121.068 65.8301L126.919 77.8957L126.98 78.0174L132.892 66.0648C133.14 65.561 133.354 65.0411 133.532 64.5088C133.657 64.1379 133.762 63.7607 133.847 63.3788C133.9 63.7786 133.952 64.1785 133.996 64.5871C134.101 65.4563 134.162 65.8562 134.206 66.0214L136.676 76.9829V77.0351H140.18L134.749 53.8168L134.732 53.6168Z" fill="#E2E2E2"/>
<path id="Vector_10" d="M141.879 77.0265H154.5V73.6624H145.645V66.6212H154.5V63.318H145.645V57.8937H154.5V54.7035H141.879V77.0265Z" fill="#E2E2E2"/>
<path id="Vector_11" d="M168.356 65.0913C169.303 63.8845 169.773 62.376 169.678 60.8492C169.691 59.8802 169.494 58.9197 169.1 58.0328C168.777 57.2555 168.266 56.569 167.612 56.0339C166.958 55.4988 166.182 55.1315 165.351 54.9642C164.198 54.7387 163.023 54.6425 161.848 54.6774H156.777V77.0264H160.28V67.0993H160.587L168.005 77.0003H172.288L164.607 66.9341C166.044 66.8059 167.382 66.1485 168.356 65.0913ZM160.473 57.9198H161.06C162.864 57.9198 164.116 58.1719 164.782 58.6673C165.143 58.9766 165.422 59.3689 165.594 59.8099C165.767 60.2509 165.828 60.7271 165.772 61.1969C165.823 61.6265 165.766 62.0619 165.605 62.4641C165.445 62.8662 165.186 63.2224 164.852 63.5005C164.23 63.9352 162.96 64.1525 161.06 64.1525H160.473V57.9198Z" fill="#E2E2E2"/>
<path id="Vector_12" d="M190.357 56.5028C189.278 55.7618 188.098 55.1764 186.854 54.7643C185.63 54.3804 184.353 54.1869 183.07 54.1905C181.469 54.184 179.882 54.479 178.393 55.0598C176.954 55.6209 175.646 56.4668 174.548 57.5459C173.437 58.6228 172.564 59.9162 171.982 61.3447C171.392 62.8095 171.094 64.3743 171.106 65.9518C171.097 67.5348 171.394 69.1047 171.982 70.5764C172.561 71.9936 173.427 73.2784 174.524 74.3517C175.622 75.425 176.93 76.2642 178.367 76.8178C179.887 77.3981 181.502 77.6929 183.131 77.687C184.406 77.701 185.675 77.5251 186.897 77.1655C188.048 76.8242 189.131 76.2923 190.103 75.5921V71.2805L189.989 71.3761C188.972 72.2618 187.811 72.9701 186.556 73.471C185.361 73.9344 184.09 74.1703 182.807 74.1665C181.763 74.1906 180.726 73.9973 179.762 73.5991C178.798 73.2008 177.929 72.6064 177.21 71.8542C175.781 70.1945 175.007 68.0773 175.029 65.8942C175.052 63.7112 175.87 61.6102 177.333 59.9799C178.103 59.2057 179.027 58.5995 180.047 58.1999C181.066 57.8002 182.159 57.616 183.254 57.6589C184.478 57.6557 185.693 57.8767 186.836 58.3109C188.02 58.7685 189.116 59.4241 190.077 60.2494L190.182 60.345L190.392 56.5637L190.357 56.5028Z" fill="#E2E2E2"/>
<path id="Vector_13" fill-rule="evenodd" clip-rule="evenodd" d="M196.961 60.7275C197.562 60.7275 198.15 60.5506 198.649 60.2191C199.149 59.8877 199.539 59.4166 199.769 58.8654C199.999 58.3142 200.059 57.7077 199.942 57.1226C199.824 56.5375 199.535 56 199.11 55.5782C198.685 55.1563 198.143 54.869 197.554 54.7527C196.964 54.6363 196.353 54.696 195.798 54.9243C195.242 55.1526 194.768 55.5392 194.434 56.0353C194.1 56.5313 193.922 57.1145 193.922 57.7111C193.919 58.1078 193.996 58.5011 194.148 58.8681C194.3 59.2351 194.524 59.5686 194.807 59.8491C195.089 60.1297 195.425 60.3518 195.795 60.5025C196.165 60.6533 196.561 60.7298 196.961 60.7275ZM196.961 59.9451C196.516 59.9451 196.08 59.8141 195.71 59.5686C195.34 59.3231 195.052 58.9742 194.881 58.566C194.711 58.1578 194.666 57.7086 194.753 57.2752C194.84 56.8419 195.054 56.4438 195.369 56.1314C195.684 55.8189 196.085 55.6062 196.522 55.52C196.958 55.4338 197.411 55.478 197.822 55.6471C198.234 55.8162 198.585 56.1025 198.832 56.4699C199.08 56.8373 199.212 57.2692 199.212 57.7111C199.232 58.0112 199.188 58.3122 199.082 58.5942C198.977 58.8762 198.812 59.1329 198.6 59.3472C198.387 59.5616 198.131 59.7288 197.849 59.8378C197.566 59.9469 197.264 59.9953 196.961 59.9799V59.9451ZM197.609 57.9545C197.714 57.9459 197.816 57.9163 197.909 57.8675C198.002 57.8187 198.085 57.7516 198.151 57.6704C198.217 57.5891 198.266 57.4954 198.295 57.3948C198.324 57.2942 198.332 57.1889 198.318 57.0852C198.318 56.3463 197.916 56.1203 197.241 56.1203H195.7V59.2845H196.365V57.9545H196.882L197.591 59.2845H198.371L197.609 57.9545ZM196.365 57.3721V56.7549H197.066C197.399 56.7549 197.688 56.7549 197.688 57.033C197.688 57.3112 197.399 57.3721 197.066 57.3721H196.365Z" fill="#E2E2E2"/>
</g>
<defs>
<clipPath id="clip0_1_335">
<rect width="200" height="78" fill="white"/>
</clipPath>
</defs>
</svg>
