<svg width="198" height="117" viewBox="0 0 198 117" fill="none" xmlns="http://www.w3.org/2000/svg">
<g id="Frame">
<g id="yJmrHv.tif">
<path id="Vector" d="M1.3953 20.5378L13.9572 33.6134C19.3625 28.1435 24.5824 22.9053 29.7584 17.603C31.617 15.6992 33.8318 15.3835 35.7149 17.2381C40.9836 22.4318 46.1498 27.7291 51.3258 33.0215C51.5758 33.2895 51.7214 33.6399 51.7356 34.008C51.7649 37.2486 51.9844 40.5088 51.6527 43.7148C51.4527 45.6878 49.4281 46.7828 48.111 48.1194C44.0277 52.2527 39.7591 56.243 35.5734 60.3072C34.9053 61.0016 33.9923 61.4002 33.0343 61.4159C32.0762 61.4317 31.151 61.0632 30.4609 60.3911C26.3435 56.3219 22.3139 52.2034 18.2307 48.1145C17.1721 47.0738 16.0159 46.0873 14.9768 44.9923C14.1475 44.1144 13.484 44.3215 12.7327 45.1008C9.14872 48.7179 5.55496 52.3349 1.95144 55.952C1.73679 56.169 1.61483 56.5784 1.19528 56.3959C0.775741 56.2134 0.761106 55.8188 0.761106 55.4587C0.761106 52.7953 0.59524 50.1121 0.834282 47.4684C0.990391 45.7716 2.78565 45.0022 3.82475 43.8036C5.06386 42.4127 6.46397 41.1698 7.77626 39.8578C8.50802 39.1179 8.50802 38.3781 7.69333 37.6727C5.54683 35.7294 3.80035 33.3767 1.4636 31.6503C1.26828 31.4737 1.11016 31.259 0.998687 31.0192C0.887212 30.7794 0.824662 30.5193 0.814768 30.2545C0.756227 27.4283 0.775741 24.5971 0.814768 21.7709C0.805012 21.5292 1.01966 21.2924 1.3953 20.5378ZM46.5255 38.7874C46.4037 38.4673 46.2396 38.1653 46.0376 37.8898C41.9495 33.7696 37.8565 29.6528 33.7587 25.5392C33.1001 24.8684 32.4708 25.1199 31.9537 25.6428C27.8607 29.7563 23.8018 33.9044 19.6991 38.0131C19.1527 38.5606 19.2113 38.9453 19.6991 39.4434C23.8035 43.6162 27.9208 47.7923 32.0512 51.9716C32.7098 52.6375 33.2416 52.6375 33.9587 51.8976C37.8614 47.8728 41.8373 43.9072 45.7742 39.9071C46.0568 39.5605 46.3082 39.1891 46.5255 38.7973V38.7874Z" fill="#E2E2E2"/>
<path id="Vector_2" d="M57.2775 20.5822C59.3899 22.9793 61.4779 25.3913 63.6195 27.7538C65.1611 29.4555 66.7807 31.0832 68.3613 32.7454C68.9662 33.3767 69.4492 33.4655 70.1614 32.7454C75.1277 27.6799 80.1231 22.6637 85.1138 17.6475C87.2164 15.5364 89.3872 15.5167 91.4557 17.5982C96.4252 22.6094 101.39 27.6273 106.349 32.6517C106.549 32.8539 106.837 33.0413 106.91 33.283C107.398 35.468 107.081 37.6876 107.12 39.8923C107.159 42.0971 107.413 44.075 105.442 45.9197C100.466 50.561 95.8365 55.5673 90.9435 60.3023C89.1628 62.0237 87.1237 61.713 85.3723 59.9226C80.1329 54.5759 74.8886 49.2391 69.1418 43.3844C66.0001 46.7631 62.995 50.0036 59.9753 53.2244C59.0826 54.1764 58.1557 55.0889 57.2239 55.9964C57.0133 56.1563 56.7818 56.2858 56.536 56.3811C56.3945 56.1099 56.1311 55.8435 56.1311 55.5722C56.1067 52.8644 56.0238 50.1467 56.1604 47.4536C56.2531 45.6681 58.0678 45.0812 59.0874 43.9319C60.4241 42.4128 61.8096 40.938 63.1804 39.4484C63.8829 38.6839 63.5756 38.0822 62.9463 37.4755C61.0388 35.5765 59.185 33.6233 57.2434 31.7589C56.8464 31.4162 56.5342 30.9844 56.3318 30.4979C56.1293 30.0115 56.0422 29.4839 56.0775 28.9573C56.1604 26.9104 56.0775 24.8586 56.0775 22.8067C56.1018 22.2198 56.0335 21.6279 57.2775 20.5822ZM74.8398 38.1068L88.6018 52.5931L101.217 39.769C101.944 39.0341 101.808 38.3584 101.115 37.6629C97.1764 33.6973 93.2493 29.7219 89.3336 25.7365C88.5823 24.972 87.9237 25.0707 87.2554 25.7365C82.9868 29.9783 78.7328 34.2497 74.8398 38.1068Z" fill="#E2E2E2"/>
<path id="Vector_3" d="M69.8688 79.425C70.9664 82.7889 68.4784 85.2649 65.6343 87.8593C61.5755 91.5684 57.8288 95.6376 53.9505 99.5391C51.5991 101.907 49.4916 101.783 47.1207 99.3664C42.7302 94.8534 38.2811 90.4142 33.8563 85.9357C33.6654 85.7279 33.4909 85.5052 33.3344 85.2698C32.4123 83.948 31.5781 83.6372 30.2756 85.0232C26.9534 88.5498 23.4848 91.9285 20.0797 95.3811C19.7626 95.7066 19.5187 96.0914 18.9674 95.899C18.4162 95.7067 18.3967 95.1789 18.4015 94.6857C18.4114 94.6038 18.4114 94.5209 18.4015 94.439C16.6843 87.4844 21.1871 83.5879 25.524 79.5927C26.3485 78.8331 26.4704 78.2215 25.5777 77.3732C23.7288 75.6074 22.0847 73.6048 20.1383 71.9476C17.6405 69.8415 18.5186 67.0942 18.4503 64.5491C18.4211 63.4442 17.7234 61.7968 18.8991 61.2839C20.2017 60.7167 20.8505 62.4627 21.6506 63.2568C24.7288 66.2162 27.7144 69.2792 30.6854 72.352C31.4367 73.1313 31.9489 73.1165 32.6904 72.352C37.5103 67.4197 42.3692 62.5712 47.1939 57.6685C49.8478 54.9705 51.6235 54.9508 54.253 57.6685C58.6923 62.2703 62.8585 67.1829 67.6588 71.3557C70.2493 73.6196 69.6053 75.9872 69.8688 79.425ZM50.5747 64.7316C50.3654 64.8344 50.1689 64.9619 49.9893 65.1114C45.8361 69.3006 41.6943 73.493 37.5639 77.6888C37.4359 77.7918 37.3325 77.9227 37.2614 78.0717C37.1903 78.2208 37.1534 78.3841 37.1534 78.5495C37.1534 78.715 37.1903 78.8783 37.2614 79.0273C37.3325 79.1763 37.4359 79.3072 37.5639 79.4102C41.6911 83.5731 45.8572 87.6669 50.0234 91.8101C50.6039 92.3921 51.0771 92.4266 51.6577 91.8397C55.749 87.6834 59.8469 83.5336 63.9513 79.3905C64.5708 78.7641 64.7269 78.2462 64.0196 77.5409C60.1998 73.7134 56.4239 69.8415 52.5992 66.0189C52.0723 65.4862 51.5357 64.8746 50.5747 64.7316Z" fill="#E2E2E2"/>
<path id="Vector_4" d="M126.663 80.4361C127.853 77.2942 128.834 74.6752 129.839 72.0512C130.395 70.6158 130.815 68.7712 132.542 68.5985C134.4 68.416 136.478 67.6121 138.186 69.3236C138.771 69.9007 138.727 70.5665 138.732 71.2521C138.732 76.3768 138.522 81.5212 138.859 86.6262C139.025 89.2354 137.942 89.5856 135.932 89.704C133.922 89.8223 133.103 88.9937 133.225 86.8876C133.38 84.251 133.254 81.6052 132.849 78.9959C131.844 81.7284 130.785 84.4214 129.854 87.1934C129.336 88.7274 128.663 89.778 126.814 89.7237C125.043 89.6744 123.79 89.4426 123.243 87.297C122.48 84.5621 121.378 81.9355 119.965 79.4792V86.6361C119.965 89.3538 117.984 90.6115 115.492 89.4672C114.731 89.117 114.516 88.4512 114.516 87.6521C114.516 82.0737 114.516 76.4952 114.516 70.9167C114.516 69.3581 115.345 68.4999 116.906 68.4506C122.009 68.2286 122.868 68.9438 124.385 74.1967C124.956 76.1302 125.765 77.9897 126.663 80.4361Z" fill="#E2E2E2"/>
<path id="Vector_5" d="M80.3621 79.2376C80.3621 76.5741 80.3621 73.9106 80.3621 71.2472C80.3621 69.4124 81.0451 68.2878 83.1233 68.4357C85.9723 68.6676 88.8261 68.1497 91.6751 69.0671C94.8851 70.0979 96.9877 72.1597 97.6756 75.3361C98.5829 79.5286 98.461 83.7211 95.1681 87.0159C93.5338 88.643 91.3295 89.5508 89.0359 89.5412C86.9284 89.5708 84.8161 89.4574 82.694 89.5708C80.9378 89.6695 80.367 88.752 80.3524 87.228C80.3475 84.5596 80.367 81.901 80.3621 79.2376ZM85.9772 78.9515C85.9772 80.5052 86.0162 82.0589 85.9772 83.6126C85.9479 84.525 86.3577 84.8703 87.187 84.9048C89.7579 85.0084 91.2653 83.7359 92.1093 81.3239C93.2411 78.0686 91.9873 73.4618 87.5041 73.0869C86.4747 72.9982 85.9089 73.3434 85.9772 74.537C86.0455 76.0069 85.982 77.4817 85.9772 78.9515Z" fill="#E2E2E2"/>
<path id="Vector_6" d="M155.738 89.7138C153.787 90.1182 152.811 88.8901 152.48 86.8678C152.275 85.5904 151.548 84.8949 150.299 85.1366C148.806 85.4029 147.011 84.229 145.835 86.0195C145.582 86.4349 145.399 86.8899 145.294 87.366C144.806 89.477 141.791 90.7397 140.108 89.3735C138.776 88.2982 139.688 86.8185 140.084 85.6298C141.757 80.5347 143.552 75.4791 145.318 70.4135C145.718 69.2742 146.338 68.4406 147.757 68.4406C153.226 68.4406 151.855 67.8635 154.143 73.9106C155.763 78.2017 156.958 82.6556 158.773 86.8826C159.578 88.7767 158.67 89.699 155.738 89.7138ZM149.396 77.1314C149.116 77.21 148.855 77.3453 148.628 77.5291C148.402 77.7129 148.214 77.9412 148.077 78.2004C147.941 78.4596 147.857 78.7442 147.832 79.0369C147.808 79.3296 147.842 79.6244 147.933 79.9034C148.191 80.7665 149.348 80.3966 150.167 79.9872C149.889 79.0254 149.645 78.1031 149.387 77.1314H149.396Z" fill="#E2E2E2"/>
<path id="Vector_7" d="M165.49 81.6987C164.91 83.6322 165.154 85.5262 165.237 87.3611C165.334 89.6201 163.959 89.6546 162.412 89.6743C160.866 89.6941 159.553 89.6151 159.597 87.3808C159.709 82.0144 159.67 76.6431 159.597 71.2718C159.597 69.2249 160.446 68.3124 162.451 68.4456C165.178 68.6429 167.959 67.9918 170.632 69.1164C174.481 70.7342 175.999 75.2177 173.306 78.3743C171.496 80.4755 173.101 81.6692 173.657 83.1883C174.174 84.5891 174.911 85.8962 175.291 87.366C175.725 89.0627 174.998 89.477 173.486 89.7089C170.608 90.1478 169.515 88.6237 168.7 86.1625C168.169 84.5003 167.881 82.4139 165.49 81.6987ZM165.173 75.0302C165.32 75.8046 164.788 76.9686 166.266 76.8799C167.456 76.8108 168.788 76.7861 168.778 75.0894C168.778 73.5308 167.622 73.2398 166.339 73.1658C164.793 73.077 165.378 74.2904 165.173 75.0302Z" fill="#E2E2E2"/>
<path id="Vector_8" d="M191.775 68.2828C193.073 68.2481 194.359 68.5414 195.517 69.1361C197.434 70.2261 197.303 71.9919 196.629 73.3927C195.956 74.7935 194.512 74.098 193.429 73.4371C192.773 73.1053 192.036 72.9733 191.307 73.0573C191 73.0162 190.688 73.0816 190.422 73.2428C190.156 73.4041 189.952 73.6516 189.843 73.9451C189.551 74.7343 190.161 75.0056 190.595 75.2916C192.439 76.505 194.658 77.0327 196.298 78.6505C198.215 80.5495 198.22 82.9071 197.644 85.1662C197.068 87.4252 195.302 88.9887 192.897 89.5806C190.117 90.2613 187.443 90.1281 184.892 88.7125C183.38 87.874 183.062 84.8209 184.404 83.7802C185.38 83.0354 186.126 84.0662 186.98 84.2734C187.56 84.4115 188.092 84.816 188.673 84.8949C190.004 85.0872 191.741 85.3043 192.009 83.647C192.219 82.3843 190.575 81.8862 189.482 81.4028C186.931 80.2782 184.463 78.981 184.116 75.8293C183.653 70.7489 186.082 68.2828 191.775 68.2828Z" fill="#E2E2E2"/>
<path id="Vector_9" d="M99.6466 79.134C99.6466 76.1746 99.6759 73.2152 99.6466 70.2854C99.6466 68.8057 100.349 68.3125 101.691 68.4506C103.154 68.5985 105.252 67.7798 105.306 70.3051C105.423 76.1598 105.393 82.0194 105.306 87.8741C105.281 90.0443 103.505 89.7188 102.144 89.7484C100.881 89.778 99.5685 89.8322 99.6222 87.8593C99.7051 84.9344 99.6466 82.0243 99.6466 79.134Z" fill="#E2E2E2"/>
<path id="Vector_10" d="M176.886 79.0896C176.886 76.1795 176.915 73.2694 176.886 70.3594C176.886 68.7021 177.808 68.3864 179.174 68.4407C180.54 68.4949 182.394 68.1842 182.423 70.3791C182.501 76.1598 182.477 81.9405 182.423 87.7212C182.423 89.7928 180.808 89.6547 179.428 89.6596C178.047 89.6645 176.779 89.7583 176.857 87.6867C176.964 84.8309 176.886 81.9602 176.886 79.0896Z" fill="#E2E2E2"/>
<path id="Vector_11" d="M41.847 37.8947C41.9153 39.7542 40.8713 40.7703 39.0224 40.8541C37.1735 40.938 36.1783 39.8677 36.0661 38.023C35.9344 35.9169 37.193 34.8219 39.0468 34.817C40.7396 34.7923 41.9007 35.833 41.847 37.8947Z" fill="#E2E2E2"/>
<path id="Vector_12" d="M97.1146 37.7763C97.1829 39.7492 95.9096 40.6814 94.3485 40.6716C92.7045 40.6716 91.5386 39.6407 91.5825 37.6481C91.6264 35.6554 92.8509 35.1819 94.4754 35.1819C96.1926 35.1474 97.0805 36.0302 97.1146 37.7763Z" fill="#E2E2E2"/>
<path id="Vector_13" d="M56.9067 80.4311C54.7114 80.6136 53.7699 79.4446 53.7016 77.4717C53.6284 75.3262 55.0919 74.5123 56.897 74.5123C58.7751 74.5123 59.9655 75.6912 59.9167 77.5802C59.8679 79.4693 58.9117 80.6531 56.9067 80.4311Z" fill="#E2E2E2"/>
</g>
</g>
</svg>
