<svg width="200" height="78" viewBox="0 0 200 78" fill="none" xmlns="http://www.w3.org/2000/svg">
<g id="Frame" clip-path="url(#clip0_1_305)">
<g id="jLsnkB.tif">
<path id="Vector" d="M139.148 58.2193H114.173C113.087 58.2193 113.092 58.1553 113.282 57.0965C113.563 55.5501 113.741 53.9839 113.97 52.4178C114.237 50.6178 114.515 48.8202 114.779 47.0202C115.003 45.5017 115.222 43.9824 115.436 42.4622C115.742 40.3174 116.035 38.1702 116.351 36.0279C116.844 32.7085 117.36 29.3941 117.846 26.0747C118.3 22.9819 118.712 19.8793 119.171 16.7864C119.618 13.7527 120.104 10.7239 120.57 7.69268C120.863 5.77445 121.164 3.85375 121.436 1.93059C121.505 1.43811 121.747 1.2682 122.213 1.27066H136.328C136.767 1.27066 137.021 1.38886 136.93 1.93059C136.661 3.54349 136.436 5.16377 136.189 6.78405C135.943 8.52499 135.696 10.2684 135.449 12.0093C135.274 13.2652 135.109 14.5235 134.924 15.7768C134.714 17.2124 134.485 18.6456 134.27 20.0812C134.085 21.3124 133.915 22.5436 133.727 23.7748C133.367 26.1585 132.987 28.5396 132.634 30.9159C132.272 33.3783 131.948 35.858 131.591 38.3253C131.292 40.3692 130.981 42.4105 130.641 44.4469C130.547 44.9936 130.688 45.0921 131.226 45.0896C134.161 45.0749 137.097 45.1192 140.033 45.1241C147.04 45.1241 154.046 45.1241 161.051 45.1241C161.522 45.1241 161.998 45.1537 162.467 45.1069C163.543 44.9985 164.194 44.2524 164.655 43.4029C165.963 41.0316 165.253 39.0493 162.682 38.0299C159.997 36.9685 157.279 35.9983 154.56 35.0257C152.312 34.2229 150.119 33.302 148.163 31.9304C145.695 30.1845 143.823 27.9905 142.885 25.0356C142.231 22.9819 142.128 20.9184 142.298 18.7958C142.541 15.7362 143.53 12.7825 145.18 10.1928C146.83 7.60314 149.091 5.45629 151.765 3.93994C154.868 2.162 158.317 1.07031 161.88 0.738776C165.36 0.390262 168.875 0.648562 172.267 1.50213C176.155 2.46248 179.478 4.40287 181.948 7.63359C182.308 8.10637 182.288 8.41418 181.839 8.81555C178.79 11.5603 175.754 14.3166 172.73 17.0844C172.237 17.5227 171.943 17.3085 171.61 16.9243C170.545 15.6931 169.321 14.6466 167.764 14.1443C164.878 13.2135 161.971 12.881 159.213 14.5752C157.9 15.3829 157.417 16.6535 157.486 18.1531C157.56 19.5493 158.52 20.2757 159.664 20.7116C162.171 21.6694 164.712 22.5338 167.241 23.4202C170.537 24.5924 173.767 25.8827 176.485 28.1727C179.305 30.549 180.855 33.5531 180.909 37.2566C181.015 44.543 178.116 50.443 172.452 54.9714C169.642 57.2196 166.38 58.2513 162.736 58.2243C154.866 58.1652 146.998 58.207 139.128 58.207L139.148 58.2193Z" fill="#E2E2E2"/>
<path id="Vector_2" d="M101.282 58.2267H94.4403C93.5373 58.2267 93.4534 58.0814 93.6064 57.2195C93.9024 55.4663 94.1344 53.7007 94.4008 51.9426C94.6475 50.2853 94.9263 48.633 95.1706 46.9758C95.4148 45.3186 95.6295 43.6097 95.8762 41.9303C96.1229 40.2509 96.3943 38.6208 96.6336 36.9636C96.8186 35.688 96.9741 34.41 97.127 33.132C97.1297 32.9955 97.1164 32.8592 97.0875 32.7257C96.9438 32.7755 96.807 32.8434 96.6805 32.9277C95.0768 34.2992 93.4732 35.6807 91.8818 37.0572C88.4163 40.0334 84.9483 43.0089 81.4778 45.9835C80.7624 46.5942 80.6884 46.5745 80.0173 45.7889C77.0024 42.248 73.9884 38.7086 70.9752 35.1709C65.929 29.2693 60.8829 23.3734 55.8367 17.4833C55.6718 17.3174 55.5488 17.1148 55.4776 16.8922C55.4064 16.6696 55.3891 16.4334 55.4271 16.2028C55.6985 14.5251 55.9568 12.8465 56.2018 11.1671C56.3647 10.0541 56.4806 8.93372 56.6484 7.8207C56.8951 6.16348 57.1813 4.51365 57.4403 2.8589C57.5514 2.14972 57.6056 1.43315 57.7438 0.73382C57.7981 0.465415 57.9905 0.0468015 58.1583 0.0172523C58.3093 0.0159548 58.459 0.0459192 58.5979 0.105255C58.7367 0.16459 58.8617 0.252008 58.965 0.361993C60.4453 1.96257 61.8714 3.59024 63.3146 5.21298C66.5318 8.82455 69.7473 12.4361 72.9612 16.0477C75.8083 19.2472 78.6579 22.4434 81.5099 25.6364C82.0823 26.2766 82.667 26.9095 83.2147 27.5719C83.5651 27.9954 83.834 28.0176 84.2682 27.6433C87.5841 24.7918 90.9147 21.9674 94.2454 19.1331L116.223 0.384155C116.323 0.282026 116.441 0.198631 116.571 0.137911C116.788 0.0714258 117.064 -0.0319963 117.242 0.0443391C117.375 0.103437 117.488 0.428478 117.454 0.620548C117.34 1.69663 117.192 2.77025 117.039 3.84141C116.771 5.71286 116.493 7.59251 116.203 9.48038C115.85 11.8222 115.463 14.159 115.13 16.5057C114.883 18.2466 114.673 19.995 114.419 21.7359C114.099 23.9521 113.746 26.1412 113.415 28.3426C113.136 30.1845 112.88 32.0363 112.603 33.8683C112.233 36.3307 111.844 38.7932 111.478 41.2556C111.232 42.9547 111.015 44.6587 110.768 46.3578C110.543 47.8943 110.289 49.4259 110.062 50.9625C109.803 52.7034 109.569 54.4468 109.305 56.1878C109.257 56.7363 109.153 57.2784 108.994 57.8056C108.92 58.0051 108.501 58.1922 108.239 58.1947C105.917 58.2267 103.596 58.2119 101.274 58.2119L101.282 58.2267Z" fill="#E2E2E2"/>
<path id="Vector_3" d="M30.9505 28.7317C23.7957 28.7317 16.641 28.7317 9.50102 28.7317C8.78829 28.7447 8.09231 28.5154 7.52729 28.0816C5.32659 26.4712 3.08641 24.9075 0.865972 23.3267C0.743268 23.2514 0.629111 23.163 0.525504 23.0632C0.340468 22.876 0.175168 22.6544 0 22.4451C0.266804 22.3369 0.546115 22.2625 0.831432 22.2235C8.00099 22.2013 15.173 22.2013 22.3426 22.1767C30.5385 22.1504 38.7343 22.1135 46.9302 22.0659C49.251 22.0528 51.5718 22.0232 53.8926 21.9772C54.1473 21.9648 54.4013 22.0133 54.6335 22.1187C54.8656 22.224 55.0692 22.3832 55.2273 22.583C58.6961 26.5475 62.169 30.5055 65.6461 34.4569C68.429 37.6301 71.2079 40.8083 73.9826 43.9914C74.2293 44.282 74.5328 44.543 74.7647 44.8532C74.8483 45.0288 74.8985 45.2184 74.9127 45.4122C74.7257 45.4252 74.5378 45.4103 74.3551 45.3679C70.0327 43.659 65.7201 41.9205 61.3952 40.2189C58.6813 39.1404 55.9354 38.0914 53.2141 37.0178C52.7478 36.8306 52.6195 36.9267 52.5677 37.4216C52.4591 38.5002 52.2667 39.5689 52.1409 40.6474C52.0718 41.2359 51.7856 41.428 51.2034 41.4255C45.9039 41.414 40.6036 41.414 35.3025 41.4255C32.448 41.4255 29.5911 41.4378 26.7366 41.4255C26.3557 41.4284 25.9819 41.3234 25.6584 41.1227C23.6847 39.7363 21.7258 38.3106 19.7743 36.8848C19.5866 36.712 19.4209 36.5168 19.2808 36.3037C19.5183 36.2088 19.7671 36.1451 20.021 36.1141C30.5607 36.1042 41.1003 36.1042 51.64 36.1141C52.0126 36.1141 52.4542 36.2323 52.5603 35.6585C52.6244 35.331 52.5381 35.134 52.1779 35.1242C51.9731 35.1242 51.7683 35.1242 51.5611 35.1242C40.3849 35.1242 29.2087 35.1168 18.0324 35.102C17.5284 35.086 17.0396 34.9262 16.6237 34.6415C14.6845 33.302 12.7823 31.9082 10.8777 30.517C10.7306 30.3646 10.6097 30.1891 10.52 29.9974C10.7158 29.9105 10.9224 29.85 11.1343 29.8176C15.363 29.8078 19.5925 29.8078 23.8229 29.8176H39.6127C43.945 29.8176 48.2781 29.8176 52.6121 29.8176C53.0611 29.8176 53.4287 29.7733 53.5299 29.239C53.5916 28.9213 53.4953 28.7662 53.1647 28.7662C52.7527 28.7662 52.3432 28.7662 51.9312 28.7662L30.9505 28.7317Z" fill="#E2E2E2"/>
<path id="Vector_4" d="M39.8791 42.4006H50.9566C51.6968 42.4006 51.8251 42.5705 51.7165 43.2773C51.5191 44.5479 51.3316 45.821 51.1663 47.0965C51.0973 47.6382 50.8185 47.8032 50.2979 47.8007C45.3883 47.7884 40.4811 47.8007 35.5739 47.7786C35.1486 47.7703 34.7348 47.6395 34.3823 47.4018C32.3814 46.0081 30.4102 44.575 28.4414 43.1394C28.2884 43.0261 28.2292 42.7823 28.1281 42.6001C28.3005 42.5094 28.4862 42.4462 28.6782 42.4129C30.9751 42.4129 33.2721 42.4351 35.569 42.445C37.0049 42.445 38.4408 42.445 39.8791 42.445V42.4006Z" fill="#E2E2E2"/>
<path id="Vector_5" d="M43.8316 48.7709H49.9994C50.7865 48.7709 50.9024 48.9113 50.7939 49.682C50.4468 52.1297 50.0998 54.5774 49.7527 57.025C49.5924 58.1602 49.432 58.2415 48.4871 57.5643C44.8587 54.964 41.2402 52.3554 37.6316 49.7387C37.3711 49.5109 37.1324 49.2595 36.9186 48.9876C37.2513 48.8834 37.5934 48.8116 37.94 48.7734C39.9137 48.7537 41.8874 48.7734 43.8612 48.7734L43.8316 48.7709Z" fill="#E2E2E2"/>
<path id="Vector_6" d="M79.9359 51.1522C79.8421 51.7456 79.7755 52.2307 79.6891 52.7109C79.3882 54.2918 79.0872 55.8751 78.7664 57.4535C78.7418 57.5816 78.5863 57.6825 78.4901 57.7958C78.3742 57.6924 78.2014 57.6087 78.1521 57.4806C78.0317 57.1766 77.9448 56.8603 77.8931 56.5375C77.7993 55.9835 77.4268 55.7274 76.9531 55.5156C74.9004 54.5946 72.8527 53.663 70.8099 52.7207C70.3707 52.5188 70.2942 52.2282 70.6495 51.8589C72.2581 50.1976 73.8667 48.5346 75.4752 46.87C75.7836 46.5474 76.0649 46.4538 76.3955 46.8404C77.4736 48.0987 78.5641 49.3472 79.6373 50.6104C79.7577 50.7787 79.8579 50.9606 79.9359 51.1522Z" fill="#E2E2E2"/>
<path id="Vector_7" d="M139.148 72.3955C139.061 72.4056 138.973 72.4056 138.886 72.3955C138.422 72.3413 138.104 72.5309 138.035 72.9865C137.956 73.5307 138.407 73.6489 138.775 73.6809C139.532 73.7449 140.295 73.7227 141.055 73.7424C141.98 73.7695 142.636 74.1881 142.841 74.8752C143.12 75.7936 142.883 76.6604 142.101 77.1603C140.62 78.1083 139.019 78.2881 137.413 77.5986C136.244 77.1061 136.014 75.9685 136.774 74.954C137.043 74.5944 137.221 74.3359 136.984 73.8335C136.865 73.5785 136.828 73.2935 136.875 73.0165C136.923 72.7394 137.054 72.4833 137.25 72.2822C137.482 72.036 137.497 71.834 137.275 71.5435C136.416 70.359 136.535 69.4676 137.201 68.4901C137.867 67.5125 139.33 67.2219 140.477 67.579C141.05 67.7587 141.711 67.6799 142.33 67.6947C142.681 67.6947 143.07 67.6085 143.105 68.1379C143.139 68.6058 142.92 68.8003 142.451 68.82C142.333 68.82 142.106 69.1032 142.133 69.2042C142.636 71.0978 141.242 72.5678 139.148 72.3955ZM139.476 71.3957C140.463 71.3957 141 70.8762 140.996 69.9503C141.009 69.7503 140.979 69.5497 140.909 69.3621C140.838 69.1745 140.728 69.0041 140.586 68.8625C140.444 68.7209 140.273 68.6113 140.085 68.5411C139.897 68.4709 139.696 68.4418 139.495 68.4556C138.546 68.4556 137.991 69.0096 137.998 69.933C137.995 70.918 138.474 71.3908 139.463 71.3834L139.476 71.3957ZM139.757 74.7914V74.8382C139.327 74.8127 138.896 74.8168 138.467 74.8505C137.855 74.9342 137.633 75.3603 137.638 75.9537C137.643 76.5471 138.023 76.7466 138.509 76.7811C139.059 76.8415 139.615 76.8365 140.164 76.7663C140.622 76.6801 141.054 76.4925 141.43 76.2172C141.534 76.1155 141.613 75.99 141.658 75.8515C141.704 75.713 141.715 75.5656 141.691 75.4218C141.629 75.2905 141.539 75.1746 141.427 75.0822C141.315 74.9898 141.183 74.9233 141.042 74.8875C140.614 74.8106 140.18 74.7744 139.745 74.7791L139.757 74.7914Z" fill="#E2E2E2"/>
<path id="Vector_8" d="M167.404 71.1273C167.404 70.2089 167.372 69.2854 167.424 68.3694C167.437 68.2198 167.482 68.0749 167.557 67.9444C167.631 67.8139 167.733 67.701 167.855 67.6134C168.149 67.4534 168.443 67.6405 168.529 68.0296C168.671 68.0653 168.82 68.0523 168.953 67.9927C169.198 67.7715 169.49 67.6085 169.807 67.516C170.124 67.4234 170.458 67.4037 170.784 67.4583C171.232 67.5681 171.644 67.7911 171.981 68.1059C172.272 68.3669 172.41 68.3842 172.669 68.1059C173.271 67.4706 174.041 67.318 174.875 67.4608C175.359 67.5374 175.799 67.7848 176.116 68.158C176.433 68.5312 176.605 69.0055 176.602 69.4947C176.656 71.0091 176.631 72.526 176.634 74.0404C176.634 74.4196 176.451 74.752 176.064 74.656C175.927 74.599 175.807 74.5095 175.713 74.3953C175.619 74.2811 175.555 74.1457 175.526 74.001C175.467 72.9003 175.511 71.7848 175.486 70.6866C175.464 70.2793 175.412 69.8743 175.328 69.475C175.301 69.2373 175.191 69.0165 175.019 68.8506C174.846 68.6848 174.62 68.5843 174.381 68.5664C174.126 68.5145 173.86 68.5448 173.623 68.6527C173.386 68.7606 173.189 68.9408 173.061 69.1672C172.851 69.5381 172.727 69.9513 172.698 70.3763C172.649 71.541 172.671 72.7107 172.676 73.8779C172.676 74.3088 172.607 74.6831 172.069 74.6806C171.532 74.6782 171.453 74.299 171.45 73.8754C171.45 72.6048 171.465 71.3342 171.43 70.066C171.403 69.0811 171.033 68.5467 170.404 68.4728C169.775 68.399 168.956 69.049 168.83 69.8641C168.677 70.8491 168.657 71.8562 168.583 72.8535C168.559 73.2623 168.583 73.6735 168.564 74.0847C168.544 74.4565 168.379 74.7225 167.952 74.688C167.525 74.6535 167.404 74.3876 167.406 74.0108C167.406 73.048 167.406 72.0877 167.406 71.1249L167.404 71.1273Z" fill="#E2E2E2"/>
<path id="Vector_9" d="M190.765 10.2757C190.185 10.2787 189.61 10.1666 189.073 9.94603C188.537 9.72544 188.05 9.40072 187.64 8.99071C187.23 8.58069 186.905 8.09353 186.686 7.55749C186.466 7.02144 186.355 6.44717 186.359 5.86798C186.334 3.28982 188.182 1.37158 190.741 1.3248C191.332 1.30429 191.921 1.40283 192.473 1.61452C193.025 1.82621 193.529 2.14673 193.954 2.55694C194.379 2.96716 194.718 3.45867 194.948 4.00215C195.179 4.54563 195.298 5.12995 195.298 5.72024C195.325 8.31318 193.41 10.2388 190.765 10.2757ZM190.923 2.46983C188.972 2.3861 187.637 3.63948 187.553 5.63651C187.469 7.63355 188.76 9.20458 190.691 9.21197C192.483 9.21197 193.978 8.26393 194.084 5.95171C194.165 3.96945 192.951 2.46244 190.923 2.46244V2.46983Z" fill="#E2E2E2"/>
<path id="Vector_10" d="M117.93 72.6615C117.93 71.2481 117.913 69.8346 117.93 68.4236C117.93 68.1577 118.058 67.7686 118.248 67.6677C118.438 67.5667 118.742 67.8499 119.011 67.9139C119.159 67.9722 119.324 67.9722 119.472 67.9139C119.938 67.5848 120.49 67.3999 121.061 67.3824C121.631 67.3648 122.194 67.5155 122.679 67.8154C123.666 68.3769 124.093 69.3815 124.071 70.5241C124.095 71.1139 124.031 71.704 123.881 72.2749C123.264 74.1242 121.976 74.9343 120.03 74.8087C119.144 74.7496 119.144 74.7496 119.144 75.6386C119.144 76.1508 119.144 76.6629 119.144 77.1751C119.144 77.6036 118.897 77.7932 118.473 77.7957C118.048 77.7981 117.93 77.5297 117.93 77.1505C117.93 75.6583 117.93 74.1636 117.93 72.6689V72.6615ZM122.8 70.9378C122.8 70.6718 122.783 70.4059 122.761 70.1424C122.677 69.1575 122.045 68.5492 121.083 68.5394C120.054 68.5271 119.238 69.1895 119.183 70.1572C119.129 71.1249 119.132 72.0828 119.171 73.0407C119.171 73.2648 119.435 73.644 119.603 73.6612C120.166 73.7493 120.742 73.7225 121.295 73.5824C122.435 73.1885 122.82 72.4128 122.793 70.9304L122.8 70.9378Z" fill="#E2E2E2"/>
<path id="Vector_11" d="M147.506 72.6418C147.506 71.189 147.492 69.7386 147.506 68.2857C147.506 68.0617 147.659 67.6898 147.807 67.6529C148.024 67.6012 148.301 67.8056 148.547 67.8721C148.705 67.9164 148.927 67.9829 149.041 67.9115C150.59 66.8748 153.057 67.3993 153.541 69.7484C153.968 71.8267 153.312 73.9813 151.291 74.5945C150.637 74.752 149.964 74.8109 149.293 74.7693C148.839 74.7693 148.663 74.8457 148.696 75.3357C148.737 75.9464 148.695 76.5669 148.671 77.1727C148.671 77.5519 148.496 77.7858 148.074 77.7932C147.652 77.8006 147.496 77.5716 147.499 77.1825C147.499 76.4241 147.499 75.6681 147.499 74.9122V72.6418H147.506ZM148.584 71.6396H148.656C148.624 72.0875 148.631 72.5373 148.676 72.9841C148.723 73.2303 148.95 73.6194 149.149 73.6563C150.245 73.8533 151.577 73.8114 152.08 72.4251C152.327 71.7282 152.327 70.9132 152.327 70.1523C152.337 69.7575 152.198 69.3734 151.937 69.0766C151.676 68.7799 151.312 68.5925 150.918 68.5517C149.969 68.4212 149.053 68.9038 148.826 69.7632C148.703 70.3799 148.622 71.0044 148.584 71.6322V71.6396Z" fill="#E2E2E2"/>
<path id="Vector_12" d="M106.438 71.4106C105.863 71.4106 105.286 71.4106 104.711 71.4106C104.235 71.3983 104.104 71.6199 104.166 72.0607C104.214 72.4707 104.398 72.8531 104.687 73.1484C104.976 73.4437 105.355 73.6353 105.765 73.6932C106.374 73.7192 106.985 73.6763 107.585 73.5652C107.923 73.516 108.256 73.383 108.404 73.8114C108.552 74.2399 108.323 74.5329 107.911 74.6339C105.153 75.3012 102.745 74.3212 102.843 71.0043C102.888 69.5047 103.337 68.1553 104.965 67.5963C105.434 67.4122 105.944 67.3525 106.443 67.4228C106.942 67.4931 107.415 67.6912 107.815 67.9977C108.752 68.7068 108.967 69.7509 108.962 70.8491C108.962 71.2505 108.668 71.4032 108.286 71.4032C107.672 71.4106 107.055 71.4106 106.438 71.4106ZM105.967 70.401C106.334 70.401 106.707 70.401 107.072 70.401C107.659 70.3862 107.8 70.1868 107.617 69.6352C107.504 69.2917 107.28 68.9959 106.979 68.7946C106.678 68.5934 106.318 68.4983 105.957 68.5246C105.079 68.5714 104.395 69.1033 104.247 69.8519C104.178 70.2015 104.274 70.4108 104.674 70.4034C105.074 70.3961 105.535 70.3936 105.967 70.3936V70.401Z" fill="#E2E2E2"/>
<path id="Vector_13" d="M113.807 71.4106C113.21 71.4106 112.616 71.4106 112.019 71.4106C111.478 71.4106 111.338 71.6223 111.501 72.1493C111.977 73.6588 113.146 73.9912 114.846 73.6268C115.054 73.5563 115.275 73.5327 115.492 73.5578C115.573 73.5935 115.644 73.649 115.697 73.7192C115.751 73.7894 115.786 73.872 115.798 73.9592C115.782 74.1726 115.682 74.3709 115.52 74.5108C113.985 75.5918 110.913 74.528 110.41 72.7132C110.07 71.482 110.052 70.2385 110.642 69.059C110.942 68.4563 111.437 67.9719 112.047 67.6839C112.656 67.3958 113.345 67.3207 114.002 67.4707C115.322 67.7489 116.181 68.8176 116.242 70.2582C116.289 71.3909 116.272 71.4081 115.162 71.413C114.71 71.413 114.259 71.413 113.807 71.413V71.4106ZM113.299 70.3936V70.4059H114.592C114.962 70.4059 115.115 70.2656 115.024 69.874C114.836 69.0639 114.128 68.4557 113.373 68.4926C112.443 68.5394 111.703 69.1451 111.612 69.9848C111.629 70.0733 111.669 70.1558 111.728 70.2243C111.787 70.2929 111.862 70.3452 111.947 70.3764C112.397 70.4014 112.849 70.4031 113.299 70.3813V70.3936Z" fill="#E2E2E2"/>
<path id="Vector_14" d="M191.451 71.4106C190.876 71.4106 190.302 71.4106 189.724 71.4106C189.246 71.4106 189.051 71.5657 189.167 72.0779C189.413 73.1663 190.06 73.7425 191.192 73.7302C191.718 73.7302 192.241 73.58 192.769 73.5652C193.004 73.606 193.23 73.6894 193.435 73.8115C193.339 74.0454 193.309 74.3975 193.134 74.4985C190.913 75.7863 188.029 74.2178 187.911 71.6888C187.854 70.4576 187.911 69.2584 188.839 68.3079C189.211 67.9198 189.683 67.6416 190.203 67.5039C190.723 67.3662 191.271 67.3743 191.787 67.5273C192.335 67.6424 192.832 67.9297 193.204 68.3472C193.577 68.7646 193.805 69.2903 193.857 69.8469C194.079 71.3663 194.027 71.4204 192.495 71.4081H191.451V71.4106ZM190.891 70.4059C191.385 70.4274 191.879 70.42 192.372 70.3838C192.465 70.3439 192.547 70.2805 192.61 70.1999C192.672 70.1193 192.712 70.024 192.727 69.9233C192.66 69.1846 191.829 68.5025 191.052 68.4926C190.193 68.4926 189.339 69.1501 189.27 69.9405C189.285 70.0391 189.325 70.1322 189.386 70.2107C189.448 70.2893 189.528 70.3506 189.621 70.3887C190.047 70.4198 190.475 70.4215 190.901 70.3936L190.891 70.4059Z" fill="#E2E2E2"/>
<path id="Vector_15" d="M165.852 71.1151C165.756 72.627 165.309 73.8829 163.859 74.5625C162.132 75.3825 160.002 74.2843 159.568 72.4202C159.278 71.326 159.373 70.1656 159.837 69.1328C160.434 67.8154 161.53 67.35 162.889 67.4338C163.459 67.451 164.009 67.6426 164.466 67.9827C164.923 68.3227 165.264 68.7948 165.443 69.3348C165.621 69.9177 165.758 70.5127 165.852 71.1151ZM160.587 70.9378C160.598 71.2271 160.624 71.5156 160.666 71.8021C160.728 72.0611 160.805 72.316 160.898 72.5655C161.202 73.4298 161.796 73.7967 162.813 73.7302C163.538 73.6884 164.293 73.122 164.369 72.3857C164.465 71.5764 164.476 70.7594 164.401 69.9479C164.322 69.1205 163.538 68.5197 162.674 68.4704C162.282 68.4401 161.891 68.5444 161.566 68.7661C161.241 68.9877 161.002 69.3135 160.888 69.6894C160.74 70.1548 160.656 70.6374 160.587 70.9378Z" fill="#E2E2E2"/>
<path id="Vector_16" d="M129.397 71.1052C129.397 70.1645 129.365 69.2214 129.417 68.2808C129.44 68.1443 129.493 68.0147 129.573 67.9017C129.653 67.7887 129.757 67.6952 129.878 67.6282C130.004 67.5716 130.394 67.8228 130.493 68.0198C130.68 68.3941 130.799 68.2094 130.986 68.0592C131.862 67.3623 132.819 67.1998 133.856 67.6652C134.892 68.1306 135.089 69.0737 135.138 70.0143C135.217 71.3194 135.161 72.6344 135.156 73.9542C135.156 74.395 135.01 74.725 134.485 74.693C133.959 74.661 133.93 74.3064 133.93 73.9124C133.93 73.1145 133.93 72.3143 133.93 71.5164C133.93 71.1274 133.93 70.7383 133.93 70.3492C133.897 69.2067 133.513 68.6378 132.733 68.5713C132.268 68.5472 131.81 68.6943 131.446 68.9848C131.082 69.2753 130.838 69.689 130.759 70.1473C130.616 71.3785 130.601 72.6294 130.562 73.873C130.547 74.267 130.574 74.656 130.068 74.6831C129.506 74.7127 129.407 74.3359 129.415 73.8681C129.429 72.9471 129.415 72.0261 129.415 71.1027L129.397 71.1052Z" fill="#E2E2E2"/>
<path id="Vector_17" d="M68.2686 52.5015C66.2135 52.2134 64.2669 51.9376 62.3203 51.6742C61.1632 51.519 60.0012 51.3959 58.8466 51.2359C58.6286 51.1759 58.4195 51.0873 58.2249 50.9724C58.4444 50.8616 58.6566 50.672 58.8836 50.6572C59.9469 50.5833 61.0152 50.5587 62.0909 50.5168C64.7529 50.4109 67.4175 50.3001 70.082 50.2041C70.2704 50.2229 70.4554 50.2668 70.6322 50.3346C70.5855 50.5209 70.5115 50.6993 70.4126 50.864C70.0771 51.2728 69.6872 51.6421 69.3542 52.0558C69.0211 52.4695 68.6584 52.6148 68.2686 52.5015Z" fill="#E2E2E2"/>
<path id="Vector_18" d="M184.617 67.355C185.093 67.4454 185.563 67.5663 186.024 67.717C186.113 67.7789 186.185 67.863 186.232 67.961C186.279 68.059 186.3 68.1675 186.292 68.2759C186.248 68.376 186.179 68.464 186.094 68.5325C186.008 68.6011 185.907 68.6482 185.799 68.6699C185.461 68.6921 185.113 68.5419 184.768 68.532C184.426 68.4978 184.08 68.5433 183.759 68.665C183.624 68.7372 183.508 68.839 183.419 68.9628C183.33 69.0865 183.271 69.2289 183.246 69.3791C183.276 69.5302 183.339 69.673 183.43 69.7978C183.52 69.9227 183.637 70.0268 183.771 70.1031C184.194 70.3075 184.632 70.4803 185.081 70.6202C186.3 71.1127 186.695 71.716 186.591 72.9078C186.517 73.7401 185.757 74.5675 184.741 74.7054C183.967 74.7751 183.188 74.7635 182.417 74.6709C182.024 74.6413 181.792 74.3926 181.923 73.9321C182.054 73.4717 182.34 73.4397 182.73 73.5702C183.455 73.8016 184.178 73.8583 184.864 73.4397C185.012 73.3581 185.137 73.239 185.225 73.0944C185.312 72.9497 185.36 72.7846 185.364 72.6155C185.368 72.4465 185.327 72.2794 185.246 72.131C185.165 71.9826 185.046 71.8582 184.901 71.7701C184.486 71.5456 184.051 71.3617 183.601 71.221C182.476 70.8172 181.847 70.0489 181.972 69.1993C182.125 68.1676 183.041 67.4584 184.242 67.4362C184.366 67.4362 184.489 67.4362 184.612 67.4362L184.617 67.355Z" fill="#E2E2E2"/>
<path id="Vector_19" d="M198.026 67.3599C198.466 67.4255 198.899 67.5276 199.322 67.6652C199.516 67.7465 199.613 68.0543 199.753 68.2611C199.507 68.3941 199.277 68.6256 199.028 68.6428C198.67 68.6699 198.288 68.4827 197.94 68.4951C197.574 68.5006 197.214 68.5908 196.889 68.7585C196.371 69.0516 196.445 69.7435 197.03 70.039C197.538 70.2976 198.085 70.4724 198.618 70.6817C199.497 71.0289 200 71.6962 200 72.5211C200.004 72.9531 199.877 73.3761 199.636 73.7346C199.394 74.0932 199.05 74.3706 198.648 74.5305C197.693 74.9614 196.719 74.8186 195.744 74.6684C195.379 74.6118 195.14 74.3655 195.251 73.9641C195.265 73.877 195.3 73.7945 195.352 73.7232C195.404 73.6519 195.472 73.5937 195.551 73.5532C195.629 73.5128 195.716 73.4913 195.805 73.4904C195.893 73.4895 195.981 73.5092 196.06 73.548C196.8 73.7942 197.54 73.8829 198.246 73.4372C198.951 72.9915 198.986 72.2059 198.246 71.7652C197.814 71.5325 197.36 71.3428 196.891 71.1988C195.68 70.763 195.273 70.1597 195.433 68.9998C195.552 68.1355 196.358 67.5051 197.439 67.4362C197.624 67.4239 197.809 67.4362 197.994 67.4362L198.026 67.3599Z" fill="#E2E2E2"/>
<path id="Vector_20" d="M74.3946 46.0696C74.2753 46.2593 74.1417 46.4396 73.9949 46.6089C73.5977 46.9931 73.1561 47.3353 72.781 47.7392C72.406 48.143 72.0409 48.1504 71.6116 47.8032C70.3164 46.732 69.0137 45.6707 67.711 44.602C67.188 44.1736 66.6551 43.7574 66.1469 43.3142C66.0393 43.1783 65.9558 43.0251 65.9001 42.8611C66.0839 42.8103 66.2759 42.7961 66.4651 42.8192C68.9504 43.7648 71.4315 44.7227 73.9085 45.6929C74.0857 45.7977 74.2489 45.9243 74.3946 46.0696Z" fill="#E2E2E2"/>
<path id="Vector_21" d="M97.9461 69.6425V73.8729C97.9461 74.2891 97.8918 74.6855 97.3465 74.6855C96.8013 74.6855 96.752 74.2768 96.752 73.868C96.752 71.0658 96.752 68.2652 96.752 65.4662C96.752 65.3628 96.7668 65.2618 96.7742 65.1584C96.8087 64.757 97.0653 64.5157 97.4255 64.6216C97.5499 64.675 97.6597 64.7575 97.7455 64.862C97.8314 64.9666 97.8908 65.0902 97.9189 65.2224C97.9609 66.6999 97.9411 68.1774 97.9411 69.64L97.9461 69.6425Z" fill="#E2E2E2"/>
<path id="Vector_22" d="M155.312 71.12C155.312 70.199 155.285 69.2756 155.33 68.3571C155.337 68.2166 155.375 68.0792 155.44 67.9543C155.505 67.8294 155.596 67.7199 155.707 67.6332C156.028 67.4682 156.336 67.6332 156.447 68.0518C156.447 68.0887 156.719 68.0986 156.844 68.0518C157.286 67.9139 157.713 67.6824 158.162 67.6258C158.364 67.6012 158.606 67.9041 158.831 68.0567C158.665 68.2734 158.537 68.6231 158.337 68.6822C156.928 69.0811 156.625 69.379 156.524 70.8811C156.455 71.9203 156.477 72.9668 156.457 74.0084C156.457 74.3581 156.408 74.6905 155.942 74.6831C155.475 74.6757 155.332 74.3999 155.332 73.9961C155.31 73.0456 155.312 72.0828 155.312 71.12Z" fill="#E2E2E2"/>
<path id="Vector_23" d="M101.63 74.8062C101.325 74.6441 101.043 74.4448 100.788 74.2128C100.048 73.3485 99.3401 72.4398 98.6048 71.5632C98.3335 71.2406 98.2372 70.9599 98.521 70.5782C99.1624 69.7336 99.7767 68.8545 100.411 68.0148C100.505 67.8868 100.64 67.7267 100.776 67.7046C101.083 67.6762 101.391 67.6713 101.699 67.6898C101.663 67.9501 101.587 68.2034 101.474 68.4408C100.993 69.1279 100.487 69.8026 99.9544 70.4453C99.6484 70.8072 99.6953 71.0559 99.984 71.3933C100.699 72.2354 101.385 73.0998 102.061 73.9714C102.118 74.048 102.158 74.1354 102.18 74.2282C102.201 74.321 102.203 74.4172 102.185 74.5107C102.14 74.6314 101.894 74.6782 101.63 74.8062Z" fill="#E2E2E2"/>
<path id="Vector_24" d="M127.396 71.1644C127.396 72.0459 127.396 72.925 127.396 73.8066C127.396 74.2449 127.382 74.6684 126.804 74.6881C126.227 74.7078 126.185 74.2769 126.185 73.8386C126.185 72.3611 126.185 70.8837 126.185 69.4062C126.185 69.0344 126.148 68.7487 125.711 68.5961C125.606 68.5353 125.519 68.4485 125.458 68.3441C125.396 68.2397 125.363 68.1212 125.361 68.0002C125.398 67.8229 125.714 67.6924 125.926 67.5717C126.003 67.5274 126.128 67.5717 126.23 67.5717C127.379 67.5939 127.384 67.5988 127.387 68.7611C127.387 69.5622 127.387 70.3608 127.387 71.157L127.396 71.1644Z" fill="#E2E2E2"/>
<path id="Vector_25" d="M180.191 71.2012C180.191 72.1 180.191 72.9988 180.191 73.9099C180.191 74.3507 180.08 74.6979 179.56 74.6954C179.039 74.6929 178.948 74.3236 178.948 73.8951C178.948 72.4177 178.948 70.9402 178.948 69.4775C178.948 69.0638 178.933 68.7215 178.43 68.5763C178.34 68.5234 178.266 68.4485 178.214 68.3589C178.161 68.2693 178.133 68.1678 178.131 68.0641C178.165 67.9654 178.223 67.8762 178.298 67.8038C178.373 67.7315 178.465 67.678 178.565 67.6479C178.867 67.5901 179.175 67.5744 179.481 67.6011C179.944 67.6011 180.191 67.8351 180.184 68.3276C180.181 69.2781 180.189 70.2409 180.191 71.2012Z" fill="#E2E2E2"/>
<path id="Vector_26" d="M127.155 65.55C127.204 66.0819 126.908 66.2567 126.415 66.2444C125.921 66.2321 125.711 66.0129 125.719 65.5254C125.726 65.0378 125.909 64.7276 126.481 64.7423C127.054 64.7571 127.182 65.06 127.155 65.55Z" fill="#E2E2E2"/>
<path id="Vector_27" d="M179.947 65.5278C180.004 66.0498 179.757 66.2665 179.236 66.2517C178.716 66.2369 178.56 65.9439 178.558 65.4662C178.556 64.9885 178.77 64.7275 179.298 64.7398C179.856 64.7423 179.989 65.0476 179.947 65.5278Z" fill="#E2E2E2"/>
<path id="Vector_28" d="M189.199 5.703C189.199 5.15142 189.199 4.59983 189.199 4.04825C189.199 3.55576 189.445 3.2652 189.939 3.28736C190.507 3.27651 191.074 3.33774 191.626 3.46958C192.643 3.79216 192.978 4.851 192.322 5.68577C191.955 6.15117 192.021 6.46882 192.347 6.86035C192.497 7.0278 192.621 7.21711 192.714 7.42178C192.781 7.58677 192.838 7.85025 192.754 7.95367C192.685 8.02011 192.601 8.0679 192.508 8.09247C192.416 8.11704 192.319 8.11758 192.226 8.09403C191.878 7.87107 191.561 7.60183 191.286 7.29374C191.019 6.96724 190.772 6.62518 190.546 6.26936C190.499 6.66335 190.447 7.05488 190.413 7.44887C190.378 7.84286 190.225 8.1482 189.791 8.1285C189.357 8.1088 189.179 7.85271 189.186 7.42917C189.186 6.85789 189.186 6.28414 189.186 5.70547L189.199 5.703Z" fill="#E2E2E2"/>
</g>
</g>
<defs>
<clipPath id="clip0_1_305">
<rect width="200" height="78" fill="white"/>
</clipPath>
</defs>
</svg>
