<svg width="69" height="66" viewBox="0 0 69 66" fill="none" xmlns="http://www.w3.org/2000/svg">
<path d="M0.00298328 47.099C0.00298328 45.6189 0.00298328 44.1388 0.00298328 42.6605C0.0119795 42.3041 0.0461132 41.9487 0.10514 41.5968C0.143689 41.3243 0.236205 41.0612 0.276682 40.7887C0.415962 40.0026 0.630879 39.2314 0.918537 38.4852C1.17468 37.7217 1.50854 36.9855 1.91504 36.2878C2.31018 35.6216 2.77663 34.9951 3.21224 34.3534C3.83096 33.4449 4.65014 32.7162 5.45582 31.9838C6.06271 31.4429 6.72551 30.9659 7.43342 30.5604C7.85739 30.2912 8.29553 30.0442 8.74604 29.8204C9.47552 29.4611 10.232 29.1574 11.0089 28.9119C11.7736 28.6923 12.5495 28.5122 13.3334 28.3725C14.8581 28.1113 16.3846 28.2267 17.9093 28.2116C19.0407 28.2002 20.1741 28.2343 21.3017 28.3157C21.7585 28.3479 22.223 28.3384 22.6721 28.4084C23.1212 28.4785 23.5279 28.4482 23.95 28.4955C24.561 28.5674 25.174 28.6166 25.7811 28.6942C26.3883 28.7718 27.0263 28.8059 27.6431 28.9441C28.1905 29.0652 28.7668 29.069 29.3258 29.1523C29.9426 29.245 30.5555 29.3699 31.1723 29.4797C31.6175 29.5592 32.0666 29.6273 32.51 29.7182C32.8955 29.7977 33.2655 29.9075 33.6452 29.9964C34.2877 30.1516 34.9245 30.3037 35.5554 30.4526C36.4844 30.6683 37.3846 30.9768 38.2886 31.2721C39.0942 31.5298 39.8828 31.8363 40.6497 32.1901C41.4747 32.5781 42.3016 32.9642 43.0957 33.4071C43.859 33.843 44.5849 34.3393 45.266 34.891C45.8304 35.3523 46.3606 35.8526 46.8524 36.3881C47.2078 36.8016 47.535 37.2379 47.8315 37.6941C48.192 38.2229 48.481 38.7955 48.6912 39.3975C48.8492 39.812 48.9475 40.2473 49.0767 40.6751C49.3099 41.4814 49.2694 42.3085 49.2694 43.1356C49.2694 45.4069 49.2694 47.6687 49.2694 49.9342C49.2525 50.6908 49.1424 51.4427 48.9417 52.1733C48.7113 53.1038 48.3527 53.9991 47.8758 54.8345C47.4399 55.5899 46.923 56.2973 46.3339 56.9448C45.9753 57.3461 45.5629 57.6849 45.1774 58.0464C44.7009 58.454 44.1843 58.8141 43.6354 59.1215C42.8781 59.564 42.0725 59.9215 41.2337 60.1871C40.7416 60.3378 40.2392 60.4541 39.7303 60.5353C38.8475 60.7 37.9609 60.647 37.08 60.7246C36.4709 60.7814 35.8503 60.7246 35.2451 60.8779C34.9501 60.9239 34.6528 60.9542 34.3546 60.9688C33.6411 61.0672 32.9334 61.2024 32.2343 61.3738C31.4171 61.5782 30.6075 61.8148 29.8115 62.0836C28.9672 62.3675 28.1404 62.7025 27.3058 63.0299C26.5348 63.3327 25.7445 63.6053 24.9735 63.946C23.9003 64.4163 22.7959 64.8147 21.6679 65.1384C20.8675 65.4022 20.0452 65.5966 19.2103 65.7194C18.7439 65.7724 18.2774 65.8444 17.8129 65.9087C16.7123 66.0658 15.6137 65.956 14.5131 65.9788C14.1869 65.9612 13.8637 65.9085 13.5493 65.8217C13.3045 65.7706 13.054 65.7762 12.8034 65.7232C11.5791 65.4694 10.3858 65.0887 9.24333 64.5876C8.44156 64.2282 7.67396 63.7993 6.94962 63.3062C6.20129 62.8367 5.50943 62.2856 4.88722 61.6634C4.68098 61.4438 4.45932 61.2394 4.24344 61.0274C3.51207 60.2739 2.86998 59.4415 2.32945 58.5461C2.06375 58.1622 1.82917 57.7585 1.62785 57.3385C1.37535 56.7575 1.09586 56.1896 0.881914 55.5916C0.667964 54.9935 0.523403 54.384 0.346075 53.7802C0.281449 53.4952 0.236371 53.2062 0.211149 52.9153C0.200684 52.6689 0.161887 52.4244 0.0954986 52.1866C0.031137 51.9945 0.00560455 51.792 0.0203299 51.5904C0.00105509 50.0838 0.00298328 48.5942 0.00298328 47.099ZM16.855 30.1914C16.084 30.25 15.0701 30.0892 14.0697 30.2803C13.7768 30.3371 13.4703 30.3239 13.1812 30.3901C11.9125 30.6703 10.6828 31.0999 9.51896 31.6696C9.15247 31.8492 8.79834 32.0521 8.45885 32.2771C7.7891 32.6907 7.16053 33.1654 6.58147 33.6948C6.1767 34.0866 5.7835 34.4897 5.37873 34.8834C5.28419 34.9682 5.19774 35.0614 5.12045 35.1616C4.73495 35.7086 4.37837 36.2727 3.98323 36.8102C3.44161 37.5483 3.12743 38.3906 2.80554 39.2272C2.52824 39.9625 2.32741 40.7234 2.20609 41.4984C2.08654 42.139 2.02717 42.7891 2.02876 43.4403C2.02876 43.7716 2.04033 44.1028 2.02876 44.4321C2.01804 44.8993 2.0529 45.3664 2.13285 45.8271C2.16182 46.0558 2.2043 46.2827 2.26006 46.5065C2.45818 47.296 2.69947 48.0744 2.98287 48.8384C3.3264 49.72 3.77269 50.5596 4.31283 51.3405C4.70539 51.9653 5.1783 52.5379 5.71989 53.044C5.78053 53.1149 5.83654 53.1895 5.88758 53.2673C5.9936 53.3828 6.10154 53.4982 6.21911 53.6042C6.33669 53.7102 6.49281 53.8143 6.62195 53.9279C6.75286 54.0662 6.89119 54.1977 7.03636 54.3215C7.57027 54.7001 8.10612 55.0786 8.65738 55.4439C9.35621 55.8876 10.1061 56.2485 10.8913 56.519C11.756 56.8384 12.6509 57.0724 13.5628 57.2174C14.1354 57.3202 14.7156 57.3771 15.2975 57.3877C15.4695 57.3978 15.6408 57.418 15.8103 57.4483C15.8545 57.453 15.8991 57.453 15.9433 57.4483C16.136 57.4275 16.3172 57.3934 16.5042 57.3858C16.8241 57.3745 17.1499 57.4123 17.4679 57.3726C18.0249 57.3045 18.582 57.2079 19.1313 57.0963C19.7577 56.9676 20.3861 56.8332 20.999 56.6572C22.5063 56.2237 23.9442 55.6124 25.3937 55.0237C26.1647 54.7114 26.9183 54.367 27.7067 54.0906C28.7205 53.731 29.7575 53.4339 30.7791 53.0932C31.8006 52.7525 32.8723 52.5935 33.9286 52.3872C34.4818 52.2793 35.0523 52.2585 35.6151 52.1979C36.2127 52.1355 36.8179 52.1866 37.4212 52.1033C37.8527 52.0683 38.2863 52.0645 38.7184 52.0919C38.9651 52.0939 39.2033 52.181 39.3912 52.3382C39.579 52.4953 39.7045 52.7123 39.7457 52.9512C39.819 53.3525 39.4913 53.8389 39.0326 53.979C38.8531 54.034 38.6672 54.0658 38.4794 54.0736C37.5407 54.1133 36.602 54.1398 35.6633 54.172C35.6155 54.1633 35.5665 54.1633 35.5188 54.172C35.1333 54.3424 34.7092 54.2345 34.3083 54.3424C33.8727 54.4578 33.4024 54.4521 32.9591 54.5695C31.8141 54.8742 30.6654 55.1562 29.5455 55.5594C28.1963 56.0496 26.8605 56.5947 25.5228 57.1228C24.8405 57.3934 24.1736 57.7057 23.4701 57.9291C22.223 58.3284 20.9933 58.7732 19.6922 59.0136C18.9597 59.1772 18.2154 59.2847 17.466 59.3353C16.3095 59.3713 15.1414 59.4338 13.9753 59.2823C13.3816 59.2066 12.7976 59.0931 12.2174 58.9776C11.0993 58.7355 10.0152 58.3612 8.9889 57.8628C8.35494 57.5502 7.73912 57.2033 7.1443 56.8237C6.47881 56.4056 5.85075 55.9326 5.26694 55.4099C5.05299 55.2206 4.88144 54.9651 4.64436 54.825C4.36873 54.6622 4.2338 54.3991 4.03334 54.1872C3.66132 53.7849 3.31132 53.3635 2.9848 52.9247C2.6517 52.5112 2.35933 52.0676 2.11165 51.5998C2.10201 51.5809 2.0731 51.5714 2.05382 51.5563C2.04418 51.5847 2.02298 51.6169 2.02684 51.6434C2.06705 51.7912 2.09604 51.9418 2.11357 52.0938C2.13285 52.8509 2.37186 53.5758 2.58388 54.2988C2.85896 55.2154 3.2385 56.0986 3.71531 56.9316C4.25379 57.9175 4.92907 58.8252 5.72182 59.6287C6.18686 60.1247 6.68596 60.5889 7.21562 61.018C7.78829 61.4543 8.38687 61.8569 9.00818 62.2236C9.48243 62.4986 9.97729 62.7378 10.4885 62.9391C11.0242 63.1562 11.571 63.3457 12.1268 63.5069C12.6024 63.6659 13.0954 63.7694 13.5956 63.8154C13.9348 63.8305 14.2721 63.9819 14.6094 63.9763C15.6445 63.9592 16.6776 64.0293 17.7165 63.9157C18.4063 63.8457 19.0916 63.7383 19.7693 63.5939C20.6665 63.3853 21.5487 63.1185 22.41 62.7952C23.7804 62.3031 25.1219 61.7466 26.475 61.2129C27.5949 60.7719 28.7128 60.3328 29.8616 59.9713C30.9926 59.6163 32.144 59.3275 33.3099 59.1063C34.0504 58.9691 34.7981 58.8725 35.5496 58.8167C36.3572 58.7524 37.1706 58.7297 37.9821 58.7202C38.5493 58.7123 39.1142 58.6489 39.6686 58.5309C40.6497 58.3248 41.5934 57.9738 42.4673 57.4899C43.1548 57.0822 43.8003 56.61 44.3948 56.0799C44.5972 55.9114 44.7341 55.6692 44.9229 55.4818C45.4494 54.9435 45.8841 54.3255 46.2105 53.6515C46.4357 53.21 46.6352 52.7563 46.808 52.2926C46.9587 51.9056 47.0697 51.5049 47.1395 51.0964C47.2147 50.6213 47.2128 50.1368 47.2494 49.656C47.2494 49.55 47.2957 49.4478 47.313 49.3418C47.3168 49.299 47.3168 49.2559 47.313 49.2131C47.2737 49.2325 47.2363 49.2553 47.2012 49.2813C47.1143 49.351 47.0394 49.434 46.9796 49.5273C46.8061 49.8926 46.5054 50.1481 46.2259 50.4263C46.0689 50.5589 45.9232 50.7039 45.7903 50.8598C45.6882 51.0081 45.5444 51.1241 45.3764 51.1937C45.2084 51.2633 45.0234 51.2834 44.8439 51.2516C44.6681 51.2391 44.4992 51.1795 44.3555 51.0793C44.2118 50.9791 44.0988 50.8421 44.0288 50.6833C43.9589 50.5244 43.9346 50.3498 43.9587 50.1783C43.9828 50.0069 44.0543 49.8452 44.1654 49.7109C44.3648 49.4485 44.5832 49.2005 44.8189 48.969C45.8064 47.9213 46.5276 46.6593 46.9237 45.2857C47.161 44.5466 47.2724 43.7741 47.2533 42.9993C47.2417 42.7476 47.2533 42.494 47.2533 42.2423C47.2526 41.8694 47.2164 41.4975 47.1453 41.1312C46.7926 39.7798 46.1951 38.5477 45.1774 37.5351C44.894 37.2569 44.6223 36.9673 44.3235 36.7042C43.9915 36.4151 43.6448 36.1428 43.2846 35.8884C42.9685 35.6632 42.6138 35.4853 42.2919 35.2657C41.3274 34.6448 40.2973 34.1282 39.2195 33.7251C38.2363 33.3254 37.2311 32.9797 36.2088 32.6898C35.1718 32.3964 34.1252 32.1503 33.0824 31.891C32.5215 31.7529 31.9568 31.6355 31.392 31.5125C31.0255 31.4306 30.6549 31.3674 30.2818 31.3232C29.7961 31.2778 29.3315 31.1188 28.8381 31.1074C28.4644 31.0732 28.0931 31.0176 27.726 30.9409C27.4276 30.9268 27.131 30.8882 26.8393 30.8254C26.6404 30.7783 26.4368 30.7529 26.2322 30.7497C26.0144 30.7251 25.7985 30.6778 25.5807 30.6589C25.1219 30.621 24.6478 30.6589 24.2121 30.5434C23.6956 30.4109 23.1752 30.515 22.6586 30.392C22.2384 30.2936 21.7797 30.3371 21.3383 30.2955C20.4035 30.2103 19.4609 30.2122 18.5222 30.1876C18.0346 30.18 17.5604 30.1914 16.855 30.1914Z" fill="#1C2640"/>
<path d="M17.3908 33.9674C16.7336 33.9674 16.0763 33.9825 15.419 33.9674C14.5522 33.9588 13.6903 34.0965 12.8709 34.3743C11.6824 34.7537 10.5726 35.3389 9.59418 36.1023C8.66438 36.8336 7.87575 37.7227 7.26578 38.7275C6.69388 39.6358 6.28752 40.6349 6.06496 41.6802C5.92861 42.2379 5.86386 42.8101 5.87221 43.3836C5.88674 43.6358 5.88674 43.8885 5.87221 44.1407C5.82595 44.9262 6.01485 45.6757 6.20374 46.4271C6.7943 48.5756 8.12277 50.4578 9.96426 51.7551C10.8238 52.359 11.7704 52.8336 12.7726 53.1632C13.2879 53.3474 13.8226 53.4744 14.3666 53.5418C14.7521 53.5777 15.1261 53.5721 15.4981 53.6232C15.7723 53.6506 16.0487 53.6506 16.323 53.6232C16.5948 53.6099 16.8685 53.6326 17.1403 53.6232C17.3907 53.6061 17.6398 53.5739 17.8862 53.5266C19.3307 53.2528 20.743 52.8355 22.1016 52.2812C22.9728 51.9349 23.8498 51.6036 24.723 51.2611C25.4227 50.9866 26.1108 50.6932 26.8162 50.4302C27.5968 50.114 28.3978 49.8491 29.214 49.6371C29.5995 49.5501 29.985 49.3778 30.3705 49.2813C30.9883 49.1119 31.6158 48.9792 32.2498 48.8838C32.6816 48.827 33.1056 48.7116 33.5335 48.6245C33.7802 48.5753 34.0289 48.5848 34.2814 48.5318C34.7335 48.4572 35.1914 48.4205 35.6499 48.422C36.5577 48.3917 37.4617 48.3274 38.3696 48.3027C38.933 48.2634 39.4835 48.1176 39.9906 47.8731C40.7757 47.5287 41.4754 47.0211 42.0414 46.3854C42.5778 45.7955 42.973 45.0951 43.1979 44.3356C43.3376 43.9398 43.4029 43.5223 43.3906 43.1035C43.3559 42.6549 43.4388 42.2063 43.3058 41.754C43.1766 41.3098 42.9698 40.891 42.6948 40.5161C42.0221 39.6057 41.1162 38.966 40.1332 38.4039C38.516 37.4745 36.7697 36.8348 34.9965 36.267C34.2987 36.0455 33.5875 35.8601 32.8762 35.6992C32.0397 35.5099 31.1916 35.3642 30.3493 35.1976C29.8002 35.0729 29.245 34.9757 28.6859 34.9061C28.1411 34.8504 27.6013 34.7555 27.0707 34.6222C26.8749 34.5798 26.6997 34.4733 26.5736 34.3203C26.4476 34.1673 26.3782 33.9768 26.3768 33.78C26.3614 33.2746 26.5194 32.9358 26.955 32.8128C27.2789 32.7388 27.6133 32.7196 27.9438 32.756C28.2695 32.7787 28.5876 32.879 28.9075 32.9282C29.401 33.0021 29.8925 33.0891 30.384 33.1857C30.7695 33.2614 31.155 33.3087 31.5405 33.3976C32.3115 33.5869 33.0998 33.7232 33.8708 33.9162C34.7478 34.1358 35.6229 34.3724 36.4845 34.6431C37.1552 34.8531 37.8067 35.12 38.4621 35.3736C38.9071 35.5258 39.3411 35.7073 39.7612 35.9168C40.5707 36.3635 41.4188 36.7383 42.1667 37.3004C42.7103 37.6764 43.2226 38.0941 43.699 38.5496C44.459 39.3179 45.0138 40.2587 45.3143 41.2884C45.3877 41.5886 45.4284 41.8957 45.4357 42.2044C45.4569 42.5489 45.4357 42.8972 45.4357 43.2435C45.4511 43.9817 45.243 44.6782 45.0097 45.3634C44.7298 46.1718 44.2962 46.9207 43.7318 47.5703C43.2323 48.1607 42.6425 48.6715 41.9836 49.0844C41.1593 49.5973 40.2548 49.9739 39.3063 50.1992C38.9503 50.2698 38.5882 50.3072 38.225 50.3109C37.3037 50.3526 36.3785 50.3507 35.4591 50.4169C34.7073 50.4718 33.9614 50.5873 33.2174 50.7008C32.7702 50.769 32.3308 50.8806 31.8894 50.979C30.7013 51.2467 29.53 51.5817 28.3813 51.9822C27.541 52.2756 26.7121 52.6049 25.8756 52.9285C24.9408 53.2863 23.9867 53.6042 23.0827 54.0244C22.3811 54.35 21.6371 54.5392 20.9239 54.8213C20.2902 55.0386 19.6398 55.2063 18.9791 55.3228C18.4606 55.4364 17.9344 55.5121 17.4101 55.6029C17.2985 55.6124 17.1863 55.6124 17.0747 55.6029C16.4483 55.6029 15.8238 55.6029 15.1974 55.6029C14.4268 55.59 13.6611 55.4799 12.9191 55.2755C12.1436 55.0815 11.3895 54.8127 10.6678 54.473C9.72353 54.0443 8.84923 53.4804 8.0734 52.7998C7.75536 52.5159 7.41227 52.2566 7.12122 51.9481C6.47923 51.2845 5.92016 50.5481 5.45587 49.7545C4.95766 48.9309 4.569 48.048 4.29939 47.1274C4.14687 46.566 4.02336 45.9975 3.92931 45.4239C3.78668 44.5154 3.84836 43.6107 3.86378 42.706C3.89481 42.0913 3.9983 41.4822 4.17217 40.8909C4.43539 39.8886 4.83269 38.9251 5.35372 38.0253C5.73158 37.3079 6.20901 36.6454 6.77235 36.0569C7.03063 35.8033 7.23494 35.4891 7.50672 35.2601C8.92 33.943 10.6287 32.9705 12.495 32.421C12.869 32.315 13.2545 32.2431 13.6342 32.1579C14.9834 31.8627 16.3327 32.0216 17.6819 31.9838C18.291 31.9668 18.9001 31.9838 19.5092 31.9838C19.839 31.9903 20.1595 32.0924 20.4305 32.2772C20.4972 32.3183 20.5512 32.3765 20.5866 32.4456C20.8622 33.0267 20.8237 33.4677 20.2493 33.886C20.1275 33.9606 19.9824 33.9895 19.8407 33.9674C19.0234 33.9674 18.2042 33.9674 17.387 33.9674H17.3908Z" fill="#1C2640"/>
<path d="M16.7526 44.4568C15.5768 44.4265 14.4994 44.1312 13.5684 43.376C12.9385 42.8622 12.4456 42.2054 12.1324 41.4625C11.9945 41.0383 11.9014 40.6013 11.8548 40.1584C11.822 39.8493 11.8542 39.5369 11.9493 39.2404C12.2167 38.2479 12.811 37.3701 13.6397 36.744C14.2893 36.2594 15.0217 36.0342 15.7599 35.7749C15.8874 35.7554 16.0167 35.7497 16.1454 35.7579C16.3382 35.7408 16.5174 35.7068 16.7044 35.6897C16.7799 35.6853 16.8557 35.6904 16.9299 35.7049C17.0198 35.7308 17.1122 35.7479 17.2055 35.756C17.9132 35.7611 18.6088 35.9366 19.2313 36.267C19.9441 36.6178 20.5503 37.1465 20.9892 37.8001C21.463 38.4416 21.7257 39.2102 21.7419 40.0025C21.7581 40.7949 21.527 41.5731 21.0798 42.2328C20.6109 42.9341 19.9672 43.506 19.2098 43.8943C18.4524 44.2825 17.6066 44.4742 16.7526 44.4511V44.4568ZM16.8721 42.4713C17.5255 42.5357 18.2425 42.2234 18.7321 41.8694C19.0958 41.6221 19.3763 41.2739 19.5377 40.8694C19.699 40.4649 19.7339 40.0223 19.638 39.5982C19.5156 39.1627 19.272 38.7695 18.9345 38.4625C18.5557 38.1089 18.0825 37.868 17.5698 37.7679C17.0618 37.6592 16.5359 37.6592 16.0278 37.7679C15.46 37.9122 14.9438 38.2076 14.536 38.6215C14.2881 38.864 14.103 39.1612 13.9963 39.4884C13.9089 39.7781 13.8885 40.0833 13.9365 40.3817C14.0051 40.8266 14.2109 41.2402 14.5263 41.5666C15.1547 42.212 15.9392 42.4808 16.8779 42.4713H16.8721Z" fill="#1C2640"/>
<path d="M22.6932 34.1585C22.5595 34.1601 22.4268 34.1351 22.3032 34.085C22.1796 34.0349 22.0676 33.9607 21.974 33.867C21.8803 33.7733 21.807 33.6619 21.7583 33.5396C21.7097 33.4173 21.6867 33.2866 21.6909 33.1553C21.6925 33.0168 21.7247 32.8802 21.7853 32.7551C21.8458 32.6299 21.9333 32.5191 22.0417 32.4304C22.261 32.2842 22.5171 32.2004 22.7819 32.1882C23.2792 32.173 23.8227 32.756 23.7649 33.2329C23.6974 33.7761 23.3293 34.202 22.6932 34.1585Z" fill="#1C2640"/>
<path d="M42.6349 50.9677C42.7642 50.9676 42.8923 50.9931 43.0114 51.0427C43.1305 51.0922 43.2383 51.1648 43.3282 51.2561C43.4181 51.3475 43.4884 51.4556 43.5349 51.5742C43.5813 51.6927 43.603 51.8193 43.5986 51.9462C43.5986 52.4648 43.1225 52.9626 42.6349 52.9531C42.1472 52.9437 41.5651 52.4137 41.5863 51.9481C41.6037 51.6852 41.7212 51.4384 41.9155 51.2568C42.1098 51.0751 42.3666 50.9719 42.6349 50.9677Z" fill="#1C2640"/>
<path d="M54.7782 7.86221C54.7782 7.15483 54.7741 6.44673 54.7782 5.73936C54.7824 5.6598 54.7695 5.58028 54.7404 5.50653C54.7114 5.43279 54.6669 5.36665 54.6102 5.31291C53.759 4.43841 52.9102 3.55935 52.0637 2.67573C51.8838 2.48988 51.8845 2.46971 52.0637 2.28746L54.1475 0.126421C54.3108 -0.04286 54.3365 -0.0414193 54.4948 0.126421C55.1154 0.76993 55.7363 1.41296 56.3578 2.05551C56.5071 2.20966 56.5085 2.20822 56.6655 2.04614L58.5041 0.140108C58.6833 -0.0450208 58.7027 -0.0443005 58.8792 0.140108L60.963 2.30114C61.122 2.4661 61.1234 2.5014 60.963 2.66564C60.0924 3.56799 59.2216 4.46963 58.3506 5.37054C58.3044 5.41457 58.2681 5.46851 58.2441 5.5286C58.2201 5.58869 58.209 5.65348 58.2116 5.71846C58.2149 7.24127 58.2149 8.76409 58.2116 10.2869C58.2116 10.5073 58.2116 10.503 58.4047 10.3964C59.5406 9.75672 60.6768 9.11778 61.8131 8.47955C61.9513 8.39274 62.0936 8.31339 62.2396 8.24183C62.414 8.1698 62.489 8.03077 62.5383 7.85717C62.7022 7.28089 62.8759 6.70462 63.0391 6.12834C63.1926 5.5852 63.3385 5.03918 63.4885 4.49532C63.501 4.44922 63.5295 4.40672 63.5371 4.36061C63.599 3.9954 63.6886 4.05447 63.9775 4.13875C64.6311 4.32892 65.2806 4.5335 65.9307 4.73447C66.2169 4.82235 66.5024 4.91456 66.7879 5.00676C66.9219 5.04998 66.9268 5.15948 66.8941 5.26969C66.8059 5.59168 66.7122 5.91152 66.6163 6.23135C66.517 6.57423 66.4142 6.91568 66.3155 7.25856C66.2461 7.5042 66.1856 7.75416 66.1071 7.99764C66.0773 8.092 66.0988 8.12658 66.1836 8.15251C66.6413 8.29298 67.0984 8.43705 67.5554 8.57896C67.9791 8.7115 68.4049 8.8354 68.8251 8.97875C69.0154 9.04358 69.012 9.07888 68.9557 9.27337C68.7973 9.82227 68.648 10.3733 68.491 10.923C68.3521 11.3969 68.2132 11.8702 68.0743 12.3435C68.043 12.4487 67.9721 12.4595 67.8819 12.4314C67.5227 12.3204 67.1643 12.2117 66.8052 12.1022C66.3475 11.9624 65.8897 11.8241 65.4327 11.6836C65.0291 11.5597 64.6284 11.4301 64.2234 11.3119C64.1542 11.292 64.0805 11.2979 64.015 11.3285C63.3128 11.7161 62.6133 12.1115 61.9132 12.5041C61.3404 12.8254 60.7673 13.1467 60.194 13.4679C59.9745 13.5918 59.9752 13.6048 60.1885 13.7402C60.7594 14.1023 61.3304 14.4644 61.9014 14.8265C62.5418 15.2321 63.185 15.6326 63.8212 16.0453C63.9733 16.144 64.1192 16.1174 64.2699 16.085C64.7298 15.9764 65.1884 15.8633 65.6459 15.7457C66.0537 15.6419 66.4593 15.5296 66.8671 15.4251C67.1796 15.3459 67.4957 15.2811 67.8089 15.2011C67.9145 15.1744 67.9763 15.2083 68.002 15.3171C68.0861 15.6708 68.1715 16.0237 68.2549 16.3767C68.3229 16.6648 68.3903 16.9547 68.457 17.2462C68.5299 17.5653 68.6022 17.8844 68.6758 18.2035C68.698 18.3015 68.7293 18.3987 68.7453 18.4981C68.7511 18.5199 68.7521 18.5427 68.7484 18.565C68.7447 18.5873 68.7362 18.6084 68.7237 18.6269C68.7111 18.6453 68.6947 18.6607 68.6758 18.6718C68.6568 18.6829 68.6357 18.6895 68.614 18.6912C68.1264 18.8064 67.6401 18.925 67.1553 19.047C66.7476 19.15 66.3426 19.2631 65.9349 19.3676C65.7904 19.4036 65.796 19.4879 65.8238 19.6089C65.9349 20.0656 66.0391 20.5244 66.1467 20.9819C66.2162 21.2657 66.2857 21.5495 66.3496 21.8326C66.3906 22.0004 66.4329 22.1676 66.4711 22.3368C66.4961 22.4463 66.4649 22.5205 66.3468 22.5486C65.871 22.6624 65.3952 22.7777 64.9208 22.898C64.5235 22.9988 64.1289 23.1083 63.7323 23.2113C63.5878 23.2488 63.4413 23.2834 63.2954 23.3136C63.2758 23.32 63.2552 23.322 63.2348 23.3196C63.2144 23.3171 63.1948 23.3102 63.1771 23.2993C63.1595 23.2884 63.1443 23.2738 63.1325 23.2564C63.1207 23.239 63.1125 23.2193 63.1086 23.1984C63.0669 23.0543 63.0308 22.9102 62.9974 22.7662C62.9002 22.334 62.8064 21.9061 62.7078 21.4767C62.6432 21.1922 62.5689 20.9098 62.5057 20.626C62.4362 20.3127 62.3667 19.9986 62.2917 19.6852C62.2671 19.5509 62.2348 19.4181 62.1952 19.2876C62.1647 19.2241 62.1163 19.1718 62.0563 19.1378C61.2107 18.598 60.364 18.0606 59.5161 17.5257C59.1514 17.2944 58.7896 17.0589 58.4242 16.8298C58.3644 16.8012 58.3017 16.7795 58.2374 16.765C58.225 16.8214 58.2166 16.8787 58.2123 16.9364C58.2123 18.3937 58.2123 19.8502 58.2082 21.3075C58.2067 21.3665 58.2176 21.4252 58.24 21.4795C58.2624 21.5339 58.2959 21.5825 58.3381 21.6223C59.2059 22.5188 60.0715 23.4169 60.9352 24.3163C61.1297 24.5188 61.1262 24.5252 60.9296 24.7284C60.2424 25.442 59.5536 26.1559 58.8632 26.87C58.6993 27.04 58.6833 27.0429 58.5159 26.87C57.8907 26.2231 57.2656 25.5748 56.6405 24.925C56.5141 24.7939 56.4953 24.7925 56.3626 24.9286C55.7338 25.5813 55.1047 26.2334 54.4754 26.8851C54.3365 27.0292 54.3031 27.0335 54.1656 26.8909C53.4497 26.1494 52.735 25.4074 52.0214 24.665C51.8929 24.5317 51.8915 24.4835 52.0179 24.3531C52.7486 23.5948 53.48 22.8368 54.2121 22.079C54.3156 21.9581 54.4265 21.8443 54.5442 21.7382C54.7393 21.5819 54.7803 21.3853 54.7789 21.1403C54.7699 19.6716 54.7748 18.2028 54.7741 16.734C54.7741 16.5179 54.7581 16.5121 54.5782 16.6137C53.621 17.1539 52.6634 17.6937 51.7053 18.233C51.3761 18.4182 51.0448 18.6004 50.7141 18.7834C50.6616 18.8071 50.6146 18.8424 50.5765 18.8868C50.5384 18.9312 50.51 18.9837 50.4933 19.0405C50.3967 19.3964 50.2918 19.7501 50.1904 20.1045C50.0696 20.5281 49.9485 20.9514 49.8271 21.3745C49.7267 21.7231 49.6259 22.0715 49.525 22.4197C49.4882 22.5457 49.459 22.674 49.4166 22.7979C49.4121 22.8216 49.4024 22.8438 49.3882 22.863C49.374 22.8822 49.3558 22.8977 49.3349 22.9084C49.3141 22.9192 49.2911 22.9248 49.2678 22.9248C49.2445 22.9249 49.2215 22.9194 49.2006 22.9088C48.7283 22.7561 48.2546 22.6098 47.7802 22.4643C47.3717 22.339 46.9626 22.2165 46.5542 22.0941C46.4437 22.0602 46.3319 22.03 46.2208 22.0004C46.1991 21.9966 46.1784 21.988 46.1601 21.9753C46.1418 21.9625 46.1263 21.9459 46.1147 21.9265C46.1031 21.9071 46.0956 21.8853 46.0927 21.8627C46.0898 21.8401 46.0915 21.817 46.0978 21.7951C46.1239 21.6606 46.1568 21.5277 46.1965 21.3968C46.3896 20.7245 46.584 20.0507 46.7799 19.3755C46.816 19.2494 46.8431 19.1205 46.8904 18.9988C46.93 18.8965 46.898 18.864 46.8056 18.8367C46.4521 18.7315 46.0992 18.6206 45.7471 18.5089C45.2025 18.3375 44.6579 18.1617 44.1127 17.9924C43.9925 17.9557 43.9779 17.888 44.0113 17.7763C44.1787 17.2058 44.3405 16.6339 44.5065 16.0626C44.6454 15.5944 44.7844 15.1262 44.9198 14.6601C44.9222 14.639 44.9295 14.6189 44.9412 14.6015C44.9528 14.584 44.9684 14.5698 44.9865 14.5601C45.0047 14.5503 45.0249 14.5454 45.0454 14.5456C45.0658 14.5458 45.0859 14.5513 45.1039 14.5614C45.7804 14.7756 46.4574 14.9869 47.1349 15.1953C47.6968 15.3689 48.2594 15.5418 48.8241 15.7053C48.8913 15.7124 48.9587 15.6954 49.0152 15.6571C49.7674 15.2386 50.5176 14.815 51.2691 14.3943C51.7785 14.1105 52.2865 13.8276 52.7931 13.5457C52.8188 13.5313 52.8431 13.5155 52.8674 13.4996C53.0105 13.4067 53.0126 13.3901 52.8723 13.3001C52.2777 12.9198 51.6826 12.5409 51.0871 12.1634C50.4669 11.7701 49.8417 11.384 49.227 10.9813C49.1565 10.9348 49.0772 10.9043 48.9945 10.8919C48.9117 10.8795 48.8274 10.8854 48.747 10.9093C48.2323 11.0368 47.7225 11.183 47.2085 11.3119C46.6723 11.4459 46.1326 11.5677 45.5949 11.6959C45.456 11.729 45.3171 11.7679 45.1782 11.8047C45.1597 11.8136 45.1393 11.8179 45.1189 11.817C45.0984 11.8161 45.0785 11.8102 45.0607 11.7997C45.043 11.7892 45.0279 11.7744 45.0168 11.7566C45.0057 11.7388 44.9989 11.7184 44.9969 11.6973C44.9149 11.3617 44.8302 11.0267 44.7517 10.6888C44.6822 10.382 44.6163 10.0737 44.5468 9.76609C44.4739 9.44121 44.3988 9.11777 44.3238 8.79146C44.3009 8.69349 44.2669 8.59697 44.2544 8.49756C44.237 8.38663 44.2856 8.32828 44.4009 8.3009C44.8218 8.20294 45.2393 8.08912 45.6588 7.98611C46.0784 7.8831 46.4924 7.78802 46.9043 7.68717C46.9737 7.6706 47.0342 7.63819 47.1008 7.6209C47.2016 7.59569 47.2078 7.52941 47.1863 7.44297C47.0842 7.02661 46.9779 6.61097 46.8813 6.19461C46.7637 5.69613 46.648 5.19741 46.534 4.69845C46.4958 4.53133 46.534 4.48811 46.6855 4.44922C47.2057 4.31811 47.7239 4.17909 48.2441 4.04726C48.54 3.97523 48.8387 3.90896 49.136 3.83764C49.293 3.80019 49.45 3.76129 49.6042 3.71302C49.8126 3.64819 49.8653 3.6662 49.9202 3.87798C49.9897 4.16036 50.0515 4.44633 50.1175 4.73087C50.2488 5.29274 50.3828 5.85461 50.5127 6.4172C50.6065 6.82275 50.6919 7.23047 50.7906 7.63458C50.8083 7.72044 50.8548 7.797 50.9218 7.85069C51.9095 8.48099 52.9021 9.10337 53.8926 9.72935C54.1343 9.88206 54.3719 10.0405 54.6136 10.1933C54.7525 10.2819 54.7775 10.2653 54.7782 10.0946C54.7796 9.35189 54.7782 8.60849 54.7782 7.86221Z" fill="#1C2640"/>
</svg>
