<svg width="52" height="56" viewBox="0 0 52 56" fill="none" xmlns="http://www.w3.org/2000/svg">
<g clip-path="url(#clip0_5439_23536)">
<path d="M7.0713 34.5669C7.0713 30.7257 7.0713 26.8827 7.0713 23.0398C7.05803 22.8077 7.11773 22.5772 7.24216 22.3803C7.36658 22.1833 7.54959 22.0296 7.76588 21.9403C8.582 21.5354 9.39639 21.1252 10.2142 20.734C11.1849 20.2601 12.1591 19.7948 13.1315 19.3261L15.9358 17.9785L18.8547 16.5723C19.723 16.1553 20.5912 15.74 21.4594 15.3212C22.4318 14.8525 23.4025 14.3786 24.3766 13.9098C25.1563 13.5341 25.9394 13.1688 26.7208 12.788C27.0587 12.6313 27.434 12.5716 27.8043 12.6156C27.9025 12.6311 27.9972 12.6638 28.0839 12.7121C28.327 12.8276 28.5666 12.9551 28.8097 13.074C30.0241 13.6657 31.2396 14.2556 32.4562 14.8438C33.3887 15.2971 34.3264 15.7434 35.2606 16.1932L38.1778 17.5977C39.1259 18.0543 40.0722 18.5144 41.0186 18.9763C42.0442 19.4577 43.0699 19.9436 44.0956 20.4342L46.8252 21.7422C46.9251 21.7962 47.0277 21.8451 47.1326 21.8886C47.7351 22.1109 47.9886 22.4625 47.9886 23.0949C47.9886 30.7498 47.9915 38.4058 47.9973 46.0629C47.9973 46.7298 47.6917 47.1244 47.1291 47.3898C46.4241 47.7345 45.7156 48.055 45.0124 48.3945C43.8993 48.9373 42.7897 49.4836 41.6767 50.0282C40.7442 50.4797 39.8066 50.926 38.8724 51.3758L35.9551 52.782L33.1491 54.1296L30.2319 55.5358C29.5147 55.8805 28.801 56.2251 28.0769 56.5698C27.9157 56.65 27.7382 56.6931 27.5578 56.6958C27.3774 56.6985 27.1987 56.6607 27.0351 56.5853C26.1669 56.1769 25.2987 55.7581 24.4183 55.3411C23.3677 54.8361 22.3189 54.3278 21.2684 53.8246C20.4245 53.4179 19.5771 53.0181 18.7315 52.6183L15.7396 51.169L13.0898 49.8903C12.0653 49.3975 11.0408 48.9057 10.0163 48.4152C9.28526 48.0705 8.54901 47.7259 7.82318 47.3812C7.58653 47.2822 7.3863 47.1133 7.24962 46.8975C7.11295 46.6818 7.04645 46.4295 7.05915 46.1749C7.07999 42.282 7.0713 38.4236 7.0713 34.5669ZM26.3162 43.3074V33.4674C26.3162 33.3674 26.3162 33.2675 26.3162 33.1675C26.3227 33.1106 26.3089 33.0532 26.2772 33.0054C26.2455 32.9575 26.1978 32.9222 26.1426 32.9056C25.9967 32.8522 25.8491 32.8005 25.7102 32.7333C24.7117 32.2525 23.7168 31.7665 22.7183 31.2857C21.8102 30.848 20.8968 30.4241 19.9886 29.9812L17.0367 28.556C16.0504 28.0821 15.0624 27.6134 14.0848 27.1378C12.9075 26.5691 11.7313 25.9975 10.5563 25.4231C10.2507 25.2749 9.9451 25.1232 9.63602 24.975C9.46237 24.8889 9.43806 24.9009 9.42764 25.0733C9.42764 25.1301 9.42764 25.1887 9.42764 25.2456C9.42764 31.8952 9.42475 38.5459 9.41896 45.1978C9.40906 45.2997 9.43517 45.4019 9.49283 45.4867C9.55049 45.5716 9.6361 45.634 9.73499 45.6631C10.6744 46.1025 11.6051 46.5626 12.5393 47.0107C13.5117 47.4794 14.4859 47.943 15.46 48.4117C16.4342 48.8805 17.3701 49.3371 18.339 49.799L21.1416 51.1466C22.1661 51.6395 23.19 52.1329 24.2134 52.6269C24.776 52.9009 25.3334 53.1852 25.8942 53.4644C26.3266 53.6798 26.3284 53.6781 26.3284 53.2059L26.3162 43.3074ZM45.6462 35.139V24.9544C45.6462 24.8613 45.6253 24.8372 45.5229 24.8854C44.8283 25.2163 44.1338 25.5317 43.4392 25.866C42.0309 26.5553 40.6314 27.2446 39.2196 27.9132C39.1069 27.9518 39.0109 28.0276 38.9477 28.128C38.8845 28.2284 38.8579 28.3472 38.8724 28.4647C38.888 30.4706 38.8724 32.4765 38.8845 34.4841C38.8881 34.7108 38.828 34.934 38.7109 35.1286C38.6208 35.3011 38.4864 35.4468 38.3213 35.5511C38.1562 35.6553 37.9662 35.7144 37.7707 35.7223C37.5752 35.7301 37.381 35.6865 37.2079 35.5959C37.0348 35.5053 36.889 35.3708 36.7852 35.2062C36.6129 34.9643 36.5246 34.6734 36.5334 34.3773C36.5334 32.7143 36.5334 31.0514 36.5334 29.3798C36.5334 29.2471 36.5195 29.2074 36.3736 29.2781C35.6791 29.6227 34.9636 29.9519 34.2604 30.2879C33.3366 30.7274 32.4128 31.1651 31.4925 31.6131C30.6104 32.0422 29.7335 32.4748 28.8531 32.9177C28.7212 32.9832 28.6118 33.0573 28.643 33.2348C28.65 33.3202 28.65 33.4061 28.643 33.4915V53.3662C28.643 53.6695 28.6534 53.6729 28.9156 53.5489C29.6467 53.2042 30.3795 52.8595 31.1088 52.5063C32.2218 51.9686 33.3314 51.424 34.4445 50.8864C35.3387 50.4538 36.2364 50.0247 37.1324 49.5939C38.2333 49.0654 39.3331 48.5347 40.4317 48.0016C41.3763 47.557 42.2931 47.1175 43.2134 46.6695C43.941 46.3145 44.6634 45.9457 45.3961 45.5959C45.5698 45.5097 45.6774 45.4132 45.6479 45.2064C45.6418 45.1209 45.6418 45.0351 45.6479 44.9497L45.6462 35.139ZM35.3109 27.1688C35.271 27.1516 35.2328 27.136 35.1946 27.1171C34.5799 26.8259 33.9635 26.5346 33.3505 26.2399C32.414 25.7942 31.4792 25.3461 30.5462 24.8958C29.5737 24.427 28.6019 23.9583 27.6307 23.4896L24.8281 22.1437L21.7963 20.6806C20.8499 20.2239 19.9018 19.7742 18.9607 19.302C18.8872 19.262 18.8043 19.2418 18.7205 19.2436C18.6367 19.2455 18.5548 19.2691 18.4831 19.3123C17.6531 19.7173 16.8214 20.1154 15.9896 20.5186C15.0172 20.9862 14.0448 21.4544 13.0724 21.9231C12.5515 22.1782 12.0306 22.4401 11.5096 22.7055C11.336 22.7985 11.105 22.8296 10.9887 23.0277C11.1623 23.1087 11.336 23.188 11.5096 23.2724C12.482 23.7394 13.4527 24.2116 14.4251 24.6786L17.2294 26.0245C18.2018 26.491 19.1737 26.9597 20.1449 27.4307L22.9475 28.7766C23.9199 29.243 24.8917 29.7118 25.863 30.1828C26.3376 30.4126 26.8082 30.6481 27.2747 30.8894C27.332 30.926 27.3981 30.9467 27.4662 30.9495C27.5343 30.9522 27.6019 30.9368 27.6619 30.9049C28.1985 30.6447 28.7403 30.3982 29.2768 30.1415C30.2886 29.6566 31.2992 29.1695 32.3086 28.6801L34.9966 27.3894C35.0855 27.3452 35.1719 27.2963 35.2554 27.2429C35.2831 27.236 35.2988 27.2033 35.3109 27.1757V27.1688ZM43.9931 23.0329C43.9931 23.0088 43.9931 22.9691 43.9688 22.9588C43.8959 22.9157 43.8177 22.8795 43.7413 22.8433L40.7095 21.3803L38.2142 20.174L35.0591 18.6644C34.2031 18.2525 33.3435 17.8424 32.4875 17.4288C31.4456 16.9239 30.3864 16.4207 29.3393 15.9106C28.8028 15.6503 28.268 15.3815 27.7366 15.1092C27.6641 15.0664 27.5813 15.0439 27.497 15.0439C27.4126 15.0439 27.3298 15.0664 27.2573 15.1092C26.2155 15.6262 25.1736 16.1329 24.1161 16.6395C23.2844 17.041 22.4509 17.4357 21.6191 17.8355C21.5753 17.861 21.5335 17.8898 21.4941 17.9216C21.5323 17.963 21.5754 17.9994 21.6226 18.0302C21.9578 18.1819 22.2981 18.3232 22.6315 18.48C23.5796 18.9332 24.5259 19.3916 25.4723 19.8465L28.3878 21.2493C29.322 21.6974 30.2567 22.1454 31.1921 22.5935C32.2687 23.1104 33.3435 23.6274 34.4167 24.1444C35.5743 24.7097 36.736 25.2772 37.9017 25.847C37.9493 25.8741 38.0031 25.8883 38.058 25.8883C38.1128 25.8883 38.1667 25.8741 38.2142 25.847C39.0686 25.4283 39.9281 25.0181 40.7842 24.6063L43.5468 23.2759C43.6753 23.2138 43.8038 23.1535 43.9306 23.0898C43.9532 23.0777 43.9671 23.0519 43.9809 23.0312L43.9931 23.0329Z" fill="#1C2640"/>
</g>
<defs>
<clipPath id="clip0_5439_23536">
<rect width="52" height="56" fill="white"/>
</clipPath>
</defs>
</svg>
