<svg width="53" height="56" viewBox="0 0 53 56" fill="none" xmlns="http://www.w3.org/2000/svg">
<g clip-path="url(#clip0_5439_23554)">
<path d="M1.99845 37.2531C1.99845 34.0344 1.98216 30.8157 1.99845 27.597C1.9921 26.2941 2.44137 25.0295 3.26933 24.0198C3.84366 23.3109 4.38133 22.5715 4.93123 21.8403C5.48112 21.109 6.03917 20.3494 6.59925 19.6121C7.03916 19.0287 7.4913 18.4555 7.93326 17.8721C8.04433 17.7239 8.1011 17.5423 8.09415 17.3576C8.09415 16.5838 8.08193 15.808 8.09415 15.0322C8.10454 14.9509 8.08628 14.8685 8.04246 14.799C7.99864 14.7296 7.93198 14.6774 7.85382 14.6514C7.47925 14.5014 7.14566 14.2654 6.88031 13.9627C6.50844 13.5177 6.25679 12.9857 6.14915 12.4171C6.07407 11.8376 6.04751 11.2529 6.06972 10.669C6.05547 9.57317 6.06972 8.4773 6.06972 7.38145C6.06525 6.91801 6.15965 6.4589 6.3467 6.03442C6.59639 5.41075 7.06043 4.89539 7.65627 4.58003C8.11155 4.33577 8.61965 4.20509 9.13692 4.19922C15.3229 4.21137 21.5082 4.21137 27.6928 4.19922C28.3997 4.20656 29.0765 4.48439 29.5829 4.97502C30.0689 5.43649 30.4069 6.03059 30.5543 6.68261C30.5772 6.79725 30.5848 6.91441 30.5767 7.03102C30.5767 8.71633 30.591 10.4016 30.5767 12.095C30.5742 12.7636 30.3131 13.4055 29.8476 13.8877C29.5136 14.2402 29.1755 14.5906 28.6847 14.7364C28.6512 14.752 28.622 14.7755 28.5997 14.8048C28.5773 14.8341 28.5625 14.8683 28.5564 14.9046C28.5482 15.7634 28.5482 16.623 28.5564 17.4832C28.5742 17.5792 28.6186 17.6683 28.6847 17.7404C29.4586 18.7775 30.2346 19.8133 31.0126 20.8477C31.5727 21.5911 32.1531 22.3203 32.7091 23.0759C33.147 23.6593 33.5849 24.2447 33.982 24.8564C34.2438 25.3162 34.4366 25.8117 34.5543 26.327C34.6347 26.6501 34.6669 26.9831 34.65 27.3155C34.65 30.046 34.65 32.7759 34.65 35.505C34.65 35.6407 34.65 35.7765 34.65 35.9102C34.65 36.0054 34.65 36.0722 34.7885 35.9993C35.2223 35.7542 35.6663 35.5253 36.1001 35.2802C36.6358 34.9764 37.1633 34.6725 37.6969 34.3545C38.1429 34.0952 38.5808 33.8218 39.0411 33.5908C39.4541 33.3791 39.8831 33.1996 40.3242 33.054C40.7684 32.9265 41.2191 32.8224 41.6744 32.7421C41.7753 32.732 41.877 32.732 41.9779 32.7421C42.2997 32.7421 42.6235 32.7563 42.9433 32.7421C43.8618 32.7043 44.7777 32.8625 45.6296 33.206C46.5219 33.5355 47.3526 34.0106 48.0879 34.6118C48.7081 35.1181 49.2388 35.724 49.6581 36.4044C50.2039 37.2977 50.6765 38.2275 50.8251 39.2787C50.9107 39.8702 51.0614 40.4577 51.0084 41.0532C50.9188 42.0883 50.7824 43.1153 50.3139 44.0693C50.0681 44.6293 49.7607 45.1606 49.3974 45.6534C49.0407 46.133 48.6353 46.5749 48.1877 46.972C47.3547 47.6567 46.4137 48.1489 45.4993 48.6918C44.7579 49.1334 44.0125 49.5729 43.259 50.0044C42.5054 50.4358 41.7213 50.8632 40.9555 51.3008C40.1897 51.7383 39.4647 52.1779 38.7152 52.6073C38.1388 52.9395 37.5523 53.2534 36.9739 53.5836C36.4403 53.8875 35.9094 54.1981 35.3812 54.5154C34.4144 55.1304 33.3568 55.591 32.2468 55.8807C31.8879 55.9534 31.5233 55.9947 31.1572 56.0042C30.8028 56.0245 30.4444 55.9921 30.09 56.0042C29.5068 56.0069 28.9264 55.925 28.367 55.7612C27.2302 55.4895 26.1738 54.9552 25.2835 54.2014C24.6117 53.6661 24.0366 53.0208 23.5829 52.2933C23.544 52.2123 23.4802 52.1457 23.4008 52.1031C23.3213 52.0605 23.2303 52.0441 23.1409 52.0563C22.7173 52.0563 22.2937 52.0563 21.8701 52.0563C16.8545 52.0563 11.8389 52.0563 6.82328 52.0563C5.81921 52.0563 4.95363 51.6735 4.14305 51.1083C3.66979 50.7617 3.25697 50.3402 2.92106 49.8605C2.66167 49.5133 2.46145 49.1259 2.32839 48.7141C2.10139 47.9855 1.98941 47.2263 1.99642 46.4636C2.01068 43.3887 1.99845 40.3199 1.99845 37.2531ZM18.3242 29.094H4.7072C4.13694 29.094 4.13694 29.094 4.13694 29.6429V43.2874C4.13694 43.407 4.13694 43.5244 4.13694 43.6419C4.13694 43.7594 4.1736 43.8668 4.3406 43.8567C4.4241 43.8567 4.50965 43.8567 4.59315 43.8567C10.7031 43.8567 16.8178 43.8567 22.9373 43.8567C23.068 43.8685 23.1993 43.8417 23.3149 43.7798C23.4304 43.7178 23.5251 43.6234 23.587 43.5082C24.2991 42.4112 25.2578 41.4938 26.3873 40.8283C27.1694 40.3564 27.9882 39.9452 28.7804 39.4914C29.9474 38.8189 31.1042 38.1323 32.2692 37.4557C32.3442 37.4259 32.4081 37.3736 32.4519 37.3061C32.4957 37.2386 32.5172 37.1592 32.5136 37.0789C32.5034 34.5186 32.5136 31.9582 32.5136 29.3978C32.5136 29.098 32.5136 29.098 32.2101 29.0899H18.3242V29.094ZM18.3853 27.0684H31.9535H32.3608C32.4688 27.0684 32.5258 26.9934 32.4932 26.9063C32.3608 26.5701 32.314 26.2034 32.0859 25.8935C31.2203 24.7389 30.3649 23.5762 29.5014 22.4196C28.7397 21.3946 27.9678 20.3778 27.2061 19.3508C27.1251 19.2258 27.0119 19.1247 26.8783 19.0581C26.7447 18.9915 26.5955 18.9617 26.4464 18.972C24.4973 18.9902 22.5503 18.972 20.6033 18.972C19.4668 18.972 18.3324 18.972 17.198 18.972C16.6807 18.972 16.1328 18.3522 16.2428 17.868C16.363 17.3394 16.7418 16.9241 17.3365 16.9322C20.1654 16.9646 22.9943 16.9464 25.8232 16.9464C25.9412 16.9403 26.0595 16.9403 26.1776 16.9464C26.369 16.9646 26.4036 16.8654 26.4016 16.7053C26.4016 16.1989 26.4016 15.6925 26.4016 15.1882C26.4016 14.939 26.4016 14.937 26.1531 14.9289C26.035 14.9289 25.9148 14.9289 25.7967 14.9289H10.5504C10.2449 14.9289 10.2387 14.9289 10.2387 15.2266C10.2387 16.1361 10.2387 17.0497 10.2387 17.9551C10.2545 18.1707 10.1956 18.3852 10.0717 18.5628C9.75199 18.9882 9.43019 19.4095 9.10636 19.8329C8.44038 20.7039 7.77032 21.5709 7.10841 22.4439C6.4465 23.3169 5.74996 24.2467 5.07176 25.1542C4.71713 25.5745 4.44121 26.0548 4.2571 26.5721C4.14508 26.9772 4.19804 27.0481 4.59926 27.0522H18.3691L18.3853 27.0684ZM18.3629 12.9114H26.9474C27.0493 12.9114 27.1511 12.9114 27.2509 12.9114C28.0757 12.8688 28.4729 12.3179 28.4484 11.6818C28.4016 10.2517 28.4321 8.81964 28.4362 7.38956C28.4533 7.27361 28.4464 7.15541 28.4159 7.04221C28.3854 6.92901 28.3321 6.82319 28.259 6.73123C28.0778 6.54488 27.923 6.35042 27.6053 6.31193C27.3936 6.27744 27.18 6.25512 26.9658 6.24508H9.91084C9.61028 6.23848 9.31002 6.26841 9.01675 6.33421C8.85971 6.36067 8.71287 6.42913 8.59197 6.53226C8.47106 6.63538 8.38064 6.76929 8.3304 6.91961C8.25859 7.13952 8.22082 7.36901 8.21839 7.60022C8.2082 8.59277 8.21839 9.58735 8.21839 10.5799C8.21839 10.9668 8.2082 11.3557 8.21839 11.7426C8.23468 12.253 8.51777 12.7068 8.90474 12.802C9.17861 12.87 9.45953 12.9061 9.7418 12.9093C12.6121 12.9134 15.4858 12.9134 18.3629 12.9093V12.9114ZM30.4138 53.8692C31.6134 53.8692 31.6073 53.849 32.6908 53.4783C33.1063 53.3107 33.5063 53.1074 33.8863 52.8706C34.4667 52.5506 35.0533 52.2366 35.6317 51.9085C36.2101 51.5803 36.8069 51.2197 37.3975 50.8794C37.8435 50.6222 38.2936 50.3751 38.7396 50.1198C38.9148 50.0185 38.9535 49.897 38.8639 49.7431C38.6215 49.3379 38.3751 48.9166 38.1307 48.5034C37.6928 47.762 37.2488 47.0227 36.817 46.2752C36.3853 45.5278 35.9535 44.7459 35.5136 43.9863C35.0737 43.2267 34.6358 42.5055 34.1979 41.7581C33.8028 41.0876 33.4016 40.4171 33.0228 39.7325C32.9413 39.5866 32.8537 39.5725 32.7437 39.6353C31.8612 40.1349 30.9786 40.638 30.0961 41.1444C29.2475 41.6346 28.4002 42.1288 27.5544 42.6271C27.1588 42.8414 26.7932 43.1063 26.4668 43.4151C25.9616 43.8794 25.526 44.4136 25.1735 45.0011C24.7799 45.7089 24.5392 46.4906 24.4668 47.2961C24.4403 47.5959 24.4668 47.9038 24.4668 48.2056C24.4423 49.0159 24.6969 49.7694 25.0187 50.4966C25.3328 51.1433 25.7683 51.7243 26.3018 52.2082C26.7104 52.6272 27.1851 52.9768 27.7071 53.2433C28.5869 53.6728 29.5075 53.9482 30.4138 53.8672V53.8692ZM48.874 40.6197C48.8414 40.3908 48.8068 40.012 48.7294 39.6393C48.5819 38.9773 48.3311 38.3423 47.986 37.7575C47.4812 36.8705 46.7434 36.1367 45.8516 35.6347C45.2211 35.2676 44.5324 35.0101 43.815 34.873C43.426 34.8001 43.0207 34.8406 42.6195 34.7981C42.2398 34.7896 41.8615 34.8465 41.5013 34.9662C41.0657 35.0608 40.6402 35.1965 40.2305 35.3714C39.6602 35.6387 39.1164 35.9669 38.5706 36.2829C37.4036 36.9554 36.2447 37.64 35.0839 38.3085C34.8028 38.4726 34.7865 38.5111 34.9535 38.8088C35.1938 39.2247 35.4362 39.6393 35.6806 40.0525C36.2509 41.0248 36.8272 41.9931 37.3934 42.9674C37.8435 43.7412 38.2753 44.5251 38.7233 45.3009C39.3547 46.3907 39.9963 47.4744 40.6337 48.5642C40.7926 48.8356 40.817 48.8579 41.096 48.71C41.684 48.4008 42.2671 48.0814 42.8455 47.7519C43.8252 47.1908 44.7966 46.6115 45.7763 46.0504C46.5532 45.6171 47.2222 45.0155 47.7335 44.2901C48.4742 43.2069 48.8715 41.9277 48.874 40.6177V40.6197ZM13.3731 45.9815H4.73367C4.61555 45.9815 4.49742 45.9815 4.3793 45.9815C4.21637 45.9815 4.11861 46.0099 4.1349 46.2023C4.1396 46.6181 4.16747 47.0333 4.2184 47.446C4.32953 48.0865 4.64015 48.676 5.10638 49.1313C5.35605 49.3886 5.65636 49.5918 5.98856 49.7285C6.32076 49.8651 6.67772 49.9321 7.03713 49.9254C12.0351 49.9254 17.0317 49.9254 22.0269 49.9254C22.1287 49.9254 22.2305 49.9254 22.3324 49.9254C22.536 49.9254 22.5625 49.8666 22.5177 49.6742C22.4314 49.4108 22.3727 49.1393 22.3426 48.864C22.291 48.0115 22.323 47.156 22.4383 46.3097C22.4912 45.9977 22.4851 45.9957 22.2143 45.9916H13.3731V45.9815Z" fill="#1C2640"/>
<path d="M21.0534 37.8892H19.9353C19.3874 37.8892 19.3874 37.8892 19.3874 38.4604C19.3874 39.2525 19.3752 40.0445 19.3874 40.8345C19.3865 41.1186 19.2905 41.3944 19.1145 41.6184C19.0018 41.7644 18.8446 41.8703 18.6665 41.9202C18.4983 41.9722 18.3201 41.9833 18.1468 41.9526C17.9734 41.9219 17.81 41.8502 17.6703 41.7436C17.5306 41.637 17.4187 41.4986 17.3439 41.3401C17.2692 41.1815 17.2338 41.0074 17.2408 40.8324C17.2265 40.243 17.2408 39.6535 17.2408 39.0641C17.2408 38.6833 17.2103 38.3024 17.194 37.9196C16.8233 37.9095 16.4547 37.8953 16.084 37.8912C15.4587 37.8912 14.8314 37.8669 14.2062 37.8912C13.7663 37.9135 13.5219 37.6664 13.3284 37.3565C13.2284 37.2124 13.1748 37.0414 13.1748 36.8663C13.1748 36.6912 13.2284 36.5202 13.3284 36.3761C13.411 36.2359 13.5231 36.1152 13.6571 36.0222C13.791 35.9292 13.9436 35.8661 14.1044 35.8373C14.8803 35.6975 15.6502 35.8049 16.42 35.7562C16.6848 35.74 16.9475 35.7198 17.2123 35.6995C17.2123 35.4484 17.2327 35.1992 17.2347 34.948C17.2347 34.2735 17.2347 33.601 17.2347 32.9224C17.2316 32.7159 17.283 32.5122 17.3838 32.3317C17.4846 32.1511 17.6312 32 17.809 31.8934C18.0399 31.7764 18.3056 31.7467 18.5569 31.8096C18.8082 31.8726 19.028 32.0239 19.1756 32.2357C19.3166 32.4637 19.3874 32.7278 19.3793 32.9953C19.3691 33.8198 19.3793 34.6442 19.3793 35.4686C19.3793 35.7461 19.3793 35.7522 19.6563 35.7522C20.418 35.7522 21.1797 35.7522 21.9414 35.7522C22.2231 35.7563 22.503 35.7965 22.7744 35.8717C23.3019 36.0277 23.5626 36.7083 23.3609 37.2228C23.3012 37.4329 23.1676 37.6148 22.9845 37.7352C22.8013 37.8557 22.5808 37.9067 22.363 37.8791C21.9271 37.873 21.4933 37.8892 21.0534 37.8892Z" fill="#1C2640"/>
<path d="M13.2384 18.9809C12.6274 19.0984 12.1956 18.4421 12.1773 17.9681C12.159 17.5387 12.6172 16.8743 13.216 16.929C13.8881 16.9897 14.3097 17.3341 14.3036 17.9701C14.2974 18.6062 13.8881 18.9809 13.2384 18.9809Z" fill="#1C2640"/>
</g>
<defs>
<clipPath id="clip0_5439_23554">
<rect width="53" height="56" fill="white"/>
</clipPath>
</defs>
</svg>
