<svg width="78" height="73" viewBox="0 0 78 73" fill="none" xmlns="http://www.w3.org/2000/svg">
<path d="M42.0505 50.2674L38.631 50.3951C38.08 50.6428 37.4754 50.4403 36.8992 50.6164C36.5135 50.7347 36.0774 50.6896 35.6618 50.7488C34.4747 50.9186 33.3003 51.1413 32.1242 51.3719C30.7265 51.6433 29.3448 51.9902 27.9853 52.411C26.4692 52.8876 24.9673 53.4173 23.4842 53.989C21.9117 54.5978 20.3831 55.3124 18.9092 56.1279C18.1672 56.5291 17.308 56.6644 16.4768 56.5111C16.0424 56.4397 15.6283 56.2777 15.2619 56.036C14.8955 55.7943 14.5852 55.4784 14.3515 55.1091C13.8347 54.3044 13.2245 53.5625 12.5331 52.8985C11.8137 52.2384 11.016 51.6672 10.1574 51.1974C9.52767 50.8485 8.84125 50.5743 8.18003 50.2768C8.11867 50.265 8.05561 50.265 7.99425 50.2768C7.99295 50.3445 8.0036 50.412 8.02574 50.4762C8.32801 51.0152 8.63974 51.551 8.94673 52.0885C9.43793 52.9531 9.72446 53.9002 10.0141 54.8396C10.192 55.4222 10.1842 56.0578 10.329 56.6529C10.5053 57.3757 10.4172 58.1001 10.4439 58.8229C10.4817 59.8619 10.2534 60.8683 10.0283 61.8699C9.81053 62.7657 9.49375 63.635 9.0837 64.4621C8.76883 65.1102 8.35006 65.7084 7.98166 66.3237C7.95705 66.3784 7.93959 66.436 7.9297 66.4951C8.00212 66.5029 8.08714 66.5356 8.14854 66.5107C9.31041 66.0433 10.4361 65.5168 11.4421 64.7675C11.8556 64.4867 12.2462 64.1742 12.6102 63.8328C13.1088 63.3318 13.5628 62.7892 13.9673 62.2111C14.271 61.7642 14.6214 61.3501 15.0127 60.9758C15.5339 60.4918 16.2117 60.2064 16.9255 60.1704C17.7127 60.105 18.418 60.3464 19.1186 60.7359C20.1702 61.32 21.2833 61.7967 22.379 62.3046C23.0922 62.6364 23.8227 62.9277 24.5406 63.258C25.7859 63.8203 27.0863 64.2363 28.3757 64.6849C29.9501 65.2348 31.5827 65.6196 33.2027 66.0215C33.9898 66.2162 34.788 66.3081 35.5831 66.439C36.1341 66.5293 36.6851 66.6072 37.2393 66.6914C37.5683 66.7412 38.017 67.2179 38.0847 67.5887C38.1367 67.8706 37.8753 68.3504 37.5841 68.5156C37.446 68.6049 37.2889 68.6615 37.125 68.681C36.9612 68.7004 36.795 68.6822 36.6395 68.6277C36.2506 68.5031 35.8192 68.5218 35.4099 68.4517C34.6227 68.3177 33.8214 68.1869 33.0374 68.0046C32.8587 67.9626 32.6706 67.9882 32.51 68.0763C31.7747 68.4174 31.0411 68.7648 30.3059 69.0966C29.6294 69.4042 28.9292 69.6579 28.212 69.8553C27.5949 70.0219 26.9966 70.2478 26.3637 70.3693C25.7308 70.4909 25.0712 70.6295 24.4178 70.7354C23.8306 70.8305 23.2497 70.804 22.6672 70.846C21.828 70.9052 20.6347 70.0484 20.3056 69.1885C20.0234 68.4536 20.0195 67.6424 20.2946 66.9048C20.5937 66.0324 20.8787 65.1569 21.1794 64.2861C21.2439 64.0961 21.2345 63.987 21.022 63.8998C20.5623 63.7128 20.1057 63.5119 19.6602 63.2891C19.0839 62.9994 18.5266 62.6753 17.952 62.384C17.1459 61.9759 16.4926 62.1628 15.9667 62.9215C15.321 63.8931 14.5535 64.7798 13.6824 65.5604C12.4671 66.6329 11.0731 67.4889 9.5623 68.0903C8.79847 68.4062 8.01236 68.6665 7.21023 68.8692C6.88024 68.9444 6.53461 68.9139 6.2233 68.782C5.91199 68.6501 5.65114 68.4237 5.47845 68.1355C5.07542 67.4235 5.09274 66.7786 5.63588 66.1103C6.24673 65.3579 6.82766 64.5696 7.22282 63.677C7.63909 62.7391 7.96077 61.7628 8.18317 60.7624C8.40907 59.6656 8.48059 58.5432 8.39571 57.4271C8.35203 56.7326 8.23543 56.0445 8.04778 55.3739C7.78608 54.4223 7.41638 53.503 6.94574 52.6337C6.60181 51.9514 6.17115 51.3153 5.66422 50.741C5.35133 50.4039 5.17432 49.9649 5.16673 49.5072C5.16498 49.2263 5.23943 48.95 5.38231 48.7073C5.5252 48.4645 5.73129 48.2641 5.97909 48.127C6.20052 47.9914 6.44998 47.907 6.70892 47.8801C6.96787 47.8531 7.22962 47.8842 7.47472 47.9712C8.62242 48.3342 9.77012 48.6878 10.8312 49.2611C11.9052 49.8176 12.8951 50.5202 13.7721 51.3485C14.5671 52.1196 15.3291 52.9063 15.9321 53.841C16.0659 54.0021 16.21 54.1546 16.3635 54.2975C16.4296 54.3787 16.5158 54.4417 16.6136 54.4805C16.7115 54.5192 16.8179 54.5324 16.9224 54.5187C17.0688 54.5078 17.2183 54.5187 17.3663 54.5187C17.7552 54.4969 17.8386 54.3722 17.7221 54.0077C17.5773 53.5606 17.4262 53.1135 17.2797 52.6664C17.0528 52.0159 17.0929 51.3033 17.3915 50.6818C17.8197 49.7596 18.588 49.3281 19.5625 49.2611C20.0627 49.246 20.5629 49.2878 21.0534 49.3857C21.6234 49.476 22.1807 49.6303 22.7474 49.7409C23.8495 49.9558 24.8854 50.364 25.9276 50.7644C26.0724 50.8269 26.2361 50.8314 26.3842 50.7768C27.6295 50.4138 28.8858 50.0789 30.1437 49.7533C30.2235 49.7341 30.2972 49.6955 30.3582 49.6412C30.4192 49.5868 30.4656 49.5183 30.4932 49.4418C30.6748 49.0704 30.8809 48.7113 31.1104 48.3669C31.8038 47.3306 32.6793 46.4258 33.6954 45.6953C34.511 45.1189 35.3564 44.6048 36.2034 44.0767C36.668 43.7568 37.0989 43.3915 37.4896 42.9862C38.0052 42.4716 38.5991 42.04 39.2497 41.7073C40.1849 41.2432 41.2503 41.1028 42.2756 41.3085C42.9485 41.4381 43.5873 41.7032 44.1522 42.0874C44.2581 42.1526 44.3582 42.2266 44.4514 42.3086C45.3771 43.1872 46.2886 44.0814 47.0317 45.1235C47.8512 46.2403 48.5528 47.4373 49.1256 48.6956C49.1487 48.734 49.1792 48.7675 49.2154 48.7943C49.2516 48.821 49.2928 48.8404 49.3366 48.8514C49.9836 48.9853 50.6354 49.0959 51.2809 49.233C52.0051 49.3888 52.7293 49.5446 53.4488 49.7331C54.8691 50.1039 56.2616 50.5724 57.6161 51.1351C58.7603 51.5798 59.8572 52.1355 60.8907 52.7942C61.7739 53.3737 62.6839 53.9205 63.5183 54.5638C64.0378 54.9642 64.5699 55.4004 64.8517 56.0391C65.1335 56.6778 64.9966 57.5673 64.4975 58.0471C64.1826 58.3587 63.8379 58.6235 63.5057 58.9086C63.3876 59.0083 63.3105 59.0752 63.46 59.2482C63.643 59.4595 63.782 59.7046 63.869 59.9692C63.956 60.2339 63.9893 60.513 63.967 60.7904C63.9534 61.228 63.7728 61.6444 63.4616 61.9556C62.865 62.5361 62.2128 63.0578 61.5141 63.5134C60.1473 64.46 58.6917 65.2743 57.1674 65.9452C55.9802 66.4794 54.7578 66.9332 53.5086 67.3036C53.3703 67.3373 53.2432 67.4055 53.1392 67.5018C53.0353 67.5981 52.9581 67.7192 52.9151 67.8535C52.5655 68.7118 52.2334 69.578 51.7044 70.346C51.4604 70.7043 51.2746 71.1 51.0573 71.4754C50.799 71.9305 50.4237 72.3099 49.9695 72.5752C48.9556 73.1656 47.9496 73.069 46.9451 72.5035C46.5043 72.2558 46.232 71.8648 45.9627 71.4816C45.4637 70.7728 45.0008 70.0406 44.5458 69.3007C44.4776 69.1732 44.3718 69.0693 44.2424 69.0028C44.113 68.9363 43.9663 68.9103 43.8216 68.9284C43.1462 68.9486 42.4693 68.9284 41.7939 68.9408C41.2791 68.9502 40.8823 68.7274 40.7454 68.0061C40.6808 67.6728 41.0272 67.1727 41.4097 67.0465C41.6265 66.9792 41.8506 66.9374 42.0773 66.9219C42.3292 66.9001 42.5842 66.9219 42.8377 66.9219C43.9067 66.8799 44.9835 66.9017 46.0415 66.7661C47.0223 66.6462 48.0078 66.5371 48.9823 66.3222C49.6451 66.1773 50.3158 66.0449 50.9833 65.9109C51.2982 65.847 51.3313 65.7551 51.1723 65.5183C50.8574 65.0603 50.5315 64.6055 50.2434 64.1303C49.7213 63.2456 49.3351 62.2891 49.0973 61.292C48.8058 60.0572 48.7318 58.7818 48.8784 57.5221C49.032 55.9634 49.5541 54.4622 50.4024 53.14C50.6838 52.6576 51.0151 52.2055 51.3911 51.7909C51.4438 51.7271 51.4883 51.657 51.5233 51.5822C51.6225 51.4124 51.5942 51.294 51.4304 51.2582C51.0085 51.1647 50.5834 51.0712 50.1584 50.9949C49.4263 50.864 48.6942 50.7301 47.9543 50.6288C47.419 50.554 46.8711 50.5618 46.3359 50.4824C45.4385 50.35 44.5301 50.4341 43.639 50.3344C43.1069 50.3079 42.5685 50.2986 42.0505 50.2674ZM50.9046 58.7107C50.9046 59.2264 50.8401 59.6968 50.9172 60.1439C51.0991 61.2378 51.472 62.2921 52.0193 63.2595C52.3703 63.8826 52.8332 64.403 53.2646 64.956C53.422 65.1507 53.5794 65.2021 53.8581 65.1118C55.1176 64.7239 56.2889 64.1553 57.4665 63.6038C58.3197 63.1766 59.1428 62.6931 59.9303 62.1566C60.5601 61.7531 61.1898 61.3512 61.7251 60.8138C61.8636 60.672 61.9219 60.6003 61.7471 60.4243C61.6081 60.2983 61.4956 60.1463 61.4161 59.977C61.3367 59.8078 61.2919 59.6247 61.2843 59.4382C61.2843 58.9241 61.2575 58.435 61.6165 57.9614C61.8684 57.6312 62.2462 57.4941 62.4871 57.1732C62.6198 57.0255 62.7652 56.8895 62.9216 56.7666C62.7829 56.5864 62.6285 56.4186 62.4603 56.265C61.431 55.4668 60.338 54.7525 59.192 54.1292C57.7757 53.3947 56.3078 52.7621 54.7995 52.2365C54.2029 52.0184 53.8786 52.1041 53.4598 52.5356C52.764 53.2221 52.1888 54.0187 51.7579 54.8925C51.1848 56.1107 50.7566 57.385 50.9046 58.7107ZM46.1249 48.518L46.6838 48.4199L46.3611 47.8341C46.3502 47.8165 46.3402 47.7983 46.3311 47.7796C45.5881 46.488 44.6749 45.2999 43.6154 44.2465C43.1786 43.8008 42.6298 43.4782 42.0253 43.3118C41.6005 43.1981 41.1528 43.1981 40.728 43.3118C40.1198 43.4586 39.5709 43.7845 39.1537 44.2465C38.5801 44.8482 37.9284 45.3721 37.2157 45.8043C36.3891 46.3137 35.5469 46.8106 34.7739 47.3964C34.1945 47.8357 33.7112 48.4027 33.1917 48.9184C33.1649 48.9448 33.1806 49.029 33.1917 49.0741C33.1917 49.0944 33.2672 49.1068 33.3034 49.1006C34.0906 48.9448 34.8778 48.7968 35.687 48.7174C36.0995 48.6769 36.5214 48.6784 36.926 48.6006C37.7272 48.4549 38.5407 48.3856 39.3552 48.3934C41.5735 48.3871 43.8059 48.2532 46.1249 48.518ZM22.0909 68.028C22.0825 68.1432 22.1018 68.2588 22.1472 68.3652C22.1926 68.4716 22.2629 68.5658 22.3523 68.6402C22.6577 68.9517 22.982 68.8863 23.3725 68.8505C24.1947 68.7659 25.0108 68.6301 25.8158 68.4439C26.966 68.195 28.0906 67.842 29.1755 67.3893C29.2999 67.3363 29.5644 67.4189 29.5439 67.1696C29.5439 67.1229 29.292 67.1042 29.1629 67.059C27.2879 66.4156 25.3986 65.8128 23.5693 65.051C23.1646 64.8812 23.13 64.8952 22.9915 65.2925C22.7207 66.0849 22.452 66.8788 22.1854 67.6743C22.1508 67.7912 22.124 67.9111 22.0909 68.028ZM50.0009 68.2398L49.9852 68.1915C49.8523 68.2468 49.7148 68.2906 49.5743 68.3224C48.6297 68.4579 47.6851 68.5841 46.7483 68.7087C46.5374 68.7368 46.6555 68.8365 46.7011 68.9081C47.0065 69.3724 47.3141 69.835 47.6237 70.2961C47.7206 70.4543 47.8312 70.6039 47.9543 70.7432C48.0383 70.8281 48.1398 70.8939 48.252 70.9361C48.3642 70.9784 48.4843 70.996 48.604 70.9879C48.7237 70.9797 48.8403 70.946 48.9455 70.8889C49.0508 70.8319 49.1423 70.753 49.2138 70.6575C49.7268 69.8827 50.1764 69.0685 50.5583 68.2227C50.5705 68.1883 50.5795 68.1528 50.585 68.1168C50.5484 68.1024 50.5094 68.095 50.4701 68.0949C50.3111 68.1417 50.1568 68.1915 50.0009 68.2398ZM19.1941 52.0215L19.4161 52.6898C19.4948 52.9313 19.4807 53.2989 19.731 53.3581C19.9483 53.4126 20.2348 53.2366 20.4772 53.1338C21.351 52.7646 22.2185 52.3845 23.0891 52.009L23.2024 51.9654C23.1611 51.9372 23.1168 51.9137 23.0702 51.8953C22.3948 51.7271 21.7225 51.5433 21.0409 51.4046C20.6348 51.3275 20.223 51.2838 19.8097 51.2738C19.361 51.2597 19.1941 51.4498 19.1941 52.0215Z" fill="#1C2640"/>
<path d="M30.1753 39.9766C29.703 39.9766 29.2307 40.0343 28.782 39.9642C27.9948 39.8426 27.2076 39.9299 26.4205 39.7461C26.019 39.651 25.5939 39.6604 25.183 39.6012C24.5533 39.5124 23.9062 39.4454 23.2859 39.2896C22.9234 39.1953 22.5383 39.2398 22.2075 39.4143C21.2451 39.9012 20.2448 40.3112 19.2163 40.6402C18.1898 40.9518 17.1696 41.2634 16.0865 41.3662C15.6142 41.4114 15.1418 41.617 14.6837 41.5796C13.9375 41.5188 13.2211 41.2914 12.7111 40.6636C12.3599 40.2088 12.1503 39.6626 12.1081 39.0918C12.0797 38.802 12.2104 38.492 12.3002 38.1992C12.5221 37.4763 12.7599 36.7566 13.0039 36.0385C13.0417 35.9263 13.0716 35.8827 12.933 35.8251C12.0687 35.4091 11.217 34.9683 10.3527 34.5523C9.94808 34.3592 9.64109 34.4215 9.34039 34.744C9.1109 34.9875 8.90039 35.2479 8.71065 35.5229C7.84791 36.78 6.70179 37.7147 5.39193 38.4827C4.29532 39.1074 3.11941 39.5847 1.89531 39.9018C1.36476 40.0576 0.991635 39.8598 0.624813 39.6059C-0.195421 39.0404 -0.151339 37.9484 0.42802 37.2956C1.47338 36.1179 2.03543 34.7159 2.43531 33.236C2.64312 32.4664 2.55496 31.6688 2.59274 30.8822C2.61509 29.9098 2.44944 28.9422 2.1047 28.0314C1.75047 27.0188 1.28761 26.0498 0.558693 25.2273C0.219783 24.8856 0.0279223 24.4271 0.0234166 23.9484C0.0312883 22.8267 1.02942 22.174 2.04172 22.4607C2.92224 22.6959 3.77708 23.0169 4.59374 23.4187C5.60841 23.907 6.54174 24.5458 7.36144 25.313C8.00377 25.9361 8.62091 26.5795 9.08534 27.3615C9.22694 27.5933 9.4519 27.7636 9.71508 27.8382C9.81952 27.8779 9.93152 27.8943 10.0431 27.8862C10.1547 27.8781 10.2631 27.8458 10.3606 27.7915C10.8848 27.536 11.4028 27.268 11.9349 27.0126C13.1768 26.3925 14.4596 25.8564 15.7747 25.408C16.9712 25.017 18.163 24.6089 19.3579 24.2132C19.5701 24.1331 19.7909 24.0777 20.016 24.0481C20.4112 24.0138 20.6363 23.8175 20.8347 23.481C21.3796 22.5055 22.1086 21.6424 22.9821 20.9387C23.6921 20.3872 24.4478 19.9199 25.2003 19.4432C25.6417 19.1652 26.0486 18.8368 26.4126 18.4649C26.8365 18.0349 27.3304 17.6784 27.8736 17.4103C28.4165 17.1473 29.0119 17.0073 29.6164 17.0006C30.5185 16.9776 31.4033 17.2479 32.1353 17.7701C32.2061 17.8166 32.273 17.8687 32.3353 17.9259C33.5043 18.9678 34.5023 20.1834 35.2935 21.5291C35.4509 21.8157 35.632 22.0977 35.7925 22.3859C35.9531 22.6741 36.035 23.0511 36.2727 23.238C36.4852 23.4047 36.8647 23.3564 37.1685 23.4187C37.8549 23.5605 38.5413 23.7038 39.2152 23.8627C40.2812 24.1138 41.3273 24.4418 42.345 24.8441C43.3888 25.2527 44.4048 25.7278 45.3866 26.2664C46.2326 26.7551 47.049 27.2925 47.8316 27.8756C48.222 28.1529 48.5384 28.5345 48.8706 28.8835C48.9601 28.9721 49.0292 29.0788 49.0733 29.1963C49.1173 29.3138 49.1352 29.4393 49.1257 29.5643C49.1212 29.853 49.0991 30.1412 49.0595 30.4273C48.9446 30.9772 48.5085 31.2887 48.0724 31.5754C47.8804 31.7016 47.8945 31.8028 47.9843 31.9695C48.074 32.1362 48.1527 32.3434 48.2393 32.5303C48.5683 33.2282 48.1952 33.7766 47.8064 34.2875C47.5592 34.6069 47.1766 34.8265 46.8492 35.082C45.4637 36.1569 43.9209 36.9701 42.3229 37.6898C41.0937 38.2295 39.8174 38.6576 38.5099 38.9687C37.5652 39.2024 36.6206 39.4018 35.676 39.5918C35.2273 39.6775 34.7472 39.6277 34.3142 39.7476C33.5759 39.9533 32.8217 39.8037 32.0771 39.9533C31.4678 40.0748 30.8176 39.9782 30.1879 39.9782L30.1753 39.9766ZM30.2855 37.9624V38.0138C31.4379 37.9546 32.5919 37.9079 33.749 37.83C34.2011 37.7841 34.6504 37.715 35.0951 37.6228C35.8476 37.4904 36.597 37.3424 37.3496 37.2131C37.507 37.1866 37.603 37.1897 37.4503 37.0183C37.3622 36.9041 37.2807 36.785 37.2063 36.6616C36.5606 35.7485 36.0943 34.7233 35.8319 33.6395C35.6382 32.8746 36.1767 32.2265 36.9465 32.32C37.1659 32.349 37.3695 32.4491 37.5253 32.6047C37.6811 32.7603 37.7804 32.9625 37.8077 33.1799C37.9099 33.6404 38.0636 34.0881 38.2658 34.515C38.5488 35.1854 38.969 35.7907 39.5001 36.2924C39.5577 36.3655 39.6397 36.4159 39.7314 36.4347C39.8231 36.4536 39.9185 36.4396 40.0008 36.3952C40.3786 36.2285 40.7879 36.1273 41.1563 35.9497C42.1308 35.4824 43.1132 35.0259 44.0515 34.4947C44.7521 34.099 45.3913 33.5943 46.0588 33.1394C46.2163 33.0319 46.1265 32.9603 46.0494 32.8465C45.7896 32.4602 45.5865 32.0194 45.7156 31.566C45.8447 31.1127 45.9392 30.594 46.4634 30.3416C46.6209 30.2637 46.7374 30.0846 46.8759 29.9553C47.0145 29.826 46.9562 29.7263 46.8429 29.6437C46.423 29.3394 46.0001 29.0398 45.5739 28.7448C43.9996 27.6466 42.2521 26.8895 40.4369 26.2633C40.3375 26.213 40.224 26.1974 40.1146 26.2189C40.0052 26.2403 39.9063 26.2977 39.8339 26.3816C39.0301 27.1128 38.4276 28.0343 38.0832 29.0595C37.9876 29.3374 37.8072 29.5791 37.5668 29.7512C37.4626 29.8293 37.3429 29.8847 37.2155 29.914C37.0881 29.9432 36.956 29.9456 36.8276 29.9209C36.6993 29.8962 36.5777 29.845 36.4707 29.7707C36.3636 29.6963 36.2737 29.6005 36.2066 29.4895C36.1118 29.3386 36.054 29.1679 36.0378 28.991C36.0217 28.8141 36.0477 28.6359 36.1137 28.4707C36.5136 27.4721 36.9638 26.4969 37.7337 25.7087C37.8061 25.6355 37.8329 25.5794 37.6943 25.5529C37.0646 25.4314 36.4427 25.2881 35.8051 25.1853C35.3549 25.1105 34.8747 25.1557 34.4449 25.0295C33.8152 24.8425 33.1445 25.0513 32.5289 24.8036C30.7845 24.8597 29.0386 24.7023 27.2926 24.9064C26.5055 24.9968 25.7183 25.0622 24.9311 25.1619C24.144 25.2616 23.3363 25.4002 22.5428 25.5467C21.2278 25.8056 19.9268 26.1301 18.6448 26.5187C17.1401 26.9724 15.6639 27.5139 14.224 28.1404C13.6116 28.4006 13.007 28.6779 12.4088 28.9661C12.0357 29.1468 11.694 29.396 11.3146 29.5627C10.4046 29.9646 9.48365 30.0051 8.57683 29.5315C8.08249 29.2729 7.72826 28.8648 7.38978 28.4411C6.99304 27.9363 6.63252 27.3927 6.17438 26.9487C5.49076 26.2803 4.70231 25.7258 3.83963 25.3068C3.57829 25.179 3.31537 25.0529 3.05245 24.9391C3.00837 24.9189 2.93753 24.9609 2.87928 24.975C2.89502 25.0092 2.91234 25.0451 2.92966 25.0793C3.27129 25.7616 3.68534 26.4175 3.93724 27.1294C4.33869 28.2713 4.68662 29.4381 4.6205 30.6781C4.59846 31.1158 4.63467 31.5567 4.61263 31.9944C4.61119 32.4897 4.56163 32.9837 4.46464 33.4697C4.14977 34.6801 3.82073 35.8889 3.10126 36.9467C3.02661 37.0706 2.96237 37.2003 2.90919 37.3346C2.89659 37.3642 2.88872 37.4249 2.90132 37.4327C2.91816 37.4435 2.93717 37.4505 2.95703 37.4531C2.97689 37.4558 2.9971 37.4542 3.01624 37.4483C3.57041 37.1632 4.1482 36.9093 4.67246 36.5759C5.81577 35.8684 6.77812 34.9087 7.48424 33.7719C8.19269 32.616 9.98902 32.0583 11.291 32.7235C12.6623 33.4214 14.0556 34.0803 15.4567 34.719C16.2644 35.0882 17.0972 35.406 17.9332 35.7082C19.5208 36.2918 21.1473 36.766 22.801 37.1274C23.6291 37.3034 24.4604 37.453 25.2917 37.6072C25.6679 37.6757 26.0426 37.6617 26.4079 37.7287C27.1653 37.8607 27.9314 37.9377 28.7001 37.9593C29.2291 37.9795 29.7518 37.9624 30.2855 37.9624ZM29.7864 19.0288C29.4675 18.996 29.1453 19.0406 28.8476 19.1586C28.55 19.2767 28.2859 19.4647 28.0782 19.7065C27.3651 20.5118 26.4693 21.0804 25.5357 21.5945C24.8221 21.9901 24.1795 22.4996 23.6339 23.1025C23.6015 23.1478 23.575 23.197 23.5552 23.2489C23.6135 23.2691 23.6745 23.2806 23.7362 23.2832C24.0511 23.2458 24.3502 23.1944 24.6588 23.1601C25.1138 23.1103 25.5845 23.129 26.019 23.0043C26.3968 22.9 26.7652 22.9342 27.1368 22.9015C27.5083 22.8688 27.8783 22.7925 28.2498 22.7878C29.5377 22.7738 30.8255 22.7878 32.1133 22.7878C32.2593 22.7656 32.4085 22.7741 32.551 22.8127C32.8973 22.9872 33.2563 22.8704 33.6073 22.9077C33.7223 22.9187 33.7538 22.861 33.6924 22.7629C33.483 22.4326 33.2909 22.0883 33.0626 21.7752C32.732 21.325 32.3778 20.8904 32.0173 20.462C31.7497 20.1175 31.4526 19.7964 31.1293 19.5024C30.7405 19.1815 30.2871 18.9603 29.7864 19.0288ZM14.6113 39.5918C15.1544 39.5031 15.6189 39.4049 16.088 39.3551C17.2483 39.2289 18.322 38.802 19.4225 38.4655C19.4619 38.4531 19.4981 38.4344 19.5358 38.4188C19.5066 38.3912 19.4738 38.3677 19.4382 38.3487C19.3233 38.3035 19.2068 38.2615 19.0903 38.2225C17.7631 37.7708 16.4265 37.3486 15.145 36.7785C14.9183 36.6772 14.8868 36.8127 14.8411 36.9436C14.6081 37.5963 14.3688 38.249 14.1579 38.9095C14.0587 39.2149 14.361 39.5825 14.6113 39.5887V39.5918Z" fill="#1C2640"/>
<path d="M43.3855 56.1653C42.8156 56.1653 42.2441 56.1653 41.6742 56.1653C41.1986 56.1743 40.7336 56.3059 40.325 56.5469C39.6953 56.9769 39.5189 58.167 40.1062 58.7466C40.9359 59.5648 42.0011 60.1089 43.1557 60.3044C43.6301 60.3746 44.1087 60.4142 44.5884 60.4228C44.795 60.4255 44.9969 60.4843 45.1721 60.5929C45.3473 60.7014 45.489 60.8554 45.5818 61.0381C45.6575 61.1801 45.6954 61.3389 45.692 61.4994C45.6885 61.66 45.6438 61.817 45.5621 61.9557C45.4803 62.0944 45.3642 62.2102 45.2247 62.2923C45.0852 62.3743 44.9269 62.4198 44.7647 62.4245C44.2198 62.4349 43.6748 62.4079 43.1337 62.3435C42.3345 62.2408 41.556 62.017 40.8256 61.6799C39.6575 61.1113 38.5932 60.4165 38.0044 59.1718C37.7447 58.5755 37.6567 57.9197 37.75 57.277C37.8434 56.6342 38.1145 56.0295 38.5334 55.5297C39.0277 54.972 39.6024 54.5405 40.3439 54.3629C40.5237 54.3143 40.7086 54.2871 40.8949 54.2819C42.2898 54.2736 43.6841 54.2736 45.078 54.2819C45.2341 54.2766 45.3893 54.3077 45.531 54.3728C45.6727 54.4378 45.797 54.5348 45.8939 54.6561C45.9907 54.7774 46.0574 54.9195 46.0885 55.071C46.1196 55.2225 46.1143 55.3791 46.073 55.5281C46.0005 55.7945 45.5219 56.1668 45.2244 56.1699C44.612 56.1699 43.9995 56.1653 43.3855 56.1653Z" fill="#1C2640"/>
<path d="M55.9047 54.2694C57.509 54.0872 58.9243 55.7291 58.896 57.1856C58.8598 58.8759 57.5783 60.1704 55.8858 60.1564C54.154 60.1408 52.9355 58.8759 52.8946 57.1638C52.871 55.6356 54.3823 54.0731 55.9047 54.2694ZM54.9522 57.1841C54.9488 57.4374 55.0457 57.6819 55.2223 57.8654C55.3988 58.0488 55.641 58.1566 55.8969 58.1655C56.1593 58.1534 56.4066 58.0408 56.5867 57.8516C56.7668 57.6624 56.8655 57.4113 56.8619 57.1514C56.832 56.6279 56.4227 56.159 55.9173 56.2073C55.6501 56.2454 55.3991 56.3571 55.1931 56.5298C55.0987 56.6085 55.0268 56.7104 54.9845 56.8252C54.9423 56.94 54.9311 57.0637 54.9522 57.1841Z" fill="#1C2640"/>
<path d="M31.2001 29.5673C30.6947 29.5673 30.1878 29.5673 29.6809 29.5673C29.5153 29.5636 29.3512 29.5988 29.202 29.67C29.0529 29.7412 28.9229 29.8464 28.8228 29.977C28.4749 30.4163 28.4592 30.9896 28.8496 31.379C29.1315 31.6537 29.4492 31.89 29.7942 32.0816C30.2928 32.3826 30.8606 32.553 31.4441 32.577C31.817 32.5958 32.1886 32.6348 32.5572 32.6938C32.7647 32.7269 32.9568 32.8224 33.1075 32.9674C33.2582 33.1123 33.3601 33.2996 33.3995 33.5039C33.4306 33.6971 33.4022 33.8951 33.318 34.0721C33.2337 34.2491 33.0975 34.3969 32.9272 34.4962C32.7746 34.6057 32.5969 34.6761 32.4101 34.7011C32.2233 34.7261 32.0331 34.7049 31.8566 34.6395C31.7357 34.6034 31.6097 34.5866 31.4835 34.5896C29.6746 34.4946 28.201 33.7235 27.0454 32.3682C26.7296 31.9803 26.5495 31.5014 26.5322 31.0036C26.4671 30.2364 26.6846 29.4717 27.1446 28.8507C27.5522 28.2727 28.1581 27.8608 28.8496 27.6917C29.2341 27.6031 29.6277 27.5587 30.0225 27.5593C30.8663 27.5406 31.7102 27.5593 32.554 27.5499C32.7023 27.5407 32.851 27.5606 32.9915 27.6085C33.132 27.6563 33.2616 27.7312 33.3727 27.8288C33.7427 28.159 33.856 28.4628 33.7238 28.8055C33.4987 29.3928 33.2877 29.5595 32.7272 29.5657C32.214 29.5735 31.707 29.5673 31.2001 29.5673Z" fill="#1C2640"/>
<path d="M42.1166 29.0548C42.264 29.0462 42.4117 29.0462 42.559 29.0548C42.7983 29.0888 43.017 29.2077 43.1743 29.3894C43.3316 29.5711 43.4167 29.8032 43.4139 30.0424C43.4233 30.3945 43.0471 30.8385 42.685 30.9491C42.3104 31.0614 41.9111 31.0658 41.5341 30.9615C41.316 30.901 41.1237 30.7719 40.9863 30.5938C40.8488 30.4156 40.7736 30.198 40.7721 29.9739C40.7725 29.7333 40.8682 29.5025 41.0386 29.331C41.209 29.1594 41.4406 29.0608 41.6837 29.0563C41.8301 29.0454 41.9781 29.0563 42.1245 29.0563L42.1166 29.0548Z" fill="#1C2640"/>
<path d="M63.2089 7.86221C63.2089 7.15483 63.2046 6.44673 63.2089 5.73936C63.2133 5.6598 63.1999 5.58028 63.1696 5.50653C63.1394 5.43279 63.0931 5.36665 63.0341 5.31291C62.149 4.43841 61.2662 3.55935 60.3859 2.67573C60.1988 2.48988 60.1995 2.46971 60.3859 2.28746L62.553 0.126421C62.7228 -0.04286 62.7495 -0.0414193 62.9142 0.126421C63.5595 0.76993 64.2054 1.41296 64.8516 2.05551C65.007 2.20966 65.0084 2.20822 65.1717 2.04614L67.0838 0.140108C67.2702 -0.0450208 67.2904 -0.0443005 67.4739 0.140108L69.6411 2.30114C69.8065 2.4661 69.8079 2.5014 69.6411 2.66564C68.7357 3.56799 67.83 4.46963 66.9242 5.37054C66.8762 5.41457 66.8384 5.46851 66.8134 5.5286C66.7885 5.58869 66.777 5.65348 66.7797 5.71846C66.7831 7.24127 66.7831 8.76409 66.7797 10.2869C66.7797 10.5073 66.7797 10.503 66.9805 10.3964C68.1618 9.75672 69.3434 9.11778 70.5252 8.47955C70.6689 8.39274 70.8169 8.31339 70.9688 8.24183C71.1501 8.1698 71.2281 8.03077 71.2794 7.85717C71.4499 7.28089 71.6305 6.70462 71.8002 6.12834C71.9599 5.5852 72.1116 5.03918 72.2676 4.49532C72.2806 4.44922 72.3102 4.40672 72.3182 4.36061C72.3825 3.9954 72.4757 4.05447 72.7762 4.13875C73.456 4.32892 74.1314 4.5335 74.8075 4.73447C75.1052 4.82235 75.4021 4.91456 75.699 5.00676C75.8384 5.04998 75.8434 5.15948 75.8095 5.26969C75.7177 5.59168 75.6202 5.91152 75.5205 6.23135C75.4172 6.57423 75.3103 6.91568 75.2077 7.25856C75.1355 7.5042 75.0726 7.75416 74.991 7.99764C74.96 8.092 74.9823 8.12658 75.0705 8.15251C75.5465 8.29298 76.0219 8.43705 76.4972 8.57896C76.9378 8.7115 77.3807 8.8354 77.8177 8.97875C78.0156 9.04358 78.012 9.07888 77.9535 9.27337C77.7888 9.82227 77.6335 10.3733 77.4702 10.923C77.3258 11.3969 77.1813 11.8702 77.0368 12.3435C77.0043 12.4487 76.9306 12.4595 76.8367 12.4314C76.4632 12.3204 76.0905 12.2117 75.717 12.1022C75.241 11.9624 74.7649 11.8241 74.2896 11.6836C73.8699 11.5597 73.4531 11.4301 73.0319 11.3119C72.96 11.292 72.8833 11.2979 72.8152 11.3285C72.0849 11.7161 71.3574 12.1115 70.6293 12.5041C70.0335 12.8254 69.4376 13.1467 68.8414 13.4679C68.6131 13.5918 68.6138 13.6048 68.8356 13.7402C69.4294 14.1023 70.0232 14.4644 70.617 14.8265C71.283 15.2321 71.952 15.6326 72.6137 16.0453C72.7719 16.144 72.9235 16.1174 73.0803 16.085C73.5585 15.9764 74.0355 15.8633 74.5114 15.7457C74.9354 15.6419 75.3573 15.5296 75.7813 15.4251C76.1064 15.3459 76.4351 15.2811 76.7608 15.2011C76.8707 15.1744 76.9349 15.2083 76.9617 15.3171C77.0491 15.6708 77.1379 16.0237 77.2246 16.3767C77.2954 16.6648 77.3655 16.9547 77.4348 17.2462C77.5107 17.5653 77.5858 17.8844 77.6624 18.2035C77.6855 18.3015 77.718 18.3987 77.7346 18.4981C77.7407 18.5199 77.7418 18.5427 77.7379 18.565C77.734 18.5873 77.7252 18.6084 77.7122 18.6269C77.6991 18.6453 77.6821 18.6607 77.6624 18.6718C77.6427 18.6829 77.6207 18.6895 77.5981 18.6912C77.091 18.8064 76.5853 18.925 76.0811 19.047C75.6571 19.15 75.2359 19.2631 74.8119 19.3676C74.6616 19.4036 74.6674 19.4879 74.6963 19.6089C74.8119 20.0656 74.9202 20.5244 75.0322 20.9819C75.1044 21.2657 75.1767 21.5495 75.2431 21.8326C75.2858 22.0004 75.3298 22.1676 75.3696 22.3368C75.3956 22.4463 75.3631 22.5205 75.2402 22.5486C74.7454 22.6624 74.2506 22.7777 73.7572 22.898C73.344 22.9988 72.9337 23.1083 72.5212 23.2113C72.3709 23.2488 72.2185 23.2834 72.0668 23.3136C72.0464 23.32 72.025 23.322 72.0038 23.3196C71.9826 23.3171 71.9621 23.3102 71.9438 23.2993C71.9255 23.2884 71.9096 23.2738 71.8974 23.2564C71.8851 23.239 71.8766 23.2193 71.8725 23.1984C71.8291 23.0543 71.7916 22.9102 71.7569 22.7662C71.6558 22.334 71.5583 21.9061 71.4557 21.4767C71.3885 21.1922 71.3112 20.9098 71.2455 20.626C71.1732 20.3127 71.101 19.9986 71.023 19.6852C70.9973 19.5509 70.9638 19.4181 70.9226 19.2876C70.8909 19.2241 70.8405 19.1718 70.7781 19.1378C69.8987 18.598 69.0181 18.0606 68.1363 17.5257C67.7571 17.2944 67.3807 17.0589 67.0007 16.8298C66.9385 16.8012 66.8734 16.7795 66.8064 16.765C66.7935 16.8214 66.7848 16.8787 66.7804 16.9364C66.7804 18.3937 66.7804 19.8502 66.7761 21.3075C66.7746 21.3665 66.7859 21.4252 66.8092 21.4795C66.8325 21.5339 66.8673 21.5825 66.9112 21.6223C67.8137 22.5188 68.714 23.4169 69.6121 24.3163C69.8144 24.5188 69.8108 24.5252 69.6064 24.7284C68.8917 25.442 68.1753 26.1559 67.4573 26.87C67.2868 27.04 67.2702 27.0429 67.0961 26.87C66.446 26.2231 65.7958 25.5748 65.1457 24.925C65.0142 24.7939 64.9947 24.7925 64.8567 24.9286C64.2027 25.5813 63.5485 26.2334 62.894 26.8851C62.7495 27.0292 62.7148 27.0335 62.5718 26.8909C61.8273 26.1494 61.0839 25.4074 60.3418 24.665C60.2082 24.5317 60.2067 24.4835 60.3382 24.3531C61.0981 23.5948 61.8588 22.8368 62.6202 22.079C62.7278 21.9581 62.8431 21.8443 62.9655 21.7382C63.1685 21.5819 63.2111 21.3853 63.2097 21.1403C63.2003 19.6716 63.2053 18.2028 63.2046 16.734C63.2046 16.5179 63.188 16.5121 63.0009 16.6137C62.0054 17.1539 61.0095 17.6937 60.0131 18.233C59.6707 18.4182 59.3261 18.6004 58.9823 18.7834C58.9276 18.8071 58.8788 18.8424 58.8391 18.8868C58.7995 18.9312 58.7699 18.9837 58.7526 19.0405C58.6522 19.3964 58.5431 19.7501 58.4376 20.1045C58.3119 20.5281 58.186 20.9514 58.0598 21.3745C57.9553 21.7231 57.8505 22.0715 57.7456 22.4197C57.7073 22.5457 57.6769 22.674 57.6329 22.7979C57.6282 22.8216 57.618 22.8438 57.6033 22.863C57.5886 22.8822 57.5696 22.8977 57.5479 22.9084C57.5262 22.9192 57.5023 22.9248 57.4781 22.9248C57.4539 22.9249 57.43 22.9194 57.4082 22.9088C56.917 22.7561 56.4243 22.6098 55.9309 22.4643C55.5062 22.339 55.0807 22.2165 54.6559 22.0941C54.5411 22.0602 54.4248 22.03 54.3092 22.0004C54.2866 21.9966 54.2651 21.988 54.2461 21.9753C54.2271 21.9625 54.211 21.9459 54.1989 21.9265C54.1868 21.9071 54.179 21.8853 54.176 21.8627C54.1729 21.8401 54.1748 21.817 54.1813 21.7951C54.2085 21.6606 54.2427 21.5277 54.2839 21.3968C54.4847 20.7245 54.687 20.0507 54.8907 19.3755C54.9283 19.2494 54.9564 19.1205 55.0056 18.9988C55.0467 18.8965 55.0135 18.864 54.9174 18.8367C54.5497 18.7315 54.1828 18.6206 53.8165 18.5089C53.2502 18.3375 52.6838 18.1617 52.1167 17.9924C51.9918 17.9557 51.9766 17.888 52.0113 17.7763C52.1854 17.2058 52.3537 16.6339 52.5263 16.0626C52.6708 15.5944 52.8153 15.1262 52.9562 14.6601C52.9586 14.639 52.9663 14.6189 52.9784 14.6015C52.9905 14.584 53.0067 14.5698 53.0256 14.5601C53.0445 14.5503 53.0655 14.5454 53.0868 14.5456C53.108 14.5458 53.1289 14.5513 53.1476 14.5614C53.8512 14.7756 54.5553 14.9869 55.2598 15.1953C55.8442 15.3689 56.4294 15.5418 57.0167 15.7053C57.0865 15.7124 57.1566 15.6954 57.2153 15.6571C57.9977 15.2386 58.7778 14.815 59.5595 14.3943C60.0892 14.1105 60.6175 13.8276 61.1444 13.5457C61.1711 13.5313 61.1964 13.5155 61.2217 13.4996C61.3705 13.4067 61.3727 13.3901 61.2267 13.3001C60.6084 12.9198 59.9895 12.5409 59.3702 12.1634C58.7251 11.7701 58.075 11.384 57.4357 10.9813C57.3623 10.9348 57.2799 10.9043 57.1938 10.8919C57.1078 10.8795 57.0201 10.8854 56.9365 10.9093C56.4012 11.0368 55.871 11.183 55.3364 11.3119C54.7787 11.4459 54.2174 11.5677 53.6583 11.6959C53.5138 11.729 53.3694 11.7679 53.2249 11.8047C53.2056 11.8136 53.1845 11.8179 53.1632 11.817C53.1419 11.8161 53.1212 11.8102 53.1027 11.7997C53.0843 11.7892 53.0686 11.7744 53.057 11.7566C53.0455 11.7388 53.0384 11.7184 53.0363 11.6973C52.9511 11.3617 52.863 11.0267 52.7813 10.6888C52.7091 10.382 52.6405 10.0737 52.5682 9.76609C52.4924 9.44121 52.4144 9.11777 52.3364 8.79146C52.3125 8.69349 52.2771 8.59697 52.2641 8.49756C52.2461 8.38663 52.2966 8.32828 52.4165 8.3009C52.8543 8.20294 53.2885 8.08912 53.7248 7.98611C54.1611 7.8831 54.5916 7.78802 55.02 7.68717C55.0922 7.6706 55.1551 7.63819 55.2244 7.6209C55.3292 7.59569 55.3357 7.52941 55.3133 7.44297C55.2071 7.02661 55.0966 6.61097 54.9962 6.19461C54.8739 5.69613 54.7535 5.19741 54.635 4.69845C54.5953 4.53133 54.635 4.48811 54.7925 4.44922C55.3335 4.31811 55.8724 4.17909 56.4135 4.04726C56.7212 3.97523 57.0318 3.90896 57.341 3.83764C57.5043 3.80019 57.6675 3.76129 57.8279 3.71302C58.0446 3.64819 58.0995 3.6662 58.1566 3.87798C58.2288 4.16036 58.2931 4.44633 58.3617 4.73087C58.4983 5.29274 58.6377 5.85461 58.7728 6.4172C58.8703 6.82275 58.9592 7.23047 59.0618 7.63458C59.0802 7.72044 59.1286 7.797 59.1983 7.85069C60.2255 8.48099 61.2578 9.10337 62.2879 9.72935C62.5393 9.88206 62.7863 10.0405 63.0377 10.1933C63.1822 10.2819 63.2082 10.2653 63.2089 10.0946C63.2104 9.35189 63.2089 8.60849 63.2089 7.86221Z" fill="#1C2640"/>
</svg>
