<svg width="55" height="56" viewBox="0 0 55 56" fill="none" xmlns="http://www.w3.org/2000/svg">
<g clip-path="url(#clip0_5439_23526)">
<path d="M20.9446 53.7134C20.9446 53.3851 20.9336 53.0567 20.9446 52.7305C20.9751 51.9905 20.9839 51.2505 21.0625 50.5171C21.139 49.8231 21.2154 49.1313 21.2809 48.4351C21.3617 47.625 21.5386 46.8215 21.6631 46.0268C21.6689 45.9243 21.6446 45.8223 21.5932 45.7335C21.3617 45.2956 21.1258 44.8468 20.8769 44.4199C20.5143 43.7828 20.1365 43.1545 19.7674 42.5196C19.3743 41.8409 18.9826 41.1593 18.5924 40.4748C18.2539 39.8837 17.9241 39.2882 17.5877 38.6971C17.199 38.014 16.8015 37.3353 16.4127 36.6523C16.1943 36.2472 15.9759 35.8335 15.7401 35.4284C15.6614 35.2883 15.5741 35.1526 15.4867 35.0169C15.4683 34.9944 15.447 34.9746 15.4234 34.9577C15.4069 34.9881 15.3944 35.0205 15.3863 35.0541C15.312 35.6561 15.288 36.2691 15.1679 36.8581C14.908 38.0206 14.434 39.0736 13.3529 39.7041C13.0128 39.903 12.6334 40.0248 12.2413 40.061C11.8381 40.1039 11.4304 40.066 11.0419 39.9495C10.6535 39.833 10.2921 39.6402 9.97864 39.3823C9.54182 39.0418 9.19405 38.6001 8.96526 38.095C8.91088 38.0055 8.87468 37.9062 8.85875 37.8026C8.84282 37.6991 8.84749 37.5934 8.87245 37.4917C8.89742 37.3899 8.9422 37.2942 9.00423 37.2098C9.06627 37.1255 9.14431 37.0543 9.23389 37.0004C9.42515 36.8758 9.65663 36.8291 9.88108 36.8698C10.1055 36.9105 10.306 37.0355 10.4417 37.2193C10.5377 37.3485 10.6011 37.5039 10.7059 37.6221C10.8695 37.8281 11.0589 38.012 11.2694 38.1694C11.3659 38.2482 11.4776 38.306 11.5976 38.3392C11.7175 38.3723 11.843 38.3801 11.9661 38.3621C12.1697 38.3229 12.3626 38.241 12.5324 38.1218C12.7022 38.0026 12.8448 37.8487 12.9511 37.6703C13.2459 37.123 13.5167 36.5603 13.5364 35.9057C13.5364 35.6058 13.6587 35.3102 13.6303 35.0015C13.5866 34.487 13.4905 33.9769 13.4359 33.469C13.3376 32.5714 13.0253 31.7417 12.7545 30.8988C12.6191 30.4763 12.4357 30.0669 12.2719 29.6531C12.2541 29.5854 12.2129 29.5263 12.1557 29.4862C12.0985 29.4461 12.029 29.4277 11.9595 29.4342C11.4987 29.4342 11.4769 29.4342 11.3043 29.872C10.8958 30.8941 10.5551 31.9421 10.2844 33.0093C10.2215 33.3612 10.1784 33.7165 10.1555 34.0733C10.1075 34.4323 10.042 34.7717 9.64012 34.949C8.98492 35.2227 8.42362 34.8789 8.40834 34.1849C8.40002 33.6471 8.47367 33.1111 8.62674 32.5955C8.62789 32.5434 8.61976 32.4915 8.60272 32.4422C8.55768 32.4552 8.51494 32.4752 8.47604 32.5014C7.66296 33.2893 6.72301 33.934 5.6958 34.4082C5.17479 34.6826 4.60614 34.8543 4.02065 34.914C3.77385 34.914 3.52924 35.0081 3.28245 35.0125C2.41571 35.0384 1.57033 34.7403 0.910614 34.1762C0.639578 33.9531 0.419121 33.6747 0.263955 33.3595C0.108789 33.0442 0.0224839 32.6994 0.0108018 32.3481C-0.0418335 31.5896 0.117759 30.8314 0.471625 30.1588C0.776632 29.6023 1.18948 29.1126 1.68594 28.7183C2.35549 28.1784 3.0945 27.7315 3.88305 27.3894C4.31986 27.2011 4.78505 27.0719 5.23714 26.9121C5.27864 26.8968 5.33325 26.8552 5.33761 26.8201C5.34198 26.7851 5.29175 26.7304 5.25462 26.715C4.72908 26.5516 4.21287 26.3594 3.70833 26.1393C2.97157 25.8105 2.29124 25.3672 1.69249 24.8257C1.23466 24.4163 0.833593 23.9473 0.500019 23.4311C0.19897 22.9653 0.0326455 22.425 0.019533 21.8701C0.019533 21.3469 0.00424492 20.8346 0.237934 20.3376C0.674737 19.4356 1.42823 18.9868 2.33022 18.7351C3.35671 18.4505 4.35262 18.6519 5.30485 19.0459C5.86278 19.2895 6.40158 19.5749 6.91665 19.8998C7.47533 20.2299 7.98917 20.631 8.44546 21.0929C8.49516 21.1333 8.5503 21.1665 8.60926 21.1915C8.6283 21.1201 8.63713 21.0464 8.63547 20.9725C8.60708 20.7799 8.56776 20.5872 8.52627 20.3967C8.37028 19.7335 8.30054 19.0528 8.31878 18.3716C8.3325 17.4072 8.53354 16.4546 8.91066 15.5672C9.10287 15.1187 9.3851 14.7146 9.73979 14.3802C10.0945 14.0457 10.514 13.788 10.9724 13.6231C11.846 13.3166 12.689 13.4917 13.4709 13.993C14.2528 14.4944 14.6699 15.2037 14.9604 16.0313C15.153 16.5492 15.2729 17.0915 15.3164 17.6426C15.3404 17.9951 15.443 18.3607 15.3884 18.711C15.3098 19.2036 15.3426 19.7093 15.2115 20.1975C15.1484 20.4752 15.1039 20.7568 15.0783 21.0404C15.081 21.0929 15.0921 21.1446 15.1111 21.1936C15.1573 21.1731 15.2006 21.1466 15.2399 21.1148C15.7188 20.6271 16.2566 20.2013 16.8408 19.8472C17.6826 19.2868 18.6232 18.8922 19.6123 18.6847C20.4213 18.5254 21.2596 18.6178 22.0147 18.9496C22.5101 19.1438 22.9349 19.4844 23.2325 19.9263C23.5301 20.3682 23.6866 20.8904 23.6811 21.4235C23.7078 21.9251 23.6335 22.4269 23.4627 22.8991C23.3404 23.175 23.1854 23.4355 23.0259 23.7004C22.5607 24.5258 21.8225 25.0578 21.0472 25.5525C20.2425 26.0488 19.375 26.4347 18.4679 26.6997C18.4232 26.7202 18.3819 26.7475 18.3456 26.7807C18.3915 26.8223 18.4286 26.888 18.4788 26.9033C19.1606 27.1098 19.8228 27.3765 20.4575 27.7002C21.2173 28.0712 21.9069 28.572 22.4952 29.1802C23.2413 29.9412 23.6687 30.9595 23.6899 32.0263C23.7074 32.3857 23.6512 32.7448 23.5246 33.0815C23.398 33.4182 23.2037 33.7252 22.9539 33.9835C22.4857 34.4846 21.8561 34.804 21.1761 34.8855C20.9327 34.9364 20.686 34.9694 20.4379 34.984C19.7973 34.9685 19.1642 34.8426 18.5662 34.6118C18.0398 34.3929 17.5441 34.1105 17.0374 33.8587C17.0086 33.8483 16.9784 33.8424 16.9478 33.8412C16.9478 33.874 16.9194 33.9178 16.9325 33.9397C17.0155 34.0777 17.1138 34.2068 17.1946 34.3469C17.5397 34.9534 17.876 35.5642 18.2233 36.1706C18.6033 36.8274 18.9921 37.5017 19.3743 38.1694C19.7193 38.7759 20.0557 39.3867 20.4029 39.9931C20.783 40.6609 21.1695 41.3242 21.5517 41.992C21.7483 42.3335 21.9383 42.6794 22.1327 43.0231C22.1567 43.0669 22.1851 43.1107 22.2113 43.1567C22.2266 43.1063 22.2441 43.056 22.2572 43.0056C22.5476 41.8913 22.8141 40.7703 23.1308 39.6625C23.6281 37.9376 24.2254 36.2431 24.9195 34.5878C25.5466 33.063 26.256 31.5735 27.0445 30.126C27.5883 29.1408 28.1802 28.1797 28.7568 27.2142C28.8087 27.1472 28.8339 27.0632 28.8274 26.9787C28.8209 26.8941 28.7833 26.8149 28.7218 26.7566C28.3472 26.2586 28.1052 25.6732 28.0186 25.0556C27.8264 23.7683 28.2938 22.678 28.8922 21.6184C29.6282 20.3289 30.7158 19.3393 31.7554 18.3125C31.9585 18.1111 32.1922 17.9447 32.4106 17.763L32.5526 17.6492C32.4844 17.6327 32.415 17.6218 32.3451 17.6163C31.6724 17.6163 31.002 17.6163 30.3293 17.6163C28.9522 17.6464 27.5857 17.3697 26.3282 16.8063C25.5217 16.456 24.824 15.895 24.308 15.1818C23.8348 14.55 23.5768 13.7825 23.5719 12.9925C23.5833 12.3065 23.8197 11.6433 24.2446 11.1054C24.9697 10.1486 25.9547 9.64948 27.1231 9.4218C27.9418 9.27123 28.7788 9.24907 29.6042 9.35612C30.926 9.52579 32.2145 9.89484 33.4262 10.4508C33.472 10.4772 33.5194 10.5006 33.5682 10.5208C33.5853 10.5236 33.6029 10.522 33.6193 10.5163C33.6356 10.5105 33.6504 10.5008 33.6621 10.488C33.6796 10.4661 33.6948 10.4114 33.6795 10.3895C33.5835 10.2406 33.4764 10.0961 33.376 9.95161C32.6042 8.83132 32.0015 7.60304 31.5873 6.30643C31.3833 5.73273 31.2849 5.12669 31.2968 4.51777C31.3317 3.99891 31.2422 3.48005 31.3929 2.95681C31.5622 2.3195 31.8595 1.72353 32.2665 1.20537C32.6858 0.692994 33.25 0.319789 33.8848 0.134804C33.9485 0.104695 34.0151 0.0812176 34.0836 0.0647449C34.7438 -0.0277986 35.4164 0.0356593 36.0478 0.250048C36.6792 0.464437 37.2518 0.823819 37.72 1.29951C38.4493 2.04429 39.0186 2.93094 39.3929 3.90477C39.6288 4.48494 39.7926 5.08261 39.9782 5.67372C40.0942 6.13949 40.1825 6.61175 40.2425 7.08801C40.2731 7.24345 40.3211 7.3967 40.3473 7.55433C40.3736 7.71196 40.3932 7.91775 40.4151 8.10165C40.4828 7.93746 40.5374 7.76669 40.6182 7.61125C40.8846 7.10333 41.162 6.59979 41.4328 6.09626C41.5332 5.88378 41.7093 5.71666 41.9264 5.62775C42.2889 5.48325 42.5816 5.62775 42.8611 5.81821C43.0795 5.96271 43.1778 6.47501 43.0664 6.74429C42.9784 6.98025 42.8672 7.20686 42.7345 7.42078C42.1863 8.24833 41.8478 9.17222 41.5049 10.0895C41.2515 10.7726 41.0288 11.4644 40.8497 12.1694C40.8038 12.3511 40.7492 12.4759 40.9698 12.5481C40.9858 12.5569 41.0006 12.568 41.0135 12.581L41.5333 13.0538C41.7757 12.9422 42.029 12.848 42.2605 12.7167C43.2393 12.1602 44.1871 11.5507 45.0998 10.8908C45.858 10.3354 46.5556 9.70139 47.1811 8.99926C47.904 8.20017 48.5396 7.31351 48.7099 6.22324C48.8148 5.57958 48.8606 4.89652 48.4195 4.30103C48.3274 4.16721 48.209 4.05369 48.0715 3.96747C47.934 3.88124 47.7804 3.82414 47.6201 3.79968C47.0523 3.73182 46.4691 3.71868 45.9384 4.01861C45.7358 4.13313 45.5273 4.2369 45.3138 4.32949C44.8268 4.54842 44.4402 4.41488 44.1956 3.94856C43.9313 3.42313 44.034 3.04657 44.5341 2.77291C45.0342 2.49924 45.5934 2.17742 46.2092 2.08766C47.3013 1.92784 48.3256 1.94973 49.2669 2.67877C49.8459 3.12954 50.2636 3.75637 50.4571 4.46523C50.4692 4.49859 50.478 4.53306 50.4833 4.56813C50.5292 5.66278 50.4965 6.71802 49.9898 7.72509C49.6133 8.53717 49.1544 9.30822 48.6204 10.026C48.3823 10.3238 48.0875 10.5734 47.832 10.8558C47.287 11.408 46.7031 11.9201 46.0848 12.3883C46.0419 12.4184 45.9966 12.4448 45.9493 12.4671C45.9974 12.4846 46.0454 12.5197 46.0891 12.5153C46.4287 12.5088 46.7677 12.4839 47.1047 12.4408C47.5415 12.3576 47.9979 12.4562 48.4457 12.4802C48.5702 12.4802 48.6946 12.5131 48.8191 12.5153C50.5073 12.5394 52.1458 13.0912 53.506 14.0938C54.2628 14.634 54.7787 15.4496 54.9431 16.3662C55.144 17.5616 54.8579 18.6781 53.9166 19.5145C53.1893 20.182 52.2739 20.608 51.2958 20.7339C50.834 20.7962 50.3684 20.8269 49.9024 20.8258C49.083 20.8087 48.2694 20.6836 47.4825 20.4537C46.6985 20.2347 45.9362 19.9414 45.1631 19.6852C45.1001 19.6764 45.0361 19.6764 44.9731 19.6852C44.9789 19.7504 44.9959 19.8141 45.0233 19.8735C45.4692 20.4987 45.8664 21.1575 46.2114 21.8439C46.6591 22.7741 46.997 23.7535 47.2183 24.7622C47.3054 25.1291 47.3428 25.5062 47.3296 25.8831C47.2794 26.9252 47.1112 27.9411 46.456 28.8146C46.027 29.4015 45.4104 29.8234 44.7088 30.0099C43.4945 30.3537 42.42 29.9771 41.4328 29.2897C40.4784 28.6329 39.6048 27.2777 39.2488 26.2881C39.0588 25.7539 38.8404 25.2263 38.6809 24.6812C38.5574 24.2184 38.4589 23.7492 38.3861 23.2757C38.3315 22.9779 38.3075 22.6736 38.2638 22.3737C38.2638 22.3365 38.2005 22.2795 38.1677 22.2795C38.1349 22.2795 38.0847 22.3277 38.0629 22.3671C37.8445 22.7415 37.6435 23.118 37.4339 23.4946C37.075 24.1962 36.6352 24.8531 36.1235 25.4518C35.7587 25.8525 35.4093 26.2662 35.0315 26.6516C34.3397 27.3848 33.4441 27.8928 32.4609 28.1096C31.893 28.2246 31.3072 28.2179 30.7421 28.0899C30.4057 28.0155 30.2812 28.0483 30.1131 28.3395C29.6763 29.0839 29.2395 29.8238 28.8398 30.5792C28.3637 31.4549 27.8963 32.3525 27.4617 33.2567C26.9441 34.3338 26.492 35.446 26.0573 36.5537C25.6708 37.5477 25.2995 38.5482 24.9872 39.5662C24.6115 40.7878 24.2774 42.0204 23.9978 43.2661C23.8187 44.0608 23.6178 44.8512 23.4649 45.6525C23.3557 46.2304 23.3557 46.8303 23.2225 47.4039C23.0609 48.1045 23.098 48.8269 22.9124 49.5166C22.9101 49.5347 22.9101 49.5531 22.9124 49.5713C22.8752 50.2281 22.8862 50.8739 22.7901 51.511C22.6197 52.6516 22.7442 53.7923 22.6852 54.9307C22.6678 55.2788 22.635 55.6444 22.3292 55.9027C22.0235 56.1611 21.1586 56.0319 20.9817 55.6554C20.9491 55.5529 20.9365 55.4451 20.9446 55.3379C20.9446 54.8103 20.9446 54.2805 20.9446 53.7529V53.7134ZM39.7664 19.6283C39.8381 20.1248 39.8847 20.6246 39.9062 21.1258C39.9214 21.9822 40.0372 22.8339 40.2512 23.6632C40.4104 24.4487 40.6664 25.2113 41.0135 25.9335C41.2449 26.3572 41.5092 26.762 41.8041 27.1442C42.1895 27.6577 42.7233 28.0399 43.3329 28.2388C43.6658 28.3559 44.0292 28.3519 44.3594 28.2274C44.6896 28.1029 44.9657 27.8659 45.1391 27.5579C45.4623 27.0413 45.5125 26.4501 45.5759 25.8634C45.5912 25.6948 45.4798 25.5175 45.482 25.3445C45.4584 24.8632 45.3581 24.3886 45.1849 23.939C44.9339 23.1946 44.5975 22.482 44.1825 21.8154C43.7276 21.0647 43.2165 20.3497 42.6537 19.6765C42.3239 19.2736 41.9985 18.8599 41.6599 18.4723C41.3935 18.1768 41.0899 17.9141 40.8038 17.636L40.07 17.9513C40.0547 17.9513 40.0263 17.9513 40.0176 17.9513C39.9761 17.9995 39.9105 18.0498 39.904 18.1045C39.8647 18.6125 39.8145 19.1226 39.7664 19.6239V19.6283ZM47.8953 14.1222L45.8773 14.2383C45.8416 14.2361 45.8059 14.2361 45.7703 14.2383C45.2133 14.3433 44.6564 14.4419 44.1039 14.5601C43.5841 14.6695 43.0686 14.7943 42.5554 14.9279C42.5059 14.9414 42.4597 14.9651 42.4198 14.9975C42.38 15.03 42.3473 15.0704 42.3239 15.1162C42.2647 15.3214 42.2252 15.5318 42.2059 15.7445C42.1845 15.8213 42.1915 15.9032 42.2257 15.9752C42.2598 16.0472 42.3187 16.1045 42.3916 16.1364C43.1079 16.5348 43.7893 16.9968 44.5079 17.393C45.5125 17.937 46.5757 18.3645 47.6769 18.6672C48.4658 18.8835 49.2772 19.0069 50.0946 19.035C50.3607 19.0192 50.6255 18.9863 50.8874 18.9365C51.5099 18.8811 52.1049 18.6538 52.6062 18.2797C52.9219 18.06 53.1379 17.7239 53.2068 17.3449C53.2588 17.0609 53.2425 16.7686 53.1593 16.4922C53.0762 16.2158 52.9285 15.9632 52.7285 15.7554C52.2294 15.2617 51.6254 14.8875 50.9616 14.6608C49.9286 14.2733 48.8453 14.2054 47.8953 14.1222ZM30.967 15.8737C31.8318 15.8879 32.6961 15.8212 33.5485 15.6744C34.3348 15.5343 35.1123 15.3592 35.8941 15.2059C36.2894 15.1293 36.2873 15.0986 36.3157 14.6739C36.3236 14.5497 36.3494 14.4273 36.3921 14.3105C36.4083 14.2734 36.4168 14.2334 36.4171 14.1929C36.4173 14.1524 36.4093 14.1123 36.3936 14.075C36.3779 14.0377 36.3547 14.004 36.3255 13.976C36.2963 13.948 36.2618 13.9262 36.2239 13.912C35.1025 13.2118 33.935 12.5886 32.7295 12.0468C31.6241 11.5603 30.4546 11.2359 29.2569 11.0835C28.3818 10.9499 27.487 11.0613 26.6711 11.4053C26.3293 11.5934 26.0022 11.8071 25.6926 12.0446C25.2755 12.8327 25.1291 13.1392 25.638 13.9799C26.0068 14.5392 26.5416 14.9681 27.1668 15.2059C28.0567 15.6224 29.0241 15.8462 30.006 15.8627L30.967 15.8737ZM31.4672 26.3648C31.864 26.363 32.2554 26.2709 32.6116 26.0955C33.5223 25.7058 34.2103 25.0271 34.8087 24.2893C35.5428 23.3646 36.1435 22.3409 36.593 21.2484C37.0513 20.1295 37.4508 18.9873 37.7899 17.8265C37.7995 17.7964 37.8026 17.7646 37.7988 17.7333C37.795 17.7019 37.7845 17.6717 37.768 17.6448C37.5977 17.4828 37.4099 17.3449 37.2395 17.185C37.1927 17.1295 37.1268 17.0935 37.0549 17.0842C36.9829 17.0749 36.9101 17.0929 36.8507 17.1347C36.4139 17.3777 35.9771 17.612 35.5294 17.8484C34.4645 18.437 33.4657 19.1387 32.5504 19.9414C31.4789 20.8325 30.6332 21.9654 30.0825 23.2472C29.8396 23.8371 29.7699 24.4842 29.8816 25.1125C29.9672 25.4702 30.1707 25.7885 30.4593 26.0158C30.7479 26.2431 31.1045 26.366 31.4715 26.3648H31.4672ZM38.7224 10.2143C38.7224 9.86841 38.7224 9.52469 38.7224 9.17879C38.7224 8.83288 38.6656 8.46507 38.6351 8.11041C38.5622 7.43952 38.4463 6.77405 38.2878 6.11815C38.0272 4.87205 37.4655 3.70909 36.652 2.73131C36.1235 2.10517 35.4399 1.65855 34.5422 1.77896C34.3625 1.78913 34.1871 1.83846 34.0283 1.92354C33.8695 2.00861 33.7311 2.12738 33.6228 2.27156C33.2514 2.79902 33.0543 3.42994 33.0593 4.07554C33.0635 4.39726 33.0949 4.71804 33.1532 5.03445C33.3781 6.2289 33.828 7.36944 34.4789 8.39502C34.8239 8.95983 35.204 9.50238 35.6168 10.0195C36.2305 10.7945 36.8704 11.552 37.5518 12.2591C37.7156 12.4321 37.8314 12.5065 38.0192 12.2985C38.0803 12.2285 38.2158 12.2307 38.3162 12.1956C38.7115 12.0577 38.7115 12.0555 38.7137 11.6374C38.7195 11.1616 38.7224 10.6872 38.7224 10.2143ZM10.0027 18.5205C10.0573 18.9212 10.1315 19.2736 10.149 19.6283C10.1888 19.997 10.253 20.3627 10.3412 20.7229C10.5465 21.8329 11.0117 22.8531 11.3786 23.9084C11.4594 24.1382 11.6079 24.1864 11.8329 24.1798C12.0578 24.1733 12.2107 24.1645 12.2981 23.9281C12.6475 22.9801 13.0297 22.0409 13.2896 21.0623C13.4539 20.3701 13.5685 19.667 13.6325 18.9584C13.7015 18.2596 13.6272 17.554 13.4141 16.8851C13.2721 16.4122 13.0799 15.9174 12.665 15.6C11.9683 15.0636 11.7258 15.0746 11.0488 15.6C10.6673 15.9068 10.4028 16.3358 10.2997 16.8151C10.1555 17.3865 10.0922 17.9732 10.0027 18.5205ZM8.91066 25.7452V25.708C8.98491 25.708 9.07009 25.6817 9.12906 25.708C9.37367 25.8328 9.48068 25.708 9.55057 25.489C9.56976 25.4196 9.60159 25.3542 9.64448 25.2964C9.75805 25.165 9.69253 25.0775 9.60299 24.9702C9.08537 24.3506 8.59398 23.7091 8.05671 23.1071C7.47197 22.4694 6.8119 21.9055 6.0911 21.4279C5.39263 20.9652 4.62091 20.6247 3.8088 20.4208C3.52417 20.3482 3.22746 20.3366 2.93805 20.3868C2.64865 20.437 2.37307 20.5478 2.1293 20.712C2.04008 20.7702 1.96339 20.8457 1.90375 20.934C1.84411 21.0224 1.80272 21.1218 1.78203 21.2265C1.71574 21.5284 1.73388 21.8428 1.83445 22.135C1.99974 22.6092 2.28585 23.0319 2.66438 23.361C3.15276 23.7492 3.67378 24.0942 4.22159 24.3922C5.08716 24.8439 6.01216 25.1704 6.96907 25.3621C7.61335 25.5131 8.25764 25.627 8.90193 25.7496L8.91066 25.7452ZM21.9296 21.5855C21.9677 21.4164 21.9518 21.2394 21.884 21.0799C21.8161 20.9203 21.6999 20.7862 21.5517 20.6967C21.1477 20.4624 20.7109 20.2588 20.2282 20.353C19.8275 20.4163 19.4339 20.519 19.0532 20.6595C17.9267 21.1302 16.9061 21.8234 16.0524 22.6977C15.4062 23.3707 14.7967 24.0781 14.2266 24.8169C13.9863 25.1081 14.0081 25.2942 14.1872 25.5503C14.2178 25.5941 14.2222 25.6554 14.2571 25.6948C14.2884 25.7345 14.3338 25.7604 14.3838 25.7671C14.6509 25.7567 14.9172 25.7296 15.181 25.6861C15.8362 25.5547 16.4914 25.4234 17.1466 25.2482C18.3249 24.9771 19.4444 24.4942 20.451 23.823C21.019 23.444 21.477 22.9214 21.7789 22.308C21.8927 22.09 21.942 21.8438 21.9208 21.5987L21.9296 21.5855ZM1.75801 31.965C1.75801 32.4335 1.82572 32.6765 2.07251 32.8407C2.46002 33.138 2.94509 33.2779 3.43096 33.2326C4.01073 33.1484 4.57421 32.9757 5.10174 32.7203C6.16317 32.1992 7.04333 31.4461 7.89073 30.6448C8.10155 30.4234 8.30057 30.1911 8.48696 29.9486C8.74249 29.6487 9.00894 29.3532 9.25573 29.0445C9.39988 28.8649 9.50908 28.6591 9.64667 28.4709C9.66504 28.4515 9.67923 28.4285 9.68835 28.4033C9.69748 28.3782 9.70135 28.3514 9.69971 28.3247C9.69807 28.298 9.69096 28.272 9.67883 28.2481C9.6667 28.2243 9.6498 28.2033 9.62919 28.1863C9.5759 28.1174 9.52842 28.0441 9.48724 27.9673C9.39988 27.8338 9.32126 27.8009 9.13343 27.8535C8.78661 27.9269 8.43586 27.9803 8.08292 28.0133C7.61117 28.0943 7.13506 28.16 6.67641 28.287C6.04163 28.4474 5.41906 28.653 4.81345 28.9022C3.81535 29.34 2.84783 29.837 2.19263 30.7893C1.92694 31.125 1.77472 31.5368 1.75801 31.965ZM21.923 32.0175C21.9391 31.6553 21.8346 31.2979 21.626 31.0017C21.3716 30.5922 21.0444 30.2331 20.6606 29.9421C20.0946 29.5061 19.4724 29.1489 18.8108 28.8803C18.0771 28.5657 17.3099 28.3365 16.5241 28.1972C15.8296 28.0746 15.1373 27.9345 14.4428 27.8031C14.41 27.8031 14.3576 27.8031 14.3401 27.8206C14.206 27.9623 14.0914 28.1214 13.9994 28.2935C13.9645 28.3767 14.0475 28.5387 14.1195 28.6285C14.6764 29.3116 15.2115 30.0121 15.8121 30.6514C16.2444 31.0824 16.7088 31.4798 17.2012 31.8402C18.0224 32.4838 18.896 33.0312 19.9683 33.1538C20.4401 33.3968 20.8747 33.18 21.3027 33.0268C21.5135 32.9671 21.6943 32.8303 21.8091 32.6433C21.924 32.4564 21.9647 32.2331 21.923 32.0175ZM38.0672 15.0286C38.075 15.3595 38.2071 15.6752 38.4371 15.9126C38.6671 16.1501 38.9781 16.2918 39.3078 16.3093C39.6303 16.2927 39.9357 16.1588 40.1668 15.9327C40.398 15.7067 40.539 15.4039 40.5636 15.0811C40.57 14.7484 40.4447 14.4266 40.2151 14.1862C39.9855 13.9457 39.6703 13.8062 39.3383 13.7982C39.1731 13.7907 39.0081 13.8171 38.8534 13.8758C38.6987 13.9344 38.5576 14.024 38.4386 14.1392C38.3197 14.2544 38.2254 14.3926 38.1615 14.5455C38.0977 14.6985 38.0656 14.8628 38.0672 15.0286ZM11.8809 25.9313C11.5118 25.9313 11.514 25.9313 11.2257 26.2203C11.1405 26.287 11.07 26.3706 11.0185 26.4659C10.967 26.5613 10.9357 26.6662 10.9265 26.7742C10.9504 27.0071 11.0543 27.2244 11.2204 27.3889C11.3866 27.5535 11.6046 27.655 11.8372 27.6761C12.274 27.6761 12.7764 27.1923 12.7567 26.8004C12.7254 26.5788 12.6223 26.3737 12.4633 26.2167C12.3042 26.0596 12.098 25.9593 11.8766 25.9313H11.8809Z" fill="#1C2640"/>
</g>
<defs>
<clipPath id="clip0_5439_23526">
<rect width="55" height="56" fill="white"/>
</clipPath>
</defs>
</svg>
