<svg width="73" height="56" viewBox="0 0 73 56" fill="none" xmlns="http://www.w3.org/2000/svg">
<path d="M0.00298328 37.0993C0.00298328 35.6192 0.00298328 34.1391 0.00298328 32.6608C0.0119795 32.3044 0.0461132 31.949 0.10514 31.5971C0.143689 31.3246 0.236205 31.0615 0.276682 30.789C0.415962 30.0029 0.630879 29.2317 0.918537 28.4855C1.17468 27.722 1.50854 26.9858 1.91504 26.2881C2.31018 25.6219 2.77663 24.9954 3.21224 24.3537C3.83096 23.4452 4.65014 22.7165 5.45582 21.9841C6.06271 21.4432 6.72551 20.9662 7.43342 20.5607C7.85739 20.2915 8.29553 20.0445 8.74604 19.8207C9.47552 19.4614 10.232 19.1577 11.0089 18.9122C11.7736 18.6926 12.5495 18.5125 13.3334 18.3728C14.8581 18.1116 16.3846 18.227 17.9093 18.2119C19.0407 18.2005 20.1741 18.2346 21.3017 18.316C21.7585 18.3482 22.223 18.3387 22.6721 18.4087C23.1212 18.4788 23.5279 18.4485 23.95 18.4958C24.561 18.5677 25.174 18.6169 25.7811 18.6945C26.3883 18.7721 27.0263 18.8062 27.6431 18.9444C28.1905 19.0655 28.7668 19.0693 29.3258 19.1526C29.9426 19.2453 30.5555 19.3702 31.1723 19.48C31.6175 19.5595 32.0666 19.6276 32.51 19.7185C32.8955 19.798 33.2655 19.9078 33.6452 19.9967C34.2877 20.1519 34.9245 20.304 35.5554 20.4529C36.4844 20.6686 37.3846 20.9771 38.2886 21.2724C39.0942 21.5301 39.8828 21.8366 40.6497 22.1904C41.4747 22.5784 42.3016 22.9645 43.0957 23.4074C43.859 23.8433 44.5849 24.3396 45.266 24.8913C45.8304 25.3526 46.3606 25.8529 46.8524 26.3884C47.2078 26.8019 47.535 27.2382 47.8315 27.6944C48.192 28.2232 48.481 28.7958 48.6912 29.3978C48.8492 29.8123 48.9475 30.2476 49.0767 30.6754C49.3099 31.4817 49.2694 32.3088 49.2694 33.1359C49.2694 35.4072 49.2694 37.669 49.2694 39.9345C49.2525 40.6911 49.1424 41.4429 48.9417 42.1736C48.7113 43.1041 48.3527 43.9994 47.8758 44.8348C47.4399 45.5902 46.923 46.2976 46.3339 46.9451C45.9753 47.3464 45.5629 47.6852 45.1774 48.0467C44.7009 48.4543 44.1843 48.8144 43.6354 49.1218C42.8781 49.5643 42.0725 49.9218 41.2337 50.1874C40.7416 50.3381 40.2392 50.4544 39.7303 50.5356C38.8475 50.7003 37.9609 50.6473 37.08 50.7249C36.4709 50.7817 35.8503 50.7249 35.2451 50.8782C34.9501 50.9242 34.6528 50.9545 34.3546 50.969C33.6411 51.0675 32.9334 51.2027 32.2343 51.3741C31.4171 51.5785 30.6075 51.8151 29.8115 52.0839C28.9672 52.3678 28.1404 52.7028 27.3058 53.0302C26.5348 53.333 25.7445 53.6056 24.9735 53.9463C23.9003 54.4166 22.7959 54.815 21.6679 55.1387C20.8675 55.4025 20.0452 55.5969 19.2103 55.7197C18.7439 55.7727 18.2774 55.8447 17.8129 55.909C16.7123 56.0661 15.6137 55.9563 14.5131 55.9791C14.1869 55.9615 13.8637 55.9088 13.5493 55.822C13.3045 55.7709 13.054 55.7765 12.8034 55.7235C11.5791 55.4697 10.3858 55.089 9.24333 54.5879C8.44156 54.2285 7.67396 53.7996 6.94962 53.3065C6.20129 52.837 5.50943 52.2859 4.88722 51.6637C4.68098 51.4441 4.45932 51.2397 4.24344 51.0277C3.51207 50.2742 2.86998 49.4418 2.32945 48.5464C2.06375 48.1625 1.82917 47.7588 1.62785 47.3388C1.37535 46.7578 1.09586 46.1899 0.881914 45.5919C0.667964 44.9938 0.523403 44.3843 0.346075 43.7805C0.281449 43.4955 0.236371 43.2065 0.211149 42.9156C0.200684 42.6692 0.161887 42.4247 0.0954986 42.1869C0.031137 41.9948 0.00560455 41.7923 0.0203299 41.5907C0.00105509 40.0841 0.00298328 38.5945 0.00298328 37.0993ZM16.855 20.1917C16.084 20.2503 15.0701 20.0895 14.0697 20.2806C13.7768 20.3374 13.4703 20.3242 13.1812 20.3904C11.9125 20.6706 10.6828 21.1002 9.51896 21.6699C9.15247 21.8495 8.79834 22.0524 8.45885 22.2774C7.7891 22.691 7.16053 23.1657 6.58147 23.6951C6.1767 24.0869 5.7835 24.49 5.37873 24.8837C5.28419 24.9685 5.19774 25.0617 5.12045 25.1619C4.73495 25.7089 4.37837 26.2729 3.98323 26.8105C3.44161 27.5486 3.12743 28.3909 2.80554 29.2275C2.52824 29.9628 2.32741 30.7237 2.20609 31.4987C2.08654 32.1393 2.02717 32.7894 2.02876 33.4406C2.02876 33.7719 2.04033 34.1031 2.02876 34.4324C2.01804 34.8996 2.0529 35.3667 2.13285 35.8274C2.16182 36.0561 2.2043 36.283 2.26006 36.5068C2.45818 37.2963 2.69947 38.0747 2.98287 38.8387C3.3264 39.7203 3.77269 40.5599 4.31283 41.3408C4.70539 41.9656 5.1783 42.5382 5.71989 43.0443C5.78053 43.1152 5.83654 43.1898 5.88758 43.2676C5.9936 43.3831 6.10154 43.4985 6.21911 43.6045C6.33669 43.7105 6.49281 43.8146 6.62195 43.9282C6.75286 44.0665 6.89119 44.1979 7.03636 44.3218C7.57027 44.7004 8.10612 45.0789 8.65738 45.4442C9.35621 45.8879 10.1061 46.2488 10.8913 46.5193C11.756 46.8387 12.6509 47.0727 13.5628 47.2177C14.1354 47.3205 14.7156 47.3774 15.2975 47.388C15.4695 47.3981 15.6408 47.4183 15.8103 47.4486C15.8545 47.4533 15.8991 47.4533 15.9433 47.4486C16.136 47.4278 16.3172 47.3937 16.5042 47.3861C16.8241 47.3748 17.1499 47.4126 17.4679 47.3729C18.0249 47.3048 18.582 47.2082 19.1313 47.0966C19.7577 46.9678 20.3861 46.8335 20.999 46.6574C22.5063 46.224 23.9442 45.6127 25.3937 45.024C26.1647 44.7117 26.9183 44.3673 27.7067 44.0909C28.7205 43.7313 29.7575 43.4342 30.7791 43.0935C31.8006 42.7528 32.8723 42.5938 33.9286 42.3875C34.4818 42.2796 35.0523 42.2588 35.6151 42.1982C36.2127 42.1358 36.8179 42.1869 37.4212 42.1036C37.8527 42.0686 38.2863 42.0648 38.7184 42.0922C38.9651 42.0942 39.2033 42.1813 39.3912 42.3385C39.579 42.4956 39.7045 42.7126 39.7457 42.9515C39.819 43.3528 39.4913 43.8392 39.0326 43.9793C38.8531 44.0343 38.6672 44.0661 38.4794 44.0739C37.5407 44.1136 36.602 44.1401 35.6633 44.1723C35.6155 44.1636 35.5665 44.1636 35.5188 44.1723C35.1333 44.3427 34.7092 44.2348 34.3083 44.3427C33.8727 44.4581 33.4024 44.4524 32.9591 44.5698C31.8141 44.8745 30.6654 45.1565 29.5455 45.5597C28.1963 46.0499 26.8605 46.595 25.5228 47.1231C24.8405 47.3937 24.1736 47.706 23.4701 47.9294C22.223 48.3287 20.9933 48.7735 19.6922 49.0139C18.9597 49.1775 18.2154 49.285 17.466 49.3356C16.3095 49.3716 15.1414 49.4341 13.9753 49.2826C13.3816 49.2069 12.7976 49.0934 12.2174 48.9779C11.0993 48.7358 10.0152 48.3615 8.9889 47.8631C8.35494 47.5505 7.73912 47.2036 7.1443 46.824C6.47881 46.4059 5.85075 45.9329 5.26694 45.4102C5.05299 45.2209 4.88144 44.9654 4.64436 44.8253C4.36873 44.6625 4.2338 44.3994 4.03334 44.1875C3.66132 43.7852 3.31132 43.3638 2.9848 42.925C2.6517 42.5115 2.35933 42.0679 2.11165 41.6001C2.10201 41.5812 2.0731 41.5717 2.05382 41.5566C2.04418 41.585 2.02298 41.6172 2.02684 41.6437C2.06705 41.7915 2.09604 41.9421 2.11357 42.0941C2.13285 42.8512 2.37186 43.5761 2.58388 44.2991C2.85896 45.2157 3.2385 46.0989 3.71531 46.9319C4.25379 47.9178 4.92907 48.8255 5.72182 49.629C6.18686 50.125 6.68596 50.5892 7.21562 51.0183C7.78829 51.4546 8.38687 51.8572 9.00818 52.2239C9.48243 52.4989 9.97729 52.7381 10.4885 52.9394C11.0242 53.1565 11.571 53.346 12.1268 53.5072C12.6024 53.6661 13.0954 53.7697 13.5956 53.8157C13.9348 53.8308 14.2721 53.9822 14.6094 53.9766C15.6445 53.9595 16.6776 54.0296 17.7165 53.916C18.4063 53.846 19.0916 53.7386 19.7693 53.5942C20.6665 53.3856 21.5487 53.1188 22.41 52.7955C23.7804 52.3034 25.1219 51.7469 26.475 51.2132C27.5949 50.7722 28.7128 50.3331 29.8616 49.9716C30.9926 49.6166 32.144 49.3278 33.3099 49.1066C34.0504 48.9694 34.7981 48.8728 35.5496 48.817C36.3572 48.7527 37.1706 48.73 37.9821 48.7205C38.5493 48.7126 39.1142 48.6492 39.6686 48.5312C40.6497 48.3251 41.5934 47.9741 42.4673 47.4902C43.1548 47.0825 43.8003 46.6103 44.3948 46.0802C44.5972 45.9117 44.7341 45.6695 44.9229 45.4821C45.4494 44.9438 45.8841 44.3258 46.2105 43.6518C46.4357 43.2103 46.6352 42.7566 46.808 42.2929C46.9587 41.9059 47.0697 41.5052 47.1395 41.0967C47.2147 40.6216 47.2128 40.1371 47.2494 39.6563C47.2494 39.5503 47.2957 39.4481 47.313 39.3421C47.3168 39.2993 47.3168 39.2562 47.313 39.2134C47.2737 39.2328 47.2363 39.2556 47.2012 39.2816C47.1143 39.3513 47.0394 39.4343 46.9796 39.5276C46.8061 39.8929 46.5054 40.1484 46.2259 40.4266C46.0689 40.5592 45.9232 40.7042 45.7903 40.8601C45.6882 41.0084 45.5444 41.1244 45.3764 41.194C45.2084 41.2636 45.0234 41.2837 44.8439 41.2519C44.6681 41.2394 44.4992 41.1798 44.3555 41.0796C44.2118 40.9794 44.0988 40.8424 44.0288 40.6836C43.9589 40.5247 43.9346 40.3501 43.9587 40.1786C43.9828 40.0072 44.0543 39.8455 44.1654 39.7112C44.3648 39.4488 44.5832 39.2008 44.8189 38.9693C45.8064 37.9216 46.5276 36.6596 46.9237 35.286C47.161 34.5469 47.2724 33.7744 47.2533 32.9996C47.2417 32.7479 47.2533 32.4943 47.2533 32.2426C47.2526 31.8697 47.2164 31.4978 47.1453 31.1315C46.7926 29.7801 46.1951 28.548 45.1774 27.5354C44.894 27.2572 44.6223 26.9676 44.3235 26.7045C43.9915 26.4154 43.6448 26.1431 43.2846 25.8887C42.9685 25.6635 42.6138 25.4856 42.2919 25.266C41.3274 24.6451 40.2973 24.1285 39.2195 23.7254C38.2363 23.3257 37.2311 22.98 36.2088 22.69C35.1718 22.3967 34.1252 22.1506 33.0824 21.8913C32.5215 21.7532 31.9568 21.6358 31.392 21.5128C31.0255 21.4309 30.6549 21.3677 30.2818 21.3235C29.7961 21.2781 29.3315 21.1191 28.8381 21.1077C28.4644 21.0735 28.0931 21.0179 27.726 20.9412C27.4276 20.9271 27.131 20.8885 26.8393 20.8257C26.6404 20.7786 26.4368 20.7532 26.2322 20.75C26.0144 20.7254 25.7985 20.6781 25.5807 20.6592C25.1219 20.6213 24.6478 20.6592 24.2121 20.5437C23.6956 20.4112 23.1752 20.5153 22.6586 20.3923C22.2384 20.2939 21.7797 20.3374 21.3383 20.2958C20.4035 20.2106 19.4609 20.2125 18.5222 20.1879C18.0346 20.1803 17.5604 20.1917 16.855 20.1917Z" fill="#1C2640"/>
<path d="M17.3905 23.9658C16.7332 23.9658 16.0759 23.9809 15.4187 23.9658C14.5518 23.9572 13.69 24.0949 12.8705 24.3727C11.682 24.7521 10.5723 25.3373 9.59383 26.1007C8.66402 26.832 7.8754 27.7212 7.26543 28.7259C6.69352 29.6342 6.28717 30.6333 6.06461 31.6786C5.92826 32.2363 5.86351 32.8085 5.87186 33.382C5.88639 33.6342 5.88639 33.8869 5.87186 34.1391C5.8256 34.9246 6.01449 35.6741 6.20339 36.4255C6.79395 38.5741 8.12241 40.4562 9.96391 41.7535C10.8235 42.3574 11.77 42.832 12.7722 43.1616C13.2875 43.3458 13.8222 43.4728 14.3663 43.5402C14.7518 43.5762 15.1257 43.5705 15.4977 43.6216C15.772 43.649 16.0484 43.649 16.3227 43.6216C16.5944 43.6083 16.8681 43.631 17.1399 43.6216C17.3904 43.6046 17.6395 43.5723 17.8859 43.5251C19.3303 43.2512 20.7427 42.8339 22.1013 42.2796C22.9725 41.9333 23.8495 41.6021 24.7226 41.2595C25.4223 40.985 26.1104 40.6917 26.8159 40.4286C27.5964 40.1125 28.3974 39.8475 29.2137 39.6355C29.5992 39.5485 29.9847 39.3762 30.3702 39.2797C30.9879 39.1103 31.6155 38.9776 32.2494 38.8822C32.6812 38.8254 33.1052 38.71 33.5331 38.6229C33.7799 38.5737 34.0285 38.5832 34.281 38.5302C34.7332 38.4556 35.191 38.4189 35.6495 38.4204C36.5574 38.3901 37.4614 38.3258 38.3692 38.3012C38.9327 38.2619 39.4831 38.116 39.9902 37.8715C40.7754 37.5271 41.4751 37.0196 42.0411 36.3838C42.5775 35.7939 42.9726 35.0935 43.1975 34.334C43.3372 33.9382 43.4025 33.5207 43.3903 33.1019C43.3556 32.6533 43.4385 32.2047 43.3055 31.7524C43.1762 31.3082 42.9695 30.8894 42.6945 30.5146C42.0218 29.6042 41.1159 28.9644 40.1329 28.4023C38.5157 27.473 36.7694 26.8332 34.9961 26.2654C34.2984 26.044 33.5871 25.8585 32.8759 25.6976C32.0394 25.5083 31.1913 25.3626 30.349 25.196C29.7999 25.0714 29.2447 24.9741 28.6855 24.9046C28.1408 24.8488 27.6009 24.7539 27.0703 24.6206C26.8746 24.5782 26.6993 24.4718 26.5733 24.3187C26.4472 24.1657 26.3778 23.9752 26.3764 23.7784C26.361 23.273 26.5191 22.9342 26.9547 22.8112C27.2786 22.7372 27.613 22.718 27.9435 22.7544C28.2692 22.7771 28.5872 22.8775 28.9072 22.9267C29.4006 23.0005 29.8921 23.0875 30.3836 23.1841C30.7691 23.2598 31.1546 23.3071 31.5401 23.3961C32.3111 23.5853 33.0995 23.7216 33.8705 23.9147C34.7475 24.1342 35.6225 24.3708 36.4841 24.6415C37.1549 24.8516 37.8064 25.1184 38.4617 25.3721C38.9067 25.5242 39.3407 25.7057 39.7608 25.9153C40.5704 26.3619 41.4185 26.7367 42.1663 27.2988C42.7099 27.6749 43.2223 28.0926 43.6987 28.548C44.4586 29.3164 45.0135 30.2571 45.3139 31.2868C45.3874 31.587 45.4281 31.8941 45.4353 32.2028C45.4566 32.5473 45.4353 32.8956 45.4353 33.2419C45.4508 33.9801 45.2426 34.6766 45.0094 35.3618C44.7295 36.1702 44.2958 36.9191 43.7315 37.5687C43.2319 38.1591 42.6422 38.6699 41.9832 39.0829C41.1589 39.5958 40.2545 39.9724 39.306 40.1977C38.9499 40.2683 38.5879 40.3056 38.2246 40.3093C37.3033 40.351 36.3781 40.3491 35.4587 40.4153C34.707 40.4702 33.9611 40.5857 33.217 40.6992C32.7699 40.7674 32.3304 40.879 31.889 40.9775C30.701 41.2451 29.5297 41.5801 28.381 41.9806C27.5406 42.274 26.7118 42.6033 25.8753 42.927C24.9404 43.2847 23.9863 43.6027 23.0823 44.0228C22.3807 44.3484 21.6367 44.5377 20.9236 44.8197C20.2898 45.037 19.6395 45.2048 18.9787 45.3212C18.4602 45.4348 17.934 45.5105 17.4098 45.6014C17.2982 45.6108 17.186 45.6108 17.0744 45.6014C16.448 45.6014 15.8235 45.6014 15.197 45.6014C14.4265 45.5884 13.6608 45.4784 12.9187 45.2739C12.1432 45.0799 11.3891 44.8111 10.6674 44.4714C9.72318 44.0427 8.84887 43.4788 8.07305 42.7983C7.75501 42.5143 7.41192 42.255 7.12087 41.9465C6.47888 41.283 5.91981 40.5465 5.45552 39.7529C4.95731 38.9293 4.56864 38.0464 4.29903 37.1258C4.14652 36.5645 4.02301 35.9959 3.92896 35.4224C3.78633 34.5139 3.84801 33.6091 3.86343 32.7044C3.89446 32.0897 3.99795 31.4806 4.17182 30.8893C4.43503 29.8871 4.83234 28.9235 5.35337 28.0237C5.73122 27.3063 6.20866 26.6439 6.772 26.0553C7.03028 25.8017 7.23459 25.4875 7.50637 25.2585C8.91965 23.9414 10.6284 22.9689 12.4947 22.4194C12.8686 22.3134 13.2541 22.2415 13.6338 22.1563C14.9831 21.8611 16.3323 22.0201 17.6815 21.9822C18.2906 21.9652 18.8997 21.9822 19.5088 21.9822C19.8386 21.9888 20.1591 22.0908 20.4301 22.2756C20.4968 22.3167 20.5508 22.3749 20.5863 22.444C20.8619 23.0251 20.8233 23.4661 20.2489 23.8844C20.1272 23.959 19.9821 23.9879 19.8403 23.9658C19.0231 23.9658 18.2039 23.9658 17.3866 23.9658H17.3905Z" fill="#1C2640"/>
<path d="M16.753 34.4561C15.5772 34.4258 14.4997 34.1305 13.5688 33.3753C12.9389 32.8615 12.446 32.2047 12.1328 31.4618C11.9948 31.0376 11.9018 30.6006 11.8552 30.1577C11.8224 29.8486 11.8546 29.5362 11.9497 29.2398C12.217 28.2472 12.8114 27.3694 13.6401 26.7433C14.2896 26.2587 15.0221 26.0335 15.7603 25.7742C15.8878 25.7547 16.0171 25.749 16.1458 25.7572C16.3386 25.7401 16.5178 25.7061 16.7048 25.689C16.7803 25.6846 16.8561 25.6897 16.9303 25.7042C17.0202 25.7301 17.1126 25.7472 17.2059 25.7553C17.9136 25.7604 18.6092 25.9359 19.2317 26.2663C19.9445 26.6171 20.5507 27.1458 20.9896 27.7994C21.4634 28.4409 21.7261 29.2095 21.7423 30.0018C21.7585 30.7942 21.5274 31.5724 21.0802 32.2321C20.6112 32.9334 19.9675 33.5053 19.2102 33.8936C18.4528 34.2818 17.607 34.4735 16.753 34.4504V34.4561ZM16.8725 32.4706C17.5259 32.535 18.2429 32.2227 18.7325 31.8687C19.0962 31.6214 19.3767 31.2732 19.538 30.8687C19.6994 30.4642 19.7343 30.0216 19.6384 29.5975C19.516 29.1621 19.2724 28.7688 18.9349 28.4619C18.5561 28.1082 18.0829 27.8673 17.5702 27.7672C17.0622 27.6585 16.5363 27.6585 16.0282 27.7672C15.4604 27.9115 14.9442 28.2069 14.5364 28.6208C14.2885 28.8633 14.1034 29.1605 13.9967 29.4877C13.9093 29.7774 13.8889 30.0826 13.9369 30.3811C14.0055 30.8259 14.2113 31.2395 14.5267 31.5659C15.1551 32.2113 15.9396 32.4801 16.8783 32.4706H16.8725Z" fill="#1C2640"/>
<path d="M22.6932 24.1581C22.5595 24.1597 22.4268 24.1347 22.3032 24.0846C22.1796 24.0345 22.0676 23.9604 21.974 23.8666C21.8803 23.7729 21.807 23.6615 21.7583 23.5392C21.7097 23.4169 21.6867 23.2862 21.6909 23.155C21.6925 23.0164 21.7247 22.8798 21.7853 22.7547C21.8458 22.6295 21.9333 22.5188 22.0417 22.4301C22.261 22.2839 22.5171 22.2 22.7819 22.1878C23.2792 22.1726 23.8227 22.7556 23.7649 23.2326C23.6974 23.7758 23.3293 24.2016 22.6932 24.1581Z" fill="#1C2640"/>
<path d="M42.6351 40.9688C42.7644 40.9687 42.8925 40.9942 43.0116 41.0437C43.1307 41.0933 43.2384 41.1659 43.3284 41.2572C43.4183 41.3485 43.4886 41.4567 43.5351 41.5752C43.5815 41.6938 43.6032 41.8203 43.5988 41.9473C43.5988 42.4659 43.1227 42.9637 42.6351 42.9542C42.1474 42.9447 41.5653 42.4148 41.5865 41.9492C41.6039 41.6863 41.7214 41.4395 41.9157 41.2578C42.11 41.0761 42.3668 40.973 42.6351 40.9688Z" fill="#1C2640"/>
</svg>
