<svg width="56" height="56" viewBox="0 0 56 56" fill="none" xmlns="http://www.w3.org/2000/svg">
<g clip-path="url(#clip0_5439_23514)">
<path d="M55.9959 26.2335C55.9959 26.9868 55.9959 27.4993 55.9959 28.0117C55.9869 28.6771 55.9173 29.3402 55.7879 29.9928C55.7311 30.3082 55.7326 30.6337 55.686 30.9564C55.5682 31.7535 55.3951 32.5389 55.2046 33.3156C54.9046 34.5655 54.4968 35.7867 53.9856 36.9655C53.5332 37.9874 52.9878 38.9583 52.502 39.9598C52.0161 40.9613 51.3499 41.8577 50.7114 42.7731C50.3186 43.3322 49.8153 43.8125 49.4022 44.3556C48.7986 45.1381 48.0728 45.8024 47.3658 46.4827C46.7971 47.0302 46.1483 47.493 45.552 48.0142C44.9079 48.5611 44.2221 49.0566 43.501 49.496C42.1261 50.3767 40.6719 51.126 39.1576 51.7341C38.4434 52.0115 37.7365 52.3064 37.0005 52.521C36.188 52.7771 35.3626 52.9895 34.5277 53.1575C34.28 53.2031 34.0499 53.3168 33.8629 53.486C33.2942 54.0262 32.6207 54.4131 31.9458 54.7737C31.0761 55.2275 30.1494 55.5614 29.1908 55.7664C28.7908 55.8569 28.3573 55.8 27.9646 55.9124C27.5598 56.0078 27.1422 56.0364 26.7282 55.9971C25.4086 55.9427 24.1067 55.673 22.8736 55.1985C22.0157 54.8358 21.2009 54.3779 20.4444 53.8335C20.3077 53.7401 20.2568 53.743 20.1433 53.8481C19.1583 54.7448 17.9761 55.3951 16.693 55.746C16.3797 55.8171 16.0619 55.8659 15.7417 55.892C15.4982 55.9439 15.2512 55.9781 15.0028 55.9942C14.0546 55.9871 13.1131 55.8334 12.2114 55.5387C11.7986 55.402 11.354 55.3953 10.9372 55.5197C10.1158 55.7755 9.26055 55.9054 8.40045 55.9051C7.5034 55.9209 6.61151 55.7659 5.77202 55.4482C5.27453 55.2436 4.7889 55.0111 4.31743 54.7518C4.1474 54.644 4.00213 54.5012 3.89124 54.3328C3.72978 54.1152 3.78506 53.559 3.96252 53.3313C4.07949 53.1939 4.23666 53.0971 4.41165 53.0547C4.58663 53.0122 4.77051 53.0262 4.93709 53.0948C5.15405 53.183 5.36409 53.2874 5.56546 53.4072C6.30893 53.8785 7.16909 54.1314 8.04843 54.1372C8.2128 54.1372 8.37717 54.1269 8.54008 54.1372C9.14228 54.181 9.70375 54.0408 10.2856 53.8758C10.9552 53.6654 11.6674 53.6312 12.354 53.7765C12.7206 53.8583 13.0711 53.9882 13.4377 54.0598C14.1213 54.1941 14.7948 54.3518 15.5075 54.1634C15.8465 54.0773 16.2116 54.0685 16.5519 53.9532C17.7889 53.5514 18.8717 52.7752 19.6516 51.7312C20.452 50.6469 21.0205 49.4083 21.3215 48.093C21.6016 46.8701 21.6739 45.6085 21.5353 44.3615C21.4091 42.8014 20.9247 41.2918 20.12 39.951C19.4466 38.8575 18.5607 37.9597 17.3898 37.3961C16.7425 37.0852 16.0632 36.8589 15.3243 36.9012C15.1061 36.9144 14.8879 36.91 14.6682 36.9012C14.1664 36.8928 13.6662 36.9607 13.1846 37.1027C12.962 37.164 12.7147 37.0647 12.4995 37.2209C12.4136 37.2837 12.3744 37.3158 12.4107 37.4268C12.5707 37.9261 12.4733 38.44 12.4733 38.9451C12.4733 39.3831 11.6442 39.8926 11.1714 39.4809C10.9052 39.2473 10.7089 38.9889 10.7249 38.5962C10.7409 38.2035 10.7816 37.7626 10.623 37.3582C10.6078 37.2974 10.5747 37.2426 10.528 37.2009C10.4813 37.1592 10.4232 37.1327 10.3612 37.1246C9.5612 37.0122 8.76118 36.8603 7.95098 36.8998C7.0344 36.9186 6.14262 37.2019 5.38219 37.7159C4.99144 37.9697 4.61463 38.2446 4.25343 38.5393C3.98576 38.7829 3.74927 39.059 3.54941 39.3612C2.79729 40.4351 2.26573 41.6485 1.98573 42.9307C1.84097 43.5036 1.76479 44.0917 1.75882 44.6826C1.75882 44.8929 1.65263 45.1075 1.66718 45.3163C1.71227 45.9776 1.76464 46.6302 1.85483 47.2974C1.93349 47.9901 2.08762 48.6721 2.31447 49.3311C2.43665 49.6669 2.58502 49.9924 2.72175 50.3238C2.77924 50.4352 2.82413 50.5528 2.85558 50.6742C2.97922 51.4348 2.39011 51.9473 1.65409 51.6961C1.4704 51.6167 1.32123 51.4737 1.23372 51.2932C0.971909 50.7838 0.752488 50.2534 0.577697 49.7077C0.376399 48.9879 0.218052 48.2566 0.103502 47.5178C0.0390514 47.0159 0.00989121 46.51 0.0162304 46.0039C0.00168461 45.5659 0.0162304 45.1279 0.0162304 44.6899C0.00750294 43.8023 0.193688 42.938 0.387147 42.0869C0.583933 41.3257 0.845256 40.5828 1.16826 39.8663C1.18754 39.7972 1.21962 39.7323 1.26281 39.6751C1.61045 39.3335 1.60754 38.9451 1.43299 38.5276C1.14208 37.8473 1.04898 37.1202 0.893339 36.4078C0.747881 35.7435 0.670792 35.0675 0.542789 34.4033C0.452605 33.9434 0.554426 33.4616 0.352239 33.0222C0.345543 32.9865 0.345543 32.9498 0.352239 32.9142C0.315874 32.0075 0.264962 31.1009 0.250416 30.1943C0.250416 29.8381 0.327514 29.4804 0.346424 29.1227C0.365333 28.765 0.307146 28.4205 0.360966 28.0818C0.487515 27.3036 0.545701 26.5167 0.691159 25.7459C0.836617 25.0159 1.0359 24.286 1.2279 23.5691C1.57055 22.3053 2.0587 21.0858 2.68248 19.9354C3.21777 18.9353 3.80106 17.9645 4.57344 17.1279C4.8309 16.8491 5.06509 16.544 5.324 16.2709C5.85075 15.7254 6.43616 15.2402 7.0695 14.8242C7.30224 14.6636 7.31242 14.6168 7.24405 14.303C7.00084 13.1393 6.49695 12.0464 5.77056 11.1072C5.41855 10.6546 5.11018 10.167 4.79017 9.69104C4.63488 9.45244 4.53551 9.18161 4.49955 8.89891C4.46359 8.61622 4.49198 8.32901 4.58257 8.05892C4.67316 7.78882 4.8236 7.54285 5.02257 7.33953C5.22153 7.1362 5.46385 6.98081 5.73128 6.88505C6.20311 6.7154 6.72252 6.739 7.17714 6.95075C7.90443 7.28945 8.64627 7.61355 9.37647 7.95226C9.49284 8.00774 9.5292 7.99898 9.53502 7.8705C9.61006 6.64299 9.36912 5.41674 8.83537 4.30973C8.52236 3.66187 8.1524 3.04334 7.72988 2.46146C7.08259 1.56945 7.6397 0.271564 8.81209 0.029216C9.22228 -0.05546 9.6063 0.127033 9.94522 0.297845C11.0187 0.839479 12.1402 1.29352 13.1322 1.99282C14.0312 2.60272 14.7778 3.41258 15.3141 4.35937C15.3868 4.49077 15.3912 4.49222 15.4435 4.39733C15.9966 3.37552 16.8039 2.51492 17.7869 1.89939C18.9026 1.17777 20.0956 0.584234 21.3433 0.129952C21.6607 0.0336384 22.0004 0.0414519 22.313 0.152255C22.6256 0.263058 22.8948 0.471074 23.0816 0.746045C23.2492 1.03494 23.3281 1.36707 23.3085 1.7008C23.2888 2.03453 23.1714 2.35501 22.971 2.62205C22.1506 3.70824 21.5557 4.88932 21.3244 6.25874C21.2313 6.80621 21.275 7.34201 21.2386 7.88218C21.2386 7.96102 21.2502 8.01941 21.3579 7.97416C21.5033 7.91284 21.6633 7.87342 21.8088 7.80773C22.363 7.5537 22.9085 7.28069 23.4685 7.04126C23.7768 6.90841 24.107 6.74928 24.427 6.74928C24.8235 6.75588 25.2074 6.88995 25.5223 7.13178C26.1915 7.63399 26.3616 8.33476 26.2496 9.11436C26.191 9.34178 26.0844 9.55389 25.9369 9.73629C25.5136 10.3597 25.0642 10.9626 24.6452 11.5919C24.093 12.4738 23.6895 13.4411 23.451 14.4548C23.4496 14.4859 23.4558 14.5169 23.469 14.5452C23.4821 14.5734 23.5019 14.598 23.5267 14.6168C24.1929 14.9935 24.6903 15.576 25.2969 16.0315C25.4963 16.2141 25.6767 16.4166 25.8351 16.6359C25.9064 16.7177 25.9805 16.8024 26.0518 16.8797C26.8394 17.7218 27.5022 18.6732 28.0199 19.7047C28.37 20.348 28.6696 21.0177 28.9159 21.7077C29.0036 21.9255 29.0124 22.1673 28.9406 22.391C28.8955 22.5577 28.7961 22.7045 28.6582 22.8079C28.5204 22.9114 28.352 22.9656 28.1799 22.9618C27.7144 22.9618 27.4031 22.7822 27.262 22.353C27.0556 21.7594 26.8042 21.1825 26.51 20.6274C26.1726 19.9918 25.7834 19.3853 25.3463 18.8141C24.8125 18.0929 24.1579 17.4827 23.5048 16.8812C22.8682 16.2978 22.1564 15.8028 21.3884 15.4096C20.6936 15.0369 19.9721 14.7168 19.2298 14.4519C18.7405 14.2911 18.2403 14.1657 17.7331 14.0767C16.8327 13.8963 15.9146 13.8204 14.997 13.8504C14.4064 13.8796 13.826 13.9964 13.2413 14.0489C12.2318 14.1526 11.298 14.4971 10.3714 14.8563C9.56702 15.1687 8.84409 15.6519 8.14734 16.1614C7.36332 16.7323 6.70585 17.4462 6.06584 18.163C5.51139 18.7999 5.03073 19.4978 4.63308 20.2434C3.90143 21.6009 3.31908 23.0342 2.8963 24.5181C2.73194 25.0802 2.63157 25.6641 2.52247 26.2408C2.40174 26.8715 2.30429 27.5066 2.19665 28.1387C2.19665 28.1577 2.19665 28.1752 2.19665 28.1942C2.08614 29.6464 2.04973 31.1034 2.08756 32.5594C2.31592 33.0309 2.10937 33.5594 2.28538 34.05C2.38429 34.3259 2.34793 34.65 2.39157 34.9551C2.50357 35.7172 2.66793 36.4632 2.85121 37.2078C2.86867 37.2764 2.8803 37.3465 2.89485 37.4151C2.95559 37.3769 3.01216 37.3324 3.06358 37.2823C3.57851 36.6778 4.25052 36.2734 4.93563 35.926C5.56304 35.5819 6.24517 35.3498 6.95168 35.2398C7.37497 35.1887 7.79098 35.0719 8.21426 35.0354C8.77136 34.9873 9.31683 35.1362 9.86666 35.2019C9.91612 35.2092 10.0019 35.2296 10.0121 35.2121C10.0427 35.1537 10.0805 35.0661 10.0572 35.015C9.92091 34.6807 9.75795 34.358 9.56993 34.05C9.25889 33.5657 8.90964 33.1073 8.52554 32.6791C8.22299 32.3565 7.83025 32.1141 7.46515 31.8542C7.34547 31.769 7.24889 31.6551 7.18419 31.5228C7.11948 31.3906 7.0887 31.2443 7.09462 31.0971C7.10054 30.9499 7.14299 30.8065 7.21811 30.68C7.29323 30.5534 7.39864 30.4477 7.52479 30.3724C7.88843 30.152 8.18226 30.2264 8.50809 30.4337C9.51029 31.06 10.2667 31.9287 10.9227 32.8908C11.3583 33.5502 11.6959 34.2697 11.9249 35.0267C11.9525 35.1113 11.9845 35.196 12.0064 35.2822C12.0529 35.4676 12.1925 35.4938 12.3409 35.4588C13.3722 35.2114 14.4318 35.1034 15.4915 35.1376C16.2408 35.1566 16.9802 35.3129 17.6734 35.599C17.8858 35.6895 18.1098 35.8822 18.3076 35.8486C18.5054 35.815 18.6611 35.5566 18.8254 35.396C28.0931 26.0982 37.3588 16.799 46.6225 7.49822C46.6734 7.44567 46.7302 7.39895 46.7767 7.34201C47.2131 6.79745 47.7775 6.88505 48.2124 7.31573C48.7375 7.83547 49.1928 8.42528 49.6844 8.97859C50.2328 9.59936 50.7377 10.2574 51.1957 10.948C51.5143 11.4254 51.8605 11.8868 52.1514 12.3817C52.5616 13.0781 52.9558 13.7847 53.3151 14.5103C53.9797 15.9167 54.5402 17.3704 54.9922 18.8594C55.2179 19.5912 55.4029 20.3349 55.5464 21.0873C55.6628 21.6712 55.6744 22.264 55.7864 22.8392C56.0148 24.0436 56.0075 25.2568 55.9959 26.2335ZM51.7296 25.7196C51.7296 26.1036 51.7296 26.4875 51.7296 26.8715C51.7391 27.0081 51.7033 27.1441 51.6278 27.2582C51.5523 27.3723 51.4413 27.458 51.3121 27.5022C51.1469 27.5742 50.9656 27.6009 50.7867 27.5796C50.6078 27.5583 50.4378 27.4898 50.2939 27.381C50.2045 27.3191 50.1372 27.2301 50.1019 27.127C50.0398 26.8658 50.0014 26.5995 49.987 26.3313C49.9681 25.8379 49.987 25.3429 49.9797 24.8495C49.9797 24.721 50.0175 24.5677 49.9622 24.4714C49.8502 24.2787 49.891 24.083 49.8677 23.8874C49.8444 23.6918 49.795 23.4655 49.763 23.2538C49.6844 22.7414 49.6699 22.2099 49.5186 21.7194C49.1637 20.5807 48.8917 19.4156 48.3928 18.3178C47.9012 17.1993 47.3366 16.1146 46.7025 15.0709C46.1659 14.2182 45.5612 13.4107 44.8945 12.6562C44.4305 12.1262 44.4087 12.1466 43.9272 12.6299L21.3128 35.3216C21.211 35.4252 21.1048 35.526 21.0059 35.6325C20.9769 35.672 20.9535 35.7152 20.936 35.761C20.984 35.761 21.0451 35.7785 21.0815 35.761C21.8198 35.2835 22.6155 34.9018 23.4496 34.6252C24.5486 34.2427 25.7031 34.0454 26.8664 34.0412C27.2804 34.0216 27.6953 34.054 28.1013 34.1376C28.4621 34.231 28.8606 34.1784 29.2184 34.2763C30.6396 34.6631 31.9821 35.2092 33.1967 36.0822C33.9787 36.6729 34.696 37.3453 35.3364 38.0881C35.937 38.7799 36.4321 39.5573 36.8055 40.3948C37.4617 41.7534 37.8156 43.2389 37.8427 44.7483C37.8427 45.0038 37.8427 45.2608 37.8427 45.5163C37.8427 45.6272 37.8979 45.6871 38.0128 45.6389C38.0955 45.6024 38.1761 45.5615 38.2543 45.5163C39.2562 44.992 40.2231 44.4029 41.1489 43.7527C41.7942 43.2965 42.4129 42.8037 43.0021 42.2767C44.8761 40.5744 46.4421 38.5591 47.6305 36.3202C48.1426 35.3546 48.5643 34.3434 48.8902 33.2996C49.1506 32.4835 49.4401 31.6805 49.5622 30.8177C49.5853 30.637 49.6578 30.4662 49.7719 30.3244C49.8859 30.1826 50.0369 30.0754 50.2081 30.0147C50.3269 29.9762 50.4528 29.9648 50.5766 29.9816C50.7004 29.9983 50.8188 30.0427 50.9232 30.1115C51.0276 30.1803 51.1153 30.2717 51.1798 30.379C51.2444 30.4863 51.2841 30.6068 51.2961 30.7316C51.3223 31.298 51.1594 31.8323 51.0226 32.3681C50.6601 33.7327 50.1782 35.0625 49.5826 36.3421C48.9442 37.7319 48.1508 39.0445 47.2174 40.2547C46.7345 40.8824 46.2443 41.5088 45.709 42.0913C44.7949 43.0734 43.7999 43.9765 42.7344 44.7907C41.5887 45.6557 40.3723 46.422 39.098 47.0813C38.6878 47.3003 38.2514 47.4682 37.8252 47.6565C37.7208 47.703 37.6282 47.7725 37.5544 47.86C37.4806 47.9475 37.4274 48.0506 37.399 48.1617C37.1706 48.8201 36.9016 49.4654 36.6281 50.1063C36.5136 50.3309 36.3848 50.5479 36.2426 50.756C36.2291 50.7886 36.2203 50.823 36.2164 50.8581C36.2567 50.869 36.2985 50.873 36.3401 50.8698C37.3006 50.5997 38.2387 50.2551 39.146 49.8391C40.6529 49.1208 42.1322 48.3573 43.4879 47.3572C44.2399 46.801 45.0094 46.2608 45.6858 45.6258C46.9396 44.4476 48.1586 43.23 49.187 41.8299C50.0428 40.6744 50.8082 39.4542 51.4765 38.1801C51.9782 37.2274 52.4128 36.2405 52.7769 35.2267C53.0271 34.5215 53.2612 33.8091 53.4605 33.0879C53.606 32.5404 53.7005 31.974 53.8096 31.4133C53.9042 30.9403 53.9754 30.4615 54.0583 29.9884C54.1442 29.4921 54.1471 28.9913 54.2329 28.4964C54.342 27.857 54.1427 27.1898 54.3493 26.5474C54.3638 26.5021 54.3333 26.4437 54.326 26.3897C54.2902 26.1967 54.2659 26.0017 54.2533 25.8057C54.2416 25.2758 54.2867 24.7415 54.2358 24.2159C54.1689 23.5414 54.0336 22.8742 53.9187 22.2056C53.8038 21.5369 53.7442 20.8916 53.5522 20.2624C53.286 19.3952 53.0765 18.5105 52.7347 17.6623C52.2983 16.5804 51.8721 15.503 51.3005 14.4825C50.755 13.5102 50.2226 12.5335 49.5448 11.6459C49.0197 10.9583 48.5382 10.2371 47.92 9.62388C47.8259 9.51643 47.7402 9.40172 47.664 9.2808C47.5186 9.09101 47.4633 9.08078 47.28 9.26182C46.8 9.73629 46.3287 10.221 45.8472 10.694C45.7163 10.8225 45.7018 10.913 45.8371 11.0561C46.1711 11.388 46.4826 11.7421 46.7694 12.116C47.4502 13.0606 48.1527 13.9876 48.7259 15.0125C49.2696 15.9855 49.7582 16.9886 50.1892 18.017C50.4682 18.7306 50.7071 19.4592 50.9048 20.1996C51.0634 20.7456 51.1725 21.3062 51.299 21.8625C51.4044 22.3338 51.485 22.8104 51.5405 23.2903C51.6088 23.8743 51.715 24.4582 51.7354 25.0524C51.7368 25.2758 51.7296 25.4948 51.7296 25.7152V25.7196ZM36.0899 45.1367C36.0899 44.8213 36.103 44.5819 36.0899 44.3454C36.0768 44.1089 36.0099 43.8519 35.9881 43.6023C35.9124 42.7541 35.6244 41.9686 35.2884 41.1963C34.9758 40.4862 34.566 39.8233 34.0709 39.2269C33.6583 38.7142 33.1926 38.2468 32.6818 37.8327C31.9574 37.2445 31.1449 36.7749 30.2745 36.4413C29.3099 36.0656 28.2912 35.8487 27.2577 35.799C26.7536 35.7797 26.2489 35.81 25.7507 35.8895C25.2396 35.9544 24.7346 36.0613 24.2409 36.2092C23.2546 36.5494 22.3106 36.9684 21.4873 37.6356C20.9651 38.0589 20.9448 38.0297 21.3084 38.5685C22.042 39.6559 22.5719 40.8685 22.8721 42.1467C22.9666 42.5482 23.0365 42.9497 23.0961 43.357C23.2185 44.0288 23.2861 44.7094 23.2983 45.3922C23.2958 45.898 23.2671 46.4033 23.2125 46.9061C23.147 47.458 23.0859 48.0098 22.9666 48.5515C22.7123 49.7797 22.253 50.9559 21.6081 52.0305C21.4379 52.3079 21.4393 52.3823 21.6735 52.54C22.3178 52.9964 23.0179 53.3678 23.7565 53.6452C24.8516 54.0391 26.0071 54.2367 27.1704 54.2291C27.6911 54.2204 28.1886 54.0904 28.705 54.0174C29.8556 53.8361 30.9514 53.3991 31.9123 52.7385C32.8063 52.1512 33.5935 51.4144 34.2397 50.5603C34.86 49.7455 35.3399 48.8321 35.6593 47.858C35.9546 46.9543 36.1437 46.0258 36.0899 45.1381V45.1367ZM11.2703 8.24278C11.2703 8.66324 11.2703 9.08517 11.2703 9.50563C11.2725 9.64415 11.2389 9.78087 11.1729 9.90256C11.107 10.0242 11.0108 10.1268 10.8937 10.2002C10.7767 10.2736 10.6427 10.3155 10.5048 10.3217C10.3669 10.3279 10.2298 10.2982 10.1067 10.2356C9.61793 10.0137 9.13064 9.78739 8.64045 9.56548C7.90734 9.23456 7.17326 8.90462 6.43821 8.57565C6.38005 8.55761 6.32002 8.54635 6.2593 8.54207C6.2593 8.61215 6.24184 8.69975 6.2753 8.74792C6.47748 9.03991 6.70149 9.33189 6.90222 9.62388C7.24114 10.1305 7.58443 10.6342 7.89862 11.1553C8.31846 11.8669 8.64087 12.632 8.85718 13.4299C8.92264 13.6606 8.98373 13.608 9.1481 13.5365C9.70375 13.2956 10.2609 13.0503 10.8354 12.8576C11.6077 12.5869 12.4056 12.3961 13.2166 12.2883C13.9245 12.1805 14.6379 12.1127 15.3534 12.0853C16.1238 12.1049 16.8923 12.1722 17.6545 12.2868C18.4096 12.3946 19.1542 12.5671 19.88 12.8021C20.5047 13.0145 21.117 13.2616 21.7142 13.5423C21.8292 13.592 21.8393 13.5818 21.8801 13.465C22.0706 12.9262 22.2641 12.3875 22.4866 11.859C22.788 11.1857 23.1647 10.5489 23.6096 9.96112C23.9005 9.5538 24.1914 9.14356 24.4823 8.72748C24.5143 8.68222 24.4823 8.59171 24.4823 8.52163C24.4363 8.5305 24.391 8.5432 24.347 8.55959C23.1717 9.08809 21.9974 9.61804 20.824 10.1495C20.7251 10.1947 20.6364 10.2619 20.5331 10.2954C20.0749 10.4575 19.4771 10.0677 19.48 9.58884C19.48 8.2749 19.4131 6.94637 19.6851 5.63389C19.8858 4.66303 20.1404 3.72576 20.6757 2.88192C20.7819 2.71549 20.8837 2.54613 20.9826 2.37532C20.9986 2.34758 21.003 2.28481 20.9826 2.27459C20.9433 2.24831 20.8764 2.21327 20.8371 2.22933C20.3586 2.47606 19.8786 2.72279 19.4058 2.98265C18.6681 3.40816 18.0096 3.95894 17.4596 4.61048C16.7541 5.4149 16.3163 6.34342 16.2959 7.43836C16.3009 7.69054 16.2681 7.94203 16.1985 8.18439C16.053 8.62237 15.717 8.93625 15.3257 8.89683C14.9039 8.85596 14.6333 8.56251 14.5417 8.13037C14.4588 7.73765 14.5111 7.32741 14.421 6.95221C14.13 5.74046 13.5919 4.68639 12.5809 3.88635C11.7764 3.25226 10.9018 2.71339 9.97431 2.28043C9.91169 2.26083 9.84644 2.25098 9.78085 2.25123C9.79103 2.31401 9.78084 2.39722 9.81284 2.43956C10.3223 3.15591 10.6848 3.96682 10.8791 4.82509C11.125 5.70619 11.257 6.61542 11.2718 7.53034C11.2689 7.76831 11.2703 8.00482 11.2703 8.24278Z" fill="#1C2640"/>
<path d="M18.0506 21.2429C18.0542 21.3521 18.0343 21.4609 17.9921 21.5617C17.9499 21.6625 17.8865 21.753 17.8062 21.8268C17.1924 22.4502 16.5756 23.0736 15.9516 23.6868C15.6883 23.9452 15.0483 23.9423 14.7879 23.6868C14.1625 23.0726 13.5443 22.4522 12.9333 21.8254C12.8113 21.7028 12.7281 21.5467 12.6945 21.3768C12.6608 21.2068 12.6781 21.0307 12.7443 20.8706C12.9043 20.3757 13.6912 20.1056 14.2192 20.6005C14.5799 20.9363 14.9203 21.294 15.2636 21.6458C15.3465 21.7305 15.409 21.7246 15.4803 21.6458C15.8251 21.2925 16.1552 20.9158 16.5305 20.6049C16.7836 20.3903 17.0731 20.2326 17.46 20.4063C17.8949 20.599 18.0651 20.7815 18.0506 21.2429Z" fill="#1C2640"/>
<path d="M16.4067 26.3389C16.2947 25.8557 16.7863 25.498 17.3434 25.5608C17.5763 25.5782 17.7932 25.6867 17.9471 25.863C18.2307 26.1725 18.5289 26.463 18.8329 26.7565C19.0293 26.9477 19.038 26.9492 19.2242 26.7682C19.5369 26.463 19.8409 26.1477 20.1522 25.8397C20.494 25.5009 21.1006 25.4455 21.3973 25.7083C21.7217 26.0002 21.7799 26.6791 21.4599 27.0456C21.3144 27.2105 21.1544 27.358 21.0002 27.5127C20.6017 27.9142 20.1784 28.2923 19.8104 28.7201C19.713 28.83 19.5934 28.918 19.4597 28.9783C19.3259 29.0386 19.181 29.0697 19.0344 29.0697C18.8878 29.0697 18.7428 29.0386 18.6091 28.9783C18.4753 28.918 18.3558 28.83 18.2583 28.7201C17.7871 28.1887 17.2605 27.7084 16.7616 27.2018C16.4387 26.8791 16.4067 26.7828 16.4067 26.3389Z" fill="#1C2640"/>
<path d="M20.0768 21.2034C20.0622 20.7654 20.3139 20.5596 20.6426 20.3946C20.9713 20.2296 21.2768 20.3435 21.527 20.5786C21.8717 20.9027 22.1976 21.2501 22.5365 21.583C22.7474 21.7918 22.7547 21.7918 22.9729 21.583C23.2987 21.2618 23.6129 20.9304 23.9416 20.6151C24.3954 20.1771 24.9249 20.215 25.2856 20.726C25.5082 21.0414 25.5038 21.5348 25.13 21.9422C24.8827 22.2108 24.6165 22.4619 24.3591 22.7203C24.1016 22.9787 23.8296 23.2269 23.5896 23.4999C23.3945 23.7163 23.1278 23.8543 22.839 23.8882C22.6317 23.906 22.4257 23.841 22.2659 23.7072C21.5779 23.0546 20.9103 22.3787 20.2557 21.691C20.1393 21.5786 20.132 21.3699 20.0768 21.2034Z" fill="#1C2640"/>
<path d="M8.96874 26.3205C8.97356 26.1688 9.02237 26.0219 9.10919 25.8977C9.196 25.7734 9.31704 25.6773 9.45747 25.6212C9.77894 25.4752 10.1077 25.4752 10.3826 25.7423C10.7201 26.0737 11.0488 26.4154 11.3877 26.7468C11.5943 26.9512 11.6015 26.9497 11.8241 26.738C12.0975 26.4709 12.3783 26.2081 12.6314 25.9219C12.836 25.7181 13.097 25.5807 13.3805 25.5277C13.4993 25.516 13.619 25.5372 13.7267 25.589C14.3492 25.8066 14.5412 26.4942 14.0976 26.9774C13.6903 27.4154 13.2525 27.833 12.8277 28.2593C12.6357 28.4534 12.4481 28.652 12.2459 28.8432C11.8197 29.2418 11.4153 29.1776 11.0939 28.8681C10.4524 28.2476 9.82839 27.6081 9.20292 26.9701C9.11556 26.8881 9.0488 26.7865 9.0081 26.6735C8.9674 26.5606 8.9539 26.4396 8.96874 26.3205Z" fill="#1C2640"/>
<path d="M40.6877 37.4828C40.6877 37.8755 40.5088 38.2653 40.2513 38.3076C39.8964 38.3675 39.524 38.4536 39.2186 38.1237C38.8302 37.7135 38.3982 37.3426 38.0316 36.9163C37.556 36.3645 37.6752 35.9688 38.0796 35.6024C38.4287 35.2871 38.8505 35.2593 39.1938 35.5747C39.6302 35.9834 40.052 36.4185 40.468 36.8506C40.5498 36.9325 40.6121 37.0319 40.6501 37.1414C40.6882 37.2509 40.701 37.3676 40.6877 37.4828Z" fill="#1C2640"/>
<path d="M41.8614 30.8556C41.9493 30.8642 42.0354 30.8854 42.1174 30.9183C42.5916 31.1286 43.0672 31.3403 43.5298 31.5724C43.7078 31.6595 43.8662 31.7822 43.9953 31.933C44.4316 32.4615 44.1204 33.0834 43.5458 33.2557C43.3345 33.3114 43.1112 33.2992 42.9072 33.2206C42.3756 33.006 41.856 32.7623 41.3508 32.4907C41.1615 32.3877 41.009 32.2279 40.9145 32.0337C40.6366 31.4162 41.0497 30.8468 41.8614 30.8556Z" fill="#1C2640"/>
<path d="M41.2287 20.8184C41.231 20.6382 41.2879 20.4629 41.3918 20.3158C41.4958 20.1688 41.6418 20.0569 41.8105 19.995C42.3298 19.8082 42.8491 19.6184 43.3785 19.468C43.5903 19.4169 43.8111 19.4169 44.0229 19.468C44.4855 19.5687 44.804 20.4038 44.3822 20.8272C44.2497 20.975 44.0863 21.0917 43.9036 21.1688C43.3829 21.3484 42.8331 21.4477 42.3269 21.6564C41.9996 21.7907 41.7625 21.6842 41.5327 21.5323C41.4202 21.4541 41.332 21.3456 41.2782 21.2193C41.2245 21.093 41.2073 20.9541 41.2287 20.8184Z" fill="#1C2640"/>
<path d="M43.9084 27.2362C43.6174 27.2362 43.3265 27.2464 43.0356 27.2362C42.5047 27.2143 42.2923 26.9938 42.0727 26.5398C41.9098 26.2055 42.1396 26.0274 42.2181 25.7938C42.2651 25.6945 42.341 25.6121 42.4359 25.5573C42.5308 25.5025 42.64 25.478 42.749 25.4872C43.4763 25.4711 44.1934 25.4375 44.9062 25.5938C45.3629 25.6945 45.6553 26.4201 45.4066 26.8245C45.2378 27.1019 45.0182 27.2785 44.6647 27.2464C44.4131 27.223 44.1556 27.2464 43.9011 27.2464L43.9084 27.2362Z" fill="#1C2640"/>
<path d="M29.643 39.2123C29.6468 39.4447 29.5586 39.669 29.3976 39.836C29.2367 40.003 29.0162 40.099 28.7847 40.1029C28.5533 40.1068 28.3298 40.0182 28.1634 39.8566C27.997 39.6951 27.9013 39.4738 27.8975 39.2415C27.8975 38.7919 28.3484 38.3247 28.7702 38.3203C29.0035 38.3234 29.2261 38.4189 29.3896 38.5859C29.5531 38.753 29.6441 38.9782 29.643 39.2123Z" fill="#1C2640"/>
</g>
<defs>
<clipPath id="clip0_5439_23514">
<rect width="56" height="56" fill="white"/>
</clipPath>
</defs>
</svg>
