<svg width="42" height="56" viewBox="0 0 42 56" fill="none" xmlns="http://www.w3.org/2000/svg">
<g clip-path="url(#clip0_5439_23529)">
<path d="M0.00395825 34.1475C0.00395825 27.7887 0.00395825 21.4307 0.00395825 15.0734C-0.0108259 14.6409 0.0979178 14.213 0.317854 13.8382C0.669598 13.2534 1.00799 12.6599 1.35305 12.0729L2.33704 10.3996C2.67543 9.82582 3.01456 9.25345 3.35443 8.68255L4.33619 7.00928C4.34845 6.97461 4.36489 6.94152 4.38517 6.91072C4.79035 6.45298 4.8037 5.90763 4.79035 5.336C4.76809 4.26063 4.77476 3.18527 4.79035 2.10991C4.79935 1.71569 4.8373 1.32263 4.90388 0.933799C4.97512 0.495768 5.57175 0.0336416 6.0593 0.00516958C6.15057 0.00516958 6.24407 0.00516958 6.33535 0.00516958C16.1085 0.00516958 25.8809 0.00516958 35.6525 0.00516958C35.9458 -0.00634666 36.2368 0.0610488 36.494 0.200096C36.6552 0.294223 36.7941 0.421032 36.9016 0.572084C37.0091 0.723136 37.0827 0.894969 37.1174 1.07616C37.2117 1.53576 37.2453 2.0054 37.2176 2.47347C37.2176 3.58607 37.2176 4.69648 37.2176 5.80907C37.2053 6.11407 37.2944 6.41471 37.4714 6.66542C37.8187 7.16697 38.1014 7.71231 38.4131 8.23795C38.767 8.84243 39.1255 9.44473 39.4817 10.047C39.7933 10.5748 40.1005 11.1027 40.4122 11.6283C40.7684 12.2328 41.1313 12.8329 41.4808 13.4396C41.8109 13.957 41.9932 14.5525 42.0084 15.1632C41.9906 24.5633 41.9906 33.9642 42.0084 43.3658C42.0138 43.689 41.9764 44.0114 41.8971 44.3251C41.7769 44.7828 41.5342 44.9821 40.9042 44.9361C40.459 44.9033 40.2363 44.647 40.2252 44.1783C40.2252 44.0316 40.2252 43.8871 40.2252 43.7403V16.0349C40.2252 15.4216 40.2252 15.4217 39.6197 15.4217H32.8275C32.4201 15.4217 32.4312 15.4041 32.4356 15.8071V53.6814C32.4356 54.3385 32.4356 54.3385 33.1035 54.3385C35.1591 54.3385 37.2139 54.3385 39.2679 54.3385C39.446 54.3385 39.6241 54.2837 39.8045 54.2662C40.105 54.2377 40.1896 54.0472 40.2029 53.7865C40.2029 53.6792 40.2029 53.5675 40.2029 53.4602V48.2038C40.2085 48.1309 40.2085 48.0577 40.2029 47.9848C40.1139 47.4132 40.5792 46.9993 41.2871 47.1088C41.3873 47.117 41.4834 47.1514 41.5656 47.2084C41.6478 47.2654 41.713 47.3429 41.7546 47.4329C41.8958 47.6837 41.9758 47.9634 41.9884 48.2498C41.9884 50.0173 41.9884 51.7847 41.9772 53.5522C41.9591 53.8897 41.9053 54.2244 41.817 54.5509C41.6455 55.3372 40.7038 55.9942 39.8668 55.992C27.2827 55.9716 14.6971 55.9716 2.10997 55.992C1.14601 55.992 0.175378 55.1006 0.0841026 54.1742C0.00395838 53.377 0.00840948 52.5863 0.00618325 51.7935C-0.00123751 45.9151 -0.00197836 40.0331 0.00395825 34.1475ZM20.5565 7.2261H6.84515C6.71603 7.2261 6.58691 7.2261 6.45556 7.2261C6.40285 7.22048 6.34972 7.232 6.30429 7.25889C6.25886 7.28579 6.22363 7.32658 6.204 7.37504C5.87007 7.95105 5.51164 8.50953 5.17103 9.08116C4.83042 9.65279 4.48981 10.266 4.14251 10.853C3.66833 11.659 3.17856 12.4562 2.71105 13.2622C2.48843 13.652 2.48843 13.6651 2.93367 13.6673C4.13806 13.6673 5.34022 13.6673 6.54239 13.6673C6.67391 13.6749 6.80166 13.7134 6.91485 13.7797C7.02805 13.8461 7.12338 13.9382 7.19279 14.0483C7.2622 14.1585 7.30366 14.2835 7.31368 14.4127C7.32369 14.5419 7.30196 14.6716 7.25033 14.7909C7.0277 15.2683 6.62921 15.4151 6.13721 15.4173H2.35263C1.76045 15.4173 1.76045 15.4173 1.76045 15.9867V31.5587C1.76045 31.6507 1.76045 31.7427 1.76045 31.8325C1.76045 32.1325 1.76045 32.1522 2.06099 32.1391C2.71647 32.1416 3.3689 32.227 4.00226 32.3931C5.37584 32.6757 6.63812 33.2889 7.86477 33.9547C8.86657 34.5001 9.86837 35.0498 10.9815 35.3696C11.7615 35.6072 12.5716 35.7362 13.388 35.7528C13.6255 35.7263 13.8661 35.7564 14.0893 35.8404C14.2028 35.8952 14.3743 35.8404 14.519 35.8163C14.6637 35.7923 14.7661 35.7594 14.8907 35.755C15.3649 35.7309 15.8347 35.7287 16.3111 35.6587C17.2442 35.5323 18.1516 35.2634 19.0004 34.8614C19.8908 34.4234 20.7569 33.9131 21.6451 33.4597C22.4599 33.0301 23.3259 32.702 24.2231 32.4829C25.1754 32.2376 26.1573 32.1212 27.1417 32.1369C27.7338 32.161 28.326 32.1259 28.9226 32.15C29.3398 32.1668 29.755 32.2144 30.1649 32.2924C30.6435 32.3844 30.6391 32.4041 30.6435 31.9157V16.0152C30.6435 15.4173 30.6435 15.4173 30.0246 15.4173C23.6012 15.4173 17.18 15.4173 10.7611 15.4173C10.4882 15.4214 10.2166 15.3807 9.95742 15.2968C9.85219 15.2571 9.75631 15.1967 9.67571 15.1192C9.5951 15.0418 9.53147 14.9489 9.48872 14.8463C9.44596 14.7437 9.425 14.6336 9.42712 14.5228C9.42924 14.4119 9.4544 14.3027 9.50104 14.2017C9.57322 14.0271 9.70152 13.8806 9.86635 13.7845C10.0312 13.6884 10.2235 13.648 10.4138 13.6695C16.1693 13.6827 21.9249 13.6827 27.6804 13.6695C28.66 13.6695 29.6417 13.6695 30.6213 13.6695C30.7295 13.6912 30.8422 13.6725 30.9372 13.6171C31.0322 13.5616 31.1029 13.4734 31.1355 13.3695C31.2292 13.1758 31.3371 12.9892 31.4583 12.811C31.9036 12.0663 32.3266 11.3195 32.7651 10.577C32.9877 10.1894 33.2282 9.8061 33.4575 9.42064C33.8716 8.72417 34.2819 8.02697 34.6886 7.32904C34.7019 7.30933 34.6641 7.23048 34.6463 7.22829C34.4994 7.22829 34.3502 7.22829 34.201 7.22829L20.5565 7.2261ZM16.4113 54.3385C20.9646 54.3385 25.5173 54.3385 30.0692 54.3385C30.7548 54.3385 30.6524 54.4392 30.6524 53.7646C30.6524 47.4263 30.6524 41.0873 30.6524 34.7476C30.6747 34.5532 30.6527 34.3564 30.5879 34.1715C30.5456 34.0927 30.2829 34.1343 30.1204 34.1124C30.0692 34.1124 30.0224 34.0642 29.969 34.0533C29.7091 33.9784 29.442 33.9307 29.172 33.9109C27.8184 33.9372 26.4627 33.8058 25.1113 34.1036C24.1197 34.315 23.1634 34.663 22.2707 35.1374C21.2333 35.6959 20.2248 36.3069 19.1206 36.7406C17.9594 37.2005 16.7269 37.462 15.4762 37.5137C15.0956 37.529 14.7037 37.4305 14.3364 37.6057C14.1174 37.5116 13.8763 37.479 13.6396 37.5115C12.9292 37.5174 12.2202 37.4484 11.5247 37.3056C10.5449 37.1272 9.59492 36.8162 8.70183 36.3814C7.39726 35.7441 6.10605 35.0783 4.79257 34.4585C4.01785 34.0927 3.15852 34.0029 2.31701 33.9153C1.70257 33.854 1.78494 33.8321 1.78494 34.4168C1.78494 40.7741 1.78494 47.1321 1.78494 53.4909C1.78494 53.6004 1.78494 53.7099 1.78494 53.8194C1.78824 53.9231 1.82692 54.0227 1.89477 54.1022C1.96261 54.1816 2.05567 54.2363 2.15894 54.2574C2.35207 54.3116 2.55269 54.3352 2.75335 54.3275L16.4113 54.3385ZM21.004 5.57911H34.7665C34.8956 5.57911 35.027 5.57911 35.1561 5.57911C35.421 5.57911 35.4277 5.56816 35.4299 5.30096C35.4299 4.28035 35.4299 3.25974 35.4299 2.23475C35.4299 1.64341 35.4299 1.64341 34.8066 1.64341H6.83402C6.5691 1.64341 6.56242 1.65435 6.5602 1.92155C6.5602 2.95968 6.5602 3.99782 6.5602 5.03595C6.5602 5.57254 6.5602 5.57254 7.12789 5.57254L21.004 5.57911ZM36.267 13.6695H36.9348C37.694 13.6695 38.4531 13.6695 39.2123 13.6695C39.446 13.6695 39.4661 13.6345 39.3481 13.4155C39.1366 13.0212 38.9206 12.627 38.6913 12.2394C38.3641 11.6831 38.0235 11.1443 37.6895 10.577C37.2443 9.83458 36.8258 9.08554 36.3916 8.34089C36.3204 8.21605 36.2202 8.21605 36.1468 8.34089C35.7015 9.10087 35.2563 9.874 34.811 10.623C34.4481 11.2428 34.0741 11.8583 33.7113 12.4759C33.5198 12.8022 33.3373 13.1329 33.1503 13.4615C33.0723 13.5951 33.1124 13.663 33.266 13.6695C33.3573 13.6695 33.4508 13.6695 33.5421 13.6695H36.267Z" fill="#1C2640"/>
<path d="M17.2213 28.0485C17.2213 28.9968 17.2213 29.9429 17.2213 30.8956C17.2213 31.084 17.2993 31.3008 17.0944 31.4519C16.9881 31.5242 16.868 31.5744 16.7413 31.5997C16.6146 31.6249 16.4841 31.6245 16.3576 31.5987C16.0058 31.5483 15.8901 31.3797 15.8878 30.9964C15.8878 29.8488 15.8878 28.7011 15.8878 27.5535C15.8878 27.4615 15.8878 27.3717 15.8878 27.2797C15.8821 27.2454 15.8731 27.2117 15.8611 27.179C15.8297 27.2033 15.8013 27.2313 15.7765 27.2622L15.1309 28.3857C15.0152 28.5894 14.9083 28.7975 14.7769 28.9902C14.5387 29.3406 14.2827 29.3844 13.9711 29.1041C13.8146 28.9526 13.6818 28.7792 13.577 28.5894C13.341 28.1864 13.1318 27.7725 12.9091 27.3629C12.8936 27.3323 12.8735 27.3016 12.8557 27.2731C12.8288 27.3101 12.8092 27.3517 12.7978 27.3958C12.7978 28.4339 12.7978 29.4721 12.7978 30.5102C12.7978 30.6372 12.7978 30.7664 12.7978 30.8935C12.8379 31.3775 12.6309 31.5636 12.0721 31.6009C11.9755 31.6088 11.8783 31.596 11.7873 31.5633C11.6963 31.5305 11.6136 31.4787 11.545 31.4114C11.4763 31.3441 11.4234 31.2629 11.3899 31.1735C11.3564 31.084 11.343 30.9885 11.3508 30.8935C11.3508 29.8553 11.3508 28.8172 11.3508 27.7791V25.4838C11.3508 25.3918 11.3508 25.2998 11.3508 25.21C11.3753 24.772 11.5734 24.4413 11.8361 24.3887C12.3726 24.288 12.7912 24.4478 13.0227 24.8508C13.4256 25.5539 13.833 26.2525 14.2159 26.9665C14.3117 27.1439 14.3651 27.0826 14.4207 26.9797C14.699 26.4759 14.9706 25.9678 15.2422 25.4597C15.415 25.101 15.6552 24.7778 15.9502 24.507C16.1728 24.3186 16.9052 24.3361 17.0833 24.5442C17.2048 24.7046 17.2619 24.9035 17.2436 25.1027C17.2169 26.0817 17.2213 27.0651 17.2213 28.0485Z" fill="#1C2640"/>
<path d="M25.5593 27.8855C25.5593 26.992 25.5593 26.0984 25.5593 25.207C25.5515 25.0976 25.5515 24.9878 25.5593 24.8785C25.6105 24.5193 25.7641 24.3923 26.1426 24.3835C26.2739 24.3835 26.403 24.3835 26.5321 24.3835C26.5966 24.38 26.6611 24.3903 26.7211 24.4137C26.7811 24.4371 26.8352 24.4731 26.8797 24.5191C26.9242 24.5652 26.9579 24.6202 26.9787 24.6803C26.9994 24.7405 27.0065 24.8044 26.9997 24.8675C26.9997 25.5596 26.9997 26.2517 26.9997 26.9438C26.9952 26.9984 26.9952 27.0534 26.9997 27.108C26.9997 27.1365 27.033 27.1628 27.0486 27.1913L27.1065 27.1037C27.6252 26.4116 28.1417 25.7173 28.6649 25.0274C28.7517 24.9113 28.8519 24.8084 28.9476 24.6967C29.0433 24.585 29.1168 24.4273 29.2281 24.401C29.4075 24.3678 29.5927 24.3822 29.7646 24.4426C29.9147 24.4883 30.0427 24.5862 30.1247 24.718C30.2066 24.8499 30.2369 25.0066 30.2099 25.1588C30.2017 25.2467 30.1694 25.3307 30.1164 25.4019C29.6103 26.0181 29.1012 26.6299 28.5892 27.2373C28.3933 27.4716 28.3866 27.4563 28.5714 27.7432C29.07 28.49 29.5732 29.2347 30.0696 29.9837C30.1898 30.1633 30.2922 30.3517 30.4102 30.5334C30.6952 30.9715 30.5638 31.3854 30.0718 31.5628C29.921 31.6334 29.7485 31.6446 29.5896 31.5941C29.4306 31.5436 29.2973 31.4353 29.217 31.2912C28.6671 30.4699 28.115 29.6486 27.5785 28.8186C27.5006 28.7003 27.4805 28.6411 27.367 28.7704C27.2359 28.895 27.1338 29.046 27.0677 29.2131C27.0016 29.3802 26.9731 29.5594 26.9841 29.7384C27.0219 30.137 26.9841 30.54 26.9841 30.9408C26.9841 31.4905 26.7837 31.5059 26.3162 31.5979C26.226 31.6101 26.1342 31.604 26.0465 31.58C25.9588 31.5561 25.877 31.5147 25.8061 31.4585C25.7352 31.4023 25.6767 31.3325 25.6343 31.2532C25.5918 31.174 25.5663 31.0871 25.5593 30.9978C25.5492 30.8702 25.5492 30.742 25.5593 30.6145C25.5593 29.7056 25.5593 28.8076 25.5593 27.8855Z" fill="#1C2640"/>
<path d="M20.7728 27.9112C20.7728 26.93 20.7728 25.94 20.7728 24.9654C20.7728 24.5274 20.9086 24.3916 21.3628 24.3828C21.4563 24.3828 21.5476 24.3828 21.6411 24.3828C22.0129 24.3828 22.1709 24.5252 22.2154 24.8865C22.2232 25.0135 22.2232 25.1407 22.2154 25.2676C22.2154 26.8737 22.2154 28.474 22.2154 30.0684C22.2154 30.3882 22.2154 30.3926 22.5516 30.3948C23.1594 30.3948 23.7694 30.4079 24.3793 30.3948C24.498 30.3762 24.6195 30.3953 24.7264 30.4492C24.8333 30.5032 24.9199 30.5892 24.9737 30.6948C25.0109 30.8435 25.01 30.999 24.9712 31.1473C24.9323 31.2956 24.8567 31.4321 24.7511 31.5446C24.6724 31.5877 24.5829 31.6082 24.4929 31.6038C23.4577 31.6038 22.4247 31.6038 21.3895 31.6038C20.9576 31.6038 20.7639 31.4023 20.7617 30.9708C20.7684 29.948 20.7728 28.9296 20.7728 27.9112Z" fill="#1C2640"/>
<path d="M19.666 27.9551C19.666 28.9363 19.666 29.9263 19.666 30.8987C19.666 31.087 19.7417 31.3017 19.5347 31.4506C19.4284 31.522 19.3085 31.5715 19.1823 31.5963C19.0561 31.6212 18.9261 31.6208 18.8 31.5952C18.7309 31.5942 18.6628 31.5785 18.6003 31.5493C18.5379 31.52 18.4826 31.4779 18.4382 31.4257C18.3939 31.3735 18.3614 31.3125 18.3432 31.2469C18.325 31.1813 18.3213 31.1126 18.3325 31.0454C18.3325 29.013 18.3325 26.9791 18.3325 24.9437C18.3325 24.5363 18.4839 24.394 18.8913 24.383C19.0018 24.3775 19.1125 24.3775 19.223 24.383C19.5703 24.4137 19.6683 24.5122 19.6683 24.8473C19.6683 25.8833 19.666 26.9192 19.666 27.9551Z" fill="#1C2640"/>
</g>
<defs>
<clipPath id="clip0_5439_23529">
<rect width="42" height="56" fill="white"/>
</clipPath>
</defs>
</svg>
